G04 #@! TF.GenerationSoftware,KiCad,Pcbnew,(6.0.1)*
G04 #@! TF.CreationDate,2022-07-28T15:49:31+09:00*
G04 #@! TF.ProjectId,Fc_stm32,46635f73-746d-4333-922e-6b696361645f,rev?*
G04 #@! TF.SameCoordinates,Original*
G04 #@! TF.FileFunction,Copper,L2,Bot*
G04 #@! TF.FilePolarity,Positive*
%FSLAX46Y46*%
G04 Gerber Fmt 4.6, Leading zero omitted, Abs format (unit mm)*
G04 Created by KiCad (PCBNEW (6.0.1)) date 2022-07-28 15:49:31*
%MOMM*%
%LPD*%
G01*
G04 APERTURE LIST*
G04 Aperture macros list*
%AMRoundRect*
0 Rectangle with rounded corners*
0 $1 Rounding radius*
0 $2 $3 $4 $5 $6 $7 $8 $9 X,Y pos of 4 corners*
0 Add a 4 corners polygon primitive as box body*
4,1,4,$2,$3,$4,$5,$6,$7,$8,$9,$2,$3,0*
0 Add four circle primitives for the rounded corners*
1,1,$1+$1,$2,$3*
1,1,$1+$1,$4,$5*
1,1,$1+$1,$6,$7*
1,1,$1+$1,$8,$9*
0 Add four rect primitives between the rounded corners*
20,1,$1+$1,$2,$3,$4,$5,0*
20,1,$1+$1,$4,$5,$6,$7,0*
20,1,$1+$1,$6,$7,$8,$9,0*
20,1,$1+$1,$8,$9,$2,$3,0*%
G04 Aperture macros list end*
G04 #@! TA.AperFunction,ComponentPad*
%ADD10R,1.700000X1.700000*%
G04 #@! TD*
G04 #@! TA.AperFunction,ComponentPad*
%ADD11O,1.700000X1.700000*%
G04 #@! TD*
G04 #@! TA.AperFunction,ComponentPad*
%ADD12R,1.000000X1.000000*%
G04 #@! TD*
G04 #@! TA.AperFunction,ComponentPad*
%ADD13O,1.000000X1.000000*%
G04 #@! TD*
G04 #@! TA.AperFunction,SMDPad,CuDef*
%ADD14RoundRect,0.237500X0.250000X0.237500X-0.250000X0.237500X-0.250000X-0.237500X0.250000X-0.237500X0*%
G04 #@! TD*
G04 #@! TA.AperFunction,SMDPad,CuDef*
%ADD15RoundRect,0.150000X-0.150000X0.587500X-0.150000X-0.587500X0.150000X-0.587500X0.150000X0.587500X0*%
G04 #@! TD*
G04 #@! TA.AperFunction,SMDPad,CuDef*
%ADD16RoundRect,0.237500X-0.250000X-0.237500X0.250000X-0.237500X0.250000X0.237500X-0.250000X0.237500X0*%
G04 #@! TD*
G04 #@! TA.AperFunction,SMDPad,CuDef*
%ADD17RoundRect,0.237500X0.300000X0.237500X-0.300000X0.237500X-0.300000X-0.237500X0.300000X-0.237500X0*%
G04 #@! TD*
G04 #@! TA.AperFunction,SMDPad,CuDef*
%ADD18RoundRect,0.150000X0.587500X0.150000X-0.587500X0.150000X-0.587500X-0.150000X0.587500X-0.150000X0*%
G04 #@! TD*
G04 #@! TA.AperFunction,SMDPad,CuDef*
%ADD19R,0.400000X1.350000*%
G04 #@! TD*
G04 #@! TA.AperFunction,SMDPad,CuDef*
%ADD20R,2.100000X2.000000*%
G04 #@! TD*
G04 #@! TA.AperFunction,SMDPad,CuDef*
%ADD21R,1.600000X1.900000*%
G04 #@! TD*
G04 #@! TA.AperFunction,SMDPad,CuDef*
%ADD22R,1.200000X1.900000*%
G04 #@! TD*
G04 #@! TA.AperFunction,SMDPad,CuDef*
%ADD23R,0.510000X1.100000*%
G04 #@! TD*
G04 #@! TA.AperFunction,SMDPad,CuDef*
%ADD24RoundRect,0.237500X0.237500X-0.300000X0.237500X0.300000X-0.237500X0.300000X-0.237500X-0.300000X0*%
G04 #@! TD*
G04 #@! TA.AperFunction,ViaPad*
%ADD25C,0.600000*%
G04 #@! TD*
G04 #@! TA.AperFunction,ViaPad*
%ADD26C,0.800000*%
G04 #@! TD*
G04 #@! TA.AperFunction,Conductor*
%ADD27C,0.200000*%
G04 #@! TD*
G04 #@! TA.AperFunction,Conductor*
%ADD28C,0.400000*%
G04 #@! TD*
G04 #@! TA.AperFunction,Conductor*
%ADD29C,0.600000*%
G04 #@! TD*
G04 APERTURE END LIST*
D10*
X1270000Y-38466000D03*
D11*
X1270000Y-35926000D03*
X1270000Y-33386000D03*
D12*
X10160000Y-21717000D03*
D13*
X10160000Y-22987000D03*
D10*
X-2540000Y-38466000D03*
D11*
X-2540000Y-35926000D03*
X-2540000Y-33386000D03*
D12*
X11277600Y-4470400D03*
D13*
X11277600Y-5740400D03*
X11277600Y-7010400D03*
X11277600Y-8280400D03*
D10*
X5080000Y-38466000D03*
D11*
X5080000Y-35926000D03*
X5080000Y-33386000D03*
D10*
X10160000Y-38466000D03*
D11*
X10160000Y-35926000D03*
X10160000Y-33386000D03*
D10*
X-6350000Y-38466000D03*
D11*
X-6350000Y-35926000D03*
X-6350000Y-33386000D03*
D10*
X-10160000Y-38466000D03*
D11*
X-10160000Y-35926000D03*
X-10160000Y-33386000D03*
D14*
X-9247500Y-30480000D03*
X-11072500Y-30480000D03*
D15*
X7940000Y-26875500D03*
X9840000Y-26875500D03*
X8890000Y-28750500D03*
D14*
X2182500Y-30480000D03*
X357500Y-30480000D03*
D16*
X7977500Y-25146000D03*
X9802500Y-25146000D03*
D17*
X3402500Y-5588000D03*
X1677500Y-5588000D03*
D16*
X-3452500Y-25146000D03*
X-1627500Y-25146000D03*
D14*
X13612500Y-25146000D03*
X11787500Y-25146000D03*
D16*
X357500Y-25146000D03*
X2182500Y-25146000D03*
D15*
X-3490000Y-26875500D03*
X-1590000Y-26875500D03*
X-2540000Y-28750500D03*
D18*
X-3761500Y-9718000D03*
X-3761500Y-11618000D03*
X-5636500Y-10668000D03*
D15*
X-7300000Y-26875500D03*
X-5400000Y-26875500D03*
X-6350000Y-28750500D03*
D14*
X9802500Y-30480000D03*
X7977500Y-30480000D03*
X-1627500Y-30480000D03*
X-3452500Y-30480000D03*
D15*
X-11110000Y-26875500D03*
X-9210000Y-26875500D03*
X-10160000Y-28750500D03*
D16*
X4167500Y-25146000D03*
X5992500Y-25146000D03*
D15*
X320000Y-26875500D03*
X2220000Y-26875500D03*
X1270000Y-28750500D03*
D18*
X-3761500Y-6289000D03*
X-3761500Y-8189000D03*
X-5636500Y-7239000D03*
D15*
X11750000Y-26875500D03*
X13650000Y-26875500D03*
X12700000Y-28750500D03*
D19*
X1300000Y-3945000D03*
X650000Y-3945000D03*
X0Y-3945000D03*
X-650000Y-3945000D03*
X-1300000Y-3945000D03*
D20*
X-3100000Y-3620000D03*
X3100000Y-3620000D03*
D21*
X4100000Y-1270000D03*
D22*
X850000Y-1270000D03*
X-850000Y-1270000D03*
D21*
X-4100000Y-1270000D03*
D23*
X-2000000Y-7102000D03*
X-1000000Y-7102000D03*
X0Y-7102000D03*
X1000000Y-7102000D03*
X2000000Y-7102000D03*
X2000000Y-12202000D03*
X1000000Y-12202000D03*
X0Y-12202000D03*
X-1000000Y-12202000D03*
X-2000000Y-12202000D03*
D16*
X11787500Y-30480000D03*
X13612500Y-30480000D03*
D14*
X5992500Y-30480000D03*
X4167500Y-30480000D03*
D15*
X4130000Y-26875500D03*
X6030000Y-26875500D03*
X5080000Y-28750500D03*
D16*
X-7262500Y-25146000D03*
X-5437500Y-25146000D03*
X-11072500Y-25146000D03*
X-9247500Y-25146000D03*
D14*
X-5437500Y-30480000D03*
X-7262500Y-30480000D03*
D24*
X3556000Y-12546500D03*
X3556000Y-10821500D03*
D25*
X11785600Y-18389600D03*
X11836400Y-20878800D03*
X10210800Y-17170400D03*
X13411200Y-11074400D03*
X10109200Y-8432800D03*
X10109200Y-10109200D03*
X12293600Y-13208000D03*
X13462000Y-13208000D03*
X11125200Y-14528800D03*
X11977060Y-15339128D03*
X8991600Y-2692400D03*
X-7264400Y-28054302D03*
X7977500Y-25019000D03*
X-10541000Y-4445000D03*
X-3454400Y-27178000D03*
X7977500Y-27074500D03*
X14224000Y-14605000D03*
X4167500Y-27074500D03*
X-11114000Y-27370000D03*
X-10668000Y-21209000D03*
X357500Y-27074500D03*
X0Y-7061200D03*
X12446000Y-17653000D03*
X-254000Y-15087600D03*
X-12700000Y-18669000D03*
X7112000Y-21590000D03*
X-14351000Y-11557000D03*
X12700000Y-39243000D03*
X-2438400Y-11074400D03*
X14351000Y-21844000D03*
X-14351000Y-33782000D03*
X-1016000Y-9652000D03*
X3556000Y-21336000D03*
X14224000Y-24003000D03*
X-12700000Y-4622800D03*
X13335000Y-22479000D03*
X6908800Y-11531600D03*
X6223000Y-16764000D03*
X14351000Y-26162000D03*
X-8331200Y-23215600D03*
X-4064000Y-17272000D03*
X-4953000Y-3048000D03*
X-12827000Y-39243000D03*
X1371600Y-8280400D03*
X-6858000Y-16891000D03*
X-7264400Y-21945600D03*
X762000Y-16764000D03*
X-11684000Y-6223000D03*
X-5207000Y-5969000D03*
X12827000Y-26162000D03*
X12649200Y-27381200D03*
X14351000Y-30480000D03*
X-14351000Y-6223000D03*
X14630400Y-5486400D03*
X3429000Y-5588000D03*
X8509000Y-1397000D03*
X-6858000Y-14122400D03*
X-9398000Y-20574000D03*
X5969000Y-13970000D03*
X3352800Y-16764000D03*
X6908800Y-7518400D03*
X-1397000Y-5207000D03*
X7112000Y-23876000D03*
X-5969000Y-635000D03*
X2921000Y-8763000D03*
X-14351000Y-16891000D03*
X6502400Y-15138400D03*
X0Y-22352000D03*
X-11684000Y-11557000D03*
X7112000Y-19304000D03*
X12319000Y-31623000D03*
X-14351000Y-22479000D03*
X11303000Y-22860000D03*
X14351000Y-33782000D03*
X-1524000Y-22352000D03*
X5384800Y-23520400D03*
X4826000Y-3048000D03*
X-2387600Y-8839200D03*
X10160000Y-20447000D03*
X-14274800Y-30734000D03*
X660400Y-8991600D03*
X4368800Y-14986000D03*
X5181600Y-9702800D03*
X-5461000Y-18288000D03*
X12065000Y-34671000D03*
X3302000Y-12573000D03*
X-8509000Y-1397000D03*
X4775200Y-20472400D03*
X12903200Y-30022800D03*
X-11938000Y-635000D03*
X10464800Y-558800D03*
X5715000Y-635000D03*
X-12801600Y-35356800D03*
X-14351000Y-24384000D03*
X10922000Y-10972800D03*
X-14351000Y-28575000D03*
X-4064000Y-14859000D03*
X-6985000Y-7239000D03*
X-5384800Y-13411200D03*
X3556000Y-22733000D03*
X4572000Y-6985000D03*
X-6731000Y-12192000D03*
X-1320800Y-11074400D03*
X13309600Y-609600D03*
X-10160000Y-22352000D03*
X-6858000Y-4445000D03*
X10033000Y-18796000D03*
X-11734800Y-15798800D03*
X1651000Y-5588000D03*
D26*
X-12852400Y-24282400D03*
D25*
X4318000Y-14097000D03*
D26*
X-2489200Y-22872940D03*
D25*
X13167300Y-15646400D03*
X9144000Y-11557000D03*
X7874000Y-6477000D03*
X7874000Y-5207000D03*
X12700000Y-28702000D03*
X-8107940Y-15367000D03*
X-8507460Y-14097000D03*
X-8906980Y-12827000D03*
X-9144000Y-11557000D03*
X-9144000Y-10287000D03*
X8426628Y-15384872D03*
X-11887200Y-20015200D03*
X-11557000Y-16764000D03*
X-9830989Y-18731095D03*
X-7203500Y-20828000D03*
X-8509000Y-3937000D03*
X-3302000Y-21071478D03*
X-2413000Y-14732000D03*
X8444500Y-16637000D03*
D27*
X14224000Y-16245911D02*
X14224000Y-14605000D01*
X11125200Y-15494000D02*
X11877111Y-16245911D01*
X11877111Y-16245911D02*
X14224000Y-16245911D01*
X11125200Y-14528800D02*
X11125200Y-15494000D01*
X8544489Y-11805327D02*
X8544489Y-3139511D01*
X10668451Y-13929289D02*
X8544489Y-11805327D01*
X11373527Y-13929289D02*
X10668451Y-13929289D01*
X11977060Y-14532822D02*
X11373527Y-13929289D01*
X11977060Y-15339128D02*
X11977060Y-14532822D01*
X8544489Y-3139511D02*
X8991600Y-2692400D01*
X9677400Y-11557000D02*
X9144000Y-11557000D01*
X13167300Y-15046900D02*
X9677400Y-11557000D01*
X13167300Y-15646400D02*
X13167300Y-15046900D01*
D28*
X11887200Y-4470400D02*
X11277600Y-4470400D01*
X14224000Y-6807200D02*
X11887200Y-4470400D01*
X14224000Y-14605000D02*
X14224000Y-6807200D01*
X3591989Y-10857489D02*
X3556000Y-10821500D01*
D29*
X-11049000Y-25122500D02*
X-11072500Y-25146000D01*
X4130000Y-26875500D02*
X4130000Y-25183500D01*
D28*
X1751500Y-10821500D02*
X3556000Y-10821500D01*
D29*
X320000Y-26875500D02*
X320000Y-25183500D01*
X7940000Y-25183500D02*
X7977500Y-25146000D01*
X320000Y-25183500D02*
X357500Y-25146000D01*
X-3490000Y-26875500D02*
X-3490000Y-25183500D01*
X-7300000Y-26875500D02*
X-7300000Y-28018702D01*
D28*
X1000000Y-11573000D02*
X1751500Y-10821500D01*
X4888489Y-10857489D02*
X3591989Y-10857489D01*
X14224000Y-14605000D02*
X14224000Y-20828000D01*
D27*
X1000000Y-12497000D02*
X416000Y-13081000D01*
X416000Y-13081000D02*
X-1524000Y-13081000D01*
D29*
X-7300000Y-26875500D02*
X-7300000Y-25183500D01*
X-10668000Y-21209000D02*
X-10668000Y-4572000D01*
X7940000Y-26875500D02*
X7940000Y-25183500D01*
D28*
X13335000Y-21717000D02*
X10160000Y-21717000D01*
X14224000Y-20828000D02*
X13335000Y-21717000D01*
X9144000Y-20701000D02*
X9144000Y-15113000D01*
D29*
X-10668000Y-21209000D02*
X-11049000Y-21590000D01*
X-3490000Y-25183500D02*
X-3452500Y-25146000D01*
X-11110000Y-25183500D02*
X-11072500Y-25146000D01*
D28*
X10160000Y-21717000D02*
X9144000Y-20701000D01*
D29*
X4130000Y-25183500D02*
X4167500Y-25146000D01*
X-7300000Y-25183500D02*
X-7262500Y-25146000D01*
X-10668000Y-4572000D02*
X-10541000Y-4445000D01*
X-11110000Y-26875500D02*
X-11110000Y-25183500D01*
X-11049000Y-21590000D02*
X-11049000Y-25122500D01*
D28*
X9144000Y-15113000D02*
X4888489Y-10857489D01*
D27*
X1000000Y-12202000D02*
X1000000Y-12497000D01*
D29*
X-7300000Y-28018702D02*
X-7264400Y-28054302D01*
D28*
X1000000Y-12202000D02*
X1000000Y-11573000D01*
D27*
X-2000000Y-12605000D02*
X-2000000Y-12202000D01*
X-1524000Y-13081000D02*
X-2000000Y-12605000D01*
X-1397000Y-5207000D02*
X-1300000Y-5110000D01*
X-1300000Y-5110000D02*
X-1300000Y-3945000D01*
D28*
X-5080000Y-33909000D02*
X-6350000Y-35179000D01*
D29*
X-2502489Y-22859651D02*
X-2502489Y-16091489D01*
D28*
X-1627500Y-30480000D02*
X-1270000Y-30837500D01*
X-2540000Y-35179000D02*
X-2540000Y-35560000D01*
X11430000Y-32107500D02*
X11430000Y-33883076D01*
X-5437500Y-30480000D02*
X-5080000Y-30837500D01*
X6350000Y-33883076D02*
X5080000Y-35153076D01*
X1270000Y-35153076D02*
X1270000Y-35560000D01*
X2519511Y-33903565D02*
X1270000Y-35153076D01*
D29*
X-508000Y-14097000D02*
X4318000Y-14097000D01*
X-2489200Y-22872940D02*
X-2502489Y-22859651D01*
D27*
X1300000Y-3945000D02*
X1300000Y-5210500D01*
D28*
X-5080000Y-30837500D02*
X-5080000Y-33909000D01*
X5080000Y-35153076D02*
X5080000Y-35560000D01*
X-8890000Y-33909000D02*
X-10160000Y-35179000D01*
X-6350000Y-35179000D02*
X-6350000Y-35560000D01*
X2519511Y-30817011D02*
X2519511Y-33903565D01*
X-1270000Y-30837500D02*
X-1270000Y-33909000D01*
X9802500Y-30480000D02*
X11430000Y-32107500D01*
X10160000Y-35153076D02*
X10160000Y-35560000D01*
D29*
X-2502489Y-16091489D02*
X-508000Y-14097000D01*
D28*
X6350000Y-30837500D02*
X6350000Y-33883076D01*
D27*
X1300000Y-5210500D02*
X1677500Y-5588000D01*
D28*
X5992500Y-30480000D02*
X6350000Y-30837500D01*
X-9247500Y-30480000D02*
X-8890000Y-30837500D01*
X-8890000Y-30837500D02*
X-8890000Y-33909000D01*
X-10160000Y-35179000D02*
X-10160000Y-35560000D01*
X-1270000Y-33909000D02*
X-2540000Y-35179000D01*
X2182500Y-30480000D02*
X2519511Y-30817011D01*
X11430000Y-33883076D02*
X10160000Y-35153076D01*
D27*
X0Y-4826000D02*
X-2000000Y-6826000D01*
X-2000000Y-6826000D02*
X-2000000Y-7102000D01*
X0Y-3945000D02*
X0Y-4826000D01*
X-1000000Y-7102000D02*
X-1000000Y-6588000D01*
X650000Y-4938000D02*
X650000Y-3945000D01*
X-1000000Y-6588000D02*
X650000Y-4938000D01*
X0Y-11366500D02*
X0Y-12202000D01*
X1382020Y-9984480D02*
X0Y-11366500D01*
X6985000Y-6477000D02*
X3477520Y-9984480D01*
X3477520Y-9984480D02*
X1382020Y-9984480D01*
X7874000Y-6477000D02*
X6985000Y-6477000D01*
X7689994Y-5207000D02*
X3312034Y-9584960D01*
X3312034Y-9584960D02*
X1216533Y-9584961D01*
X1216533Y-9584961D02*
X-1000000Y-11801494D01*
X-1000000Y-11801494D02*
X-1000000Y-12202000D01*
X7874000Y-5207000D02*
X7689994Y-5207000D01*
D28*
X357500Y-30480000D02*
X357500Y-29663000D01*
X357500Y-29663000D02*
X1270000Y-28750500D01*
X357500Y-32107500D02*
X1270000Y-33020000D01*
X357500Y-30480000D02*
X357500Y-32107500D01*
X-3452500Y-29663000D02*
X-2540000Y-28750500D01*
X-3452500Y-32107500D02*
X-2540000Y-33020000D01*
X-3452500Y-30480000D02*
X-3452500Y-32107500D01*
X-3452500Y-30480000D02*
X-3452500Y-29663000D01*
X-7262500Y-29663000D02*
X-6350000Y-28750500D01*
X-7262500Y-32107500D02*
X-6350000Y-33020000D01*
X-7262500Y-30480000D02*
X-7262500Y-32107500D01*
X-7262500Y-30480000D02*
X-7262500Y-29663000D01*
X7977500Y-30480000D02*
X7977500Y-29663000D01*
X7977500Y-30480000D02*
X7977500Y-30837500D01*
X7977500Y-30837500D02*
X10160000Y-33020000D01*
X7977500Y-29663000D02*
X8890000Y-28750500D01*
X5992500Y-26838000D02*
X6030000Y-26875500D01*
D27*
X5992500Y-25146000D02*
X4418941Y-23572441D01*
X-4238942Y-22641040D02*
X-4238942Y-20552034D01*
X-8107940Y-16683036D02*
X-8107940Y-15367000D01*
X4418941Y-23572441D02*
X-3307542Y-23572440D01*
X-3307542Y-23572440D02*
X-4238942Y-22641040D01*
X-4238942Y-20552034D02*
X-8107940Y-16683036D01*
D28*
X5992500Y-25146000D02*
X5992500Y-26838000D01*
D27*
X-8507460Y-14097000D02*
X-8707440Y-14296980D01*
D28*
X2182500Y-25146000D02*
X2182500Y-26838000D01*
D27*
X-8707440Y-16648542D02*
X-4638462Y-20717520D01*
X1008461Y-23971961D02*
X2182500Y-25146000D01*
X-3473028Y-23971960D02*
X1008461Y-23971961D01*
X-8707440Y-14296980D02*
X-8707440Y-16648542D01*
D28*
X2182500Y-26838000D02*
X2220000Y-26875500D01*
D27*
X-4638462Y-20717520D02*
X-4638462Y-22806526D01*
X-4638462Y-22806526D02*
X-3473028Y-23971960D01*
X-1627500Y-25042500D02*
X-1627500Y-25146000D01*
X-8906980Y-12827000D02*
X-9106960Y-13026980D01*
X-5037981Y-22972013D02*
X-3638514Y-24371480D01*
X-3638514Y-24371480D02*
X-2298520Y-24371480D01*
D28*
X-1627500Y-26838000D02*
X-1590000Y-26875500D01*
D27*
X-9106960Y-16814028D02*
X-5037981Y-20883007D01*
D28*
X-1627500Y-25146000D02*
X-1627500Y-26838000D01*
D27*
X-2298520Y-24371480D02*
X-1627500Y-25042500D01*
X-5037981Y-20883007D02*
X-5037981Y-22972013D01*
X-9106960Y-13026980D02*
X-9106960Y-16814028D01*
D28*
X-5437500Y-26838000D02*
X-5400000Y-26875500D01*
D27*
X-9506480Y-11919480D02*
X-9506480Y-16979514D01*
X-9506480Y-16979514D02*
X-5437500Y-21048494D01*
X-5437500Y-21048494D02*
X-5437500Y-25146000D01*
X-9144000Y-11557000D02*
X-9506480Y-11919480D01*
D28*
X-5437500Y-25146000D02*
X-5437500Y-26838000D01*
D27*
X-6604000Y-20447000D02*
X-6604000Y-22502500D01*
X-6604000Y-22502500D02*
X-9247500Y-25146000D01*
X-9906000Y-17145000D02*
X-6604000Y-20447000D01*
D28*
X-9247500Y-25146000D02*
X-9247500Y-26838000D01*
X-9247500Y-26838000D02*
X-9210000Y-26875500D01*
D27*
X-9906000Y-11049000D02*
X-9906000Y-17145000D01*
X-9144000Y-10287000D02*
X-9906000Y-11049000D01*
X7747000Y-16064500D02*
X7747000Y-23090500D01*
X7747000Y-23090500D02*
X9802500Y-25146000D01*
D28*
X9802500Y-25146000D02*
X9802500Y-26838000D01*
D27*
X8426628Y-15384872D02*
X7747000Y-16064500D01*
D28*
X9802500Y-26838000D02*
X9840000Y-26875500D01*
D27*
X-11557000Y-19685000D02*
X-11887200Y-20015200D01*
X-11557000Y-16764000D02*
X-11557000Y-19685000D01*
X-7239000Y-20828000D02*
X-9335905Y-18731095D01*
X-7203500Y-20828000D02*
X-7239000Y-20828000D01*
X-9335905Y-18731095D02*
X-9830989Y-18731095D01*
X-6731000Y-11049000D02*
X-6731000Y-8333500D01*
X-5636500Y-7239000D02*
X-5636500Y-6809500D01*
X-3302000Y-14478000D02*
X-6731000Y-11049000D01*
X-6731000Y-8333500D02*
X-5636500Y-7239000D01*
X-3302000Y-21071478D02*
X-3302000Y-14478000D01*
X-5636500Y-6809500D02*
X-8509000Y-3937000D01*
D28*
X4167500Y-30480000D02*
X4167500Y-29663000D01*
X4167500Y-30480000D02*
X4167500Y-32107500D01*
X4167500Y-32107500D02*
X5080000Y-33020000D01*
X4167500Y-29663000D02*
X5080000Y-28750500D01*
D27*
X-3761500Y-6737217D02*
X-4798520Y-7774237D01*
X2000000Y-12606022D02*
X1125503Y-13480519D01*
X-3761500Y-11844522D02*
X-3761500Y-11618000D01*
X-4798520Y-10132763D02*
X-3761500Y-11169783D01*
X-4798520Y-7774237D02*
X-4798520Y-10132763D01*
X-3761500Y-6289000D02*
X-3761500Y-6737217D01*
X1125503Y-13480519D02*
X-2125503Y-13480519D01*
X-2125503Y-13480519D02*
X-3761500Y-11844522D01*
X-3761500Y-11169783D02*
X-3761500Y-11618000D01*
X2000000Y-12202000D02*
X2000000Y-12606022D01*
X-3761500Y-9718000D02*
X-3761500Y-8189000D01*
X-3761500Y-8189000D02*
X447000Y-8189000D01*
X1000000Y-7636000D02*
X1000000Y-7102000D01*
X447000Y-8189000D02*
X1000000Y-7636000D01*
X-5636500Y-11578494D02*
X-5636500Y-10668000D01*
X-2413000Y-14732000D02*
X-2482994Y-14732000D01*
X-2482994Y-14732000D02*
X-5636500Y-11578494D01*
D28*
X-11072500Y-30480000D02*
X-11072500Y-29663000D01*
X-11072500Y-29663000D02*
X-10160000Y-28750500D01*
X-11072500Y-30480000D02*
X-11072500Y-32107500D01*
X-11072500Y-32107500D02*
X-10160000Y-33020000D01*
X11750000Y-30442500D02*
X11787500Y-30480000D01*
X11750000Y-26875500D02*
X11750000Y-30442500D01*
X11787500Y-25146000D02*
X11787500Y-26838000D01*
X11787500Y-26838000D02*
X11750000Y-26875500D01*
D27*
X8444500Y-16637000D02*
X8382000Y-16699500D01*
X8382000Y-16699500D02*
X8382000Y-22606000D01*
X10033000Y-24257000D02*
X12723500Y-24257000D01*
X8382000Y-22606000D02*
X10033000Y-24257000D01*
X12723500Y-24257000D02*
X13612500Y-25146000D01*
G04 #@! TA.AperFunction,Conductor*
G36*
X-5212379Y-274002D02*
G01*
X-5165886Y-327658D01*
X-5154500Y-380000D01*
X-5154499Y-2245066D01*
X-5152514Y-2255046D01*
X-5142881Y-2303477D01*
X-5139734Y-2319301D01*
X-5083484Y-2403484D01*
X-4999301Y-2459734D01*
X-4925067Y-2474500D01*
X-4530500Y-2474500D01*
X-4462379Y-2494502D01*
X-4415886Y-2548158D01*
X-4404500Y-2600499D01*
X-4404499Y-4645066D01*
X-4389734Y-4719301D01*
X-4333484Y-4803484D01*
X-4249301Y-4859734D01*
X-4175067Y-4874500D01*
X-3100174Y-4874500D01*
X-2024934Y-4874499D01*
X-1989182Y-4867388D01*
X-1962874Y-4862156D01*
X-1962872Y-4862155D01*
X-1950699Y-4859734D01*
X-1940379Y-4852839D01*
X-1940378Y-4852838D01*
X-1876832Y-4810377D01*
X-1866516Y-4803484D01*
X-1810266Y-4719301D01*
X-1795500Y-4645067D01*
X-1795501Y-3396000D01*
X-1775499Y-3327879D01*
X-1721843Y-3281386D01*
X-1669501Y-3270000D01*
X-1230500Y-3270000D01*
X-1162379Y-3290002D01*
X-1115886Y-3343658D01*
X-1104500Y-3396000D01*
X-1104499Y-4017749D01*
X-1104499Y-4645066D01*
X-1089734Y-4719301D01*
X-1033484Y-4803484D01*
X-949301Y-4859734D01*
X-875067Y-4874500D01*
X-854030Y-4874500D01*
X-785909Y-4894502D01*
X-739416Y-4948158D01*
X-729312Y-5018432D01*
X-758806Y-5083012D01*
X-764934Y-5089595D01*
X-1378833Y-5703495D01*
X-1441146Y-5737520D01*
X-1467929Y-5740400D01*
X-3094997Y-5740400D01*
X-3114707Y-5738849D01*
X-3142166Y-5734500D01*
X-4380834Y-5734500D01*
X-4475555Y-5749502D01*
X-4589723Y-5807674D01*
X-4680326Y-5898277D01*
X-4738498Y-6012445D01*
X-4753500Y-6107166D01*
X-4753500Y-6470834D01*
X-4743110Y-6536433D01*
X-4738498Y-6565555D01*
X-4741435Y-6566020D01*
X-4739867Y-6621069D01*
X-4776535Y-6681864D01*
X-4840250Y-6713183D01*
X-4903794Y-6705887D01*
X-4904178Y-6707068D01*
X-4910012Y-6705173D01*
X-4910783Y-6705084D01*
X-4911937Y-6704547D01*
X-4913611Y-6704003D01*
X-4922445Y-6699502D01*
X-5017166Y-6684500D01*
X-5223975Y-6684500D01*
X-5292096Y-6664498D01*
X-5334496Y-6616506D01*
X-5334721Y-6616652D01*
X-5335682Y-6615163D01*
X-5337560Y-6613038D01*
X-5339025Y-6609987D01*
X-5342456Y-6602842D01*
X-5345812Y-6598850D01*
X-5347759Y-6596903D01*
X-5349247Y-6595281D01*
X-5349482Y-6594845D01*
X-5349446Y-6594813D01*
X-5349583Y-6594658D01*
X-5352517Y-6589220D01*
X-5389394Y-6555131D01*
X-5392960Y-6551702D01*
X-7913888Y-4030774D01*
X-7947914Y-3968462D01*
X-7950585Y-3943611D01*
X-7949715Y-3937000D01*
X-7954334Y-3901918D01*
X-7967694Y-3800432D01*
X-7967695Y-3800430D01*
X-7968772Y-3792246D01*
X-7992107Y-3735910D01*
X-8021485Y-3664986D01*
X-8021486Y-3664984D01*
X-8024645Y-3657358D01*
X-8113526Y-3541526D01*
X-8120076Y-3536500D01*
X-8120079Y-3536497D01*
X-8222804Y-3457673D01*
X-8222806Y-3457672D01*
X-8229357Y-3452645D01*
X-8364246Y-3396772D01*
X-8509000Y-3377715D01*
X-8517188Y-3378793D01*
X-8645568Y-3395694D01*
X-8645570Y-3395695D01*
X-8653754Y-3396772D01*
X-8670972Y-3403904D01*
X-8781014Y-3449485D01*
X-8781016Y-3449486D01*
X-8788642Y-3452645D01*
X-8904474Y-3541526D01*
X-8993355Y-3657358D01*
X-8996514Y-3664984D01*
X-8996515Y-3664986D01*
X-9025893Y-3735910D01*
X-9049228Y-3792246D01*
X-9050305Y-3800430D01*
X-9050306Y-3800432D01*
X-9063666Y-3901918D01*
X-9068285Y-3937000D01*
X-9067207Y-3945188D01*
X-9050504Y-4072060D01*
X-9049228Y-4081754D01*
X-9040983Y-4101658D01*
X-9015864Y-4162300D01*
X-8993355Y-4216642D01*
X-8961961Y-4257556D01*
X-8911309Y-4323566D01*
X-8904474Y-4332474D01*
X-8897924Y-4337500D01*
X-8897921Y-4337503D01*
X-8816115Y-4400275D01*
X-8788643Y-4421355D01*
X-8653754Y-4477228D01*
X-8509000Y-4496285D01*
X-8503235Y-4495526D01*
X-8436201Y-4515209D01*
X-8415227Y-4532112D01*
X-6405138Y-6542201D01*
X-6371112Y-6604513D01*
X-6376177Y-6675328D01*
X-6418724Y-6732164D01*
X-6437028Y-6743562D01*
X-6455890Y-6753173D01*
X-6455891Y-6753174D01*
X-6464723Y-6757674D01*
X-6555326Y-6848277D01*
X-6613498Y-6962445D01*
X-6628500Y-7057166D01*
X-6628500Y-7420834D01*
X-6613498Y-7515555D01*
X-6608997Y-7524388D01*
X-6608996Y-7524392D01*
X-6587853Y-7565888D01*
X-6574749Y-7635665D01*
X-6601450Y-7701449D01*
X-6611024Y-7712185D01*
X-6945422Y-8046584D01*
X-6960902Y-8059086D01*
X-6964132Y-8062025D01*
X-6972882Y-8067675D01*
X-6992009Y-8091938D01*
X-6995559Y-8095933D01*
X-6995460Y-8096017D01*
X-6998818Y-8099980D01*
X-7002494Y-8103656D01*
X-7005517Y-8107885D01*
X-7005517Y-8107886D01*
X-7012854Y-8118152D01*
X-7016415Y-8122895D01*
X-7039497Y-8152175D01*
X-7039499Y-8152179D01*
X-7045946Y-8160357D01*
X-7048779Y-8168425D01*
X-7053753Y-8175385D01*
X-7056737Y-8185363D01*
X-7067420Y-8221086D01*
X-7069256Y-8226735D01*
X-7085050Y-8271708D01*
X-7085500Y-8276904D01*
X-7085500Y-8279609D01*
X-7085597Y-8281865D01*
X-7085740Y-8282341D01*
X-7085786Y-8282339D01*
X-7085799Y-8282538D01*
X-7087568Y-8288455D01*
X-7086897Y-8305523D01*
X-7085597Y-8338624D01*
X-7085500Y-8343570D01*
X-7085500Y-10997743D01*
X-7087606Y-11017537D01*
X-7087811Y-11021890D01*
X-7090003Y-11032070D01*
X-7088779Y-11042408D01*
X-7086373Y-11062737D01*
X-7086058Y-11068083D01*
X-7085928Y-11068072D01*
X-7085500Y-11073252D01*
X-7085500Y-11078451D01*
X-7084647Y-11083575D01*
X-7084646Y-11083588D01*
X-7082573Y-11096041D01*
X-7081736Y-11101916D01*
X-7076131Y-11149270D01*
X-7072430Y-11156978D01*
X-7071025Y-11165417D01*
X-7048371Y-11207401D01*
X-7045690Y-11212664D01*
X-7025045Y-11255658D01*
X-7021689Y-11259650D01*
X-7019742Y-11261597D01*
X-7018252Y-11263222D01*
X-7018019Y-11263654D01*
X-7018055Y-11263687D01*
X-7017916Y-11263845D01*
X-7014983Y-11269280D01*
X-7007336Y-11276349D01*
X-6978119Y-11303357D01*
X-6974553Y-11306786D01*
X-3693405Y-14587934D01*
X-3659379Y-14650246D01*
X-3656500Y-14677029D01*
X-3656500Y-17527000D01*
X-3676502Y-17595121D01*
X-3730158Y-17641614D01*
X-3782500Y-17653000D01*
X-5080000Y-17653000D01*
X-5080000Y-18905448D01*
X-5100002Y-18973569D01*
X-5153658Y-19020062D01*
X-5223932Y-19030166D01*
X-5288512Y-19000672D01*
X-5295095Y-18994543D01*
X-7716535Y-16573103D01*
X-7750561Y-16510791D01*
X-7753440Y-16484008D01*
X-7753440Y-15854115D01*
X-7733438Y-15785994D01*
X-7717752Y-15766530D01*
X-7712466Y-15762474D01*
X-7623585Y-15646642D01*
X-7608965Y-15611348D01*
X-7570871Y-15519380D01*
X-7567712Y-15511754D01*
X-7564042Y-15483882D01*
X-7549733Y-15375188D01*
X-7548655Y-15367000D01*
X-7567712Y-15222246D01*
X-7616182Y-15105230D01*
X-7620425Y-15094986D01*
X-7620426Y-15094984D01*
X-7623585Y-15087358D01*
X-7705043Y-14981200D01*
X-7707439Y-14978077D01*
X-7707440Y-14978076D01*
X-7712466Y-14971526D01*
X-7719016Y-14966500D01*
X-7719019Y-14966497D01*
X-7821744Y-14887673D01*
X-7821746Y-14887672D01*
X-7828297Y-14882645D01*
X-7963186Y-14826772D01*
X-7986140Y-14823750D01*
X-8035563Y-14817243D01*
X-8107940Y-14807715D01*
X-8145873Y-14812709D01*
X-8216021Y-14801770D01*
X-8269120Y-14754642D01*
X-8288310Y-14686288D01*
X-8267499Y-14618410D01*
X-8228450Y-14581617D01*
X-8227817Y-14581355D01*
X-8161817Y-14530711D01*
X-8118539Y-14497503D01*
X-8118536Y-14497500D01*
X-8111986Y-14492474D01*
X-8087256Y-14460246D01*
X-8039662Y-14398219D01*
X-8023105Y-14376642D01*
X-8019217Y-14367257D01*
X-7970391Y-14249380D01*
X-7967232Y-14241754D01*
X-7964894Y-14224000D01*
X-7949253Y-14105188D01*
X-7948175Y-14097000D01*
X-7967232Y-13952246D01*
X-8015102Y-13836678D01*
X-8019945Y-13824986D01*
X-8019947Y-13824982D01*
X-8023105Y-13817358D01*
X-8095968Y-13722401D01*
X-8106959Y-13708077D01*
X-8106960Y-13708076D01*
X-8111986Y-13701526D01*
X-8118536Y-13696500D01*
X-8118539Y-13696497D01*
X-8221264Y-13617673D01*
X-8221267Y-13617671D01*
X-8227817Y-13612645D01*
X-8362706Y-13556772D01*
X-8507460Y-13537715D01*
X-8545393Y-13542709D01*
X-8615541Y-13531770D01*
X-8668640Y-13484642D01*
X-8687830Y-13416288D01*
X-8667019Y-13348410D01*
X-8627970Y-13311617D01*
X-8627337Y-13311355D01*
X-8557680Y-13257905D01*
X-8518059Y-13227503D01*
X-8518056Y-13227500D01*
X-8511506Y-13222474D01*
X-8422625Y-13106642D01*
X-8366752Y-12971754D01*
X-8347695Y-12827000D01*
X-8366752Y-12682246D01*
X-8422625Y-12547358D01*
X-8511506Y-12431526D01*
X-8518056Y-12426500D01*
X-8518059Y-12426497D01*
X-8620784Y-12347673D01*
X-8620786Y-12347672D01*
X-8627337Y-12342645D01*
X-8762226Y-12286772D01*
X-8770414Y-12285694D01*
X-8825285Y-12278470D01*
X-8890212Y-12249747D01*
X-8929303Y-12190482D01*
X-8930148Y-12119490D01*
X-8892477Y-12059312D01*
X-8871920Y-12044488D01*
X-8864357Y-12041355D01*
X-8857804Y-12036327D01*
X-8857801Y-12036325D01*
X-8755079Y-11957503D01*
X-8755076Y-11957500D01*
X-8748526Y-11952474D01*
X-8731869Y-11930767D01*
X-8664672Y-11843193D01*
X-8659645Y-11836642D01*
X-8603772Y-11701754D01*
X-8601434Y-11684000D01*
X-8585793Y-11565188D01*
X-8584715Y-11557000D01*
X-8598429Y-11452830D01*
X-8602694Y-11420432D01*
X-8602695Y-11420430D01*
X-8603772Y-11412246D01*
X-8629764Y-11349497D01*
X-8656485Y-11284986D01*
X-8656486Y-11284984D01*
X-8659645Y-11277358D01*
X-8719056Y-11199932D01*
X-8743499Y-11168077D01*
X-8743500Y-11168076D01*
X-8748526Y-11161526D01*
X-8755076Y-11156500D01*
X-8755079Y-11156497D01*
X-8857804Y-11077673D01*
X-8857806Y-11077672D01*
X-8864357Y-11072645D01*
X-8947010Y-11038409D01*
X-9002291Y-10993861D01*
X-9024712Y-10926497D01*
X-9007154Y-10857706D01*
X-8955192Y-10809328D01*
X-8947010Y-10805591D01*
X-8864357Y-10771355D01*
X-8857804Y-10766327D01*
X-8755079Y-10687503D01*
X-8755076Y-10687500D01*
X-8748526Y-10682474D01*
X-8659645Y-10566642D01*
X-8652498Y-10549389D01*
X-8612984Y-10453994D01*
X-8603772Y-10431754D01*
X-8599866Y-10402089D01*
X-8585793Y-10295188D01*
X-8584715Y-10287000D01*
X-8603772Y-10142246D01*
X-8627274Y-10085507D01*
X-8656485Y-10014986D01*
X-8656486Y-10014984D01*
X-8659645Y-10007358D01*
X-8748526Y-9891526D01*
X-8755076Y-9886500D01*
X-8755079Y-9886497D01*
X-8857804Y-9807673D01*
X-8857806Y-9807672D01*
X-8864357Y-9802645D01*
X-8999246Y-9746772D01*
X-9007434Y-9745694D01*
X-9045071Y-9740739D01*
X-9109998Y-9712016D01*
X-9144000Y-9659794D01*
X-9144000Y-9652000D01*
X-9907000Y-9652000D01*
X-9975121Y-9631998D01*
X-10021614Y-9578342D01*
X-10033000Y-9526000D01*
X-10033000Y-4692620D01*
X-10023408Y-4644401D01*
X-10003934Y-4597387D01*
X-10000772Y-4589754D01*
X-10000212Y-4585502D01*
X-9997444Y-4578510D01*
X-9990297Y-4510514D01*
X-9989910Y-4507245D01*
X-9989393Y-4503323D01*
X-9981715Y-4445000D01*
X-9982459Y-4439352D01*
X-9982393Y-4438102D01*
X-9982460Y-4435957D01*
X-9981563Y-4427419D01*
X-9988884Y-4384130D01*
X-9992309Y-4363883D01*
X-9992995Y-4359318D01*
X-9996670Y-4331402D01*
X-10000772Y-4300246D01*
X-10003786Y-4292969D01*
X-10004874Y-4287982D01*
X-10005467Y-4286091D01*
X-10006899Y-4277623D01*
X-10032717Y-4222757D01*
X-10035118Y-4217328D01*
X-10053483Y-4172991D01*
X-10053484Y-4172989D01*
X-10056645Y-4165358D01*
X-10061676Y-4158802D01*
X-10065178Y-4152737D01*
X-10066709Y-4149808D01*
X-10067928Y-4147930D01*
X-10071585Y-4140159D01*
X-10106804Y-4099357D01*
X-10108801Y-4097044D01*
X-10113383Y-4091416D01*
X-10140500Y-4056076D01*
X-10145526Y-4049526D01*
X-10152076Y-4044500D01*
X-10157918Y-4038658D01*
X-10157715Y-4038455D01*
X-10160340Y-4035976D01*
X-10165247Y-4031650D01*
X-10170855Y-4025153D01*
X-10178007Y-4020401D01*
X-10215250Y-3995656D01*
X-10222211Y-3990683D01*
X-10261357Y-3960645D01*
X-10268991Y-3957483D01*
X-10272819Y-3955273D01*
X-10289059Y-3946619D01*
X-10290240Y-3945834D01*
X-10297395Y-3941080D01*
X-10344610Y-3925739D01*
X-10353892Y-3922315D01*
X-10388612Y-3907933D01*
X-10388620Y-3907931D01*
X-10396246Y-3904772D01*
X-10404434Y-3903694D01*
X-10406446Y-3903429D01*
X-10428936Y-3898340D01*
X-10431654Y-3897457D01*
X-10441884Y-3894133D01*
X-10487883Y-3892206D01*
X-10499046Y-3891239D01*
X-10541000Y-3885715D01*
X-10554757Y-3887526D01*
X-10576476Y-3888493D01*
X-10593674Y-3887772D01*
X-10602039Y-3889734D01*
X-10602040Y-3889734D01*
X-10634969Y-3897457D01*
X-10647289Y-3899708D01*
X-10657885Y-3901103D01*
X-10677568Y-3903694D01*
X-10677570Y-3903694D01*
X-10685754Y-3904772D01*
X-10693379Y-3907931D01*
X-10693381Y-3907931D01*
X-10701871Y-3911448D01*
X-10721318Y-3917710D01*
X-10741583Y-3922463D01*
X-10749107Y-3926599D01*
X-10749109Y-3926600D01*
X-10775606Y-3941167D01*
X-10788087Y-3947160D01*
X-10813009Y-3957483D01*
X-10813010Y-3957484D01*
X-10820642Y-3960645D01*
X-10827194Y-3965672D01*
X-10827195Y-3965673D01*
X-10837312Y-3973436D01*
X-10853310Y-3983884D01*
X-10868922Y-3992467D01*
X-10874715Y-3995652D01*
X-10880656Y-4000781D01*
X-10881140Y-4001198D01*
X-10881147Y-4001204D01*
X-10882891Y-4002710D01*
X-10901549Y-4021368D01*
X-10913940Y-4032235D01*
X-10936474Y-4049526D01*
X-10941500Y-4056076D01*
X-10953765Y-4072060D01*
X-10964632Y-4084451D01*
X-11049413Y-4169232D01*
X-11053221Y-4172885D01*
X-11099266Y-4215226D01*
X-11103789Y-4222521D01*
X-11103790Y-4222522D01*
X-11122381Y-4252506D01*
X-11129104Y-4262288D01*
X-11155630Y-4297235D01*
X-11158791Y-4305219D01*
X-11161237Y-4311396D01*
X-11171300Y-4331402D01*
X-11174794Y-4337037D01*
X-11174798Y-4337046D01*
X-11179323Y-4344344D01*
X-11181719Y-4352591D01*
X-11191565Y-4386480D01*
X-11195407Y-4397702D01*
X-11211556Y-4438490D01*
X-11212454Y-4447035D01*
X-11213148Y-4453633D01*
X-11217459Y-4475605D01*
X-11221709Y-4490235D01*
X-11222500Y-4501007D01*
X-11222500Y-4536005D01*
X-11223190Y-4549175D01*
X-11227437Y-4589581D01*
X-11224263Y-4608346D01*
X-11222500Y-4629348D01*
X-11222500Y-16113795D01*
X-11242502Y-16181916D01*
X-11296158Y-16228409D01*
X-11366432Y-16238513D01*
X-11396716Y-16230205D01*
X-11412246Y-16223772D01*
X-11557000Y-16204715D01*
X-11565188Y-16205793D01*
X-11693568Y-16222694D01*
X-11693570Y-16222695D01*
X-11701754Y-16223772D01*
X-11749570Y-16243578D01*
X-11829014Y-16276485D01*
X-11829016Y-16276486D01*
X-11836642Y-16279645D01*
X-11952474Y-16368526D01*
X-12041355Y-16484358D01*
X-12044514Y-16491984D01*
X-12044515Y-16491986D01*
X-12059339Y-16527775D01*
X-12097228Y-16619246D01*
X-12098305Y-16627430D01*
X-12098306Y-16627432D01*
X-12111336Y-16726411D01*
X-12116285Y-16764000D01*
X-12097228Y-16908754D01*
X-12041355Y-17043642D01*
X-11952474Y-17159474D01*
X-11947863Y-17163012D01*
X-11914379Y-17224332D01*
X-11911500Y-17251115D01*
X-11911500Y-19348615D01*
X-11931502Y-19416736D01*
X-11985158Y-19463229D01*
X-12021054Y-19473537D01*
X-12023768Y-19473894D01*
X-12023770Y-19473895D01*
X-12031954Y-19474972D01*
X-12039581Y-19478131D01*
X-12039580Y-19478131D01*
X-12159214Y-19527685D01*
X-12159216Y-19527686D01*
X-12166842Y-19530845D01*
X-12282674Y-19619726D01*
X-12371555Y-19735558D01*
X-12427428Y-19870446D01*
X-12446485Y-20015200D01*
X-12427428Y-20159954D01*
X-12411858Y-20197543D01*
X-12377874Y-20279586D01*
X-12371555Y-20294842D01*
X-12282674Y-20410674D01*
X-12276124Y-20415700D01*
X-12276121Y-20415703D01*
X-12182771Y-20487333D01*
X-12166843Y-20499555D01*
X-12031954Y-20555428D01*
X-11887200Y-20574485D01*
X-11879012Y-20573407D01*
X-11750634Y-20556506D01*
X-11742446Y-20555428D01*
X-11607557Y-20499555D01*
X-11591629Y-20487333D01*
X-11498279Y-20415703D01*
X-11498276Y-20415700D01*
X-11491726Y-20410674D01*
X-11486695Y-20404118D01*
X-11448462Y-20354293D01*
X-11391124Y-20312426D01*
X-11320253Y-20308204D01*
X-11258350Y-20342968D01*
X-11225069Y-20405681D01*
X-11222500Y-20430997D01*
X-11222500Y-20927129D01*
X-11242502Y-20995250D01*
X-11259405Y-21016224D01*
X-11430413Y-21187232D01*
X-11434221Y-21190885D01*
X-11471967Y-21225595D01*
X-11480266Y-21233226D01*
X-11484789Y-21240521D01*
X-11484790Y-21240522D01*
X-11503381Y-21270506D01*
X-11510104Y-21280288D01*
X-11536630Y-21315235D01*
X-11539791Y-21323219D01*
X-11542237Y-21329396D01*
X-11552300Y-21349402D01*
X-11555794Y-21355037D01*
X-11555798Y-21355046D01*
X-11560323Y-21362344D01*
X-11562719Y-21370591D01*
X-11572565Y-21404480D01*
X-11576407Y-21415702D01*
X-11592556Y-21456490D01*
X-11593454Y-21465035D01*
X-11594148Y-21471633D01*
X-11598459Y-21493605D01*
X-11602709Y-21508235D01*
X-11603500Y-21519007D01*
X-11603500Y-21554005D01*
X-11604190Y-21567175D01*
X-11608437Y-21607581D01*
X-11605263Y-21626346D01*
X-11603500Y-21647348D01*
X-11603500Y-24441182D01*
X-11623502Y-24509303D01*
X-11653934Y-24542007D01*
X-11673974Y-24557026D01*
X-11711174Y-24606663D01*
X-11768033Y-24649177D01*
X-11838851Y-24654203D01*
X-11901145Y-24620143D01*
X-11935135Y-24557812D01*
X-11938000Y-24531097D01*
X-11938000Y-24002000D01*
X-11939017Y-23992540D01*
X-11943442Y-23951374D01*
X-11943443Y-23951367D01*
X-11943804Y-23948010D01*
X-11944522Y-23944709D01*
X-11954830Y-23897322D01*
X-11954832Y-23897315D01*
X-11955190Y-23895668D01*
X-11962384Y-23869445D01*
X-11985597Y-23828680D01*
X-12008362Y-23788702D01*
X-12008365Y-23788698D01*
X-12011425Y-23783324D01*
X-12034632Y-23756542D01*
X-12056078Y-23731791D01*
X-12056083Y-23731786D01*
X-12057918Y-23729668D01*
X-12090502Y-23698227D01*
X-12178319Y-23652291D01*
X-12246440Y-23632289D01*
X-12250899Y-23631648D01*
X-12250903Y-23631647D01*
X-12282220Y-23627145D01*
X-12318000Y-23622000D01*
X-13336000Y-23622000D01*
X-13339347Y-23622360D01*
X-13339351Y-23622360D01*
X-13386626Y-23627442D01*
X-13386633Y-23627443D01*
X-13389990Y-23627804D01*
X-13393290Y-23628522D01*
X-13393291Y-23628522D01*
X-13440678Y-23638830D01*
X-13440685Y-23638832D01*
X-13442332Y-23639190D01*
X-13468555Y-23646384D01*
X-13500196Y-23664402D01*
X-13549298Y-23692362D01*
X-13549302Y-23692365D01*
X-13554676Y-23695425D01*
X-13559353Y-23699478D01*
X-13591945Y-23727719D01*
X-13608332Y-23741918D01*
X-13639773Y-23774502D01*
X-13685709Y-23862319D01*
X-13705711Y-23930440D01*
X-13706352Y-23934899D01*
X-13706353Y-23934903D01*
X-13710514Y-23963846D01*
X-13716000Y-24002000D01*
X-13716000Y-33729810D01*
X-13714545Y-33756957D01*
X-13714365Y-33758628D01*
X-13714364Y-33758645D01*
X-13712864Y-33772599D01*
X-13711666Y-33783740D01*
X-13682050Y-33878325D01*
X-13679084Y-33883757D01*
X-13679083Y-33883759D01*
X-13660072Y-33918573D01*
X-13648024Y-33940637D01*
X-13645329Y-33944237D01*
X-13607397Y-33994908D01*
X-13607393Y-33994912D01*
X-13604700Y-33998510D01*
X-11123475Y-36479735D01*
X-11109673Y-36496110D01*
X-11039010Y-36596096D01*
X-11003467Y-36646389D01*
X-10858062Y-36788035D01*
X-10853258Y-36791245D01*
X-10823723Y-36810980D01*
X-10689280Y-36900812D01*
X-10683977Y-36903090D01*
X-10683974Y-36903092D01*
X-10559337Y-36956640D01*
X-10502772Y-36980942D01*
X-10429756Y-36997464D01*
X-10310421Y-37024467D01*
X-10310416Y-37024468D01*
X-10304784Y-37025742D01*
X-10299013Y-37025969D01*
X-10299011Y-37025969D01*
X-10239244Y-37028317D01*
X-10101947Y-37033712D01*
X-10001501Y-37019148D01*
X-9906769Y-37005413D01*
X-9906764Y-37005412D01*
X-9901055Y-37004584D01*
X-9895591Y-37002729D01*
X-9895586Y-37002728D01*
X-9780576Y-36963687D01*
X-9740075Y-36957000D01*
X-6774420Y-36957000D01*
X-6724684Y-36967232D01*
X-6692772Y-36980942D01*
X-6687143Y-36982216D01*
X-6687142Y-36982216D01*
X-6500421Y-37024467D01*
X-6500416Y-37024468D01*
X-6494784Y-37025742D01*
X-6489013Y-37025969D01*
X-6489011Y-37025969D01*
X-6429244Y-37028317D01*
X-6291947Y-37033712D01*
X-6191501Y-37019148D01*
X-6096769Y-37005413D01*
X-6096764Y-37005412D01*
X-6091055Y-37004584D01*
X-6085591Y-37002729D01*
X-6085586Y-37002728D01*
X-5970576Y-36963687D01*
X-5930075Y-36957000D01*
X-2964420Y-36957000D01*
X-2914684Y-36967232D01*
X-2882772Y-36980942D01*
X-2877143Y-36982216D01*
X-2877142Y-36982216D01*
X-2690421Y-37024467D01*
X-2690416Y-37024468D01*
X-2684784Y-37025742D01*
X-2679013Y-37025969D01*
X-2679011Y-37025969D01*
X-2619244Y-37028317D01*
X-2481947Y-37033712D01*
X-2381501Y-37019148D01*
X-2286769Y-37005413D01*
X-2286764Y-37005412D01*
X-2281055Y-37004584D01*
X-2275591Y-37002729D01*
X-2275586Y-37002728D01*
X-2160576Y-36963687D01*
X-2120075Y-36957000D01*
X845580Y-36957000D01*
X895316Y-36967232D01*
X927228Y-36980942D01*
X932857Y-36982216D01*
X932858Y-36982216D01*
X1119579Y-37024467D01*
X1119584Y-37024468D01*
X1125216Y-37025742D01*
X1130987Y-37025969D01*
X1130989Y-37025969D01*
X1190756Y-37028317D01*
X1328053Y-37033712D01*
X1428499Y-37019148D01*
X1523231Y-37005413D01*
X1523236Y-37005412D01*
X1528945Y-37004584D01*
X1534409Y-37002729D01*
X1534414Y-37002728D01*
X1649424Y-36963687D01*
X1689925Y-36957000D01*
X4655580Y-36957000D01*
X4705316Y-36967232D01*
X4737228Y-36980942D01*
X4742857Y-36982216D01*
X4742858Y-36982216D01*
X4929579Y-37024467D01*
X4929584Y-37024468D01*
X4935216Y-37025742D01*
X4940987Y-37025969D01*
X4940989Y-37025969D01*
X5000756Y-37028317D01*
X5138053Y-37033712D01*
X5238499Y-37019148D01*
X5333231Y-37005413D01*
X5333236Y-37005412D01*
X5338945Y-37004584D01*
X5344409Y-37002729D01*
X5344414Y-37002728D01*
X5459424Y-36963687D01*
X5499925Y-36957000D01*
X9735580Y-36957000D01*
X9785316Y-36967232D01*
X9817228Y-36980942D01*
X9822857Y-36982216D01*
X9822858Y-36982216D01*
X10009579Y-37024467D01*
X10009584Y-37024468D01*
X10015216Y-37025742D01*
X10020987Y-37025969D01*
X10020989Y-37025969D01*
X10080756Y-37028317D01*
X10218053Y-37033712D01*
X10318499Y-37019148D01*
X10413231Y-37005413D01*
X10413236Y-37005412D01*
X10418945Y-37004584D01*
X10424409Y-37002729D01*
X10424414Y-37002728D01*
X10539424Y-36963687D01*
X10579925Y-36957000D01*
X11177000Y-36957000D01*
X11180347Y-36956640D01*
X11180351Y-36956640D01*
X11227626Y-36951558D01*
X11227633Y-36951557D01*
X11230990Y-36951196D01*
X11234291Y-36950478D01*
X11281678Y-36940170D01*
X11281685Y-36940168D01*
X11283332Y-36939810D01*
X11305279Y-36933789D01*
X13595996Y-36933789D01*
X13596196Y-36939118D01*
X13596196Y-36939119D01*
X13596663Y-36951558D01*
X13604913Y-37171295D01*
X13653719Y-37403904D01*
X13655677Y-37408863D01*
X13655678Y-37408865D01*
X13704925Y-37533564D01*
X13741020Y-37624963D01*
X13864319Y-37828153D01*
X14020090Y-38007664D01*
X14024216Y-38011047D01*
X14024220Y-38011051D01*
X14117622Y-38087635D01*
X14203880Y-38158362D01*
X14208516Y-38161001D01*
X14208519Y-38161003D01*
X14287916Y-38206198D01*
X14410433Y-38275939D01*
X14633844Y-38357034D01*
X14639092Y-38357983D01*
X14863641Y-38398588D01*
X14863648Y-38398589D01*
X14867725Y-38399326D01*
X14885991Y-38400187D01*
X14891131Y-38400430D01*
X14891138Y-38400430D01*
X14892619Y-38400500D01*
X15059680Y-38400500D01*
X15142026Y-38393513D01*
X15231512Y-38385920D01*
X15231516Y-38385919D01*
X15236823Y-38385469D01*
X15241978Y-38384131D01*
X15241984Y-38384130D01*
X15461703Y-38327102D01*
X15461702Y-38327102D01*
X15466874Y-38325760D01*
X15583327Y-38273302D01*
X15678715Y-38230333D01*
X15678718Y-38230332D01*
X15683576Y-38228143D01*
X15880732Y-38095409D01*
X15888882Y-38087635D01*
X15969162Y-38011051D01*
X16052705Y-37931355D01*
X16194579Y-37740670D01*
X16302295Y-37528807D01*
X16316216Y-37483976D01*
X16371193Y-37306919D01*
X16372775Y-37301824D01*
X16404004Y-37066211D01*
X16395087Y-36828705D01*
X16346281Y-36596096D01*
X16314659Y-36516024D01*
X16260941Y-36380002D01*
X16260940Y-36380000D01*
X16258980Y-36375037D01*
X16135681Y-36171847D01*
X15979910Y-35992336D01*
X15975784Y-35988953D01*
X15975780Y-35988949D01*
X15800248Y-35845023D01*
X15796120Y-35841638D01*
X15791484Y-35838999D01*
X15791481Y-35838997D01*
X15669685Y-35769667D01*
X15589567Y-35724061D01*
X15366156Y-35642966D01*
X15314112Y-35633555D01*
X15136359Y-35601412D01*
X15136352Y-35601411D01*
X15132275Y-35600674D01*
X15114009Y-35599813D01*
X15108869Y-35599570D01*
X15108862Y-35599570D01*
X15107381Y-35599500D01*
X14940320Y-35599500D01*
X14857974Y-35606487D01*
X14768488Y-35614080D01*
X14768484Y-35614081D01*
X14763177Y-35614531D01*
X14758022Y-35615869D01*
X14758016Y-35615870D01*
X14646612Y-35644785D01*
X14533126Y-35674240D01*
X14435766Y-35718097D01*
X14321285Y-35769667D01*
X14321282Y-35769668D01*
X14316424Y-35771857D01*
X14119268Y-35904591D01*
X14115411Y-35908270D01*
X14115409Y-35908272D01*
X14103890Y-35919261D01*
X13947295Y-36068645D01*
X13805421Y-36259330D01*
X13697705Y-36471193D01*
X13696124Y-36476284D01*
X13696123Y-36476287D01*
X13628807Y-36693081D01*
X13627225Y-36698176D01*
X13626524Y-36703465D01*
X13600065Y-36903092D01*
X13595996Y-36933789D01*
X11305279Y-36933789D01*
X11309555Y-36932616D01*
X11365406Y-36900812D01*
X11390298Y-36886638D01*
X11390302Y-36886635D01*
X11395676Y-36883575D01*
X11422458Y-36860368D01*
X11447209Y-36838922D01*
X11447214Y-36838917D01*
X11449332Y-36837082D01*
X11480773Y-36804498D01*
X11526709Y-36716681D01*
X11546711Y-36648560D01*
X11557000Y-36577000D01*
X11557000Y-34543000D01*
X11551196Y-34489010D01*
X11550478Y-34485711D01*
X11549938Y-34482376D01*
X11551088Y-34482190D01*
X11555809Y-34416134D01*
X11584772Y-34371064D01*
X11727011Y-34228825D01*
X11738100Y-34218970D01*
X11739444Y-34217911D01*
X11765059Y-34197717D01*
X11770413Y-34189970D01*
X11770417Y-34189966D01*
X11798728Y-34149004D01*
X11801029Y-34145784D01*
X11830610Y-34105734D01*
X11830611Y-34105732D01*
X11836209Y-34098153D01*
X11838623Y-34091278D01*
X11842764Y-34085287D01*
X11860622Y-34028821D01*
X11861874Y-34025068D01*
X11872465Y-33994908D01*
X11881492Y-33969202D01*
X11881775Y-33962003D01*
X11881809Y-33961827D01*
X11883975Y-33954979D01*
X11884500Y-33948308D01*
X11884500Y-33895127D01*
X11884597Y-33890180D01*
X11885295Y-33872413D01*
X11886858Y-33832639D01*
X11884961Y-33825484D01*
X11884500Y-33817109D01*
X11884500Y-32141964D01*
X11885373Y-32127154D01*
X11888301Y-32102415D01*
X11889408Y-32093063D01*
X11878763Y-32034775D01*
X11878119Y-32030907D01*
X11870714Y-31981657D01*
X11869315Y-31972349D01*
X11866162Y-31965782D01*
X11864853Y-31958617D01*
X11837554Y-31906064D01*
X11835785Y-31902523D01*
X11814233Y-31857640D01*
X11814231Y-31857637D01*
X11810154Y-31849147D01*
X11805264Y-31843857D01*
X11805159Y-31843702D01*
X11801852Y-31837335D01*
X11797506Y-31832246D01*
X11759924Y-31794664D01*
X11756494Y-31791098D01*
X11723774Y-31755702D01*
X11717383Y-31748788D01*
X11710983Y-31745070D01*
X11704723Y-31739463D01*
X11389169Y-31423909D01*
X11355143Y-31361597D01*
X11360208Y-31290782D01*
X11402755Y-31233946D01*
X11469275Y-31209135D01*
X11485078Y-31208998D01*
X11487533Y-31209131D01*
X11490930Y-31209500D01*
X12084070Y-31209500D01*
X12144236Y-31202964D01*
X12221417Y-31174030D01*
X12267795Y-31156644D01*
X12267798Y-31156643D01*
X12276199Y-31153493D01*
X12388974Y-31068974D01*
X12473493Y-30956199D01*
X12522964Y-30824236D01*
X12529500Y-30764070D01*
X12529500Y-30195930D01*
X12522964Y-30135764D01*
X12473493Y-30003801D01*
X12428722Y-29944062D01*
X12403876Y-29877558D01*
X12418929Y-29808176D01*
X12469104Y-29757946D01*
X12529550Y-29742500D01*
X12881834Y-29742500D01*
X12976555Y-29727498D01*
X13090723Y-29669326D01*
X13181326Y-29578723D01*
X13239498Y-29464555D01*
X13254500Y-29369834D01*
X13254500Y-28746604D01*
X13255578Y-28730158D01*
X13258207Y-28710188D01*
X13259285Y-28702000D01*
X13255578Y-28673842D01*
X13254500Y-28657396D01*
X13254500Y-28131166D01*
X13239498Y-28036445D01*
X13181326Y-27922277D01*
X13090723Y-27831674D01*
X12976555Y-27773502D01*
X12881834Y-27758500D01*
X12518166Y-27758500D01*
X12423445Y-27773502D01*
X12422980Y-27770565D01*
X12367931Y-27772133D01*
X12307136Y-27735465D01*
X12275817Y-27671750D01*
X12283113Y-27608206D01*
X12281932Y-27607822D01*
X12283827Y-27601988D01*
X12283916Y-27601217D01*
X12284453Y-27600063D01*
X12284997Y-27598388D01*
X12289498Y-27589555D01*
X12304500Y-27494834D01*
X12304500Y-26256166D01*
X12289498Y-26161445D01*
X12255733Y-26095178D01*
X12242000Y-26037975D01*
X12242000Y-25908151D01*
X12262002Y-25840030D01*
X12292436Y-25807324D01*
X12316098Y-25789591D01*
X12388974Y-25734974D01*
X12473493Y-25622199D01*
X12478527Y-25608773D01*
X12520190Y-25497635D01*
X12522964Y-25490236D01*
X12529500Y-25430070D01*
X12529500Y-24868529D01*
X12549502Y-24800408D01*
X12603158Y-24753915D01*
X12673432Y-24743811D01*
X12738012Y-24773305D01*
X12744595Y-24779434D01*
X12833595Y-24868434D01*
X12867621Y-24930746D01*
X12870500Y-24957529D01*
X12870500Y-25430070D01*
X12877036Y-25490236D01*
X12879810Y-25497635D01*
X12921474Y-25608773D01*
X12926507Y-25622199D01*
X13011026Y-25734974D01*
X13123801Y-25819493D01*
X13132202Y-25822643D01*
X13132205Y-25822644D01*
X13178583Y-25840030D01*
X13255764Y-25868964D01*
X13315930Y-25875500D01*
X13909070Y-25875500D01*
X13969236Y-25868964D01*
X14046417Y-25840030D01*
X14092795Y-25822644D01*
X14092798Y-25822643D01*
X14101199Y-25819493D01*
X14213974Y-25734974D01*
X14298493Y-25622199D01*
X14303527Y-25608773D01*
X14345190Y-25497635D01*
X14347964Y-25490236D01*
X14354500Y-25430070D01*
X14354500Y-24861930D01*
X14347964Y-24801764D01*
X14326238Y-24743811D01*
X14301644Y-24678205D01*
X14301643Y-24678202D01*
X14298493Y-24669801D01*
X14213974Y-24557026D01*
X14101199Y-24472507D01*
X14092798Y-24469357D01*
X14092795Y-24469356D01*
X13994254Y-24432415D01*
X13969236Y-24423036D01*
X13909070Y-24416500D01*
X13436528Y-24416500D01*
X13368407Y-24396498D01*
X13347433Y-24379595D01*
X13010418Y-24042580D01*
X12997913Y-24027098D01*
X12994977Y-24023871D01*
X12989325Y-24015118D01*
X12965062Y-23995991D01*
X12961067Y-23992441D01*
X12960983Y-23992540D01*
X12957020Y-23989182D01*
X12953344Y-23985506D01*
X12949114Y-23982483D01*
X12938848Y-23975146D01*
X12934105Y-23971585D01*
X12904825Y-23948503D01*
X12904821Y-23948501D01*
X12896643Y-23942054D01*
X12888575Y-23939221D01*
X12881615Y-23934247D01*
X12858258Y-23927262D01*
X12835914Y-23920580D01*
X12830265Y-23918744D01*
X12792769Y-23905576D01*
X12792770Y-23905576D01*
X12785292Y-23902950D01*
X12780096Y-23902500D01*
X12777391Y-23902500D01*
X12775135Y-23902403D01*
X12774659Y-23902260D01*
X12774661Y-23902214D01*
X12774462Y-23902201D01*
X12768545Y-23900432D01*
X12718911Y-23902382D01*
X12718376Y-23902403D01*
X12713430Y-23902500D01*
X10555265Y-23902500D01*
X10487144Y-23882498D01*
X10440651Y-23828842D01*
X10430547Y-23758568D01*
X10460041Y-23693988D01*
X10490748Y-23668271D01*
X10613004Y-23595392D01*
X10613006Y-23595391D01*
X10619056Y-23591784D01*
X10741638Y-23475052D01*
X10798140Y-23390010D01*
X10831410Y-23339935D01*
X10831411Y-23339933D01*
X10835311Y-23334063D01*
X10895420Y-23175824D01*
X10911984Y-23057966D01*
X10918427Y-23012123D01*
X10918427Y-23012118D01*
X10918978Y-23008200D01*
X10919274Y-22987000D01*
X10908029Y-22886747D01*
X10901191Y-22825780D01*
X10901190Y-22825777D01*
X10900406Y-22818784D01*
X10844738Y-22658929D01*
X10813538Y-22608998D01*
X10795203Y-22579656D01*
X10776067Y-22511286D01*
X10796932Y-22443425D01*
X10832053Y-22408122D01*
X10833168Y-22407377D01*
X10843484Y-22400484D01*
X10899734Y-22316301D01*
X10908363Y-22272918D01*
X10941270Y-22210009D01*
X11002965Y-22174877D01*
X11031942Y-22171500D01*
X13300544Y-22171500D01*
X13315354Y-22172373D01*
X13349438Y-22176407D01*
X13358702Y-22174715D01*
X13358705Y-22174715D01*
X13407680Y-22165771D01*
X13411582Y-22165122D01*
X13460836Y-22157716D01*
X13460839Y-22157715D01*
X13470151Y-22156315D01*
X13476718Y-22153162D01*
X13483883Y-22151853D01*
X13536467Y-22124538D01*
X13539957Y-22122795D01*
X13593353Y-22097154D01*
X13598648Y-22092259D01*
X13598787Y-22092166D01*
X13605166Y-22088852D01*
X13610254Y-22084506D01*
X13647836Y-22046924D01*
X13651402Y-22043494D01*
X13686798Y-22010774D01*
X13693712Y-22004383D01*
X13697430Y-21997983D01*
X13703037Y-21991723D01*
X14521011Y-21173749D01*
X14532099Y-21163895D01*
X14541993Y-21156095D01*
X14607872Y-21129629D01*
X14677602Y-21142981D01*
X14729043Y-21191913D01*
X14746000Y-21255044D01*
X14746000Y-33962575D01*
X14743579Y-33987153D01*
X14741024Y-34000000D01*
X14760737Y-34099106D01*
X14816876Y-34183124D01*
X14900894Y-34239263D01*
X14987829Y-34256555D01*
X15000000Y-34258976D01*
X15012172Y-34256555D01*
X15024580Y-34256555D01*
X15024580Y-34256816D01*
X15035442Y-34256064D01*
X15311466Y-34272140D01*
X15326014Y-34273841D01*
X15421560Y-34290688D01*
X15626044Y-34326745D01*
X15640301Y-34330124D01*
X15810151Y-34380973D01*
X15932164Y-34417501D01*
X15945926Y-34422511D01*
X16107887Y-34492374D01*
X16225664Y-34543178D01*
X16238758Y-34549754D01*
X16502598Y-34702082D01*
X16514840Y-34710134D01*
X16759208Y-34892060D01*
X16770432Y-34901478D01*
X16992027Y-35110541D01*
X17002083Y-35121199D01*
X17197916Y-35354586D01*
X17206665Y-35366339D01*
X17374071Y-35620866D01*
X17381398Y-35633555D01*
X17518131Y-35905815D01*
X17523931Y-35919261D01*
X17628127Y-36205537D01*
X17632330Y-36219574D01*
X17702590Y-36516024D01*
X17705134Y-36530454D01*
X17740502Y-36833045D01*
X17741354Y-36847673D01*
X17741354Y-37152327D01*
X17740502Y-37166955D01*
X17705134Y-37469546D01*
X17702590Y-37483976D01*
X17632330Y-37780426D01*
X17628127Y-37794463D01*
X17523931Y-38080739D01*
X17518131Y-38094185D01*
X17461877Y-38206198D01*
X17381398Y-38366445D01*
X17374071Y-38379134D01*
X17206665Y-38633661D01*
X17197916Y-38645414D01*
X17002083Y-38878801D01*
X16992027Y-38889459D01*
X16770432Y-39098522D01*
X16759208Y-39107940D01*
X16514840Y-39289866D01*
X16502598Y-39297918D01*
X16238758Y-39450246D01*
X16225664Y-39456822D01*
X15945929Y-39577488D01*
X15932164Y-39582499D01*
X15810151Y-39619027D01*
X15640301Y-39669876D01*
X15626044Y-39673255D01*
X15421560Y-39709312D01*
X15326014Y-39726159D01*
X15311466Y-39727860D01*
X15035442Y-39743936D01*
X15024580Y-39743184D01*
X15024580Y-39743445D01*
X15012172Y-39743445D01*
X15000000Y-39741024D01*
X14987153Y-39743579D01*
X14962575Y-39746000D01*
X-14962575Y-39746000D01*
X-14987153Y-39743579D01*
X-15000000Y-39741024D01*
X-15012172Y-39743445D01*
X-15024580Y-39743445D01*
X-15024580Y-39743184D01*
X-15035442Y-39743936D01*
X-15311466Y-39727860D01*
X-15326014Y-39726159D01*
X-15421560Y-39709312D01*
X-15626044Y-39673255D01*
X-15640301Y-39669876D01*
X-15810151Y-39619027D01*
X-15932164Y-39582499D01*
X-15945929Y-39577488D01*
X-16225664Y-39456822D01*
X-16238758Y-39450246D01*
X-16502598Y-39297918D01*
X-16514840Y-39289866D01*
X-16759208Y-39107940D01*
X-16770432Y-39098522D01*
X-16992027Y-38889459D01*
X-17002083Y-38878801D01*
X-17197916Y-38645414D01*
X-17206665Y-38633661D01*
X-17374071Y-38379134D01*
X-17381398Y-38366445D01*
X-17461877Y-38206198D01*
X-17518131Y-38094185D01*
X-17523931Y-38080739D01*
X-17628127Y-37794463D01*
X-17632330Y-37780426D01*
X-17702590Y-37483976D01*
X-17705134Y-37469546D01*
X-17740502Y-37166955D01*
X-17741354Y-37152327D01*
X-17741354Y-36933789D01*
X-16404004Y-36933789D01*
X-16403804Y-36939118D01*
X-16403804Y-36939119D01*
X-16403337Y-36951558D01*
X-16395087Y-37171295D01*
X-16346281Y-37403904D01*
X-16344323Y-37408863D01*
X-16344322Y-37408865D01*
X-16295075Y-37533564D01*
X-16258980Y-37624963D01*
X-16135681Y-37828153D01*
X-15979910Y-38007664D01*
X-15975784Y-38011047D01*
X-15975780Y-38011051D01*
X-15882378Y-38087635D01*
X-15796120Y-38158362D01*
X-15791484Y-38161001D01*
X-15791481Y-38161003D01*
X-15712084Y-38206198D01*
X-15589567Y-38275939D01*
X-15366156Y-38357034D01*
X-15360908Y-38357983D01*
X-15136359Y-38398588D01*
X-15136352Y-38398589D01*
X-15132275Y-38399326D01*
X-15114009Y-38400187D01*
X-15108869Y-38400430D01*
X-15108862Y-38400430D01*
X-15107381Y-38400500D01*
X-14940320Y-38400500D01*
X-14857974Y-38393513D01*
X-14768488Y-38385920D01*
X-14768484Y-38385919D01*
X-14763177Y-38385469D01*
X-14758022Y-38384131D01*
X-14758016Y-38384130D01*
X-14538297Y-38327102D01*
X-14538298Y-38327102D01*
X-14533126Y-38325760D01*
X-14416673Y-38273302D01*
X-14321285Y-38230333D01*
X-14321282Y-38230332D01*
X-14316424Y-38228143D01*
X-14119268Y-38095409D01*
X-14111118Y-38087635D01*
X-14030838Y-38011051D01*
X-13947295Y-37931355D01*
X-13805421Y-37740670D01*
X-13697705Y-37528807D01*
X-13683784Y-37483976D01*
X-13628807Y-37306919D01*
X-13627225Y-37301824D01*
X-13595996Y-37066211D01*
X-13604913Y-36828705D01*
X-13653719Y-36596096D01*
X-13685341Y-36516024D01*
X-13739059Y-36380002D01*
X-13739060Y-36380000D01*
X-13741020Y-36375037D01*
X-13864319Y-36171847D01*
X-14020090Y-35992336D01*
X-14024216Y-35988953D01*
X-14024220Y-35988949D01*
X-14199752Y-35845023D01*
X-14203880Y-35841638D01*
X-14208516Y-35838999D01*
X-14208519Y-35838997D01*
X-14330315Y-35769667D01*
X-14410433Y-35724061D01*
X-14633844Y-35642966D01*
X-14685888Y-35633555D01*
X-14863641Y-35601412D01*
X-14863648Y-35601411D01*
X-14867725Y-35600674D01*
X-14885991Y-35599813D01*
X-14891131Y-35599570D01*
X-14891138Y-35599570D01*
X-14892619Y-35599500D01*
X-15059680Y-35599500D01*
X-15142026Y-35606487D01*
X-15231512Y-35614080D01*
X-15231516Y-35614081D01*
X-15236823Y-35614531D01*
X-15241978Y-35615869D01*
X-15241984Y-35615870D01*
X-15353388Y-35644785D01*
X-15466874Y-35674240D01*
X-15564234Y-35718097D01*
X-15678715Y-35769667D01*
X-15678718Y-35769668D01*
X-15683576Y-35771857D01*
X-15880732Y-35904591D01*
X-15884589Y-35908270D01*
X-15884591Y-35908272D01*
X-15896110Y-35919261D01*
X-16052705Y-36068645D01*
X-16194579Y-36259330D01*
X-16302295Y-36471193D01*
X-16303876Y-36476284D01*
X-16303877Y-36476287D01*
X-16371193Y-36693081D01*
X-16372775Y-36698176D01*
X-16373476Y-36703465D01*
X-16399935Y-36903092D01*
X-16404004Y-36933789D01*
X-17741354Y-36933789D01*
X-17741354Y-36847673D01*
X-17740502Y-36833045D01*
X-17705134Y-36530454D01*
X-17702590Y-36516024D01*
X-17632330Y-36219574D01*
X-17628127Y-36205537D01*
X-17523931Y-35919261D01*
X-17518131Y-35905815D01*
X-17381398Y-35633555D01*
X-17374071Y-35620866D01*
X-17206665Y-35366339D01*
X-17197916Y-35354586D01*
X-17002083Y-35121199D01*
X-16992027Y-35110541D01*
X-16770432Y-34901478D01*
X-16759208Y-34892060D01*
X-16514840Y-34710134D01*
X-16502598Y-34702082D01*
X-16238758Y-34549754D01*
X-16225664Y-34543178D01*
X-16107887Y-34492374D01*
X-15945926Y-34422511D01*
X-15932164Y-34417501D01*
X-15810151Y-34380973D01*
X-15640301Y-34330124D01*
X-15626044Y-34326745D01*
X-15421560Y-34290688D01*
X-15326014Y-34273841D01*
X-15311466Y-34272140D01*
X-15035442Y-34256064D01*
X-15024580Y-34256816D01*
X-15024580Y-34256555D01*
X-15012172Y-34256555D01*
X-15000000Y-34258976D01*
X-14900894Y-34239263D01*
X-14816876Y-34183124D01*
X-14760737Y-34099106D01*
X-14741024Y-34000000D01*
X-14743579Y-33987153D01*
X-14746000Y-33962575D01*
X-14746000Y-6037425D01*
X-14743579Y-6012844D01*
X-14741024Y-6000000D01*
X-14760737Y-5900894D01*
X-14816876Y-5816876D01*
X-14837382Y-5803174D01*
X-14890575Y-5767632D01*
X-14900894Y-5760737D01*
X-15000000Y-5741024D01*
X-15012172Y-5743445D01*
X-15024580Y-5743445D01*
X-15024580Y-5743184D01*
X-15035442Y-5743936D01*
X-15311466Y-5727860D01*
X-15326014Y-5726159D01*
X-15454548Y-5703495D01*
X-15626044Y-5673255D01*
X-15640301Y-5669876D01*
X-15810151Y-5619027D01*
X-15932164Y-5582499D01*
X-15945929Y-5577488D01*
X-16225664Y-5456822D01*
X-16238758Y-5450246D01*
X-16502598Y-5297918D01*
X-16514840Y-5289866D01*
X-16759208Y-5107940D01*
X-16770432Y-5098522D01*
X-16992027Y-4889459D01*
X-17002083Y-4878801D01*
X-17016050Y-4862155D01*
X-17127258Y-4729622D01*
X-17197916Y-4645414D01*
X-17206665Y-4633661D01*
X-17374071Y-4379134D01*
X-17381398Y-4366445D01*
X-17414644Y-4300246D01*
X-17518131Y-4094185D01*
X-17523931Y-4080739D01*
X-17628127Y-3794463D01*
X-17632330Y-3780426D01*
X-17702590Y-3483976D01*
X-17705134Y-3469546D01*
X-17740502Y-3166955D01*
X-17741354Y-3152327D01*
X-17741354Y-2933789D01*
X-16404004Y-2933789D01*
X-16403804Y-2939118D01*
X-16403804Y-2939119D01*
X-16402289Y-2979460D01*
X-16395087Y-3171295D01*
X-16346281Y-3403904D01*
X-16344323Y-3408863D01*
X-16344322Y-3408865D01*
X-16295075Y-3533564D01*
X-16258980Y-3624963D01*
X-16256213Y-3629522D01*
X-16256212Y-3629525D01*
X-16196307Y-3728245D01*
X-16135681Y-3828153D01*
X-16132184Y-3832183D01*
X-15986586Y-3999970D01*
X-15979910Y-4007664D01*
X-15975784Y-4011047D01*
X-15975780Y-4011051D01*
X-15886261Y-4084451D01*
X-15796120Y-4158362D01*
X-15791484Y-4161001D01*
X-15791481Y-4161003D01*
X-15712084Y-4206198D01*
X-15589567Y-4275939D01*
X-15366156Y-4357034D01*
X-15360908Y-4357983D01*
X-15136359Y-4398588D01*
X-15136352Y-4398589D01*
X-15132275Y-4399326D01*
X-15114009Y-4400187D01*
X-15108869Y-4400430D01*
X-15108862Y-4400430D01*
X-15107381Y-4400500D01*
X-14940320Y-4400500D01*
X-14842267Y-4392180D01*
X-14768488Y-4385920D01*
X-14768484Y-4385919D01*
X-14763177Y-4385469D01*
X-14758022Y-4384131D01*
X-14758016Y-4384130D01*
X-14538297Y-4327102D01*
X-14538298Y-4327102D01*
X-14533126Y-4325760D01*
X-14392223Y-4262288D01*
X-14321285Y-4230333D01*
X-14321282Y-4230332D01*
X-14316424Y-4228143D01*
X-14309071Y-4223193D01*
X-14276982Y-4201589D01*
X-14119268Y-4095409D01*
X-14111118Y-4087635D01*
X-14030838Y-4011051D01*
X-13947295Y-3931355D01*
X-13805421Y-3740670D01*
X-13697705Y-3528807D01*
X-13683784Y-3483976D01*
X-13628807Y-3306919D01*
X-13627225Y-3301824D01*
X-13606718Y-3147104D01*
X-13596696Y-3071494D01*
X-13596696Y-3071491D01*
X-13595996Y-3066211D01*
X-13597464Y-3027097D01*
X-13604201Y-2847673D01*
X-13604913Y-2828705D01*
X-13653719Y-2596096D01*
X-13672853Y-2547646D01*
X-13739059Y-2380002D01*
X-13739060Y-2380000D01*
X-13741020Y-2375037D01*
X-13768578Y-2329622D01*
X-13861552Y-2176407D01*
X-13864319Y-2171847D01*
X-14020090Y-1992336D01*
X-14024216Y-1988953D01*
X-14024220Y-1988949D01*
X-14199752Y-1845023D01*
X-14203880Y-1841638D01*
X-14208516Y-1838999D01*
X-14208519Y-1838997D01*
X-14330315Y-1769667D01*
X-14410433Y-1724061D01*
X-14633844Y-1642966D01*
X-14685888Y-1633555D01*
X-14863641Y-1601412D01*
X-14863648Y-1601411D01*
X-14867725Y-1600674D01*
X-14885991Y-1599813D01*
X-14891131Y-1599570D01*
X-14891138Y-1599570D01*
X-14892619Y-1599500D01*
X-15059680Y-1599500D01*
X-15142026Y-1606487D01*
X-15231512Y-1614080D01*
X-15231516Y-1614081D01*
X-15236823Y-1614531D01*
X-15241978Y-1615869D01*
X-15241984Y-1615870D01*
X-15353388Y-1644785D01*
X-15466874Y-1674240D01*
X-15479656Y-1679998D01*
X-15678715Y-1769667D01*
X-15678718Y-1769668D01*
X-15683576Y-1771857D01*
X-15880732Y-1904591D01*
X-15884589Y-1908270D01*
X-15884591Y-1908272D01*
X-15896110Y-1919261D01*
X-16052705Y-2068645D01*
X-16194579Y-2259330D01*
X-16302295Y-2471193D01*
X-16303876Y-2476284D01*
X-16303877Y-2476287D01*
X-16342446Y-2600499D01*
X-16372775Y-2698176D01*
X-16373476Y-2703465D01*
X-16403049Y-2926586D01*
X-16404004Y-2933789D01*
X-17741354Y-2933789D01*
X-17741354Y-2847673D01*
X-17740502Y-2833045D01*
X-17705134Y-2530454D01*
X-17702590Y-2516024D01*
X-17632330Y-2219574D01*
X-17628127Y-2205537D01*
X-17523931Y-1919261D01*
X-17518131Y-1905815D01*
X-17381398Y-1633555D01*
X-17374071Y-1620866D01*
X-17206665Y-1366339D01*
X-17197916Y-1354586D01*
X-17002083Y-1121199D01*
X-16992027Y-1110541D01*
X-16770432Y-901478D01*
X-16759208Y-892060D01*
X-16514840Y-710134D01*
X-16502598Y-702082D01*
X-16238758Y-549754D01*
X-16225664Y-543178D01*
X-15945929Y-422512D01*
X-15932164Y-417501D01*
X-15806900Y-380000D01*
X-15640301Y-330124D01*
X-15626044Y-326745D01*
X-15421560Y-290688D01*
X-15326014Y-273841D01*
X-15311466Y-272140D01*
X-15035442Y-256064D01*
X-15024580Y-256816D01*
X-15024580Y-256555D01*
X-15012172Y-256555D01*
X-15000000Y-258976D01*
X-14987153Y-256421D01*
X-14962575Y-254000D01*
X-5280500Y-254000D01*
X-5212379Y-274002D01*
G37*
G04 #@! TD.AperFunction*
G04 #@! TA.AperFunction,Conductor*
G36*
X-8370796Y-20197543D02*
G01*
X-7796432Y-20771907D01*
X-7762406Y-20834219D01*
X-7760607Y-20844547D01*
X-7752405Y-20906847D01*
X-7745492Y-20959353D01*
X-7743728Y-20972754D01*
X-7740569Y-20980380D01*
X-7698476Y-21082000D01*
X-7687855Y-21107642D01*
X-7682828Y-21114193D01*
X-7623175Y-21191934D01*
X-7598974Y-21223474D01*
X-7592424Y-21228500D01*
X-7592421Y-21228503D01*
X-7503011Y-21297110D01*
X-7483143Y-21312355D01*
X-7348254Y-21368228D01*
X-7340066Y-21369306D01*
X-7275877Y-21377756D01*
X-7203500Y-21387285D01*
X-7195312Y-21386207D01*
X-7195311Y-21386207D01*
X-7100946Y-21373784D01*
X-7030797Y-21384724D01*
X-6977699Y-21431852D01*
X-6958500Y-21498706D01*
X-6958500Y-22303471D01*
X-6978502Y-22371592D01*
X-6995405Y-22392566D01*
X-8982433Y-24379595D01*
X-9044745Y-24413620D01*
X-9071528Y-24416500D01*
X-9544070Y-24416500D01*
X-9604236Y-24423036D01*
X-9629254Y-24432415D01*
X-9727795Y-24469356D01*
X-9727798Y-24469357D01*
X-9736199Y-24472507D01*
X-9848974Y-24557026D01*
X-9933493Y-24669801D01*
X-9936643Y-24678202D01*
X-9936644Y-24678205D01*
X-9961238Y-24743811D01*
X-9982964Y-24801764D01*
X-9989500Y-24861930D01*
X-9989500Y-25430070D01*
X-9982964Y-25490236D01*
X-9980190Y-25497635D01*
X-9938526Y-25608773D01*
X-9933493Y-25622199D01*
X-9848974Y-25734974D01*
X-9776097Y-25789591D01*
X-9752436Y-25807324D01*
X-9709920Y-25864183D01*
X-9702000Y-25908151D01*
X-9702000Y-26037975D01*
X-9715733Y-26095178D01*
X-9749498Y-26161445D01*
X-9764500Y-26256166D01*
X-9764500Y-27494834D01*
X-9749498Y-27589555D01*
X-9744997Y-27598388D01*
X-9741932Y-27607822D01*
X-9744763Y-27608742D01*
X-9734602Y-27662849D01*
X-9761302Y-27728634D01*
X-9819330Y-27769540D01*
X-9883251Y-27772280D01*
X-9883445Y-27773502D01*
X-9889478Y-27772546D01*
X-9889480Y-27772546D01*
X-9978166Y-27758500D01*
X-10341834Y-27758500D01*
X-10436555Y-27773502D01*
X-10437020Y-27770565D01*
X-10492069Y-27772133D01*
X-10552864Y-27735465D01*
X-10584183Y-27671750D01*
X-10576887Y-27608206D01*
X-10578068Y-27607822D01*
X-10576173Y-27601988D01*
X-10576084Y-27601217D01*
X-10575547Y-27600063D01*
X-10575003Y-27598388D01*
X-10570502Y-27589555D01*
X-10555500Y-27494834D01*
X-10555500Y-27375963D01*
X-10554715Y-27370000D01*
X-10555500Y-27364037D01*
X-10555500Y-25861311D01*
X-10535498Y-25793190D01*
X-10505065Y-25760485D01*
X-10478207Y-25740356D01*
X-10478206Y-25740355D01*
X-10471026Y-25734974D01*
X-10386507Y-25622199D01*
X-10381473Y-25608773D01*
X-10339810Y-25497635D01*
X-10337036Y-25490236D01*
X-10330500Y-25430070D01*
X-10330500Y-24861930D01*
X-10337036Y-24801764D01*
X-10358762Y-24743811D01*
X-10383356Y-24678205D01*
X-10383357Y-24678202D01*
X-10386507Y-24669801D01*
X-10469327Y-24559293D01*
X-10494174Y-24492787D01*
X-10494500Y-24483729D01*
X-10494500Y-21871872D01*
X-10474498Y-21803751D01*
X-10457595Y-21782776D01*
X-10307447Y-21632629D01*
X-10295057Y-21621763D01*
X-10279072Y-21609497D01*
X-10272526Y-21604474D01*
X-10267503Y-21597928D01*
X-10267500Y-21597925D01*
X-10264080Y-21593468D01*
X-10249407Y-21577427D01*
X-10236734Y-21565774D01*
X-10214377Y-21529716D01*
X-10207253Y-21519408D01*
X-10186694Y-21492616D01*
X-10186693Y-21492614D01*
X-10183645Y-21488642D01*
X-10183133Y-21487406D01*
X-10180370Y-21483766D01*
X-10174763Y-21469604D01*
X-10164697Y-21449591D01*
X-10161205Y-21443959D01*
X-10161205Y-21443958D01*
X-10156677Y-21436656D01*
X-10145846Y-21399376D01*
X-10141259Y-21386314D01*
X-10130934Y-21361388D01*
X-10130934Y-21361386D01*
X-10127772Y-21353754D01*
X-10127212Y-21349503D01*
X-10124444Y-21342511D01*
X-10122853Y-21327371D01*
X-10118540Y-21305391D01*
X-10116134Y-21297110D01*
X-10116133Y-21297105D01*
X-10114291Y-21290765D01*
X-10113500Y-21279993D01*
X-10113500Y-21253604D01*
X-10112422Y-21237158D01*
X-10109793Y-21217188D01*
X-10108715Y-21209000D01*
X-10109459Y-21203348D01*
X-10109395Y-21202118D01*
X-10109463Y-21199964D01*
X-10108564Y-21191419D01*
X-10111736Y-21172664D01*
X-10113500Y-21151652D01*
X-10113500Y-20293600D01*
X-10093498Y-20225479D01*
X-10039842Y-20178986D01*
X-9987500Y-20167600D01*
X-8483600Y-20167600D01*
X-8483600Y-20165742D01*
X-8424395Y-20165741D01*
X-8370796Y-20197543D01*
G37*
G04 #@! TD.AperFunction*
G04 #@! TA.AperFunction,Conductor*
G36*
X4716160Y-11331991D02*
G01*
X4737134Y-11348894D01*
X8125610Y-14737370D01*
X8159636Y-14799682D01*
X8154571Y-14870497D01*
X8113218Y-14926428D01*
X8037703Y-14984372D01*
X8037700Y-14984375D01*
X8031154Y-14989398D01*
X7942273Y-15105230D01*
X7886400Y-15240118D01*
X7885323Y-15248302D01*
X7885322Y-15248304D01*
X7881637Y-15276298D01*
X7867343Y-15384872D01*
X7868102Y-15390636D01*
X7848419Y-15457670D01*
X7831517Y-15478644D01*
X7532578Y-15777584D01*
X7517098Y-15790086D01*
X7513868Y-15793025D01*
X7505118Y-15798675D01*
X7485991Y-15822938D01*
X7482441Y-15826933D01*
X7482540Y-15827017D01*
X7479182Y-15830980D01*
X7475506Y-15834656D01*
X7472483Y-15838885D01*
X7472483Y-15838886D01*
X7465146Y-15849152D01*
X7461585Y-15853895D01*
X7438503Y-15883175D01*
X7438501Y-15883179D01*
X7432054Y-15891357D01*
X7429221Y-15899425D01*
X7424247Y-15906385D01*
X7421263Y-15916363D01*
X7410580Y-15952086D01*
X7408744Y-15957735D01*
X7392950Y-16002708D01*
X7392500Y-16007904D01*
X7392500Y-16010609D01*
X7392403Y-16012865D01*
X7392260Y-16013341D01*
X7392214Y-16013339D01*
X7392201Y-16013538D01*
X7390432Y-16019455D01*
X7391742Y-16052800D01*
X7392403Y-16069624D01*
X7392500Y-16074570D01*
X7392500Y-23039243D01*
X7390394Y-23059037D01*
X7390189Y-23063390D01*
X7387997Y-23073570D01*
X7389221Y-23083908D01*
X7391627Y-23104237D01*
X7391942Y-23109583D01*
X7392072Y-23109572D01*
X7392500Y-23114752D01*
X7392500Y-23119951D01*
X7393353Y-23125075D01*
X7393354Y-23125088D01*
X7395427Y-23137541D01*
X7396264Y-23143416D01*
X7401869Y-23190770D01*
X7405570Y-23198478D01*
X7406975Y-23206917D01*
X7429629Y-23248901D01*
X7432310Y-23254164D01*
X7452955Y-23297158D01*
X7456311Y-23301150D01*
X7458239Y-23303078D01*
X7459750Y-23304725D01*
X7460301Y-23305746D01*
X7462264Y-23309742D01*
X7462358Y-23309888D01*
X7462341Y-23309899D01*
X7491161Y-23368563D01*
X7493000Y-23390010D01*
X7493000Y-24258000D01*
X7472998Y-24326121D01*
X7419342Y-24372614D01*
X7367000Y-24384000D01*
X6096000Y-24384000D01*
X6096000Y-24389319D01*
X6079244Y-24394239D01*
X6052545Y-24411397D01*
X6017049Y-24416500D01*
X5816528Y-24416500D01*
X5748407Y-24396498D01*
X5727433Y-24379595D01*
X4705859Y-23358021D01*
X4693354Y-23342539D01*
X4690418Y-23339312D01*
X4684766Y-23330559D01*
X4660503Y-23311432D01*
X4656508Y-23307882D01*
X4656424Y-23307981D01*
X4652461Y-23304623D01*
X4648785Y-23300947D01*
X4643483Y-23297158D01*
X4634289Y-23290587D01*
X4629546Y-23287026D01*
X4600266Y-23263944D01*
X4600262Y-23263942D01*
X4592084Y-23257495D01*
X4584016Y-23254662D01*
X4577056Y-23249688D01*
X4531355Y-23236021D01*
X4525706Y-23234185D01*
X4488210Y-23221017D01*
X4488211Y-23221017D01*
X4480733Y-23218391D01*
X4475537Y-23217941D01*
X4472832Y-23217941D01*
X4470576Y-23217844D01*
X4470100Y-23217701D01*
X4470102Y-23217655D01*
X4469903Y-23217642D01*
X4463986Y-23215873D01*
X4414352Y-23217823D01*
X4413817Y-23217844D01*
X4408871Y-23217941D01*
X4331841Y-23217941D01*
X-1735999Y-23217940D01*
X-1804120Y-23197938D01*
X-1850613Y-23144282D01*
X-1860716Y-23074008D01*
X-1856454Y-23058155D01*
X-1857158Y-23057966D01*
X-1855194Y-23050635D01*
X-1852358Y-23043581D01*
X-1838138Y-22943662D01*
X-1830619Y-22890831D01*
X-1830619Y-22890828D01*
X-1830038Y-22886747D01*
X-1829893Y-22872940D01*
X-1832451Y-22851797D01*
X-1835600Y-22825780D01*
X-1848924Y-22715673D01*
X-1904920Y-22567486D01*
X-1925829Y-22537063D01*
X-1947989Y-22465696D01*
X-1947989Y-16373360D01*
X-1927987Y-16305239D01*
X-1911084Y-16284265D01*
X-315223Y-14688405D01*
X-252911Y-14654379D01*
X-226128Y-14651500D01*
X4273396Y-14651500D01*
X4289843Y-14652578D01*
X4318000Y-14656285D01*
X4326188Y-14655207D01*
X4353192Y-14651652D01*
X4354715Y-14651500D01*
X4356057Y-14651500D01*
X4359658Y-14651007D01*
X4359665Y-14651006D01*
X4397961Y-14645760D01*
X4398615Y-14645672D01*
X4457781Y-14637883D01*
X4457783Y-14637882D01*
X4462754Y-14637228D01*
X4463993Y-14636715D01*
X4468518Y-14636095D01*
X4535300Y-14607196D01*
X4537103Y-14606432D01*
X4590014Y-14584515D01*
X4597643Y-14581355D01*
X4601045Y-14578744D01*
X4607946Y-14575758D01*
X4661062Y-14532745D01*
X4663643Y-14530711D01*
X4706923Y-14497501D01*
X4706924Y-14497500D01*
X4713474Y-14492474D01*
X4716941Y-14487956D01*
X4717859Y-14487129D01*
X4719335Y-14485558D01*
X4726013Y-14480150D01*
X4730991Y-14473145D01*
X4730994Y-14473142D01*
X4763348Y-14427615D01*
X4766060Y-14423943D01*
X4802355Y-14376642D01*
X4805367Y-14369369D01*
X4808122Y-14365077D01*
X4809042Y-14363317D01*
X4814020Y-14356313D01*
X4834566Y-14299243D01*
X4836708Y-14293706D01*
X4839714Y-14286450D01*
X4858228Y-14241754D01*
X4859306Y-14233566D01*
X4861125Y-14226778D01*
X4862107Y-14223645D01*
X4862574Y-14221449D01*
X4865482Y-14213371D01*
X4866111Y-14204809D01*
X4869654Y-14156562D01*
X4870394Y-14149345D01*
X4876207Y-14105189D01*
X4876207Y-14105188D01*
X4877285Y-14097000D01*
X4876207Y-14088812D01*
X4876207Y-14080552D01*
X4876495Y-14080552D01*
X4876392Y-14076997D01*
X4875979Y-14070431D01*
X4876609Y-14061855D01*
X4866073Y-14009601D01*
X4864666Y-14001149D01*
X4859306Y-13960432D01*
X4859305Y-13960430D01*
X4858228Y-13952246D01*
X4855069Y-13944619D01*
X4853921Y-13940336D01*
X4848557Y-13922736D01*
X4848277Y-13921347D01*
X4846580Y-13912929D01*
X4824035Y-13868681D01*
X4819893Y-13859698D01*
X4805513Y-13824982D01*
X4802355Y-13817358D01*
X4796094Y-13809198D01*
X4783794Y-13789703D01*
X4781510Y-13785221D01*
X4781509Y-13785219D01*
X4777608Y-13777564D01*
X4746438Y-13743667D01*
X4739237Y-13735101D01*
X4713474Y-13701526D01*
X4706924Y-13696500D01*
X4706920Y-13696496D01*
X4702468Y-13693080D01*
X4686427Y-13678407D01*
X4680590Y-13672059D01*
X4680591Y-13672059D01*
X4674774Y-13665734D01*
X4638706Y-13643371D01*
X4628426Y-13636266D01*
X4597643Y-13612645D01*
X4581525Y-13605969D01*
X4563350Y-13596648D01*
X4552956Y-13590203D01*
X4552954Y-13590202D01*
X4545656Y-13585677D01*
X4508379Y-13574847D01*
X4495316Y-13570259D01*
X4470385Y-13559932D01*
X4470379Y-13559930D01*
X4462754Y-13556772D01*
X4454571Y-13555695D01*
X4454568Y-13555694D01*
X4441925Y-13554030D01*
X4423214Y-13550104D01*
X4406108Y-13545134D01*
X4406109Y-13545134D01*
X4399765Y-13543291D01*
X4393184Y-13542808D01*
X4393180Y-13542807D01*
X4392303Y-13542743D01*
X4388993Y-13542500D01*
X4362604Y-13542500D01*
X4346158Y-13541422D01*
X4326188Y-13538793D01*
X4318000Y-13537715D01*
X4309812Y-13538793D01*
X4289842Y-13541422D01*
X4273396Y-13542500D01*
X2920000Y-13542500D01*
X2851879Y-13522498D01*
X2805386Y-13468842D01*
X2794000Y-13416500D01*
X2794000Y-11810000D01*
X2814002Y-11741879D01*
X2867658Y-11695386D01*
X2920000Y-11684000D01*
X3810000Y-11684000D01*
X3810000Y-11676206D01*
X3829389Y-11653830D01*
X3829538Y-11653959D01*
X3837044Y-11640212D01*
X3895674Y-11607460D01*
X3900236Y-11606964D01*
X3907631Y-11604192D01*
X3907634Y-11604191D01*
X4023795Y-11560644D01*
X4023798Y-11560643D01*
X4032199Y-11557493D01*
X4144974Y-11472974D01*
X4227826Y-11362423D01*
X4284685Y-11319909D01*
X4328652Y-11311989D01*
X4648039Y-11311989D01*
X4716160Y-11331991D01*
G37*
G04 #@! TD.AperFunction*
G04 #@! TA.AperFunction,Conductor*
G36*
X7257321Y-6851502D02*
G01*
X7303814Y-6905158D01*
X7315200Y-6957500D01*
X7315200Y-11074400D01*
X8240034Y-11999234D01*
X8250378Y-12012041D01*
X8250444Y-12011985D01*
X8253800Y-12015977D01*
X8255741Y-12017918D01*
X8257237Y-12019549D01*
X8257470Y-12019981D01*
X8257434Y-12020014D01*
X8257573Y-12020172D01*
X8260506Y-12025607D01*
X8268153Y-12032676D01*
X8297370Y-12059684D01*
X8300936Y-12063113D01*
X9344466Y-13106642D01*
X10381533Y-14143709D01*
X10394038Y-14159191D01*
X10396974Y-14162418D01*
X10402626Y-14171171D01*
X10426889Y-14190298D01*
X10430882Y-14193847D01*
X10430966Y-14193747D01*
X10434929Y-14197105D01*
X10438607Y-14200783D01*
X10442839Y-14203807D01*
X10446803Y-14207166D01*
X10446654Y-14207342D01*
X10456399Y-14215599D01*
X10545674Y-14304874D01*
X10579700Y-14367186D01*
X10581501Y-14410412D01*
X10565915Y-14528800D01*
X10566993Y-14536988D01*
X10582699Y-14656285D01*
X10584972Y-14673554D01*
X10588131Y-14681180D01*
X10633566Y-14790868D01*
X10640845Y-14808442D01*
X10729726Y-14924274D01*
X10734337Y-14927812D01*
X10767821Y-14989132D01*
X10770700Y-15015915D01*
X10770700Y-15442743D01*
X10768594Y-15462537D01*
X10768389Y-15466890D01*
X10766197Y-15477070D01*
X10769827Y-15507737D01*
X10770142Y-15513083D01*
X10770272Y-15513072D01*
X10770700Y-15518252D01*
X10770700Y-15523451D01*
X10771553Y-15528575D01*
X10771554Y-15528588D01*
X10773627Y-15541041D01*
X10774464Y-15546916D01*
X10780069Y-15594270D01*
X10783770Y-15601978D01*
X10785175Y-15610417D01*
X10807829Y-15652401D01*
X10810510Y-15657664D01*
X10831155Y-15700658D01*
X10834511Y-15704650D01*
X10836458Y-15706597D01*
X10837948Y-15708222D01*
X10838181Y-15708654D01*
X10838145Y-15708687D01*
X10838284Y-15708845D01*
X10841217Y-15714280D01*
X10848864Y-15721349D01*
X10878081Y-15748357D01*
X10881647Y-15751786D01*
X11088295Y-15958434D01*
X11122321Y-16020746D01*
X11123022Y-16027267D01*
X11125200Y-16034684D01*
X11125200Y-16052800D01*
X11138747Y-16052800D01*
X11151983Y-16055679D01*
X11151280Y-16058910D01*
X11198592Y-16072802D01*
X11219566Y-16089705D01*
X11590195Y-16460334D01*
X11602703Y-16475820D01*
X11605637Y-16479045D01*
X11611286Y-16487793D01*
X11619463Y-16494239D01*
X11635541Y-16506914D01*
X11639544Y-16510472D01*
X11639629Y-16510372D01*
X11643586Y-16513725D01*
X11647267Y-16517406D01*
X11651499Y-16520430D01*
X11651501Y-16520432D01*
X11661776Y-16527775D01*
X11666520Y-16531337D01*
X11695786Y-16554408D01*
X11695790Y-16554410D01*
X11703968Y-16560857D01*
X11712036Y-16563690D01*
X11718996Y-16568664D01*
X11728974Y-16571648D01*
X11764697Y-16582331D01*
X11770346Y-16584167D01*
X11815319Y-16599961D01*
X11820515Y-16600411D01*
X11823220Y-16600411D01*
X11825476Y-16600508D01*
X11825952Y-16600651D01*
X11825950Y-16600697D01*
X11826149Y-16600710D01*
X11832066Y-16602479D01*
X11882235Y-16600508D01*
X11887181Y-16600411D01*
X13643500Y-16600411D01*
X13711621Y-16620413D01*
X13758114Y-16674069D01*
X13769500Y-16726411D01*
X13769500Y-20587550D01*
X13749498Y-20655671D01*
X13732595Y-20676645D01*
X13183645Y-21225595D01*
X13121333Y-21259621D01*
X13094550Y-21262500D01*
X11031941Y-21262500D01*
X10963820Y-21242498D01*
X10917327Y-21188842D01*
X10908362Y-21161079D01*
X10902156Y-21129874D01*
X10902155Y-21129872D01*
X10899734Y-21117699D01*
X10882762Y-21092298D01*
X10850377Y-21043832D01*
X10843484Y-21033516D01*
X10759301Y-20977266D01*
X10685067Y-20962500D01*
X10617576Y-20962500D01*
X10100451Y-20962501D01*
X10032330Y-20942499D01*
X10011356Y-20925596D01*
X9635405Y-20549645D01*
X9601379Y-20487333D01*
X9598500Y-20460550D01*
X9598500Y-15147456D01*
X9599373Y-15132647D01*
X9602300Y-15107915D01*
X9603407Y-15098562D01*
X9592768Y-15040307D01*
X9592118Y-15036404D01*
X9584715Y-14987161D01*
X9583315Y-14977849D01*
X9580162Y-14971283D01*
X9578853Y-14964116D01*
X9551560Y-14911574D01*
X9549792Y-14908037D01*
X9540013Y-14887673D01*
X9524154Y-14854647D01*
X9519258Y-14849351D01*
X9519166Y-14849215D01*
X9515852Y-14842834D01*
X9511506Y-14837746D01*
X9473924Y-14800164D01*
X9470494Y-14796598D01*
X9437774Y-14761202D01*
X9431383Y-14754288D01*
X9424983Y-14750570D01*
X9418723Y-14744963D01*
X5234238Y-10560478D01*
X5224383Y-10549389D01*
X5212343Y-10534117D01*
X5203130Y-10522430D01*
X5178251Y-10505235D01*
X5154395Y-10488747D01*
X5151202Y-10486465D01*
X5103565Y-10451280D01*
X5096692Y-10448866D01*
X5090700Y-10444725D01*
X5034211Y-10426860D01*
X5030490Y-10425618D01*
X4974615Y-10405996D01*
X4967411Y-10405713D01*
X4967240Y-10405680D01*
X4960392Y-10403514D01*
X4953721Y-10402989D01*
X4951252Y-10402989D01*
X4948779Y-10402892D01*
X4948811Y-10402089D01*
X4946182Y-10401577D01*
X4946237Y-10401297D01*
X4883879Y-10382987D01*
X4837386Y-10329331D01*
X4826000Y-10276989D01*
X4826000Y-9189529D01*
X4846002Y-9121408D01*
X4862905Y-9100434D01*
X7094934Y-6868405D01*
X7157246Y-6834379D01*
X7184029Y-6831500D01*
X7189200Y-6831500D01*
X7257321Y-6851502D01*
G37*
G04 #@! TD.AperFunction*
G04 #@! TA.AperFunction,Conductor*
G36*
X14987153Y-256421D02*
G01*
X15000000Y-258976D01*
X15012172Y-256555D01*
X15024580Y-256555D01*
X15024580Y-256816D01*
X15035442Y-256064D01*
X15311466Y-272140D01*
X15326014Y-273841D01*
X15421560Y-290688D01*
X15626044Y-326745D01*
X15640301Y-330124D01*
X15806900Y-380000D01*
X15932164Y-417501D01*
X15945929Y-422512D01*
X16225664Y-543178D01*
X16238758Y-549754D01*
X16502598Y-702082D01*
X16514840Y-710134D01*
X16759208Y-892060D01*
X16770432Y-901478D01*
X16992027Y-1110541D01*
X17002083Y-1121199D01*
X17197916Y-1354586D01*
X17206665Y-1366339D01*
X17374071Y-1620866D01*
X17381398Y-1633555D01*
X17518131Y-1905815D01*
X17523931Y-1919261D01*
X17628127Y-2205537D01*
X17632330Y-2219574D01*
X17702590Y-2516024D01*
X17705134Y-2530454D01*
X17740502Y-2833045D01*
X17741354Y-2847673D01*
X17741354Y-3152327D01*
X17740502Y-3166955D01*
X17705134Y-3469546D01*
X17702590Y-3483976D01*
X17632330Y-3780426D01*
X17628127Y-3794463D01*
X17523931Y-4080739D01*
X17518131Y-4094185D01*
X17414644Y-4300246D01*
X17381398Y-4366445D01*
X17374071Y-4379134D01*
X17206665Y-4633661D01*
X17197916Y-4645414D01*
X17127258Y-4729622D01*
X17016051Y-4862155D01*
X17002083Y-4878801D01*
X16992027Y-4889459D01*
X16770432Y-5098522D01*
X16759208Y-5107940D01*
X16514840Y-5289866D01*
X16502598Y-5297918D01*
X16238758Y-5450246D01*
X16225664Y-5456822D01*
X15945929Y-5577488D01*
X15932164Y-5582499D01*
X15810151Y-5619027D01*
X15640301Y-5669876D01*
X15626044Y-5673255D01*
X15454548Y-5703495D01*
X15326014Y-5726159D01*
X15311466Y-5727860D01*
X15035442Y-5743936D01*
X15024580Y-5743184D01*
X15024580Y-5743445D01*
X15012172Y-5743445D01*
X15000000Y-5741024D01*
X14900894Y-5760737D01*
X14890575Y-5767632D01*
X14837383Y-5803174D01*
X14816876Y-5816876D01*
X14760737Y-5900894D01*
X14741024Y-6000000D01*
X14743579Y-6012844D01*
X14746000Y-6037425D01*
X14746000Y-6380367D01*
X14725998Y-6448488D01*
X14672342Y-6494981D01*
X14602068Y-6505085D01*
X14537488Y-6475591D01*
X14527476Y-6465896D01*
X14517778Y-6455405D01*
X14517774Y-6455402D01*
X14511383Y-6448488D01*
X14504983Y-6444770D01*
X14498723Y-6439163D01*
X12232949Y-4173389D01*
X12223094Y-4162300D01*
X12213246Y-4149808D01*
X12201841Y-4135341D01*
X12176962Y-4118146D01*
X12153106Y-4101658D01*
X12149913Y-4099376D01*
X12102276Y-4064191D01*
X12096672Y-4062223D01*
X12091520Y-4059093D01*
X12089411Y-4057636D01*
X12089410Y-4057636D01*
X12091136Y-4055138D01*
X12050287Y-4017749D01*
X12033513Y-3957606D01*
X12032706Y-3957685D01*
X12032253Y-3953091D01*
X12032099Y-3952537D01*
X12032099Y-3945334D01*
X12022752Y-3898340D01*
X12019756Y-3883274D01*
X12019755Y-3883272D01*
X12017334Y-3871099D01*
X11961084Y-3786916D01*
X11876901Y-3730666D01*
X11802667Y-3715900D01*
X11277685Y-3715900D01*
X10752534Y-3715901D01*
X10716782Y-3723012D01*
X10690474Y-3728244D01*
X10690472Y-3728245D01*
X10678299Y-3730666D01*
X10667979Y-3737561D01*
X10667978Y-3737562D01*
X10607585Y-3777916D01*
X10594116Y-3786916D01*
X10537866Y-3871099D01*
X10523100Y-3945333D01*
X10523101Y-4995466D01*
X10537866Y-5069701D01*
X10594116Y-5153884D01*
X10604432Y-5160777D01*
X10665363Y-5201490D01*
X10678299Y-5210134D01*
X10752533Y-5224900D01*
X11277515Y-5224900D01*
X11802666Y-5224899D01*
X11838418Y-5217788D01*
X11864726Y-5212556D01*
X11864728Y-5212555D01*
X11876901Y-5210134D01*
X11879509Y-5208391D01*
X11943712Y-5201490D01*
X12010433Y-5236393D01*
X13732595Y-6958555D01*
X13766621Y-7020867D01*
X13769500Y-7047650D01*
X13769500Y-13386800D01*
X13749498Y-13454921D01*
X13695842Y-13501414D01*
X13643500Y-13512800D01*
X12186729Y-13512800D01*
X12118608Y-13492798D01*
X12097634Y-13475895D01*
X10552505Y-11930767D01*
X10518480Y-11868455D01*
X10515600Y-11841672D01*
X10515600Y-10972800D01*
X9587305Y-10044505D01*
X9553279Y-9982193D01*
X9550400Y-9955410D01*
X9550400Y-8269799D01*
X10518400Y-8269799D01*
X10534918Y-8438262D01*
X10588348Y-8598879D01*
X10676035Y-8743667D01*
X10680926Y-8748732D01*
X10680927Y-8748733D01*
X10704662Y-8773311D01*
X10793621Y-8865431D01*
X10935260Y-8958117D01*
X11093915Y-9017120D01*
X11100896Y-9018051D01*
X11100898Y-9018052D01*
X11254718Y-9038576D01*
X11254722Y-9038576D01*
X11261699Y-9039507D01*
X11268710Y-9038869D01*
X11268714Y-9038869D01*
X11423252Y-9024805D01*
X11430273Y-9024166D01*
X11591259Y-8971858D01*
X11736656Y-8885184D01*
X11859238Y-8768452D01*
X11863139Y-8762581D01*
X11949010Y-8633335D01*
X11949011Y-8633333D01*
X11952911Y-8627463D01*
X12013020Y-8469224D01*
X12036578Y-8301600D01*
X12036874Y-8280400D01*
X12024878Y-8173449D01*
X12018791Y-8119180D01*
X12018790Y-8119177D01*
X12018006Y-8112184D01*
X11962338Y-7952329D01*
X11872638Y-7808779D01*
X11798401Y-7734021D01*
X11764594Y-7671591D01*
X11769906Y-7600794D01*
X11800915Y-7553992D01*
X11841278Y-7515555D01*
X11859238Y-7498452D01*
X11863139Y-7492581D01*
X11949010Y-7363335D01*
X11949011Y-7363333D01*
X11952911Y-7357463D01*
X12013020Y-7199224D01*
X12032985Y-7057166D01*
X12036027Y-7035523D01*
X12036027Y-7035518D01*
X12036578Y-7031600D01*
X12036874Y-7010400D01*
X12029678Y-6946242D01*
X12018791Y-6849180D01*
X12018790Y-6849177D01*
X12018006Y-6842184D01*
X11962338Y-6682329D01*
X11872638Y-6538779D01*
X11867022Y-6533123D01*
X11782889Y-6448401D01*
X11753364Y-6418669D01*
X11610444Y-6327969D01*
X11566345Y-6312266D01*
X11457616Y-6273549D01*
X11457611Y-6273548D01*
X11450981Y-6271187D01*
X11443995Y-6270354D01*
X11443991Y-6270353D01*
X11324887Y-6256151D01*
X11282901Y-6251145D01*
X11275898Y-6251881D01*
X11275897Y-6251881D01*
X11121565Y-6268101D01*
X11121561Y-6268102D01*
X11114557Y-6268838D01*
X11107886Y-6271109D01*
X10960987Y-6321117D01*
X10960984Y-6321118D01*
X10954317Y-6323388D01*
X10948319Y-6327078D01*
X10948317Y-6327079D01*
X10816143Y-6408393D01*
X10816141Y-6408395D01*
X10810144Y-6412084D01*
X10689205Y-6530517D01*
X10685394Y-6536431D01*
X10685392Y-6536433D01*
X10655930Y-6582149D01*
X10597509Y-6672800D01*
X10592902Y-6685458D01*
X10542025Y-6825240D01*
X10542024Y-6825245D01*
X10539615Y-6831863D01*
X10518400Y-6999799D01*
X10534918Y-7168262D01*
X10588348Y-7328879D01*
X10676035Y-7473667D01*
X10680926Y-7478732D01*
X10680927Y-7478733D01*
X10757742Y-7558277D01*
X10790674Y-7621174D01*
X10784374Y-7691890D01*
X10755263Y-7735827D01*
X10739462Y-7751301D01*
X10689205Y-7800517D01*
X10685394Y-7806431D01*
X10685392Y-7806433D01*
X10680030Y-7814753D01*
X10597509Y-7942800D01*
X10595098Y-7949425D01*
X10542025Y-8095240D01*
X10542024Y-8095245D01*
X10539615Y-8101863D01*
X10518400Y-8269799D01*
X9550400Y-8269799D01*
X9550400Y-2933789D01*
X13595996Y-2933789D01*
X13596196Y-2939118D01*
X13596196Y-2939119D01*
X13597711Y-2979460D01*
X13604913Y-3171295D01*
X13653719Y-3403904D01*
X13655677Y-3408863D01*
X13655678Y-3408865D01*
X13704925Y-3533564D01*
X13741020Y-3624963D01*
X13743787Y-3629522D01*
X13743788Y-3629525D01*
X13803693Y-3728245D01*
X13864319Y-3828153D01*
X13867816Y-3832183D01*
X14013414Y-3999970D01*
X14020090Y-4007664D01*
X14024216Y-4011047D01*
X14024220Y-4011051D01*
X14113739Y-4084451D01*
X14203880Y-4158362D01*
X14208516Y-4161001D01*
X14208519Y-4161003D01*
X14287916Y-4206198D01*
X14410433Y-4275939D01*
X14633844Y-4357034D01*
X14639092Y-4357983D01*
X14863641Y-4398588D01*
X14863648Y-4398589D01*
X14867725Y-4399326D01*
X14885991Y-4400187D01*
X14891131Y-4400430D01*
X14891138Y-4400430D01*
X14892619Y-4400500D01*
X15059680Y-4400500D01*
X15157733Y-4392180D01*
X15231512Y-4385920D01*
X15231516Y-4385919D01*
X15236823Y-4385469D01*
X15241978Y-4384131D01*
X15241984Y-4384130D01*
X15461703Y-4327102D01*
X15461702Y-4327102D01*
X15466874Y-4325760D01*
X15607777Y-4262288D01*
X15678715Y-4230333D01*
X15678718Y-4230332D01*
X15683576Y-4228143D01*
X15690929Y-4223193D01*
X15723018Y-4201589D01*
X15880732Y-4095409D01*
X15888882Y-4087635D01*
X15969162Y-4011051D01*
X16052705Y-3931355D01*
X16194579Y-3740670D01*
X16302295Y-3528807D01*
X16316216Y-3483976D01*
X16371193Y-3306919D01*
X16372775Y-3301824D01*
X16393282Y-3147104D01*
X16403304Y-3071494D01*
X16403304Y-3071491D01*
X16404004Y-3066211D01*
X16402536Y-3027097D01*
X16395799Y-2847673D01*
X16395087Y-2828705D01*
X16346281Y-2596096D01*
X16327147Y-2547646D01*
X16260941Y-2380002D01*
X16260940Y-2380000D01*
X16258980Y-2375037D01*
X16231422Y-2329622D01*
X16138448Y-2176407D01*
X16135681Y-2171847D01*
X15979910Y-1992336D01*
X15975784Y-1988953D01*
X15975780Y-1988949D01*
X15800248Y-1845023D01*
X15796120Y-1841638D01*
X15791484Y-1838999D01*
X15791481Y-1838997D01*
X15669685Y-1769667D01*
X15589567Y-1724061D01*
X15366156Y-1642966D01*
X15314112Y-1633555D01*
X15136359Y-1601412D01*
X15136352Y-1601411D01*
X15132275Y-1600674D01*
X15114009Y-1599813D01*
X15108869Y-1599570D01*
X15108862Y-1599570D01*
X15107381Y-1599500D01*
X14940320Y-1599500D01*
X14857974Y-1606487D01*
X14768488Y-1614080D01*
X14768484Y-1614081D01*
X14763177Y-1614531D01*
X14758022Y-1615869D01*
X14758016Y-1615870D01*
X14646612Y-1644785D01*
X14533126Y-1674240D01*
X14520344Y-1679998D01*
X14321285Y-1769667D01*
X14321282Y-1769668D01*
X14316424Y-1771857D01*
X14119268Y-1904591D01*
X14115411Y-1908270D01*
X14115409Y-1908272D01*
X14103890Y-1919261D01*
X13947295Y-2068645D01*
X13805421Y-2259330D01*
X13697705Y-2471193D01*
X13696124Y-2476284D01*
X13696123Y-2476287D01*
X13657554Y-2600499D01*
X13627225Y-2698176D01*
X13626524Y-2703465D01*
X13596951Y-2926586D01*
X13595996Y-2933789D01*
X9550400Y-2933789D01*
X9550400Y-2696084D01*
X9550885Y-2692400D01*
X9550400Y-2688716D01*
X9550400Y-2641600D01*
X9545403Y-2641600D01*
X9542204Y-2626462D01*
X9532906Y-2555832D01*
X9532905Y-2555830D01*
X9531828Y-2547646D01*
X9509815Y-2494502D01*
X9479115Y-2420386D01*
X9479114Y-2420384D01*
X9475955Y-2412758D01*
X9387074Y-2296926D01*
X9380524Y-2291900D01*
X9380521Y-2291897D01*
X9277796Y-2213073D01*
X9277794Y-2213072D01*
X9271243Y-2208045D01*
X9136354Y-2152172D01*
X8991600Y-2133115D01*
X8983412Y-2134193D01*
X8855032Y-2151094D01*
X8855030Y-2151095D01*
X8846846Y-2152172D01*
X8809076Y-2167817D01*
X8719586Y-2204885D01*
X8719584Y-2204886D01*
X8711958Y-2208045D01*
X8596126Y-2296926D01*
X8507245Y-2412758D01*
X8504086Y-2420384D01*
X8504085Y-2420386D01*
X8473385Y-2494502D01*
X8451372Y-2547646D01*
X8450295Y-2555830D01*
X8450294Y-2555832D01*
X8444414Y-2600499D01*
X8432315Y-2692400D01*
X8433074Y-2698165D01*
X8413391Y-2765200D01*
X8396488Y-2786174D01*
X8330069Y-2852593D01*
X8314587Y-2865098D01*
X8311360Y-2868034D01*
X8302607Y-2873686D01*
X8283480Y-2897949D01*
X8279930Y-2901944D01*
X8280029Y-2902028D01*
X8276671Y-2905991D01*
X8272995Y-2909667D01*
X8269972Y-2913896D01*
X8269972Y-2913897D01*
X8262635Y-2924163D01*
X8259074Y-2928906D01*
X8235992Y-2958186D01*
X8235990Y-2958190D01*
X8229543Y-2966368D01*
X8226710Y-2974436D01*
X8221736Y-2981396D01*
X8218752Y-2991374D01*
X8208069Y-3027097D01*
X8206233Y-3032746D01*
X8190439Y-3077719D01*
X8189989Y-3082915D01*
X8189989Y-3085620D01*
X8189892Y-3087876D01*
X8189749Y-3088352D01*
X8189703Y-3088350D01*
X8189690Y-3088549D01*
X8187921Y-3094466D01*
X8188330Y-3104870D01*
X8189892Y-3144635D01*
X8189989Y-3149581D01*
X8189989Y-4549564D01*
X8169987Y-4617685D01*
X8116331Y-4664178D01*
X8046057Y-4674282D01*
X8031378Y-4671271D01*
X8026387Y-4669934D01*
X8018754Y-4666772D01*
X7874000Y-4647715D01*
X7865812Y-4648793D01*
X7737432Y-4665694D01*
X7737430Y-4665695D01*
X7729246Y-4666772D01*
X7681430Y-4686578D01*
X7601986Y-4719485D01*
X7601984Y-4719486D01*
X7594358Y-4722645D01*
X7558011Y-4750535D01*
X7489007Y-4803484D01*
X7478526Y-4811526D01*
X7389645Y-4927358D01*
X7386484Y-4934988D01*
X7386484Y-4934989D01*
X7343618Y-5038475D01*
X7316304Y-5079352D01*
X3202101Y-9193555D01*
X3139789Y-9227581D01*
X3113006Y-9230460D01*
X1645013Y-9230461D01*
X1267790Y-9230461D01*
X1247996Y-9228355D01*
X1243643Y-9228150D01*
X1233463Y-9225958D01*
X1202793Y-9229588D01*
X1197450Y-9229903D01*
X1197461Y-9230033D01*
X1192281Y-9230461D01*
X1187082Y-9230461D01*
X1181958Y-9231314D01*
X1181945Y-9231315D01*
X1169492Y-9233388D01*
X1163617Y-9234225D01*
X1126604Y-9238606D01*
X1116263Y-9239830D01*
X1108555Y-9243531D01*
X1100116Y-9244936D01*
X1058132Y-9267590D01*
X1052869Y-9270271D01*
X1009875Y-9290916D01*
X1005883Y-9294272D01*
X1003936Y-9296219D01*
X1002311Y-9297709D01*
X1001879Y-9297942D01*
X1001846Y-9297906D01*
X1001688Y-9298045D01*
X996253Y-9300978D01*
X989184Y-9308625D01*
X962176Y-9337842D01*
X958747Y-9341408D01*
X-66844Y-10367000D01*
X-1060440Y-11360596D01*
X-1122752Y-11394621D01*
X-1149535Y-11397501D01*
X-1280066Y-11397501D01*
X-1315818Y-11404612D01*
X-1342126Y-11409844D01*
X-1342128Y-11409845D01*
X-1354301Y-11412266D01*
X-1364622Y-11419163D01*
X-1367631Y-11420409D01*
X-1415849Y-11430000D01*
X-1584150Y-11430000D01*
X-1632369Y-11420408D01*
X-1635382Y-11419160D01*
X-1645699Y-11412266D01*
X-1657868Y-11409845D01*
X-1657869Y-11409845D01*
X-1713865Y-11398707D01*
X-1719933Y-11397500D01*
X-1999954Y-11397500D01*
X-2280066Y-11397501D01*
X-2315818Y-11404612D01*
X-2342126Y-11409844D01*
X-2342128Y-11409845D01*
X-2354301Y-11412266D01*
X-2364622Y-11419163D01*
X-2367631Y-11420409D01*
X-2415849Y-11430000D01*
X-2617200Y-11430000D01*
X-2685321Y-11409998D01*
X-2731814Y-11356342D01*
X-2743200Y-11304000D01*
X-2743200Y-8669500D01*
X-2723198Y-8601379D01*
X-2669542Y-8554886D01*
X-2617200Y-8543500D01*
X395743Y-8543500D01*
X415537Y-8545606D01*
X419890Y-8545811D01*
X430070Y-8548003D01*
X460740Y-8544373D01*
X466083Y-8544058D01*
X466072Y-8543928D01*
X471252Y-8543500D01*
X476451Y-8543500D01*
X481575Y-8542647D01*
X481588Y-8542646D01*
X494041Y-8540573D01*
X499916Y-8539736D01*
X536929Y-8535355D01*
X547270Y-8534131D01*
X554978Y-8530430D01*
X563417Y-8529025D01*
X605401Y-8506371D01*
X610664Y-8503690D01*
X618870Y-8499750D01*
X653658Y-8483045D01*
X657650Y-8479689D01*
X659597Y-8477742D01*
X661222Y-8476252D01*
X661654Y-8476019D01*
X661687Y-8476055D01*
X661845Y-8475916D01*
X667280Y-8472983D01*
X693197Y-8444947D01*
X701346Y-8436131D01*
X704774Y-8432565D01*
X916253Y-8221086D01*
X1194258Y-7943080D01*
X1256571Y-7909055D01*
X1271004Y-7906782D01*
X1273878Y-7906499D01*
X1280066Y-7906499D01*
X1286132Y-7905292D01*
X1286137Y-7905292D01*
X1342126Y-7894156D01*
X1342128Y-7894155D01*
X1354301Y-7891734D01*
X1430000Y-7841153D01*
X1497750Y-7819939D01*
X1570001Y-7841153D01*
X1645699Y-7891734D01*
X1719933Y-7906500D01*
X1999954Y-7906500D01*
X2280066Y-7906499D01*
X2315818Y-7899388D01*
X2342126Y-7894156D01*
X2342128Y-7894155D01*
X2354301Y-7891734D01*
X2364621Y-7884839D01*
X2364622Y-7884838D01*
X2428168Y-7842377D01*
X2438484Y-7835484D01*
X2494734Y-7751301D01*
X2509500Y-7677067D01*
X2509499Y-6526934D01*
X2494734Y-6452699D01*
X2485690Y-6439163D01*
X2445377Y-6378832D01*
X2438484Y-6368516D01*
X2380455Y-6329741D01*
X2334927Y-6275265D01*
X2326079Y-6204822D01*
X2349630Y-6149413D01*
X2408110Y-6071382D01*
X2408111Y-6071381D01*
X2413493Y-6064199D01*
X2423531Y-6037425D01*
X2460190Y-5939635D01*
X2462964Y-5932236D01*
X2469500Y-5872070D01*
X2469500Y-5303930D01*
X2462964Y-5243764D01*
X2434249Y-5167166D01*
X2416644Y-5120205D01*
X2416643Y-5120202D01*
X2413493Y-5111801D01*
X2386710Y-5076064D01*
X2361863Y-5009558D01*
X2376916Y-4940175D01*
X2427091Y-4889946D01*
X2487537Y-4874500D01*
X4141796Y-4874499D01*
X4175066Y-4874499D01*
X4210818Y-4867388D01*
X4237126Y-4862156D01*
X4237128Y-4862155D01*
X4249301Y-4859734D01*
X4259621Y-4852839D01*
X4259622Y-4852838D01*
X4323168Y-4810377D01*
X4333484Y-4803484D01*
X4389734Y-4719301D01*
X4404500Y-4645067D01*
X4404500Y-3619998D01*
X4404499Y-2600499D01*
X4424501Y-2532378D01*
X4478157Y-2485885D01*
X4530499Y-2474499D01*
X4925066Y-2474499D01*
X4965605Y-2466436D01*
X4987126Y-2462156D01*
X4987128Y-2462155D01*
X4999301Y-2459734D01*
X5009621Y-2452839D01*
X5009622Y-2452838D01*
X5073168Y-2410377D01*
X5083484Y-2403484D01*
X5139734Y-2319301D01*
X5154500Y-2245067D01*
X5154499Y-380000D01*
X5174501Y-311879D01*
X5228157Y-265386D01*
X5280499Y-254000D01*
X14962575Y-254000D01*
X14987153Y-256421D01*
G37*
G04 #@! TD.AperFunction*
G04 #@! TA.AperFunction,Conductor*
G36*
X-12249879Y-23896002D02*
G01*
X-12203386Y-23949658D01*
X-12192000Y-24002000D01*
X-12192000Y-32385000D01*
X-11305370Y-33271630D01*
X-11271344Y-33333942D01*
X-11269171Y-33356985D01*
X-11268852Y-33356964D01*
X-11255576Y-33559522D01*
X-11205608Y-33756269D01*
X-11203191Y-33761512D01*
X-11123041Y-33935371D01*
X-11120623Y-33940616D01*
X-11003467Y-34106389D01*
X-10858062Y-34248035D01*
X-10689280Y-34360812D01*
X-10683977Y-34363090D01*
X-10683974Y-34363092D01*
X-10558499Y-34417000D01*
X-10502772Y-34440942D01*
X-10429756Y-34457464D01*
X-10310421Y-34484467D01*
X-10310416Y-34484468D01*
X-10304784Y-34485742D01*
X-10299013Y-34485969D01*
X-10299011Y-34485969D01*
X-10239244Y-34488317D01*
X-10101947Y-34493712D01*
X-10001501Y-34479148D01*
X-9906769Y-34465413D01*
X-9906764Y-34465412D01*
X-9901055Y-34464584D01*
X-9895591Y-34462729D01*
X-9895586Y-34462728D01*
X-9780576Y-34423687D01*
X-9740075Y-34417000D01*
X-6774420Y-34417000D01*
X-6724684Y-34427232D01*
X-6692772Y-34440942D01*
X-6687143Y-34442216D01*
X-6687142Y-34442216D01*
X-6500421Y-34484467D01*
X-6500416Y-34484468D01*
X-6494784Y-34485742D01*
X-6489013Y-34485969D01*
X-6489011Y-34485969D01*
X-6429244Y-34488317D01*
X-6291947Y-34493712D01*
X-6191501Y-34479148D01*
X-6096769Y-34465413D01*
X-6096764Y-34465412D01*
X-6091055Y-34464584D01*
X-6085591Y-34462729D01*
X-6085586Y-34462728D01*
X-5970576Y-34423687D01*
X-5930075Y-34417000D01*
X-2964420Y-34417000D01*
X-2914684Y-34427232D01*
X-2882772Y-34440942D01*
X-2877143Y-34442216D01*
X-2877142Y-34442216D01*
X-2690421Y-34484467D01*
X-2690416Y-34484468D01*
X-2684784Y-34485742D01*
X-2679013Y-34485969D01*
X-2679011Y-34485969D01*
X-2619244Y-34488317D01*
X-2481947Y-34493712D01*
X-2381501Y-34479148D01*
X-2286769Y-34465413D01*
X-2286764Y-34465412D01*
X-2281055Y-34464584D01*
X-2275591Y-34462729D01*
X-2275586Y-34462728D01*
X-2160576Y-34423687D01*
X-2120075Y-34417000D01*
X845580Y-34417000D01*
X895316Y-34427232D01*
X927228Y-34440942D01*
X932857Y-34442216D01*
X932858Y-34442216D01*
X1119579Y-34484467D01*
X1119584Y-34484468D01*
X1125216Y-34485742D01*
X1130987Y-34485969D01*
X1130989Y-34485969D01*
X1190756Y-34488317D01*
X1328053Y-34493712D01*
X1428499Y-34479148D01*
X1523231Y-34465413D01*
X1523236Y-34465412D01*
X1528945Y-34464584D01*
X1534409Y-34462729D01*
X1534414Y-34462728D01*
X1649424Y-34423687D01*
X1689925Y-34417000D01*
X4655580Y-34417000D01*
X4705316Y-34427232D01*
X4737228Y-34440942D01*
X4742857Y-34442216D01*
X4742858Y-34442216D01*
X4929579Y-34484467D01*
X4929584Y-34484468D01*
X4935216Y-34485742D01*
X4940987Y-34485969D01*
X4940989Y-34485969D01*
X5000756Y-34488317D01*
X5138053Y-34493712D01*
X5238499Y-34479148D01*
X5333231Y-34465413D01*
X5333236Y-34465412D01*
X5338945Y-34464584D01*
X5344409Y-34462729D01*
X5344414Y-34462728D01*
X5459424Y-34423687D01*
X5499925Y-34417000D01*
X9735580Y-34417000D01*
X9785316Y-34427232D01*
X9817228Y-34440942D01*
X9822857Y-34442216D01*
X9822858Y-34442216D01*
X10009579Y-34484467D01*
X10009584Y-34484468D01*
X10015216Y-34485742D01*
X10020987Y-34485969D01*
X10020989Y-34485969D01*
X10080756Y-34488317D01*
X10218053Y-34493712D01*
X10318499Y-34479148D01*
X10413231Y-34465413D01*
X10413236Y-34465412D01*
X10418945Y-34464584D01*
X10424409Y-34462729D01*
X10424414Y-34462728D01*
X10539424Y-34423687D01*
X10579925Y-34417000D01*
X11177000Y-34417000D01*
X11245121Y-34437002D01*
X11291614Y-34490658D01*
X11303000Y-34543000D01*
X11303000Y-36577000D01*
X11282998Y-36645121D01*
X11229342Y-36691614D01*
X11177000Y-36703000D01*
X-10488810Y-36703000D01*
X-10556931Y-36682998D01*
X-10577905Y-36666095D01*
X-13425095Y-33818905D01*
X-13459121Y-33756593D01*
X-13462000Y-33729810D01*
X-13462000Y-24002000D01*
X-13441998Y-23933879D01*
X-13388342Y-23887386D01*
X-13336000Y-23876000D01*
X-12318000Y-23876000D01*
X-12249879Y-23896002D01*
G37*
G04 #@! TD.AperFunction*
M02*
