G04 #@! TF.GenerationSoftware,KiCad,Pcbnew,(6.0.1)*
G04 #@! TF.CreationDate,2022-07-28T15:49:31+09:00*
G04 #@! TF.ProjectId,Fc_stm32,46635f73-746d-4333-922e-6b696361645f,rev?*
G04 #@! TF.SameCoordinates,Original*
G04 #@! TF.FileFunction,Soldermask,Bot*
G04 #@! TF.FilePolarity,Negative*
%FSLAX46Y46*%
G04 Gerber Fmt 4.6, Leading zero omitted, Abs format (unit mm)*
G04 Created by KiCad (PCBNEW (6.0.1)) date 2022-07-28 15:49:31*
%MOMM*%
%LPD*%
G01*
G04 APERTURE LIST*
G04 Aperture macros list*
%AMRoundRect*
0 Rectangle with rounded corners*
0 $1 Rounding radius*
0 $2 $3 $4 $5 $6 $7 $8 $9 X,Y pos of 4 corners*
0 Add a 4 corners polygon primitive as box body*
4,1,4,$2,$3,$4,$5,$6,$7,$8,$9,$2,$3,0*
0 Add four circle primitives for the rounded corners*
1,1,$1+$1,$2,$3*
1,1,$1+$1,$4,$5*
1,1,$1+$1,$6,$7*
1,1,$1+$1,$8,$9*
0 Add four rect primitives between the rounded corners*
20,1,$1+$1,$2,$3,$4,$5,0*
20,1,$1+$1,$4,$5,$6,$7,0*
20,1,$1+$1,$6,$7,$8,$9,0*
20,1,$1+$1,$8,$9,$2,$3,0*%
G04 Aperture macros list end*
%ADD10R,1.700000X1.700000*%
%ADD11O,1.700000X1.700000*%
%ADD12R,1.000000X1.000000*%
%ADD13O,1.000000X1.000000*%
%ADD14C,2.200000*%
%ADD15RoundRect,0.237500X0.250000X0.237500X-0.250000X0.237500X-0.250000X-0.237500X0.250000X-0.237500X0*%
%ADD16RoundRect,0.150000X-0.150000X0.587500X-0.150000X-0.587500X0.150000X-0.587500X0.150000X0.587500X0*%
%ADD17RoundRect,0.237500X-0.250000X-0.237500X0.250000X-0.237500X0.250000X0.237500X-0.250000X0.237500X0*%
%ADD18RoundRect,0.237500X0.300000X0.237500X-0.300000X0.237500X-0.300000X-0.237500X0.300000X-0.237500X0*%
%ADD19RoundRect,0.150000X0.587500X0.150000X-0.587500X0.150000X-0.587500X-0.150000X0.587500X-0.150000X0*%
%ADD20R,0.400000X1.350000*%
%ADD21R,2.100000X2.000000*%
%ADD22R,1.600000X1.900000*%
%ADD23R,1.200000X1.900000*%
%ADD24R,0.510000X1.100000*%
%ADD25RoundRect,0.237500X0.237500X-0.300000X0.237500X0.300000X-0.237500X0.300000X-0.237500X-0.300000X0*%
G04 APERTURE END LIST*
D10*
X1270000Y-38466000D03*
D11*
X1270000Y-35926000D03*
X1270000Y-33386000D03*
D12*
X10160000Y-21717000D03*
D13*
X10160000Y-22987000D03*
D10*
X-2540000Y-38466000D03*
D11*
X-2540000Y-35926000D03*
X-2540000Y-33386000D03*
D14*
X-15000000Y-37000000D03*
X-15000000Y-3000000D03*
X15000000Y-3000000D03*
D12*
X11277600Y-4470400D03*
D13*
X11277600Y-5740400D03*
X11277600Y-7010400D03*
X11277600Y-8280400D03*
D10*
X5080000Y-38466000D03*
D11*
X5080000Y-35926000D03*
X5080000Y-33386000D03*
D14*
X15000000Y-37000000D03*
D10*
X10160000Y-38466000D03*
D11*
X10160000Y-35926000D03*
X10160000Y-33386000D03*
D10*
X-6350000Y-38466000D03*
D11*
X-6350000Y-35926000D03*
X-6350000Y-33386000D03*
D10*
X-10160000Y-38466000D03*
D11*
X-10160000Y-35926000D03*
X-10160000Y-33386000D03*
D15*
X-9247500Y-30480000D03*
X-11072500Y-30480000D03*
D16*
X7940000Y-26875500D03*
X9840000Y-26875500D03*
X8890000Y-28750500D03*
D15*
X2182500Y-30480000D03*
X357500Y-30480000D03*
D17*
X7977500Y-25146000D03*
X9802500Y-25146000D03*
D18*
X3402500Y-5588000D03*
X1677500Y-5588000D03*
D17*
X-3452500Y-25146000D03*
X-1627500Y-25146000D03*
D15*
X13612500Y-25146000D03*
X11787500Y-25146000D03*
D17*
X357500Y-25146000D03*
X2182500Y-25146000D03*
D16*
X-3490000Y-26875500D03*
X-1590000Y-26875500D03*
X-2540000Y-28750500D03*
D19*
X-3761500Y-9718000D03*
X-3761500Y-11618000D03*
X-5636500Y-10668000D03*
D16*
X-7300000Y-26875500D03*
X-5400000Y-26875500D03*
X-6350000Y-28750500D03*
D15*
X9802500Y-30480000D03*
X7977500Y-30480000D03*
X-1627500Y-30480000D03*
X-3452500Y-30480000D03*
D16*
X-11110000Y-26875500D03*
X-9210000Y-26875500D03*
X-10160000Y-28750500D03*
D17*
X4167500Y-25146000D03*
X5992500Y-25146000D03*
D16*
X320000Y-26875500D03*
X2220000Y-26875500D03*
X1270000Y-28750500D03*
D19*
X-3761500Y-6289000D03*
X-3761500Y-8189000D03*
X-5636500Y-7239000D03*
D16*
X11750000Y-26875500D03*
X13650000Y-26875500D03*
X12700000Y-28750500D03*
D20*
X1300000Y-3945000D03*
X650000Y-3945000D03*
X0Y-3945000D03*
X-650000Y-3945000D03*
X-1300000Y-3945000D03*
D21*
X-3100000Y-3620000D03*
X3100000Y-3620000D03*
D22*
X4100000Y-1270000D03*
D23*
X850000Y-1270000D03*
X-850000Y-1270000D03*
D22*
X-4100000Y-1270000D03*
D24*
X-2000000Y-7102000D03*
X-1000000Y-7102000D03*
X0Y-7102000D03*
X1000000Y-7102000D03*
X2000000Y-7102000D03*
X2000000Y-12202000D03*
X1000000Y-12202000D03*
X0Y-12202000D03*
X-1000000Y-12202000D03*
X-2000000Y-12202000D03*
D17*
X11787500Y-30480000D03*
X13612500Y-30480000D03*
D15*
X5992500Y-30480000D03*
X4167500Y-30480000D03*
D16*
X4130000Y-26875500D03*
X6030000Y-26875500D03*
X5080000Y-28750500D03*
D17*
X-7262500Y-25146000D03*
X-5437500Y-25146000D03*
X-11072500Y-25146000D03*
X-9247500Y-25146000D03*
D15*
X-5437500Y-30480000D03*
X-7262500Y-30480000D03*
D25*
X3556000Y-12546500D03*
X3556000Y-10821500D03*
M02*
