G04 #@! TF.GenerationSoftware,KiCad,Pcbnew,(6.0.1)*
G04 #@! TF.CreationDate,2022-07-28T15:49:31+09:00*
G04 #@! TF.ProjectId,Fc_stm32,46635f73-746d-4333-922e-6b696361645f,rev?*
G04 #@! TF.SameCoordinates,Original*
G04 #@! TF.FileFunction,Soldermask,Top*
G04 #@! TF.FilePolarity,Negative*
%FSLAX46Y46*%
G04 Gerber Fmt 4.6, Leading zero omitted, Abs format (unit mm)*
G04 Created by KiCad (PCBNEW (6.0.1)) date 2022-07-28 15:49:31*
%MOMM*%
%LPD*%
G01*
G04 APERTURE LIST*
G04 Aperture macros list*
%AMRoundRect*
0 Rectangle with rounded corners*
0 $1 Rounding radius*
0 $2 $3 $4 $5 $6 $7 $8 $9 X,Y pos of 4 corners*
0 Add a 4 corners polygon primitive as box body*
4,1,4,$2,$3,$4,$5,$6,$7,$8,$9,$2,$3,0*
0 Add four circle primitives for the rounded corners*
1,1,$1+$1,$2,$3*
1,1,$1+$1,$4,$5*
1,1,$1+$1,$6,$7*
1,1,$1+$1,$8,$9*
0 Add four rect primitives between the rounded corners*
20,1,$1+$1,$2,$3,$4,$5,0*
20,1,$1+$1,$4,$5,$6,$7,0*
20,1,$1+$1,$6,$7,$8,$9,0*
20,1,$1+$1,$8,$9,$2,$3,0*%
%AMFreePoly0*
4,1,13,0.900000,0.500000,3.600000,0.500000,3.600000,-0.500000,0.900000,-0.500000,0.400000,-1.000000,-0.400000,-1.000000,-0.900000,-0.500000,-3.600000,-0.500000,-3.600000,0.500000,-0.900000,0.500000,-0.400000,1.000000,0.400000,1.000000,0.900000,0.500000,0.900000,0.500000,$1*%
G04 Aperture macros list end*
%ADD10RoundRect,0.237500X0.237500X-0.300000X0.237500X0.300000X-0.237500X0.300000X-0.237500X-0.300000X0*%
%ADD11R,1.700000X1.700000*%
%ADD12O,1.700000X1.700000*%
%ADD13R,1.000000X1.000000*%
%ADD14O,1.000000X1.000000*%
%ADD15RoundRect,0.100000X0.100000X-0.175000X0.100000X0.175000X-0.100000X0.175000X-0.100000X-0.175000X0*%
%ADD16RoundRect,0.100000X0.175000X-0.100000X0.175000X0.100000X-0.175000X0.100000X-0.175000X-0.100000X0*%
%ADD17C,2.200000*%
%ADD18R,1.050000X0.650000*%
%ADD19R,2.500000X0.700000*%
%ADD20FreePoly0,0.000000*%
%ADD21RoundRect,0.237500X0.300000X0.237500X-0.300000X0.237500X-0.300000X-0.237500X0.300000X-0.237500X0*%
%ADD22RoundRect,0.237500X0.250000X0.237500X-0.250000X0.237500X-0.250000X-0.237500X0.250000X-0.237500X0*%
%ADD23RoundRect,0.237500X-0.237500X0.300000X-0.237500X-0.300000X0.237500X-0.300000X0.237500X0.300000X0*%
%ADD24RoundRect,0.237500X-0.237500X0.250000X-0.237500X-0.250000X0.237500X-0.250000X0.237500X0.250000X0*%
%ADD25R,2.000000X0.900000*%
%ADD26R,0.900000X2.000000*%
%ADD27R,5.000000X5.000000*%
%ADD28R,0.500000X0.300000*%
%ADD29R,0.300000X0.500000*%
%ADD30RoundRect,0.237500X0.287500X0.237500X-0.287500X0.237500X-0.287500X-0.237500X0.287500X-0.237500X0*%
G04 APERTURE END LIST*
D10*
X11125200Y-14527700D03*
X11125200Y-12802700D03*
D11*
X1270000Y-38466000D03*
D12*
X1270000Y-35926000D03*
X1270000Y-33386000D03*
D13*
X10160000Y-21717000D03*
D14*
X10160000Y-22987000D03*
D11*
X-2540000Y-38466000D03*
D12*
X-2540000Y-35926000D03*
X-2540000Y-33386000D03*
D10*
X0Y-23722500D03*
X0Y-21997500D03*
X-1524000Y-27024500D03*
X-1524000Y-25299500D03*
D15*
X-12949200Y-19685000D03*
X-12349200Y-19685000D03*
D16*
X-11684000Y-19269000D03*
X-11684000Y-18669000D03*
X-11684000Y-18069000D03*
D15*
X-12349200Y-17653000D03*
X-12949200Y-17653000D03*
D16*
X-13614400Y-18069000D03*
X-13614400Y-18669000D03*
X-13614400Y-19269000D03*
D10*
X14224000Y-14527700D03*
X14224000Y-12802700D03*
D17*
X-15000000Y-37000000D03*
X-15000000Y-3000000D03*
D18*
X6393000Y-22674000D03*
X2243000Y-22674000D03*
X6393000Y-24824000D03*
X2243000Y-24824000D03*
D17*
X15000000Y-3000000D03*
D10*
X-10414000Y-22960500D03*
X-10414000Y-21235500D03*
X-10541000Y-2894500D03*
X-10541000Y-1169500D03*
D13*
X11277600Y-4470400D03*
D14*
X11277600Y-5740400D03*
X11277600Y-7010400D03*
X11277600Y-8280400D03*
D19*
X-8446000Y-24204800D03*
D20*
X-6096000Y-25704800D03*
D19*
X-8446000Y-27204800D03*
X-3746000Y-27204800D03*
X-3746000Y-24204800D03*
D11*
X5080000Y-38466000D03*
D12*
X5080000Y-35926000D03*
X5080000Y-33386000D03*
D21*
X13105300Y-20193000D03*
X11380300Y-20193000D03*
D22*
X7516500Y-29819600D03*
X5691500Y-29819600D03*
D17*
X15000000Y-37000000D03*
D11*
X10160000Y-38466000D03*
D12*
X10160000Y-35926000D03*
X10160000Y-33386000D03*
D23*
X-10541000Y-4471500D03*
X-10541000Y-6196500D03*
D11*
X-6350000Y-38466000D03*
D12*
X-6350000Y-35926000D03*
X-6350000Y-33386000D03*
D10*
X-1524000Y-23722500D03*
X-1524000Y-21997500D03*
D11*
X-10160000Y-38466000D03*
D12*
X-10160000Y-35926000D03*
X-10160000Y-33386000D03*
D24*
X0Y-25249500D03*
X0Y-27074500D03*
D25*
X-8500000Y-1397000D03*
X-8500000Y-2667000D03*
X-8500000Y-3937000D03*
X-8500000Y-5207000D03*
X-8500000Y-6477000D03*
X-8500000Y-7747000D03*
X-8500000Y-9017000D03*
X-8500000Y-10287000D03*
X-8500000Y-11557000D03*
X-8500000Y-12827000D03*
X-8500000Y-14097000D03*
X-8500000Y-15367000D03*
X-8500000Y-16637000D03*
X-8500000Y-17907000D03*
D26*
X-5715000Y-18907000D03*
X-4445000Y-18907000D03*
X-3175000Y-18907000D03*
X-1905000Y-18907000D03*
X-635000Y-18907000D03*
X635000Y-18907000D03*
X1905000Y-18907000D03*
X3175000Y-18907000D03*
X4445000Y-18907000D03*
X5715000Y-18907000D03*
D25*
X8500000Y-17907000D03*
X8500000Y-16637000D03*
X8500000Y-15367000D03*
X8500000Y-14097000D03*
X8500000Y-12827000D03*
X8500000Y-11557000D03*
X8500000Y-10287000D03*
X8500000Y-9017000D03*
X8500000Y-7747000D03*
X8500000Y-6477000D03*
X8500000Y-5207000D03*
X8500000Y-3937000D03*
X8500000Y-2667000D03*
X8500000Y-1397000D03*
D27*
X-1000000Y-8897000D03*
D10*
X-11938000Y-22960500D03*
X-11938000Y-21235500D03*
X-13462000Y-22960500D03*
X-13462000Y-21235500D03*
D28*
X13646000Y-17153000D03*
X13646000Y-17653000D03*
X13646000Y-18153000D03*
D29*
X13446000Y-18853000D03*
X12946000Y-18853000D03*
X12446000Y-18853000D03*
X11946000Y-18853000D03*
X11446000Y-18853000D03*
D28*
X11246000Y-18153000D03*
X11246000Y-17653000D03*
X11246000Y-17153000D03*
D29*
X11446000Y-16453000D03*
X11946000Y-16453000D03*
X12446000Y-16453000D03*
X12946000Y-16453000D03*
X13446000Y-16453000D03*
D30*
X10831800Y-29819600D03*
X9081800Y-29819600D03*
D10*
X12750800Y-14527700D03*
X12750800Y-12802700D03*
M02*
