G04 #@! TF.GenerationSoftware,KiCad,Pcbnew,(6.0.1)*
G04 #@! TF.CreationDate,2022-07-28T15:49:30+09:00*
G04 #@! TF.ProjectId,Fc_stm32,46635f73-746d-4333-922e-6b696361645f,rev?*
G04 #@! TF.SameCoordinates,Original*
G04 #@! TF.FileFunction,Copper,L1,Top*
G04 #@! TF.FilePolarity,Positive*
%FSLAX46Y46*%
G04 Gerber Fmt 4.6, Leading zero omitted, Abs format (unit mm)*
G04 Created by KiCad (PCBNEW (6.0.1)) date 2022-07-28 15:49:30*
%MOMM*%
%LPD*%
G01*
G04 APERTURE LIST*
G04 Aperture macros list*
%AMRoundRect*
0 Rectangle with rounded corners*
0 $1 Rounding radius*
0 $2 $3 $4 $5 $6 $7 $8 $9 X,Y pos of 4 corners*
0 Add a 4 corners polygon primitive as box body*
4,1,4,$2,$3,$4,$5,$6,$7,$8,$9,$2,$3,0*
0 Add four circle primitives for the rounded corners*
1,1,$1+$1,$2,$3*
1,1,$1+$1,$4,$5*
1,1,$1+$1,$6,$7*
1,1,$1+$1,$8,$9*
0 Add four rect primitives between the rounded corners*
20,1,$1+$1,$2,$3,$4,$5,0*
20,1,$1+$1,$4,$5,$6,$7,0*
20,1,$1+$1,$6,$7,$8,$9,0*
20,1,$1+$1,$8,$9,$2,$3,0*%
%AMFreePoly0*
4,1,13,0.900000,0.500000,3.600000,0.500000,3.600000,-0.500000,0.900000,-0.500000,0.400000,-1.000000,-0.400000,-1.000000,-0.900000,-0.500000,-3.600000,-0.500000,-3.600000,0.500000,-0.900000,0.500000,-0.400000,1.000000,0.400000,1.000000,0.900000,0.500000,0.900000,0.500000,$1*%
G04 Aperture macros list end*
G04 #@! TA.AperFunction,SMDPad,CuDef*
%ADD10RoundRect,0.237500X0.237500X-0.300000X0.237500X0.300000X-0.237500X0.300000X-0.237500X-0.300000X0*%
G04 #@! TD*
G04 #@! TA.AperFunction,ComponentPad*
%ADD11R,1.700000X1.700000*%
G04 #@! TD*
G04 #@! TA.AperFunction,ComponentPad*
%ADD12O,1.700000X1.700000*%
G04 #@! TD*
G04 #@! TA.AperFunction,ComponentPad*
%ADD13R,1.000000X1.000000*%
G04 #@! TD*
G04 #@! TA.AperFunction,ComponentPad*
%ADD14O,1.000000X1.000000*%
G04 #@! TD*
G04 #@! TA.AperFunction,SMDPad,CuDef*
%ADD15RoundRect,0.100000X0.100000X-0.175000X0.100000X0.175000X-0.100000X0.175000X-0.100000X-0.175000X0*%
G04 #@! TD*
G04 #@! TA.AperFunction,SMDPad,CuDef*
%ADD16RoundRect,0.100000X0.175000X-0.100000X0.175000X0.100000X-0.175000X0.100000X-0.175000X-0.100000X0*%
G04 #@! TD*
G04 #@! TA.AperFunction,SMDPad,CuDef*
%ADD17R,1.050000X0.650000*%
G04 #@! TD*
G04 #@! TA.AperFunction,SMDPad,CuDef*
%ADD18R,2.500000X0.700000*%
G04 #@! TD*
G04 #@! TA.AperFunction,SMDPad,CuDef*
%ADD19FreePoly0,0.000000*%
G04 #@! TD*
G04 #@! TA.AperFunction,SMDPad,CuDef*
%ADD20RoundRect,0.237500X0.300000X0.237500X-0.300000X0.237500X-0.300000X-0.237500X0.300000X-0.237500X0*%
G04 #@! TD*
G04 #@! TA.AperFunction,SMDPad,CuDef*
%ADD21RoundRect,0.237500X0.250000X0.237500X-0.250000X0.237500X-0.250000X-0.237500X0.250000X-0.237500X0*%
G04 #@! TD*
G04 #@! TA.AperFunction,SMDPad,CuDef*
%ADD22RoundRect,0.237500X-0.237500X0.300000X-0.237500X-0.300000X0.237500X-0.300000X0.237500X0.300000X0*%
G04 #@! TD*
G04 #@! TA.AperFunction,SMDPad,CuDef*
%ADD23RoundRect,0.237500X-0.237500X0.250000X-0.237500X-0.250000X0.237500X-0.250000X0.237500X0.250000X0*%
G04 #@! TD*
G04 #@! TA.AperFunction,SMDPad,CuDef*
%ADD24R,2.000000X0.900000*%
G04 #@! TD*
G04 #@! TA.AperFunction,SMDPad,CuDef*
%ADD25R,0.900000X2.000000*%
G04 #@! TD*
G04 #@! TA.AperFunction,SMDPad,CuDef*
%ADD26R,5.000000X5.000000*%
G04 #@! TD*
G04 #@! TA.AperFunction,SMDPad,CuDef*
%ADD27R,0.500000X0.300000*%
G04 #@! TD*
G04 #@! TA.AperFunction,SMDPad,CuDef*
%ADD28R,0.300000X0.500000*%
G04 #@! TD*
G04 #@! TA.AperFunction,SMDPad,CuDef*
%ADD29RoundRect,0.237500X0.287500X0.237500X-0.287500X0.237500X-0.287500X-0.237500X0.287500X-0.237500X0*%
G04 #@! TD*
G04 #@! TA.AperFunction,ViaPad*
%ADD30C,0.600000*%
G04 #@! TD*
G04 #@! TA.AperFunction,ViaPad*
%ADD31C,0.800000*%
G04 #@! TD*
G04 #@! TA.AperFunction,Conductor*
%ADD32C,0.200000*%
G04 #@! TD*
G04 #@! TA.AperFunction,Conductor*
%ADD33C,0.600000*%
G04 #@! TD*
G04 #@! TA.AperFunction,Conductor*
%ADD34C,0.400000*%
G04 #@! TD*
G04 #@! TA.AperFunction,Conductor*
%ADD35C,0.800000*%
G04 #@! TD*
G04 #@! TA.AperFunction,Conductor*
%ADD36C,0.250000*%
G04 #@! TD*
G04 APERTURE END LIST*
D10*
X11125200Y-14527700D03*
X11125200Y-12802700D03*
D11*
X1270000Y-38466000D03*
D12*
X1270000Y-35926000D03*
X1270000Y-33386000D03*
D13*
X10160000Y-21717000D03*
D14*
X10160000Y-22987000D03*
D11*
X-2540000Y-38466000D03*
D12*
X-2540000Y-35926000D03*
X-2540000Y-33386000D03*
D10*
X0Y-23722500D03*
X0Y-21997500D03*
X-1524000Y-27024500D03*
X-1524000Y-25299500D03*
D15*
X-12949200Y-19685000D03*
X-12349200Y-19685000D03*
D16*
X-11684000Y-19269000D03*
X-11684000Y-18669000D03*
X-11684000Y-18069000D03*
D15*
X-12349200Y-17653000D03*
X-12949200Y-17653000D03*
D16*
X-13614400Y-18069000D03*
X-13614400Y-18669000D03*
X-13614400Y-19269000D03*
D10*
X14224000Y-14527700D03*
X14224000Y-12802700D03*
D17*
X6393000Y-22674000D03*
X2243000Y-22674000D03*
X6393000Y-24824000D03*
X2243000Y-24824000D03*
D10*
X-10414000Y-22960500D03*
X-10414000Y-21235500D03*
X-10541000Y-2894500D03*
X-10541000Y-1169500D03*
D13*
X11277600Y-4470400D03*
D14*
X11277600Y-5740400D03*
X11277600Y-7010400D03*
X11277600Y-8280400D03*
D18*
X-8446000Y-24204800D03*
D19*
X-6096000Y-25704800D03*
D18*
X-8446000Y-27204800D03*
X-3746000Y-27204800D03*
X-3746000Y-24204800D03*
D11*
X5080000Y-38466000D03*
D12*
X5080000Y-35926000D03*
X5080000Y-33386000D03*
D20*
X13105300Y-20193000D03*
X11380300Y-20193000D03*
D21*
X7516500Y-29819600D03*
X5691500Y-29819600D03*
D11*
X10160000Y-38466000D03*
D12*
X10160000Y-35926000D03*
X10160000Y-33386000D03*
D22*
X-10541000Y-4471500D03*
X-10541000Y-6196500D03*
D11*
X-6350000Y-38466000D03*
D12*
X-6350000Y-35926000D03*
X-6350000Y-33386000D03*
D10*
X-1524000Y-23722500D03*
X-1524000Y-21997500D03*
D11*
X-10160000Y-38466000D03*
D12*
X-10160000Y-35926000D03*
X-10160000Y-33386000D03*
D23*
X0Y-25249500D03*
X0Y-27074500D03*
D24*
X-8500000Y-1397000D03*
X-8500000Y-2667000D03*
X-8500000Y-3937000D03*
X-8500000Y-5207000D03*
X-8500000Y-6477000D03*
X-8500000Y-7747000D03*
X-8500000Y-9017000D03*
X-8500000Y-10287000D03*
X-8500000Y-11557000D03*
X-8500000Y-12827000D03*
X-8500000Y-14097000D03*
X-8500000Y-15367000D03*
X-8500000Y-16637000D03*
X-8500000Y-17907000D03*
D25*
X-5715000Y-18907000D03*
X-4445000Y-18907000D03*
X-3175000Y-18907000D03*
X-1905000Y-18907000D03*
X-635000Y-18907000D03*
X635000Y-18907000D03*
X1905000Y-18907000D03*
X3175000Y-18907000D03*
X4445000Y-18907000D03*
X5715000Y-18907000D03*
D24*
X8500000Y-17907000D03*
X8500000Y-16637000D03*
X8500000Y-15367000D03*
X8500000Y-14097000D03*
X8500000Y-12827000D03*
X8500000Y-11557000D03*
X8500000Y-10287000D03*
X8500000Y-9017000D03*
X8500000Y-7747000D03*
X8500000Y-6477000D03*
X8500000Y-5207000D03*
X8500000Y-3937000D03*
X8500000Y-2667000D03*
X8500000Y-1397000D03*
D26*
X-1000000Y-8897000D03*
D10*
X-11938000Y-22960500D03*
X-11938000Y-21235500D03*
X-13462000Y-22960500D03*
X-13462000Y-21235500D03*
D27*
X13646000Y-17153000D03*
X13646000Y-17653000D03*
X13646000Y-18153000D03*
D28*
X13446000Y-18853000D03*
X12946000Y-18853000D03*
X12446000Y-18853000D03*
X11946000Y-18853000D03*
X11446000Y-18853000D03*
D27*
X11246000Y-18153000D03*
X11246000Y-17653000D03*
X11246000Y-17153000D03*
D28*
X11446000Y-16453000D03*
X11946000Y-16453000D03*
X12446000Y-16453000D03*
X12946000Y-16453000D03*
X13446000Y-16453000D03*
D29*
X10831800Y-29819600D03*
X9081800Y-29819600D03*
D10*
X12750800Y-14527700D03*
X12750800Y-12802700D03*
D30*
X11785600Y-18389600D03*
X11836400Y-20878800D03*
X10210800Y-17170400D03*
X13411200Y-11074400D03*
X10109200Y-8432800D03*
X10109200Y-10109200D03*
X12293600Y-13208000D03*
X13462000Y-13208000D03*
X11125200Y-14528800D03*
X11977060Y-15339128D03*
X8991600Y-2692400D03*
X-7264400Y-28054302D03*
X7977500Y-25019000D03*
X-10541000Y-4445000D03*
X-3454400Y-27178000D03*
X7977500Y-27074500D03*
X14224000Y-14605000D03*
X4167500Y-27074500D03*
X-11114000Y-27370000D03*
X-10668000Y-21209000D03*
X357500Y-27074500D03*
X0Y-7061200D03*
X12446000Y-17653000D03*
X-254000Y-15087600D03*
X-12700000Y-18669000D03*
X7112000Y-21590000D03*
X-14351000Y-11557000D03*
X12700000Y-39243000D03*
X-2438400Y-11074400D03*
X14351000Y-21844000D03*
X-14351000Y-33782000D03*
X-1016000Y-9652000D03*
X3556000Y-21336000D03*
X14224000Y-24003000D03*
X-12700000Y-4622800D03*
X13335000Y-22479000D03*
X6908800Y-11531600D03*
X6223000Y-16764000D03*
X14351000Y-26162000D03*
X-8331200Y-23215600D03*
X-4064000Y-17272000D03*
X-4953000Y-3048000D03*
X-12827000Y-39243000D03*
X1371600Y-8280400D03*
X-6858000Y-16891000D03*
X-7264400Y-21945600D03*
X762000Y-16764000D03*
X-11684000Y-6223000D03*
X-5207000Y-5969000D03*
X12827000Y-26162000D03*
X12649200Y-27381200D03*
X14351000Y-30480000D03*
X-14351000Y-6223000D03*
X14630400Y-5486400D03*
X3429000Y-5588000D03*
X8509000Y-1397000D03*
X-6858000Y-14122400D03*
X-9398000Y-20574000D03*
X5969000Y-13970000D03*
X3352800Y-16764000D03*
X6908800Y-7518400D03*
X-1397000Y-5207000D03*
X7112000Y-23876000D03*
X-5969000Y-635000D03*
X2921000Y-8763000D03*
X-14351000Y-16891000D03*
X6502400Y-15138400D03*
X0Y-22352000D03*
X-11684000Y-11557000D03*
X7112000Y-19304000D03*
X12319000Y-31623000D03*
X-14351000Y-22479000D03*
X11303000Y-22860000D03*
X14351000Y-33782000D03*
X-1524000Y-22352000D03*
X5384800Y-23520400D03*
X4826000Y-3048000D03*
X-2387600Y-8839200D03*
X10160000Y-20447000D03*
X-14274800Y-30734000D03*
X660400Y-8991600D03*
X4368800Y-14986000D03*
X5181600Y-9702800D03*
X-5461000Y-18288000D03*
X12065000Y-34671000D03*
X3302000Y-12573000D03*
X-8509000Y-1397000D03*
X4775200Y-20472400D03*
X12903200Y-30022800D03*
X-11938000Y-635000D03*
X10464800Y-558800D03*
X5715000Y-635000D03*
X-12801600Y-35356800D03*
X-14351000Y-24384000D03*
X10922000Y-10972800D03*
X-14351000Y-28575000D03*
X-4064000Y-14859000D03*
X-6985000Y-7239000D03*
X-5384800Y-13411200D03*
X3556000Y-22733000D03*
X4572000Y-6985000D03*
X-6731000Y-12192000D03*
X-1320800Y-11074400D03*
X13309600Y-609600D03*
X-10160000Y-22352000D03*
X-6858000Y-4445000D03*
X10033000Y-18796000D03*
X-11734800Y-15798800D03*
X1651000Y-5588000D03*
D31*
X-12852400Y-24282400D03*
D30*
X4318000Y-14097000D03*
D31*
X-2489200Y-22872940D03*
D30*
X13167300Y-15646400D03*
X9144000Y-11557000D03*
X7874000Y-6477000D03*
X7874000Y-5207000D03*
X12700000Y-28702000D03*
X-8107940Y-15367000D03*
X-8507460Y-14097000D03*
X-8906980Y-12827000D03*
X-9144000Y-11557000D03*
X-9144000Y-10287000D03*
X8426628Y-15384872D03*
X-11887200Y-20015200D03*
X-11557000Y-16764000D03*
X-9830989Y-18731095D03*
X-7203500Y-20828000D03*
X-8509000Y-3937000D03*
X-3302000Y-21071478D03*
X-2413000Y-14732000D03*
X8444500Y-16637000D03*
D32*
X13895511Y-19402789D02*
X13105300Y-20193000D01*
X13895511Y-18402511D02*
X13895511Y-19402789D01*
X13646000Y-18153000D02*
X13895511Y-18402511D01*
X14351000Y-17858978D02*
X14351000Y-21844000D01*
X14145022Y-17653000D02*
X14351000Y-17858978D01*
X13646000Y-17653000D02*
X14145022Y-17653000D01*
X9799511Y-13050711D02*
X9575800Y-12827000D01*
X9799512Y-15164574D02*
X9799511Y-13050711D01*
X9799511Y-15495547D02*
X9799512Y-15164574D01*
X9575800Y-12827000D02*
X8500000Y-12827000D01*
X11439800Y-16459200D02*
X10763164Y-16459200D01*
X10763164Y-16459200D02*
X9799511Y-15495547D01*
X11446000Y-16453000D02*
X11439800Y-16459200D01*
X11530500Y-14527700D02*
X12750800Y-14527700D01*
X11125200Y-14527700D02*
X11530500Y-14527700D01*
X13766811Y-16132189D02*
X13446000Y-16453000D01*
X13766811Y-15392411D02*
X13766811Y-16132189D01*
X12750800Y-14527700D02*
X12902100Y-14527700D01*
X12902100Y-14527700D02*
X13766811Y-15392411D01*
X12946000Y-15867700D02*
X12946000Y-16453000D01*
X13167300Y-15646400D02*
X12946000Y-15867700D01*
X12446000Y-15798800D02*
X12446000Y-16453000D01*
X12385932Y-15748000D02*
X12395200Y-15748000D01*
X11977060Y-15339128D02*
X12385932Y-15748000D01*
X12395200Y-15748000D02*
X12446000Y-15798800D01*
X14224000Y-16891000D02*
X14224000Y-14527700D01*
X13962000Y-17153000D02*
X14224000Y-16891000D01*
X13646000Y-17153000D02*
X13962000Y-17153000D01*
X10199031Y-11207009D02*
X9279022Y-10287000D01*
X11766406Y-15900400D02*
X10769370Y-15900400D01*
X10769370Y-15900400D02*
X10199031Y-15330061D01*
X10199031Y-15330061D02*
X10199031Y-11207009D01*
X11946000Y-16079994D02*
X11766406Y-15900400D01*
X11946000Y-16453000D02*
X11946000Y-16079994D01*
X9279022Y-10287000D02*
X8500000Y-10287000D01*
X10744200Y-7747000D02*
X11277600Y-8280400D01*
X8500000Y-7747000D02*
X10744200Y-7747000D01*
X9525000Y-3937000D02*
X8500000Y-3937000D01*
X9799511Y-4211511D02*
X9525000Y-3937000D01*
X9799511Y-5532311D02*
X9799511Y-4211511D01*
X11277600Y-7010400D02*
X9799511Y-5532311D01*
D33*
X-10694500Y-21235500D02*
X-10668000Y-21209000D01*
X-13462000Y-21235500D02*
X-11938000Y-21235500D01*
D34*
X357500Y-27074500D02*
X0Y-27074500D01*
D33*
X-8500000Y-2667000D02*
X-10313500Y-2667000D01*
X4167500Y-27074500D02*
X7977500Y-27074500D01*
X-5727689Y-28054311D02*
X-4595511Y-28054311D01*
X-1474000Y-27074500D02*
X0Y-27074500D01*
X4167500Y-27074500D02*
X5691500Y-27074500D01*
X-11114000Y-27370000D02*
X-10429689Y-28054311D01*
D34*
X8636000Y-21717000D02*
X10160000Y-21717000D01*
D33*
X-3746000Y-27204800D02*
X-1704300Y-27204800D01*
X-1704300Y-27204800D02*
X-1524000Y-27024500D01*
X357500Y-27074500D02*
X4167500Y-27074500D01*
X-10541000Y-4471500D02*
X-10541000Y-2894500D01*
D34*
X7977500Y-22375500D02*
X8636000Y-21717000D01*
D32*
X-13614400Y-21083100D02*
X-13462000Y-21235500D01*
D33*
X-11938000Y-21235500D02*
X-10694500Y-21235500D01*
X-10429689Y-28054311D02*
X-5727689Y-28054311D01*
X5691500Y-27074500D02*
X5691500Y-29819600D01*
X-4595511Y-28054311D02*
X-3746000Y-27204800D01*
X-10313500Y-2667000D02*
X-10541000Y-2894500D01*
D34*
X7977500Y-25019000D02*
X7977500Y-22375500D01*
D32*
X13646000Y-17653000D02*
X12446000Y-17653000D01*
D35*
X-12774800Y-24204800D02*
X-8446000Y-24204800D01*
D33*
X-2400060Y-22872940D02*
X-1550500Y-23722500D01*
X-1524000Y-23722500D02*
X-2006300Y-24204800D01*
X-1550500Y-23722500D02*
X-1524000Y-23722500D01*
X4318000Y-14097000D02*
X4318000Y-8255000D01*
X4318000Y-8255000D02*
X1651000Y-5588000D01*
X-8446000Y-24204800D02*
X-3746000Y-24204800D01*
D35*
X-12852400Y-24282400D02*
X-12774800Y-24204800D01*
D33*
X-2006300Y-24204800D02*
X-3746000Y-24204800D01*
X-2489200Y-22872940D02*
X-2400060Y-22872940D01*
X7516500Y-29819600D02*
X9081800Y-29819600D01*
D34*
X11684000Y-24511000D02*
X11684000Y-27686000D01*
X11684000Y-27686000D02*
X12700000Y-28702000D01*
X10160000Y-22987000D02*
X11684000Y-24511000D01*
D32*
X-11430000Y-16637000D02*
X-8500000Y-16637000D01*
X-12019000Y-20015200D02*
X-12349200Y-19685000D01*
X-11887200Y-20015200D02*
X-12019000Y-20015200D01*
X-11557000Y-16764000D02*
X-11430000Y-16637000D01*
X-6267542Y-20403480D02*
X-4782480Y-20403480D01*
X-4782480Y-20403480D02*
X-4445000Y-20066000D01*
X-4445000Y-20066000D02*
X-4445000Y-18907000D01*
X-10198486Y-19830520D02*
X-6840502Y-19830520D01*
X-11360006Y-18669000D02*
X-10198486Y-19830520D01*
X-6840502Y-19830520D02*
X-6267542Y-20403480D01*
X-11684000Y-18669000D02*
X-11360006Y-18669000D01*
X-8664503Y-19431000D02*
X-10033000Y-19431000D01*
X-8500000Y-17907000D02*
X-8255000Y-18152000D01*
X-8255000Y-18152000D02*
X-8255000Y-19021497D01*
X-11395000Y-18069000D02*
X-11684000Y-18069000D01*
X-10033000Y-19431000D02*
X-11395000Y-18069000D01*
X-8255000Y-19021497D02*
X-8664503Y-19431000D01*
D36*
X-4606637Y-20827999D02*
X-4225616Y-20446978D01*
X-4225616Y-20446978D02*
X3734044Y-20446978D01*
D32*
X-12265680Y-17569480D02*
X-12349200Y-17653000D01*
D36*
X-7203500Y-20828000D02*
X-4606637Y-20827999D01*
X3734044Y-20446978D02*
X4445000Y-19736022D01*
D32*
X-9843905Y-18731095D02*
X-11005520Y-17569480D01*
X-9830989Y-18731095D02*
X-9843905Y-18731095D01*
X-11005520Y-17569480D02*
X-12265680Y-17569480D01*
D36*
X4445000Y-19736022D02*
X4445000Y-18907000D01*
D32*
X2243000Y-21928000D02*
X2243000Y-22674000D01*
X1386489Y-21071489D02*
X2243000Y-21928000D01*
X-3301989Y-21071489D02*
X1386489Y-21071489D01*
X-3302000Y-21071478D02*
X-3301989Y-21071489D01*
X0Y-23722500D02*
X1048500Y-22674000D01*
X1048500Y-22674000D02*
X2243000Y-22674000D01*
X0Y-25249500D02*
X0Y-23722500D01*
X-2413000Y-14732000D02*
X-1295400Y-15849600D01*
X7200489Y-16649289D02*
X7200489Y-17386511D01*
X-1295400Y-15849600D02*
X6400800Y-15849600D01*
X7200489Y-17386511D02*
X7720978Y-17907000D01*
X7720978Y-17907000D02*
X8500000Y-17907000D01*
X6400800Y-15849600D02*
X7200489Y-16649289D01*
G04 #@! TA.AperFunction,Conductor*
G36*
X14987153Y-256421D02*
G01*
X15000000Y-258976D01*
X15012172Y-256555D01*
X15024580Y-256555D01*
X15024580Y-256816D01*
X15035442Y-256064D01*
X15311466Y-272140D01*
X15326014Y-273841D01*
X15421560Y-290688D01*
X15626044Y-326745D01*
X15640301Y-330124D01*
X15810151Y-380973D01*
X15932164Y-417501D01*
X15945929Y-422512D01*
X16225664Y-543178D01*
X16238758Y-549754D01*
X16502598Y-702082D01*
X16514840Y-710134D01*
X16759208Y-892060D01*
X16770432Y-901478D01*
X16992027Y-1110541D01*
X17002083Y-1121199D01*
X17197916Y-1354586D01*
X17206665Y-1366339D01*
X17374071Y-1620866D01*
X17381398Y-1633555D01*
X17518131Y-1905815D01*
X17523931Y-1919261D01*
X17628127Y-2205537D01*
X17632330Y-2219574D01*
X17702590Y-2516024D01*
X17705134Y-2530454D01*
X17740502Y-2833045D01*
X17741354Y-2847673D01*
X17741354Y-3152327D01*
X17740502Y-3166955D01*
X17705134Y-3469546D01*
X17702590Y-3483976D01*
X17632330Y-3780426D01*
X17628127Y-3794463D01*
X17523931Y-4080739D01*
X17518131Y-4094185D01*
X17428176Y-4273302D01*
X17381398Y-4366445D01*
X17374071Y-4379134D01*
X17206665Y-4633661D01*
X17197916Y-4645414D01*
X17002083Y-4878801D01*
X16992027Y-4889459D01*
X16770432Y-5098522D01*
X16759208Y-5107940D01*
X16514840Y-5289866D01*
X16502598Y-5297918D01*
X16238758Y-5450246D01*
X16225665Y-5456821D01*
X16044708Y-5534879D01*
X15945929Y-5577488D01*
X15932164Y-5582499D01*
X15831718Y-5612570D01*
X15640301Y-5669876D01*
X15626044Y-5673255D01*
X15421560Y-5709312D01*
X15326014Y-5726159D01*
X15311466Y-5727860D01*
X15035442Y-5743936D01*
X15024580Y-5743184D01*
X15024580Y-5743445D01*
X15012172Y-5743445D01*
X15000000Y-5741024D01*
X14900894Y-5760737D01*
X14816876Y-5816876D01*
X14760737Y-5900894D01*
X14741024Y-6000000D01*
X14743445Y-6012170D01*
X14743579Y-6012844D01*
X14746000Y-6037425D01*
X14746000Y-13386800D01*
X14725998Y-13454921D01*
X14672342Y-13501414D01*
X14620000Y-13512800D01*
X10679531Y-13512800D01*
X10611410Y-13492798D01*
X10564917Y-13439142D01*
X10553531Y-13386800D01*
X10553531Y-11258266D01*
X10555637Y-11238472D01*
X10555842Y-11234119D01*
X10558034Y-11223939D01*
X10554404Y-11193269D01*
X10554089Y-11187926D01*
X10553959Y-11187937D01*
X10553531Y-11182757D01*
X10553531Y-11177558D01*
X10552678Y-11172434D01*
X10552677Y-11172421D01*
X10550604Y-11159968D01*
X10549767Y-11154093D01*
X10545386Y-11117080D01*
X10544162Y-11106739D01*
X10540461Y-11099031D01*
X10539056Y-11090592D01*
X10516402Y-11048608D01*
X10513721Y-11043345D01*
X10509781Y-11035139D01*
X10493076Y-11000351D01*
X10489720Y-10996359D01*
X10487773Y-10994412D01*
X10486283Y-10992787D01*
X10486050Y-10992355D01*
X10486086Y-10992322D01*
X10485947Y-10992164D01*
X10483014Y-10986729D01*
X10446163Y-10952664D01*
X10442597Y-10949236D01*
X9791404Y-10298044D01*
X9757379Y-10235731D01*
X9754499Y-10208948D01*
X9754499Y-9811934D01*
X9739734Y-9737699D01*
X9729247Y-9722004D01*
X9708030Y-9654252D01*
X9729247Y-9581995D01*
X9739734Y-9566301D01*
X9754500Y-9492067D01*
X9754499Y-8541934D01*
X9739734Y-8467699D01*
X9729247Y-8452004D01*
X9708030Y-8384252D01*
X9729247Y-8311995D01*
X9739734Y-8296301D01*
X9754500Y-8222067D01*
X9754500Y-8215877D01*
X9754572Y-8215149D01*
X9781155Y-8149317D01*
X9839109Y-8108308D01*
X9879965Y-8101500D01*
X10396743Y-8101500D01*
X10464864Y-8121502D01*
X10511357Y-8175158D01*
X10521749Y-8243292D01*
X10518400Y-8269799D01*
X10534918Y-8438262D01*
X10588348Y-8598879D01*
X10676035Y-8743667D01*
X10680926Y-8748732D01*
X10680927Y-8748733D01*
X10704662Y-8773311D01*
X10793621Y-8865431D01*
X10935260Y-8958117D01*
X11093915Y-9017120D01*
X11100896Y-9018051D01*
X11100898Y-9018052D01*
X11254718Y-9038576D01*
X11254722Y-9038576D01*
X11261699Y-9039507D01*
X11268710Y-9038869D01*
X11268714Y-9038869D01*
X11423252Y-9024805D01*
X11430273Y-9024166D01*
X11591259Y-8971858D01*
X11736656Y-8885184D01*
X11859238Y-8768452D01*
X11863139Y-8762581D01*
X11949010Y-8633335D01*
X11949011Y-8633333D01*
X11952911Y-8627463D01*
X12013020Y-8469224D01*
X12024962Y-8384252D01*
X12036027Y-8305523D01*
X12036027Y-8305518D01*
X12036578Y-8301600D01*
X12036874Y-8280400D01*
X12027179Y-8193961D01*
X12018791Y-8119180D01*
X12018790Y-8119177D01*
X12018006Y-8112184D01*
X11962338Y-7952329D01*
X11872638Y-7808779D01*
X11798401Y-7734021D01*
X11764594Y-7671591D01*
X11769906Y-7600794D01*
X11800915Y-7553992D01*
X11854135Y-7503311D01*
X11859238Y-7498452D01*
X11863139Y-7492581D01*
X11949010Y-7363335D01*
X11949011Y-7363333D01*
X11952911Y-7357463D01*
X12013020Y-7199224D01*
X12024962Y-7114252D01*
X12036027Y-7035523D01*
X12036027Y-7035518D01*
X12036578Y-7031600D01*
X12036874Y-7010400D01*
X12018006Y-6842184D01*
X11962338Y-6682329D01*
X11872638Y-6538779D01*
X11753364Y-6418669D01*
X11610444Y-6327969D01*
X11583042Y-6318212D01*
X11457616Y-6273549D01*
X11457611Y-6273548D01*
X11450981Y-6271187D01*
X11443995Y-6270354D01*
X11443991Y-6270353D01*
X11324887Y-6256151D01*
X11282901Y-6251145D01*
X11275898Y-6251881D01*
X11275897Y-6251881D01*
X11198729Y-6259992D01*
X11114557Y-6268838D01*
X11114496Y-6268260D01*
X11048496Y-6263688D01*
X11003169Y-6234630D01*
X10190916Y-5422378D01*
X10156891Y-5360065D01*
X10154011Y-5333282D01*
X10154011Y-4262768D01*
X10156117Y-4242974D01*
X10156322Y-4238621D01*
X10158514Y-4228441D01*
X10154884Y-4197771D01*
X10154569Y-4192428D01*
X10154439Y-4192439D01*
X10154011Y-4187259D01*
X10154011Y-4182060D01*
X10153158Y-4176936D01*
X10153157Y-4176923D01*
X10151084Y-4164470D01*
X10150247Y-4158595D01*
X10145866Y-4121582D01*
X10144642Y-4111241D01*
X10140941Y-4103533D01*
X10139536Y-4095094D01*
X10116882Y-4053110D01*
X10114201Y-4047847D01*
X10096986Y-4011997D01*
X10093556Y-4004853D01*
X10090200Y-4000861D01*
X10088253Y-3998914D01*
X10086763Y-3997289D01*
X10086530Y-3996857D01*
X10086566Y-3996824D01*
X10086427Y-3996666D01*
X10083494Y-3991231D01*
X10046642Y-3957165D01*
X10043076Y-3953737D01*
X10034672Y-3945333D01*
X10523100Y-3945333D01*
X10523101Y-4995466D01*
X10529969Y-5029995D01*
X10534278Y-5051660D01*
X10537866Y-5069701D01*
X10544761Y-5080020D01*
X10544762Y-5080022D01*
X10568665Y-5115794D01*
X10594116Y-5153884D01*
X10678299Y-5210134D01*
X10752533Y-5224900D01*
X11277515Y-5224900D01*
X11802666Y-5224899D01*
X11838418Y-5217788D01*
X11864726Y-5212556D01*
X11864728Y-5212555D01*
X11876901Y-5210134D01*
X11887221Y-5203239D01*
X11887222Y-5203238D01*
X11950768Y-5160777D01*
X11961084Y-5153884D01*
X12017334Y-5069701D01*
X12032100Y-4995467D01*
X12032099Y-3945334D01*
X12017334Y-3871099D01*
X11961084Y-3786916D01*
X11876901Y-3730666D01*
X11802667Y-3715900D01*
X11277685Y-3715900D01*
X10752534Y-3715901D01*
X10718964Y-3722578D01*
X10690474Y-3728244D01*
X10690472Y-3728245D01*
X10678299Y-3730666D01*
X10667979Y-3737561D01*
X10667978Y-3737562D01*
X10607585Y-3777916D01*
X10594116Y-3786916D01*
X10537866Y-3871099D01*
X10523100Y-3945333D01*
X10034672Y-3945333D01*
X9811916Y-3722578D01*
X9799414Y-3707098D01*
X9796475Y-3703868D01*
X9790825Y-3695118D01*
X9786164Y-3691443D01*
X9756254Y-3629946D01*
X9754499Y-3608991D01*
X9754499Y-3461934D01*
X9739734Y-3387699D01*
X9729247Y-3372004D01*
X9708030Y-3304252D01*
X9729247Y-3231995D01*
X9739734Y-3216301D01*
X9754500Y-3142067D01*
X9754500Y-2933789D01*
X13595996Y-2933789D01*
X13604913Y-3171295D01*
X13653719Y-3403904D01*
X13655677Y-3408863D01*
X13655678Y-3408865D01*
X13704925Y-3533564D01*
X13741020Y-3624963D01*
X13743787Y-3629522D01*
X13743788Y-3629525D01*
X13803693Y-3728245D01*
X13864319Y-3828153D01*
X13867816Y-3832183D01*
X14014187Y-4000861D01*
X14020090Y-4007664D01*
X14024216Y-4011047D01*
X14024220Y-4011051D01*
X14137011Y-4103533D01*
X14203880Y-4158362D01*
X14208516Y-4161001D01*
X14208519Y-4161003D01*
X14273117Y-4197774D01*
X14410433Y-4275939D01*
X14633844Y-4357034D01*
X14639092Y-4357983D01*
X14863641Y-4398588D01*
X14863648Y-4398589D01*
X14867725Y-4399326D01*
X14885991Y-4400187D01*
X14891131Y-4400430D01*
X14891138Y-4400430D01*
X14892619Y-4400500D01*
X15059680Y-4400500D01*
X15142026Y-4393513D01*
X15231512Y-4385920D01*
X15231516Y-4385919D01*
X15236823Y-4385469D01*
X15241978Y-4384131D01*
X15241984Y-4384130D01*
X15461703Y-4327102D01*
X15461702Y-4327102D01*
X15466874Y-4325760D01*
X15636483Y-4249357D01*
X15678715Y-4230333D01*
X15678718Y-4230332D01*
X15683576Y-4228143D01*
X15880732Y-4095409D01*
X15888882Y-4087635D01*
X15969162Y-4011051D01*
X16052705Y-3931355D01*
X16194579Y-3740670D01*
X16302295Y-3528807D01*
X16316216Y-3483976D01*
X16371193Y-3306919D01*
X16372775Y-3301824D01*
X16393145Y-3148137D01*
X16403304Y-3071494D01*
X16403304Y-3071491D01*
X16404004Y-3066211D01*
X16395087Y-2828705D01*
X16346281Y-2596096D01*
X16306601Y-2495620D01*
X16260941Y-2380002D01*
X16260940Y-2380000D01*
X16258980Y-2375037D01*
X16247308Y-2355801D01*
X16147870Y-2191934D01*
X16135681Y-2171847D01*
X16083584Y-2111810D01*
X15983410Y-1996369D01*
X15983408Y-1996367D01*
X15979910Y-1992336D01*
X15975784Y-1988953D01*
X15975780Y-1988949D01*
X15800248Y-1845023D01*
X15796120Y-1841638D01*
X15791484Y-1838999D01*
X15791481Y-1838997D01*
X15669685Y-1769667D01*
X15589567Y-1724061D01*
X15366156Y-1642966D01*
X15314112Y-1633555D01*
X15136359Y-1601412D01*
X15136352Y-1601411D01*
X15132275Y-1600674D01*
X15114009Y-1599813D01*
X15108869Y-1599570D01*
X15108862Y-1599570D01*
X15107381Y-1599500D01*
X14940320Y-1599500D01*
X14857974Y-1606487D01*
X14768488Y-1614080D01*
X14768484Y-1614081D01*
X14763177Y-1614531D01*
X14758022Y-1615869D01*
X14758016Y-1615870D01*
X14646612Y-1644785D01*
X14533126Y-1674240D01*
X14435766Y-1718097D01*
X14321285Y-1769667D01*
X14321282Y-1769668D01*
X14316424Y-1771857D01*
X14119268Y-1904591D01*
X14115411Y-1908270D01*
X14115409Y-1908272D01*
X14103890Y-1919261D01*
X13947295Y-2068645D01*
X13805421Y-2259330D01*
X13697705Y-2471193D01*
X13696124Y-2476284D01*
X13696123Y-2476287D01*
X13657301Y-2601315D01*
X13627225Y-2698176D01*
X13595996Y-2933789D01*
X9754500Y-2933789D01*
X9754499Y-2191934D01*
X9739734Y-2117699D01*
X9729579Y-2102500D01*
X9690377Y-2043832D01*
X9683484Y-2033516D01*
X9599301Y-1977266D01*
X9525067Y-1962500D01*
X8500166Y-1962500D01*
X7474934Y-1962501D01*
X7439182Y-1969612D01*
X7412874Y-1974844D01*
X7412872Y-1974845D01*
X7400699Y-1977266D01*
X7390379Y-1984161D01*
X7390378Y-1984162D01*
X7329985Y-2024516D01*
X7316516Y-2033516D01*
X7260266Y-2117699D01*
X7245500Y-2191933D01*
X7245501Y-3142066D01*
X7260266Y-3216301D01*
X7270753Y-3231995D01*
X7291970Y-3299748D01*
X7270753Y-3372004D01*
X7260266Y-3387699D01*
X7245500Y-3461933D01*
X7245501Y-4412066D01*
X7260266Y-4486301D01*
X7270753Y-4501995D01*
X7291970Y-4569748D01*
X7270753Y-4642004D01*
X7260266Y-4657699D01*
X7245500Y-4731933D01*
X7245501Y-5682066D01*
X7252612Y-5717818D01*
X7257807Y-5743936D01*
X7260266Y-5756301D01*
X7268296Y-5768318D01*
X7270753Y-5771995D01*
X7291970Y-5839748D01*
X7270753Y-5912004D01*
X7260266Y-5927699D01*
X7245500Y-6001933D01*
X7245501Y-6952066D01*
X7252612Y-6987818D01*
X7256390Y-7006811D01*
X7260266Y-7026301D01*
X7270753Y-7041995D01*
X7291970Y-7109748D01*
X7270753Y-7182004D01*
X7260266Y-7197699D01*
X7245500Y-7271933D01*
X7245501Y-8222066D01*
X7249723Y-8243294D01*
X7256390Y-8276811D01*
X7260266Y-8296301D01*
X7270753Y-8311995D01*
X7291970Y-8379748D01*
X7270753Y-8452004D01*
X7260266Y-8467699D01*
X7245500Y-8541933D01*
X7245501Y-9492066D01*
X7260266Y-9566301D01*
X7270753Y-9581995D01*
X7291970Y-9649748D01*
X7270753Y-9722004D01*
X7260266Y-9737699D01*
X7245500Y-9811933D01*
X7245501Y-10762066D01*
X7260266Y-10836301D01*
X7270753Y-10851995D01*
X7291970Y-10919748D01*
X7270753Y-10992004D01*
X7260266Y-11007699D01*
X7245500Y-11081933D01*
X7245501Y-12032066D01*
X7260266Y-12106301D01*
X7270753Y-12121995D01*
X7291970Y-12189748D01*
X7270753Y-12262004D01*
X7260266Y-12277699D01*
X7245500Y-12351933D01*
X7245501Y-13302066D01*
X7260266Y-13376301D01*
X7270753Y-13391995D01*
X7291970Y-13459748D01*
X7270753Y-13532004D01*
X7260266Y-13547699D01*
X7245500Y-13621933D01*
X7245501Y-14572066D01*
X7251660Y-14603034D01*
X7257020Y-14629979D01*
X7260266Y-14646301D01*
X7270753Y-14661995D01*
X7291970Y-14729748D01*
X7270753Y-14802004D01*
X7260266Y-14817699D01*
X7245500Y-14891933D01*
X7245500Y-14898120D01*
X7245501Y-15368000D01*
X7225499Y-15436121D01*
X7171844Y-15482614D01*
X7119501Y-15494000D01*
X6449082Y-15494000D01*
X6449082Y-15490760D01*
X6445776Y-15491264D01*
X6445845Y-15493032D01*
X6423675Y-15493903D01*
X6418729Y-15494000D01*
X6299200Y-15494000D01*
X6299865Y-15494466D01*
X6295454Y-15495100D01*
X-1096371Y-15495100D01*
X-1164492Y-15475098D01*
X-1185466Y-15458195D01*
X-1817888Y-14825773D01*
X-1851914Y-14763461D01*
X-1854585Y-14738611D01*
X-1853715Y-14732000D01*
X-1863787Y-14655495D01*
X-1871694Y-14595432D01*
X-1871695Y-14595430D01*
X-1872772Y-14587246D01*
X-1909947Y-14497499D01*
X-1925485Y-14459986D01*
X-1925486Y-14459984D01*
X-1928645Y-14452358D01*
X-1992599Y-14369012D01*
X-2012499Y-14343077D01*
X-2012500Y-14343076D01*
X-2017526Y-14336526D01*
X-2024076Y-14331500D01*
X-2024079Y-14331497D01*
X-2126804Y-14252673D01*
X-2126806Y-14252672D01*
X-2133357Y-14247645D01*
X-2268246Y-14191772D01*
X-2413000Y-14172715D01*
X-2421188Y-14173793D01*
X-2549568Y-14190694D01*
X-2549570Y-14190695D01*
X-2557754Y-14191772D01*
X-2582963Y-14202214D01*
X-2685014Y-14244485D01*
X-2685016Y-14244486D01*
X-2692642Y-14247645D01*
X-2808474Y-14336526D01*
X-2897355Y-14452358D01*
X-2900514Y-14459984D01*
X-2900515Y-14459986D01*
X-2916053Y-14497499D01*
X-2953228Y-14587246D01*
X-2954305Y-14595430D01*
X-2954306Y-14595432D01*
X-2962213Y-14655495D01*
X-2972285Y-14732000D01*
X-2953228Y-14876754D01*
X-2897355Y-15011642D01*
X-2808474Y-15127474D01*
X-2801924Y-15132500D01*
X-2801921Y-15132503D01*
X-2699196Y-15211327D01*
X-2692643Y-15216355D01*
X-2557754Y-15272228D01*
X-2413000Y-15291285D01*
X-2407236Y-15290526D01*
X-2340202Y-15310209D01*
X-2319228Y-15327111D01*
X-1582316Y-16064022D01*
X-1569814Y-16079502D01*
X-1566875Y-16082732D01*
X-1561225Y-16091482D01*
X-1536962Y-16110609D01*
X-1532967Y-16114159D01*
X-1532883Y-16114060D01*
X-1528920Y-16117418D01*
X-1525244Y-16121094D01*
X-1521015Y-16124117D01*
X-1521014Y-16124117D01*
X-1510748Y-16131454D01*
X-1506005Y-16135015D01*
X-1476725Y-16158097D01*
X-1476721Y-16158099D01*
X-1468543Y-16164546D01*
X-1460475Y-16167379D01*
X-1453515Y-16172353D01*
X-1443537Y-16175337D01*
X-1407814Y-16186020D01*
X-1402165Y-16187856D01*
X-1357192Y-16203650D01*
X-1351996Y-16204100D01*
X-1349291Y-16204100D01*
X-1347035Y-16204197D01*
X-1346559Y-16204340D01*
X-1346561Y-16204386D01*
X-1346362Y-16204399D01*
X-1340445Y-16206168D01*
X-1290276Y-16204197D01*
X-1285330Y-16204100D01*
X6201770Y-16204100D01*
X6269891Y-16224102D01*
X6290865Y-16241004D01*
X6809084Y-16759222D01*
X6843109Y-16821535D01*
X6845989Y-16848318D01*
X6845989Y-17335254D01*
X6843883Y-17355048D01*
X6843678Y-17359401D01*
X6841486Y-17369581D01*
X6843918Y-17390126D01*
X6845116Y-17400248D01*
X6845431Y-17405594D01*
X6845561Y-17405583D01*
X6845989Y-17410763D01*
X6845989Y-17415962D01*
X6846842Y-17421086D01*
X6846843Y-17421099D01*
X6848916Y-17433552D01*
X6849753Y-17439427D01*
X6853593Y-17471870D01*
X6855358Y-17486781D01*
X6859059Y-17494489D01*
X6860464Y-17502928D01*
X6883118Y-17544912D01*
X6885799Y-17550175D01*
X6906444Y-17593169D01*
X6909800Y-17597161D01*
X6911747Y-17599108D01*
X6913237Y-17600733D01*
X6913470Y-17601165D01*
X6913434Y-17601198D01*
X6913573Y-17601356D01*
X6916506Y-17606791D01*
X6924153Y-17613860D01*
X6953370Y-17640868D01*
X6956936Y-17644297D01*
X7208596Y-17895957D01*
X7242622Y-17958269D01*
X7245501Y-17985052D01*
X7245501Y-18382066D01*
X7252051Y-18415000D01*
X7257095Y-18440357D01*
X7260266Y-18456301D01*
X7267161Y-18466620D01*
X7267162Y-18466622D01*
X7273541Y-18476168D01*
X7316516Y-18540484D01*
X7400699Y-18596734D01*
X7474933Y-18611500D01*
X8499834Y-18611500D01*
X9525066Y-18611499D01*
X9560818Y-18604388D01*
X9587126Y-18599156D01*
X9587128Y-18599155D01*
X9599301Y-18596734D01*
X9609621Y-18589839D01*
X9609622Y-18589838D01*
X9673168Y-18547377D01*
X9683484Y-18540484D01*
X9739734Y-18456301D01*
X9754500Y-18382067D01*
X9754499Y-17593477D01*
X9774312Y-17526000D01*
X9779000Y-17526000D01*
X9779000Y-16940800D01*
X9799002Y-16872679D01*
X9852658Y-16826186D01*
X9905000Y-16814800D01*
X10620418Y-16814800D01*
X10688539Y-16834802D01*
X10735032Y-16888458D01*
X10743996Y-16965384D01*
X10742707Y-16971862D01*
X10742706Y-16971868D01*
X10741500Y-16977933D01*
X10741501Y-17328066D01*
X10750900Y-17375323D01*
X10751516Y-17378419D01*
X10751516Y-17427578D01*
X10741500Y-17477933D01*
X10741501Y-17828066D01*
X10747255Y-17856996D01*
X10751008Y-17875863D01*
X10756266Y-17902301D01*
X10812516Y-17986484D01*
X10896699Y-18042734D01*
X10970933Y-18057500D01*
X11245955Y-18057500D01*
X11521066Y-18057499D01*
X11556818Y-18050388D01*
X11583126Y-18045156D01*
X11583128Y-18045155D01*
X11595301Y-18042734D01*
X11605621Y-18035839D01*
X11605622Y-18035838D01*
X11669168Y-17993377D01*
X11679484Y-17986484D01*
X11735734Y-17902301D01*
X11750500Y-17828067D01*
X11750499Y-17477934D01*
X11740483Y-17427576D01*
X11740484Y-17378419D01*
X11750500Y-17328067D01*
X11750499Y-17083500D01*
X11770501Y-17015380D01*
X11824156Y-16968887D01*
X11876498Y-16957500D01*
X12101675Y-16957499D01*
X12121066Y-16957499D01*
X12171419Y-16947484D01*
X12220579Y-16947484D01*
X12270933Y-16957500D01*
X12445971Y-16957500D01*
X12621066Y-16957499D01*
X12671419Y-16947484D01*
X12720579Y-16947484D01*
X12770933Y-16957500D01*
X12790317Y-16957500D01*
X13015500Y-16957499D01*
X13083620Y-16977501D01*
X13130113Y-17031156D01*
X13141500Y-17083498D01*
X13141501Y-17212912D01*
X13141501Y-17328066D01*
X13145343Y-17347381D01*
X13152826Y-17385003D01*
X13156266Y-17402301D01*
X13163161Y-17412621D01*
X13163162Y-17412622D01*
X13180200Y-17438120D01*
X13212516Y-17486484D01*
X13222832Y-17493377D01*
X13286381Y-17535840D01*
X13286382Y-17535841D01*
X13291542Y-17539288D01*
X13296699Y-17542734D01*
X13296391Y-17543195D01*
X13343476Y-17581138D01*
X13365898Y-17648501D01*
X13348340Y-17717293D01*
X13299578Y-17762693D01*
X13296699Y-17763266D01*
X13286382Y-17770159D01*
X13286381Y-17770160D01*
X13245647Y-17797378D01*
X13212516Y-17819516D01*
X13156266Y-17903699D01*
X13141500Y-17977933D01*
X13141501Y-18328066D01*
X13146952Y-18355470D01*
X13153576Y-18388774D01*
X13156266Y-18402301D01*
X13163161Y-18412621D01*
X13163162Y-18412622D01*
X13192348Y-18456301D01*
X13212516Y-18486484D01*
X13296699Y-18542734D01*
X13370933Y-18557500D01*
X13415011Y-18557500D01*
X13483132Y-18577502D01*
X13529625Y-18631158D01*
X13541011Y-18683500D01*
X13541011Y-19203760D01*
X13521009Y-19271881D01*
X13504106Y-19292855D01*
X13370366Y-19426595D01*
X13308054Y-19460621D01*
X13281271Y-19463500D01*
X12758730Y-19463500D01*
X12698564Y-19470036D01*
X12682602Y-19476020D01*
X12575005Y-19516356D01*
X12575002Y-19516357D01*
X12566601Y-19519507D01*
X12453826Y-19604026D01*
X12369307Y-19716801D01*
X12319836Y-19848764D01*
X12313300Y-19908930D01*
X12313300Y-20477070D01*
X12319836Y-20537236D01*
X12369307Y-20669199D01*
X12453826Y-20781974D01*
X12566601Y-20866493D01*
X12575002Y-20869643D01*
X12575005Y-20869644D01*
X12626451Y-20888930D01*
X12698564Y-20915964D01*
X12758730Y-20922500D01*
X13451870Y-20922500D01*
X13512036Y-20915964D01*
X13584149Y-20888930D01*
X13635595Y-20869644D01*
X13635598Y-20869643D01*
X13643999Y-20866493D01*
X13756774Y-20781974D01*
X13841293Y-20669199D01*
X13890764Y-20537236D01*
X13897300Y-20477070D01*
X13897300Y-19954528D01*
X13917302Y-19886407D01*
X13934205Y-19865433D01*
X14109931Y-19689707D01*
X14125413Y-19677202D01*
X14128640Y-19674266D01*
X14137393Y-19668614D01*
X14156520Y-19644351D01*
X14160070Y-19640356D01*
X14159971Y-19640272D01*
X14163329Y-19636309D01*
X14167005Y-19632633D01*
X14170028Y-19628403D01*
X14177365Y-19618137D01*
X14180926Y-19613394D01*
X14204008Y-19584114D01*
X14204010Y-19584110D01*
X14210457Y-19575932D01*
X14213290Y-19567864D01*
X14218264Y-19560904D01*
X14231931Y-19515203D01*
X14233767Y-19509554D01*
X14246935Y-19472058D01*
X14249561Y-19464581D01*
X14250011Y-19459385D01*
X14250011Y-19456680D01*
X14250108Y-19454424D01*
X14250251Y-19453948D01*
X14250297Y-19453950D01*
X14250310Y-19453751D01*
X14252079Y-19447834D01*
X14250108Y-19397665D01*
X14250011Y-19392719D01*
X14250011Y-18453768D01*
X14252117Y-18433974D01*
X14252322Y-18429621D01*
X14254514Y-18419441D01*
X14250884Y-18388771D01*
X14250569Y-18383428D01*
X14250439Y-18383439D01*
X14250011Y-18378259D01*
X14250011Y-18373060D01*
X14249158Y-18367936D01*
X14249157Y-18367923D01*
X14247084Y-18355470D01*
X14246247Y-18349595D01*
X14241866Y-18312582D01*
X14240642Y-18302241D01*
X14236941Y-18294533D01*
X14235536Y-18286094D01*
X14212882Y-18244110D01*
X14210201Y-18238847D01*
X14192986Y-18202997D01*
X14189556Y-18195853D01*
X14186200Y-18191861D01*
X14184273Y-18189934D01*
X14183642Y-18189246D01*
X14182164Y-18186237D01*
X14180153Y-18183123D01*
X14180518Y-18182887D01*
X14152338Y-18125523D01*
X14150500Y-18104080D01*
X14150499Y-17984123D01*
X14150499Y-17977934D01*
X14142968Y-17940068D01*
X14138156Y-17915874D01*
X14138155Y-17915872D01*
X14135734Y-17903699D01*
X14125327Y-17888123D01*
X14086377Y-17829832D01*
X14079484Y-17819516D01*
X14046353Y-17797378D01*
X14005619Y-17770160D01*
X14005618Y-17770159D01*
X13995301Y-17763266D01*
X13995609Y-17762805D01*
X13948524Y-17724862D01*
X13926102Y-17657499D01*
X13943660Y-17588707D01*
X13992422Y-17543307D01*
X13995301Y-17542734D01*
X14041158Y-17512093D01*
X14052422Y-17504567D01*
X14074397Y-17493694D01*
X14078417Y-17493025D01*
X14087575Y-17488083D01*
X14097433Y-17484708D01*
X14098086Y-17486614D01*
X14143278Y-17475200D01*
X14620000Y-17475200D01*
X14688121Y-17495202D01*
X14734614Y-17548858D01*
X14746000Y-17601200D01*
X14746000Y-33962575D01*
X14743579Y-33987153D01*
X14741024Y-34000000D01*
X14746000Y-34025017D01*
X14760737Y-34099106D01*
X14816876Y-34183124D01*
X14900894Y-34239263D01*
X14987829Y-34256555D01*
X15000000Y-34258976D01*
X15012172Y-34256555D01*
X15024580Y-34256555D01*
X15024580Y-34256816D01*
X15035442Y-34256064D01*
X15311466Y-34272140D01*
X15326014Y-34273841D01*
X15421560Y-34290688D01*
X15626044Y-34326745D01*
X15640301Y-34330124D01*
X15750423Y-34363092D01*
X15932164Y-34417501D01*
X15945926Y-34422511D01*
X16110989Y-34493712D01*
X16225664Y-34543178D01*
X16238758Y-34549754D01*
X16502598Y-34702082D01*
X16514840Y-34710134D01*
X16759208Y-34892060D01*
X16770432Y-34901478D01*
X16992027Y-35110541D01*
X17002083Y-35121199D01*
X17197916Y-35354586D01*
X17206665Y-35366339D01*
X17374071Y-35620866D01*
X17381398Y-35633555D01*
X17518131Y-35905815D01*
X17523931Y-35919261D01*
X17628127Y-36205537D01*
X17632330Y-36219574D01*
X17702590Y-36516024D01*
X17705134Y-36530454D01*
X17740502Y-36833045D01*
X17741354Y-36847673D01*
X17741354Y-37152327D01*
X17740502Y-37166955D01*
X17705134Y-37469546D01*
X17702590Y-37483976D01*
X17632330Y-37780426D01*
X17628127Y-37794463D01*
X17523931Y-38080739D01*
X17518131Y-38094185D01*
X17461877Y-38206198D01*
X17381398Y-38366445D01*
X17374071Y-38379134D01*
X17206665Y-38633661D01*
X17197916Y-38645414D01*
X17002083Y-38878801D01*
X16992027Y-38889459D01*
X16770432Y-39098522D01*
X16759208Y-39107940D01*
X16514840Y-39289866D01*
X16502598Y-39297918D01*
X16238758Y-39450246D01*
X16225664Y-39456822D01*
X15945929Y-39577488D01*
X15932164Y-39582499D01*
X15810151Y-39619027D01*
X15640301Y-39669876D01*
X15626044Y-39673255D01*
X15421560Y-39709312D01*
X15326014Y-39726159D01*
X15311466Y-39727860D01*
X15035442Y-39743936D01*
X15024580Y-39743184D01*
X15024580Y-39743445D01*
X15012172Y-39743445D01*
X15000000Y-39741024D01*
X14987153Y-39743579D01*
X14962575Y-39746000D01*
X-14962575Y-39746000D01*
X-14987153Y-39743579D01*
X-15000000Y-39741024D01*
X-15012172Y-39743445D01*
X-15024580Y-39743445D01*
X-15024580Y-39743184D01*
X-15035442Y-39743936D01*
X-15311466Y-39727860D01*
X-15326014Y-39726159D01*
X-15421560Y-39709312D01*
X-15626044Y-39673255D01*
X-15640301Y-39669876D01*
X-15810151Y-39619027D01*
X-15932164Y-39582499D01*
X-15945929Y-39577488D01*
X-16225664Y-39456822D01*
X-16238758Y-39450246D01*
X-16502598Y-39297918D01*
X-16514840Y-39289866D01*
X-16759208Y-39107940D01*
X-16770432Y-39098522D01*
X-16992027Y-38889459D01*
X-17002083Y-38878801D01*
X-17197916Y-38645414D01*
X-17206665Y-38633661D01*
X-17374071Y-38379134D01*
X-17381398Y-38366445D01*
X-17461877Y-38206198D01*
X-17518131Y-38094185D01*
X-17523931Y-38080739D01*
X-17628127Y-37794463D01*
X-17632330Y-37780426D01*
X-17702590Y-37483976D01*
X-17705134Y-37469546D01*
X-17740502Y-37166955D01*
X-17741354Y-37152327D01*
X-17741354Y-36933789D01*
X-16404004Y-36933789D01*
X-16395087Y-37171295D01*
X-16346281Y-37403904D01*
X-16344323Y-37408863D01*
X-16344322Y-37408865D01*
X-16295075Y-37533564D01*
X-16258980Y-37624963D01*
X-16135681Y-37828153D01*
X-15979910Y-38007664D01*
X-15975784Y-38011047D01*
X-15975780Y-38011051D01*
X-15882378Y-38087635D01*
X-15796120Y-38158362D01*
X-15791484Y-38161001D01*
X-15791481Y-38161003D01*
X-15712084Y-38206198D01*
X-15589567Y-38275939D01*
X-15366156Y-38357034D01*
X-15360908Y-38357983D01*
X-15136359Y-38398588D01*
X-15136352Y-38398589D01*
X-15132275Y-38399326D01*
X-15114009Y-38400187D01*
X-15108869Y-38400430D01*
X-15108862Y-38400430D01*
X-15107381Y-38400500D01*
X-14940320Y-38400500D01*
X-14857974Y-38393513D01*
X-14768488Y-38385920D01*
X-14768484Y-38385919D01*
X-14763177Y-38385469D01*
X-14758022Y-38384131D01*
X-14758016Y-38384130D01*
X-14538297Y-38327102D01*
X-14538298Y-38327102D01*
X-14533126Y-38325760D01*
X-14416673Y-38273302D01*
X-14321285Y-38230333D01*
X-14321282Y-38230332D01*
X-14316424Y-38228143D01*
X-14119268Y-38095409D01*
X-14111118Y-38087635D01*
X-14030838Y-38011051D01*
X-13947295Y-37931355D01*
X-13805421Y-37740670D01*
X-13697705Y-37528807D01*
X-13683784Y-37483976D01*
X-13628807Y-37306919D01*
X-13627225Y-37301824D01*
X-13595996Y-37066211D01*
X-13604913Y-36828705D01*
X-13653719Y-36596096D01*
X-13668480Y-36558718D01*
X-13739059Y-36380002D01*
X-13739060Y-36380000D01*
X-13741020Y-36375037D01*
X-13864319Y-36171847D01*
X-14020090Y-35992336D01*
X-14024216Y-35988953D01*
X-14024220Y-35988949D01*
X-14136405Y-35896964D01*
X-11268852Y-35896964D01*
X-11255576Y-36099522D01*
X-11254155Y-36105118D01*
X-11254154Y-36105123D01*
X-11213781Y-36264090D01*
X-11205608Y-36296269D01*
X-11203191Y-36301512D01*
X-11167007Y-36380002D01*
X-11120623Y-36480616D01*
X-11117290Y-36485332D01*
X-11039010Y-36596096D01*
X-11003467Y-36646389D01*
X-10858062Y-36788035D01*
X-10689280Y-36900812D01*
X-10683977Y-36903090D01*
X-10683974Y-36903092D01*
X-10595293Y-36941192D01*
X-10502772Y-36980942D01*
X-10429756Y-36997464D01*
X-10310421Y-37024467D01*
X-10310416Y-37024468D01*
X-10304784Y-37025742D01*
X-10299013Y-37025969D01*
X-10299011Y-37025969D01*
X-10239244Y-37028317D01*
X-10101947Y-37033712D01*
X-10001501Y-37019148D01*
X-9906769Y-37005413D01*
X-9906764Y-37005412D01*
X-9901055Y-37004584D01*
X-9895591Y-37002729D01*
X-9895586Y-37002728D01*
X-9714307Y-36941192D01*
X-9714302Y-36941190D01*
X-9708835Y-36939334D01*
X-9698933Y-36933789D01*
X-9545163Y-36847673D01*
X-9531724Y-36840147D01*
X-9523184Y-36833045D01*
X-9380087Y-36714031D01*
X-9375655Y-36710345D01*
X-9284975Y-36601315D01*
X-9249547Y-36558718D01*
X-9249545Y-36558715D01*
X-9245853Y-36554276D01*
X-9146666Y-36377165D01*
X-9144810Y-36371698D01*
X-9144808Y-36371693D01*
X-9083272Y-36190414D01*
X-9083271Y-36190409D01*
X-9081416Y-36184945D01*
X-9080588Y-36179236D01*
X-9080587Y-36179231D01*
X-9052821Y-35987727D01*
X-9052288Y-35984053D01*
X-9050768Y-35926000D01*
X-9053436Y-35896964D01*
X-7458852Y-35896964D01*
X-7445576Y-36099522D01*
X-7444155Y-36105118D01*
X-7444154Y-36105123D01*
X-7403781Y-36264090D01*
X-7395608Y-36296269D01*
X-7393191Y-36301512D01*
X-7357007Y-36380002D01*
X-7310623Y-36480616D01*
X-7307290Y-36485332D01*
X-7229010Y-36596096D01*
X-7193467Y-36646389D01*
X-7048062Y-36788035D01*
X-6879280Y-36900812D01*
X-6873977Y-36903090D01*
X-6873974Y-36903092D01*
X-6785293Y-36941192D01*
X-6692772Y-36980942D01*
X-6619756Y-36997464D01*
X-6500421Y-37024467D01*
X-6500416Y-37024468D01*
X-6494784Y-37025742D01*
X-6489013Y-37025969D01*
X-6489011Y-37025969D01*
X-6429244Y-37028317D01*
X-6291947Y-37033712D01*
X-6191501Y-37019148D01*
X-6096769Y-37005413D01*
X-6096764Y-37005412D01*
X-6091055Y-37004584D01*
X-6085591Y-37002729D01*
X-6085586Y-37002728D01*
X-5904307Y-36941192D01*
X-5904302Y-36941190D01*
X-5898835Y-36939334D01*
X-5888933Y-36933789D01*
X-5735163Y-36847673D01*
X-5721724Y-36840147D01*
X-5713184Y-36833045D01*
X-5570087Y-36714031D01*
X-5565655Y-36710345D01*
X-5474975Y-36601315D01*
X-5439547Y-36558718D01*
X-5439545Y-36558715D01*
X-5435853Y-36554276D01*
X-5336666Y-36377165D01*
X-5334810Y-36371698D01*
X-5334808Y-36371693D01*
X-5273272Y-36190414D01*
X-5273271Y-36190409D01*
X-5271416Y-36184945D01*
X-5270588Y-36179236D01*
X-5270587Y-36179231D01*
X-5242821Y-35987727D01*
X-5242288Y-35984053D01*
X-5240768Y-35926000D01*
X-5243436Y-35896964D01*
X-3648852Y-35896964D01*
X-3635576Y-36099522D01*
X-3634155Y-36105118D01*
X-3634154Y-36105123D01*
X-3593781Y-36264090D01*
X-3585608Y-36296269D01*
X-3583191Y-36301512D01*
X-3547007Y-36380002D01*
X-3500623Y-36480616D01*
X-3497290Y-36485332D01*
X-3419010Y-36596096D01*
X-3383467Y-36646389D01*
X-3238062Y-36788035D01*
X-3069280Y-36900812D01*
X-3063977Y-36903090D01*
X-3063974Y-36903092D01*
X-2975293Y-36941192D01*
X-2882772Y-36980942D01*
X-2809756Y-36997464D01*
X-2690421Y-37024467D01*
X-2690416Y-37024468D01*
X-2684784Y-37025742D01*
X-2679013Y-37025969D01*
X-2679011Y-37025969D01*
X-2619244Y-37028317D01*
X-2481947Y-37033712D01*
X-2381501Y-37019148D01*
X-2286769Y-37005413D01*
X-2286764Y-37005412D01*
X-2281055Y-37004584D01*
X-2275591Y-37002729D01*
X-2275586Y-37002728D01*
X-2094307Y-36941192D01*
X-2094302Y-36941190D01*
X-2088835Y-36939334D01*
X-2078933Y-36933789D01*
X-1925163Y-36847673D01*
X-1911724Y-36840147D01*
X-1903184Y-36833045D01*
X-1760087Y-36714031D01*
X-1755655Y-36710345D01*
X-1664975Y-36601315D01*
X-1629547Y-36558718D01*
X-1629545Y-36558715D01*
X-1625853Y-36554276D01*
X-1526666Y-36377165D01*
X-1524810Y-36371698D01*
X-1524808Y-36371693D01*
X-1463272Y-36190414D01*
X-1463271Y-36190409D01*
X-1461416Y-36184945D01*
X-1460588Y-36179236D01*
X-1460587Y-36179231D01*
X-1432821Y-35987727D01*
X-1432288Y-35984053D01*
X-1430768Y-35926000D01*
X-1433436Y-35896964D01*
X161148Y-35896964D01*
X174424Y-36099522D01*
X175845Y-36105118D01*
X175846Y-36105123D01*
X216219Y-36264090D01*
X224392Y-36296269D01*
X226809Y-36301512D01*
X262993Y-36380002D01*
X309377Y-36480616D01*
X312710Y-36485332D01*
X390990Y-36596096D01*
X426533Y-36646389D01*
X571938Y-36788035D01*
X740720Y-36900812D01*
X746023Y-36903090D01*
X746026Y-36903092D01*
X834707Y-36941192D01*
X927228Y-36980942D01*
X1000244Y-36997464D01*
X1119579Y-37024467D01*
X1119584Y-37024468D01*
X1125216Y-37025742D01*
X1130987Y-37025969D01*
X1130989Y-37025969D01*
X1190756Y-37028317D01*
X1328053Y-37033712D01*
X1428499Y-37019148D01*
X1523231Y-37005413D01*
X1523236Y-37005412D01*
X1528945Y-37004584D01*
X1534409Y-37002729D01*
X1534414Y-37002728D01*
X1715693Y-36941192D01*
X1715698Y-36941190D01*
X1721165Y-36939334D01*
X1731067Y-36933789D01*
X1884837Y-36847673D01*
X1898276Y-36840147D01*
X1906816Y-36833045D01*
X2049913Y-36714031D01*
X2054345Y-36710345D01*
X2145025Y-36601315D01*
X2180453Y-36558718D01*
X2180455Y-36558715D01*
X2184147Y-36554276D01*
X2283334Y-36377165D01*
X2285190Y-36371698D01*
X2285192Y-36371693D01*
X2346728Y-36190414D01*
X2346729Y-36190409D01*
X2348584Y-36184945D01*
X2349412Y-36179236D01*
X2349413Y-36179231D01*
X2377179Y-35987727D01*
X2377712Y-35984053D01*
X2379232Y-35926000D01*
X2376564Y-35896964D01*
X3971148Y-35896964D01*
X3984424Y-36099522D01*
X3985845Y-36105118D01*
X3985846Y-36105123D01*
X4026219Y-36264090D01*
X4034392Y-36296269D01*
X4036809Y-36301512D01*
X4072993Y-36380002D01*
X4119377Y-36480616D01*
X4122710Y-36485332D01*
X4200990Y-36596096D01*
X4236533Y-36646389D01*
X4381938Y-36788035D01*
X4550720Y-36900812D01*
X4556023Y-36903090D01*
X4556026Y-36903092D01*
X4644707Y-36941192D01*
X4737228Y-36980942D01*
X4810244Y-36997464D01*
X4929579Y-37024467D01*
X4929584Y-37024468D01*
X4935216Y-37025742D01*
X4940987Y-37025969D01*
X4940989Y-37025969D01*
X5000756Y-37028317D01*
X5138053Y-37033712D01*
X5238499Y-37019148D01*
X5333231Y-37005413D01*
X5333236Y-37005412D01*
X5338945Y-37004584D01*
X5344409Y-37002729D01*
X5344414Y-37002728D01*
X5525693Y-36941192D01*
X5525698Y-36941190D01*
X5531165Y-36939334D01*
X5541067Y-36933789D01*
X5694837Y-36847673D01*
X5708276Y-36840147D01*
X5716816Y-36833045D01*
X5859913Y-36714031D01*
X5864345Y-36710345D01*
X5955025Y-36601315D01*
X5990453Y-36558718D01*
X5990455Y-36558715D01*
X5994147Y-36554276D01*
X6093334Y-36377165D01*
X6095190Y-36371698D01*
X6095192Y-36371693D01*
X6156728Y-36190414D01*
X6156729Y-36190409D01*
X6158584Y-36184945D01*
X6159412Y-36179236D01*
X6159413Y-36179231D01*
X6187179Y-35987727D01*
X6187712Y-35984053D01*
X6189232Y-35926000D01*
X6186564Y-35896964D01*
X9051148Y-35896964D01*
X9064424Y-36099522D01*
X9065845Y-36105118D01*
X9065846Y-36105123D01*
X9106219Y-36264090D01*
X9114392Y-36296269D01*
X9116809Y-36301512D01*
X9152993Y-36380002D01*
X9199377Y-36480616D01*
X9202710Y-36485332D01*
X9280990Y-36596096D01*
X9316533Y-36646389D01*
X9461938Y-36788035D01*
X9630720Y-36900812D01*
X9636023Y-36903090D01*
X9636026Y-36903092D01*
X9724707Y-36941192D01*
X9817228Y-36980942D01*
X9890244Y-36997464D01*
X10009579Y-37024467D01*
X10009584Y-37024468D01*
X10015216Y-37025742D01*
X10020987Y-37025969D01*
X10020989Y-37025969D01*
X10080756Y-37028317D01*
X10218053Y-37033712D01*
X10318499Y-37019148D01*
X10413231Y-37005413D01*
X10413236Y-37005412D01*
X10418945Y-37004584D01*
X10424409Y-37002729D01*
X10424414Y-37002728D01*
X10605693Y-36941192D01*
X10605698Y-36941190D01*
X10611165Y-36939334D01*
X10621067Y-36933789D01*
X13595996Y-36933789D01*
X13604913Y-37171295D01*
X13653719Y-37403904D01*
X13655677Y-37408863D01*
X13655678Y-37408865D01*
X13704925Y-37533564D01*
X13741020Y-37624963D01*
X13864319Y-37828153D01*
X14020090Y-38007664D01*
X14024216Y-38011047D01*
X14024220Y-38011051D01*
X14117622Y-38087635D01*
X14203880Y-38158362D01*
X14208516Y-38161001D01*
X14208519Y-38161003D01*
X14287916Y-38206198D01*
X14410433Y-38275939D01*
X14633844Y-38357034D01*
X14639092Y-38357983D01*
X14863641Y-38398588D01*
X14863648Y-38398589D01*
X14867725Y-38399326D01*
X14885991Y-38400187D01*
X14891131Y-38400430D01*
X14891138Y-38400430D01*
X14892619Y-38400500D01*
X15059680Y-38400500D01*
X15142026Y-38393513D01*
X15231512Y-38385920D01*
X15231516Y-38385919D01*
X15236823Y-38385469D01*
X15241978Y-38384131D01*
X15241984Y-38384130D01*
X15461703Y-38327102D01*
X15461702Y-38327102D01*
X15466874Y-38325760D01*
X15583327Y-38273302D01*
X15678715Y-38230333D01*
X15678718Y-38230332D01*
X15683576Y-38228143D01*
X15880732Y-38095409D01*
X15888882Y-38087635D01*
X15969162Y-38011051D01*
X16052705Y-37931355D01*
X16194579Y-37740670D01*
X16302295Y-37528807D01*
X16316216Y-37483976D01*
X16371193Y-37306919D01*
X16372775Y-37301824D01*
X16404004Y-37066211D01*
X16395087Y-36828705D01*
X16346281Y-36596096D01*
X16331520Y-36558718D01*
X16260941Y-36380002D01*
X16260940Y-36380000D01*
X16258980Y-36375037D01*
X16135681Y-36171847D01*
X15979910Y-35992336D01*
X15975784Y-35988953D01*
X15975780Y-35988949D01*
X15800248Y-35845023D01*
X15796120Y-35841638D01*
X15791484Y-35838999D01*
X15791481Y-35838997D01*
X15599320Y-35729613D01*
X15589567Y-35724061D01*
X15366156Y-35642966D01*
X15314112Y-35633555D01*
X15136359Y-35601412D01*
X15136352Y-35601411D01*
X15132275Y-35600674D01*
X15114009Y-35599813D01*
X15108869Y-35599570D01*
X15108862Y-35599570D01*
X15107381Y-35599500D01*
X14940320Y-35599500D01*
X14857974Y-35606487D01*
X14768488Y-35614080D01*
X14768484Y-35614081D01*
X14763177Y-35614531D01*
X14758022Y-35615869D01*
X14758016Y-35615870D01*
X14646612Y-35644785D01*
X14533126Y-35674240D01*
X14473466Y-35701115D01*
X14321285Y-35769667D01*
X14321282Y-35769668D01*
X14316424Y-35771857D01*
X14119268Y-35904591D01*
X14115411Y-35908270D01*
X14115409Y-35908272D01*
X14092943Y-35929704D01*
X13947295Y-36068645D01*
X13805421Y-36259330D01*
X13697705Y-36471193D01*
X13696124Y-36476284D01*
X13696123Y-36476287D01*
X13657301Y-36601315D01*
X13627225Y-36698176D01*
X13626524Y-36703465D01*
X13600065Y-36903092D01*
X13595996Y-36933789D01*
X10621067Y-36933789D01*
X10774837Y-36847673D01*
X10788276Y-36840147D01*
X10796816Y-36833045D01*
X10939913Y-36714031D01*
X10944345Y-36710345D01*
X11035025Y-36601315D01*
X11070453Y-36558718D01*
X11070455Y-36558715D01*
X11074147Y-36554276D01*
X11173334Y-36377165D01*
X11175190Y-36371698D01*
X11175192Y-36371693D01*
X11236728Y-36190414D01*
X11236729Y-36190409D01*
X11238584Y-36184945D01*
X11239412Y-36179236D01*
X11239413Y-36179231D01*
X11267179Y-35987727D01*
X11267712Y-35984053D01*
X11269232Y-35926000D01*
X11250658Y-35723859D01*
X11249090Y-35718299D01*
X11197125Y-35534046D01*
X11197124Y-35534044D01*
X11195557Y-35528487D01*
X11184978Y-35507033D01*
X11108331Y-35351609D01*
X11105776Y-35346428D01*
X10984320Y-35183779D01*
X10835258Y-35045987D01*
X10830375Y-35042906D01*
X10830371Y-35042903D01*
X10668464Y-34940748D01*
X10663581Y-34937667D01*
X10475039Y-34862446D01*
X10469379Y-34861320D01*
X10469375Y-34861319D01*
X10281613Y-34823971D01*
X10281610Y-34823971D01*
X10275946Y-34822844D01*
X10270171Y-34822768D01*
X10270167Y-34822768D01*
X10168793Y-34821441D01*
X10072971Y-34820187D01*
X10067274Y-34821166D01*
X10067273Y-34821166D01*
X9878607Y-34853585D01*
X9872910Y-34854564D01*
X9682463Y-34924824D01*
X9508010Y-35028612D01*
X9503670Y-35032418D01*
X9503666Y-35032421D01*
X9483723Y-35049911D01*
X9355392Y-35162455D01*
X9229720Y-35321869D01*
X9227031Y-35326980D01*
X9227029Y-35326983D01*
X9209551Y-35360203D01*
X9135203Y-35501515D01*
X9126828Y-35528487D01*
X9081571Y-35674240D01*
X9075007Y-35695378D01*
X9051148Y-35896964D01*
X6186564Y-35896964D01*
X6170658Y-35723859D01*
X6169090Y-35718299D01*
X6117125Y-35534046D01*
X6117124Y-35534044D01*
X6115557Y-35528487D01*
X6104978Y-35507033D01*
X6028331Y-35351609D01*
X6025776Y-35346428D01*
X5904320Y-35183779D01*
X5755258Y-35045987D01*
X5750375Y-35042906D01*
X5750371Y-35042903D01*
X5588464Y-34940748D01*
X5583581Y-34937667D01*
X5395039Y-34862446D01*
X5389379Y-34861320D01*
X5389375Y-34861319D01*
X5201613Y-34823971D01*
X5201610Y-34823971D01*
X5195946Y-34822844D01*
X5190171Y-34822768D01*
X5190167Y-34822768D01*
X5088793Y-34821441D01*
X4992971Y-34820187D01*
X4987274Y-34821166D01*
X4987273Y-34821166D01*
X4798607Y-34853585D01*
X4792910Y-34854564D01*
X4602463Y-34924824D01*
X4428010Y-35028612D01*
X4423670Y-35032418D01*
X4423666Y-35032421D01*
X4403723Y-35049911D01*
X4275392Y-35162455D01*
X4149720Y-35321869D01*
X4147031Y-35326980D01*
X4147029Y-35326983D01*
X4129551Y-35360203D01*
X4055203Y-35501515D01*
X4046828Y-35528487D01*
X4001571Y-35674240D01*
X3995007Y-35695378D01*
X3971148Y-35896964D01*
X2376564Y-35896964D01*
X2360658Y-35723859D01*
X2359090Y-35718299D01*
X2307125Y-35534046D01*
X2307124Y-35534044D01*
X2305557Y-35528487D01*
X2294978Y-35507033D01*
X2218331Y-35351609D01*
X2215776Y-35346428D01*
X2094320Y-35183779D01*
X1945258Y-35045987D01*
X1940375Y-35042906D01*
X1940371Y-35042903D01*
X1778464Y-34940748D01*
X1773581Y-34937667D01*
X1585039Y-34862446D01*
X1579379Y-34861320D01*
X1579375Y-34861319D01*
X1391613Y-34823971D01*
X1391610Y-34823971D01*
X1385946Y-34822844D01*
X1380171Y-34822768D01*
X1380167Y-34822768D01*
X1278793Y-34821441D01*
X1182971Y-34820187D01*
X1177274Y-34821166D01*
X1177273Y-34821166D01*
X988607Y-34853585D01*
X982910Y-34854564D01*
X792463Y-34924824D01*
X618010Y-35028612D01*
X613670Y-35032418D01*
X613666Y-35032421D01*
X593723Y-35049911D01*
X465392Y-35162455D01*
X339720Y-35321869D01*
X337031Y-35326980D01*
X337029Y-35326983D01*
X319551Y-35360203D01*
X245203Y-35501515D01*
X236828Y-35528487D01*
X191571Y-35674240D01*
X185007Y-35695378D01*
X161148Y-35896964D01*
X-1433436Y-35896964D01*
X-1449342Y-35723859D01*
X-1450910Y-35718299D01*
X-1502875Y-35534046D01*
X-1502876Y-35534044D01*
X-1504443Y-35528487D01*
X-1515022Y-35507033D01*
X-1591669Y-35351609D01*
X-1594224Y-35346428D01*
X-1715680Y-35183779D01*
X-1864742Y-35045987D01*
X-1869625Y-35042906D01*
X-1869629Y-35042903D01*
X-2031536Y-34940748D01*
X-2036419Y-34937667D01*
X-2224961Y-34862446D01*
X-2230621Y-34861320D01*
X-2230625Y-34861319D01*
X-2418387Y-34823971D01*
X-2418390Y-34823971D01*
X-2424054Y-34822844D01*
X-2429829Y-34822768D01*
X-2429833Y-34822768D01*
X-2531207Y-34821441D01*
X-2627029Y-34820187D01*
X-2632726Y-34821166D01*
X-2632727Y-34821166D01*
X-2821393Y-34853585D01*
X-2827090Y-34854564D01*
X-3017537Y-34924824D01*
X-3191990Y-35028612D01*
X-3196330Y-35032418D01*
X-3196334Y-35032421D01*
X-3216277Y-35049911D01*
X-3344608Y-35162455D01*
X-3470280Y-35321869D01*
X-3472969Y-35326980D01*
X-3472971Y-35326983D01*
X-3490449Y-35360203D01*
X-3564797Y-35501515D01*
X-3573172Y-35528487D01*
X-3618429Y-35674240D01*
X-3624993Y-35695378D01*
X-3648852Y-35896964D01*
X-5243436Y-35896964D01*
X-5259342Y-35723859D01*
X-5260910Y-35718299D01*
X-5312875Y-35534046D01*
X-5312876Y-35534044D01*
X-5314443Y-35528487D01*
X-5325022Y-35507033D01*
X-5401669Y-35351609D01*
X-5404224Y-35346428D01*
X-5525680Y-35183779D01*
X-5674742Y-35045987D01*
X-5679625Y-35042906D01*
X-5679629Y-35042903D01*
X-5841536Y-34940748D01*
X-5846419Y-34937667D01*
X-6034961Y-34862446D01*
X-6040621Y-34861320D01*
X-6040625Y-34861319D01*
X-6228387Y-34823971D01*
X-6228390Y-34823971D01*
X-6234054Y-34822844D01*
X-6239829Y-34822768D01*
X-6239833Y-34822768D01*
X-6341207Y-34821441D01*
X-6437029Y-34820187D01*
X-6442726Y-34821166D01*
X-6442727Y-34821166D01*
X-6631393Y-34853585D01*
X-6637090Y-34854564D01*
X-6827537Y-34924824D01*
X-7001990Y-35028612D01*
X-7006330Y-35032418D01*
X-7006334Y-35032421D01*
X-7026277Y-35049911D01*
X-7154608Y-35162455D01*
X-7280280Y-35321869D01*
X-7282969Y-35326980D01*
X-7282971Y-35326983D01*
X-7300449Y-35360203D01*
X-7374797Y-35501515D01*
X-7383172Y-35528487D01*
X-7428429Y-35674240D01*
X-7434993Y-35695378D01*
X-7458852Y-35896964D01*
X-9053436Y-35896964D01*
X-9069342Y-35723859D01*
X-9070910Y-35718299D01*
X-9122875Y-35534046D01*
X-9122876Y-35534044D01*
X-9124443Y-35528487D01*
X-9135022Y-35507033D01*
X-9211669Y-35351609D01*
X-9214224Y-35346428D01*
X-9335680Y-35183779D01*
X-9484742Y-35045987D01*
X-9489625Y-35042906D01*
X-9489629Y-35042903D01*
X-9651536Y-34940748D01*
X-9656419Y-34937667D01*
X-9844961Y-34862446D01*
X-9850621Y-34861320D01*
X-9850625Y-34861319D01*
X-10038387Y-34823971D01*
X-10038390Y-34823971D01*
X-10044054Y-34822844D01*
X-10049829Y-34822768D01*
X-10049833Y-34822768D01*
X-10151207Y-34821441D01*
X-10247029Y-34820187D01*
X-10252726Y-34821166D01*
X-10252727Y-34821166D01*
X-10441393Y-34853585D01*
X-10447090Y-34854564D01*
X-10637537Y-34924824D01*
X-10811990Y-35028612D01*
X-10816330Y-35032418D01*
X-10816334Y-35032421D01*
X-10836277Y-35049911D01*
X-10964608Y-35162455D01*
X-11090280Y-35321869D01*
X-11092969Y-35326980D01*
X-11092971Y-35326983D01*
X-11110449Y-35360203D01*
X-11184797Y-35501515D01*
X-11193172Y-35528487D01*
X-11238429Y-35674240D01*
X-11244993Y-35695378D01*
X-11268852Y-35896964D01*
X-14136405Y-35896964D01*
X-14199752Y-35845023D01*
X-14203880Y-35841638D01*
X-14208516Y-35838999D01*
X-14208519Y-35838997D01*
X-14400680Y-35729613D01*
X-14410433Y-35724061D01*
X-14633844Y-35642966D01*
X-14685888Y-35633555D01*
X-14863641Y-35601412D01*
X-14863648Y-35601411D01*
X-14867725Y-35600674D01*
X-14885991Y-35599813D01*
X-14891131Y-35599570D01*
X-14891138Y-35599570D01*
X-14892619Y-35599500D01*
X-15059680Y-35599500D01*
X-15142026Y-35606487D01*
X-15231512Y-35614080D01*
X-15231516Y-35614081D01*
X-15236823Y-35614531D01*
X-15241978Y-35615869D01*
X-15241984Y-35615870D01*
X-15353388Y-35644785D01*
X-15466874Y-35674240D01*
X-15526534Y-35701115D01*
X-15678715Y-35769667D01*
X-15678718Y-35769668D01*
X-15683576Y-35771857D01*
X-15880732Y-35904591D01*
X-15884589Y-35908270D01*
X-15884591Y-35908272D01*
X-15907057Y-35929704D01*
X-16052705Y-36068645D01*
X-16194579Y-36259330D01*
X-16302295Y-36471193D01*
X-16303876Y-36476284D01*
X-16303877Y-36476287D01*
X-16342699Y-36601315D01*
X-16372775Y-36698176D01*
X-16373476Y-36703465D01*
X-16399935Y-36903092D01*
X-16404004Y-36933789D01*
X-17741354Y-36933789D01*
X-17741354Y-36847673D01*
X-17740502Y-36833045D01*
X-17705134Y-36530454D01*
X-17702590Y-36516024D01*
X-17632330Y-36219574D01*
X-17628127Y-36205537D01*
X-17523931Y-35919261D01*
X-17518131Y-35905815D01*
X-17381398Y-35633555D01*
X-17374071Y-35620866D01*
X-17206665Y-35366339D01*
X-17197916Y-35354586D01*
X-17002083Y-35121199D01*
X-16992027Y-35110541D01*
X-16770432Y-34901478D01*
X-16759208Y-34892060D01*
X-16514840Y-34710134D01*
X-16502598Y-34702082D01*
X-16238758Y-34549754D01*
X-16225664Y-34543178D01*
X-16110989Y-34493712D01*
X-15945926Y-34422511D01*
X-15932164Y-34417501D01*
X-15750423Y-34363092D01*
X-15640301Y-34330124D01*
X-15626044Y-34326745D01*
X-15421560Y-34290688D01*
X-15326014Y-34273841D01*
X-15311466Y-34272140D01*
X-15035442Y-34256064D01*
X-15024580Y-34256816D01*
X-15024580Y-34256555D01*
X-15012172Y-34256555D01*
X-15000000Y-34258976D01*
X-14900894Y-34239263D01*
X-14816876Y-34183124D01*
X-14760737Y-34099106D01*
X-14741024Y-34000000D01*
X-14743579Y-33987153D01*
X-14746000Y-33962575D01*
X-14746000Y-33356964D01*
X-11268852Y-33356964D01*
X-11255576Y-33559522D01*
X-11254155Y-33565118D01*
X-11254154Y-33565123D01*
X-11233881Y-33644945D01*
X-11205608Y-33756269D01*
X-11203191Y-33761512D01*
X-11165990Y-33842208D01*
X-11120623Y-33940616D01*
X-11117290Y-33945332D01*
X-11017216Y-34086934D01*
X-11003467Y-34106389D01*
X-10858062Y-34248035D01*
X-10853258Y-34251245D01*
X-10821347Y-34272567D01*
X-10689280Y-34360812D01*
X-10683977Y-34363090D01*
X-10683974Y-34363092D01*
X-10557335Y-34417500D01*
X-10502772Y-34440942D01*
X-10429756Y-34457464D01*
X-10310421Y-34484467D01*
X-10310416Y-34484468D01*
X-10304784Y-34485742D01*
X-10299013Y-34485969D01*
X-10299011Y-34485969D01*
X-10239244Y-34488317D01*
X-10101947Y-34493712D01*
X-10001501Y-34479148D01*
X-9906769Y-34465413D01*
X-9906764Y-34465412D01*
X-9901055Y-34464584D01*
X-9895591Y-34462729D01*
X-9895586Y-34462728D01*
X-9714307Y-34401192D01*
X-9714302Y-34401190D01*
X-9708835Y-34399334D01*
X-9531724Y-34300147D01*
X-9500094Y-34273841D01*
X-9380087Y-34174031D01*
X-9375655Y-34170345D01*
X-9306282Y-34086934D01*
X-9249547Y-34018718D01*
X-9249545Y-34018715D01*
X-9245853Y-34014276D01*
X-9146666Y-33837165D01*
X-9144810Y-33831698D01*
X-9144808Y-33831693D01*
X-9083272Y-33650414D01*
X-9083271Y-33650409D01*
X-9081416Y-33644945D01*
X-9080588Y-33639236D01*
X-9080587Y-33639231D01*
X-9052821Y-33447727D01*
X-9052288Y-33444053D01*
X-9050768Y-33386000D01*
X-9053436Y-33356964D01*
X-7458852Y-33356964D01*
X-7445576Y-33559522D01*
X-7444155Y-33565118D01*
X-7444154Y-33565123D01*
X-7423881Y-33644945D01*
X-7395608Y-33756269D01*
X-7393191Y-33761512D01*
X-7355990Y-33842208D01*
X-7310623Y-33940616D01*
X-7307290Y-33945332D01*
X-7207216Y-34086934D01*
X-7193467Y-34106389D01*
X-7048062Y-34248035D01*
X-7043258Y-34251245D01*
X-7011347Y-34272567D01*
X-6879280Y-34360812D01*
X-6873977Y-34363090D01*
X-6873974Y-34363092D01*
X-6747335Y-34417500D01*
X-6692772Y-34440942D01*
X-6619756Y-34457464D01*
X-6500421Y-34484467D01*
X-6500416Y-34484468D01*
X-6494784Y-34485742D01*
X-6489013Y-34485969D01*
X-6489011Y-34485969D01*
X-6429244Y-34488317D01*
X-6291947Y-34493712D01*
X-6191501Y-34479148D01*
X-6096769Y-34465413D01*
X-6096764Y-34465412D01*
X-6091055Y-34464584D01*
X-6085591Y-34462729D01*
X-6085586Y-34462728D01*
X-5904307Y-34401192D01*
X-5904302Y-34401190D01*
X-5898835Y-34399334D01*
X-5721724Y-34300147D01*
X-5690094Y-34273841D01*
X-5570087Y-34174031D01*
X-5565655Y-34170345D01*
X-5496282Y-34086934D01*
X-5439547Y-34018718D01*
X-5439545Y-34018715D01*
X-5435853Y-34014276D01*
X-5336666Y-33837165D01*
X-5334810Y-33831698D01*
X-5334808Y-33831693D01*
X-5273272Y-33650414D01*
X-5273271Y-33650409D01*
X-5271416Y-33644945D01*
X-5270588Y-33639236D01*
X-5270587Y-33639231D01*
X-5242821Y-33447727D01*
X-5242288Y-33444053D01*
X-5240768Y-33386000D01*
X-5243436Y-33356964D01*
X-3648852Y-33356964D01*
X-3635576Y-33559522D01*
X-3634155Y-33565118D01*
X-3634154Y-33565123D01*
X-3613881Y-33644945D01*
X-3585608Y-33756269D01*
X-3583191Y-33761512D01*
X-3545990Y-33842208D01*
X-3500623Y-33940616D01*
X-3497290Y-33945332D01*
X-3397216Y-34086934D01*
X-3383467Y-34106389D01*
X-3238062Y-34248035D01*
X-3233258Y-34251245D01*
X-3201347Y-34272567D01*
X-3069280Y-34360812D01*
X-3063977Y-34363090D01*
X-3063974Y-34363092D01*
X-2937335Y-34417500D01*
X-2882772Y-34440942D01*
X-2809756Y-34457464D01*
X-2690421Y-34484467D01*
X-2690416Y-34484468D01*
X-2684784Y-34485742D01*
X-2679013Y-34485969D01*
X-2679011Y-34485969D01*
X-2619244Y-34488317D01*
X-2481947Y-34493712D01*
X-2381501Y-34479148D01*
X-2286769Y-34465413D01*
X-2286764Y-34465412D01*
X-2281055Y-34464584D01*
X-2275591Y-34462729D01*
X-2275586Y-34462728D01*
X-2094307Y-34401192D01*
X-2094302Y-34401190D01*
X-2088835Y-34399334D01*
X-1911724Y-34300147D01*
X-1880094Y-34273841D01*
X-1760087Y-34174031D01*
X-1755655Y-34170345D01*
X-1686282Y-34086934D01*
X-1629547Y-34018718D01*
X-1629545Y-34018715D01*
X-1625853Y-34014276D01*
X-1526666Y-33837165D01*
X-1524810Y-33831698D01*
X-1524808Y-33831693D01*
X-1463272Y-33650414D01*
X-1463271Y-33650409D01*
X-1461416Y-33644945D01*
X-1460588Y-33639236D01*
X-1460587Y-33639231D01*
X-1432821Y-33447727D01*
X-1432288Y-33444053D01*
X-1430768Y-33386000D01*
X-1433436Y-33356964D01*
X161148Y-33356964D01*
X174424Y-33559522D01*
X175845Y-33565118D01*
X175846Y-33565123D01*
X196119Y-33644945D01*
X224392Y-33756269D01*
X226809Y-33761512D01*
X264010Y-33842208D01*
X309377Y-33940616D01*
X312710Y-33945332D01*
X412784Y-34086934D01*
X426533Y-34106389D01*
X571938Y-34248035D01*
X576742Y-34251245D01*
X608653Y-34272567D01*
X740720Y-34360812D01*
X746023Y-34363090D01*
X746026Y-34363092D01*
X872665Y-34417500D01*
X927228Y-34440942D01*
X1000244Y-34457464D01*
X1119579Y-34484467D01*
X1119584Y-34484468D01*
X1125216Y-34485742D01*
X1130987Y-34485969D01*
X1130989Y-34485969D01*
X1190756Y-34488317D01*
X1328053Y-34493712D01*
X1428499Y-34479148D01*
X1523231Y-34465413D01*
X1523236Y-34465412D01*
X1528945Y-34464584D01*
X1534409Y-34462729D01*
X1534414Y-34462728D01*
X1715693Y-34401192D01*
X1715698Y-34401190D01*
X1721165Y-34399334D01*
X1898276Y-34300147D01*
X1929906Y-34273841D01*
X2049913Y-34174031D01*
X2054345Y-34170345D01*
X2123718Y-34086934D01*
X2180453Y-34018718D01*
X2180455Y-34018715D01*
X2184147Y-34014276D01*
X2283334Y-33837165D01*
X2285190Y-33831698D01*
X2285192Y-33831693D01*
X2346728Y-33650414D01*
X2346729Y-33650409D01*
X2348584Y-33644945D01*
X2349412Y-33639236D01*
X2349413Y-33639231D01*
X2377179Y-33447727D01*
X2377712Y-33444053D01*
X2379232Y-33386000D01*
X2376564Y-33356964D01*
X3971148Y-33356964D01*
X3984424Y-33559522D01*
X3985845Y-33565118D01*
X3985846Y-33565123D01*
X4006119Y-33644945D01*
X4034392Y-33756269D01*
X4036809Y-33761512D01*
X4074010Y-33842208D01*
X4119377Y-33940616D01*
X4122710Y-33945332D01*
X4222784Y-34086934D01*
X4236533Y-34106389D01*
X4381938Y-34248035D01*
X4386742Y-34251245D01*
X4418653Y-34272567D01*
X4550720Y-34360812D01*
X4556023Y-34363090D01*
X4556026Y-34363092D01*
X4682665Y-34417500D01*
X4737228Y-34440942D01*
X4810244Y-34457464D01*
X4929579Y-34484467D01*
X4929584Y-34484468D01*
X4935216Y-34485742D01*
X4940987Y-34485969D01*
X4940989Y-34485969D01*
X5000756Y-34488317D01*
X5138053Y-34493712D01*
X5238499Y-34479148D01*
X5333231Y-34465413D01*
X5333236Y-34465412D01*
X5338945Y-34464584D01*
X5344409Y-34462729D01*
X5344414Y-34462728D01*
X5525693Y-34401192D01*
X5525698Y-34401190D01*
X5531165Y-34399334D01*
X5708276Y-34300147D01*
X5739906Y-34273841D01*
X5859913Y-34174031D01*
X5864345Y-34170345D01*
X5933718Y-34086934D01*
X5990453Y-34018718D01*
X5990455Y-34018715D01*
X5994147Y-34014276D01*
X6093334Y-33837165D01*
X6095190Y-33831698D01*
X6095192Y-33831693D01*
X6156728Y-33650414D01*
X6156729Y-33650409D01*
X6158584Y-33644945D01*
X6159412Y-33639236D01*
X6159413Y-33639231D01*
X6187179Y-33447727D01*
X6187712Y-33444053D01*
X6189232Y-33386000D01*
X6186564Y-33356964D01*
X9051148Y-33356964D01*
X9064424Y-33559522D01*
X9065845Y-33565118D01*
X9065846Y-33565123D01*
X9086119Y-33644945D01*
X9114392Y-33756269D01*
X9116809Y-33761512D01*
X9154010Y-33842208D01*
X9199377Y-33940616D01*
X9202710Y-33945332D01*
X9302784Y-34086934D01*
X9316533Y-34106389D01*
X9461938Y-34248035D01*
X9466742Y-34251245D01*
X9498653Y-34272567D01*
X9630720Y-34360812D01*
X9636023Y-34363090D01*
X9636026Y-34363092D01*
X9762665Y-34417500D01*
X9817228Y-34440942D01*
X9890244Y-34457464D01*
X10009579Y-34484467D01*
X10009584Y-34484468D01*
X10015216Y-34485742D01*
X10020987Y-34485969D01*
X10020989Y-34485969D01*
X10080756Y-34488317D01*
X10218053Y-34493712D01*
X10318499Y-34479148D01*
X10413231Y-34465413D01*
X10413236Y-34465412D01*
X10418945Y-34464584D01*
X10424409Y-34462729D01*
X10424414Y-34462728D01*
X10605693Y-34401192D01*
X10605698Y-34401190D01*
X10611165Y-34399334D01*
X10788276Y-34300147D01*
X10819906Y-34273841D01*
X10939913Y-34174031D01*
X10944345Y-34170345D01*
X11013718Y-34086934D01*
X11070453Y-34018718D01*
X11070455Y-34018715D01*
X11074147Y-34014276D01*
X11173334Y-33837165D01*
X11175190Y-33831698D01*
X11175192Y-33831693D01*
X11236728Y-33650414D01*
X11236729Y-33650409D01*
X11238584Y-33644945D01*
X11239412Y-33639236D01*
X11239413Y-33639231D01*
X11267179Y-33447727D01*
X11267712Y-33444053D01*
X11269232Y-33386000D01*
X11250658Y-33183859D01*
X11249090Y-33178299D01*
X11197125Y-32994046D01*
X11197124Y-32994044D01*
X11195557Y-32988487D01*
X11184978Y-32967033D01*
X11108331Y-32811609D01*
X11105776Y-32806428D01*
X10984320Y-32643779D01*
X10835258Y-32505987D01*
X10830375Y-32502906D01*
X10830371Y-32502903D01*
X10668464Y-32400748D01*
X10663581Y-32397667D01*
X10475039Y-32322446D01*
X10469379Y-32321320D01*
X10469375Y-32321319D01*
X10281613Y-32283971D01*
X10281610Y-32283971D01*
X10275946Y-32282844D01*
X10270171Y-32282768D01*
X10270167Y-32282768D01*
X10168793Y-32281441D01*
X10072971Y-32280187D01*
X10067274Y-32281166D01*
X10067273Y-32281166D01*
X9878607Y-32313585D01*
X9872910Y-32314564D01*
X9682463Y-32384824D01*
X9508010Y-32488612D01*
X9503670Y-32492418D01*
X9503666Y-32492421D01*
X9483723Y-32509911D01*
X9355392Y-32622455D01*
X9229720Y-32781869D01*
X9227031Y-32786980D01*
X9227029Y-32786983D01*
X9214073Y-32811609D01*
X9135203Y-32961515D01*
X9075007Y-33155378D01*
X9051148Y-33356964D01*
X6186564Y-33356964D01*
X6170658Y-33183859D01*
X6169090Y-33178299D01*
X6117125Y-32994046D01*
X6117124Y-32994044D01*
X6115557Y-32988487D01*
X6104978Y-32967033D01*
X6028331Y-32811609D01*
X6025776Y-32806428D01*
X5904320Y-32643779D01*
X5755258Y-32505987D01*
X5750375Y-32502906D01*
X5750371Y-32502903D01*
X5588464Y-32400748D01*
X5583581Y-32397667D01*
X5395039Y-32322446D01*
X5389379Y-32321320D01*
X5389375Y-32321319D01*
X5201613Y-32283971D01*
X5201610Y-32283971D01*
X5195946Y-32282844D01*
X5190171Y-32282768D01*
X5190167Y-32282768D01*
X5088793Y-32281441D01*
X4992971Y-32280187D01*
X4987274Y-32281166D01*
X4987273Y-32281166D01*
X4798607Y-32313585D01*
X4792910Y-32314564D01*
X4602463Y-32384824D01*
X4428010Y-32488612D01*
X4423670Y-32492418D01*
X4423666Y-32492421D01*
X4403723Y-32509911D01*
X4275392Y-32622455D01*
X4149720Y-32781869D01*
X4147031Y-32786980D01*
X4147029Y-32786983D01*
X4134073Y-32811609D01*
X4055203Y-32961515D01*
X3995007Y-33155378D01*
X3971148Y-33356964D01*
X2376564Y-33356964D01*
X2360658Y-33183859D01*
X2359090Y-33178299D01*
X2307125Y-32994046D01*
X2307124Y-32994044D01*
X2305557Y-32988487D01*
X2294978Y-32967033D01*
X2218331Y-32811609D01*
X2215776Y-32806428D01*
X2094320Y-32643779D01*
X1945258Y-32505987D01*
X1940375Y-32502906D01*
X1940371Y-32502903D01*
X1778464Y-32400748D01*
X1773581Y-32397667D01*
X1585039Y-32322446D01*
X1579379Y-32321320D01*
X1579375Y-32321319D01*
X1391613Y-32283971D01*
X1391610Y-32283971D01*
X1385946Y-32282844D01*
X1380171Y-32282768D01*
X1380167Y-32282768D01*
X1278793Y-32281441D01*
X1182971Y-32280187D01*
X1177274Y-32281166D01*
X1177273Y-32281166D01*
X988607Y-32313585D01*
X982910Y-32314564D01*
X792463Y-32384824D01*
X618010Y-32488612D01*
X613670Y-32492418D01*
X613666Y-32492421D01*
X593723Y-32509911D01*
X465392Y-32622455D01*
X339720Y-32781869D01*
X337031Y-32786980D01*
X337029Y-32786983D01*
X324073Y-32811609D01*
X245203Y-32961515D01*
X185007Y-33155378D01*
X161148Y-33356964D01*
X-1433436Y-33356964D01*
X-1449342Y-33183859D01*
X-1450910Y-33178299D01*
X-1502875Y-32994046D01*
X-1502876Y-32994044D01*
X-1504443Y-32988487D01*
X-1515022Y-32967033D01*
X-1591669Y-32811609D01*
X-1594224Y-32806428D01*
X-1715680Y-32643779D01*
X-1864742Y-32505987D01*
X-1869625Y-32502906D01*
X-1869629Y-32502903D01*
X-2031536Y-32400748D01*
X-2036419Y-32397667D01*
X-2224961Y-32322446D01*
X-2230621Y-32321320D01*
X-2230625Y-32321319D01*
X-2418387Y-32283971D01*
X-2418390Y-32283971D01*
X-2424054Y-32282844D01*
X-2429829Y-32282768D01*
X-2429833Y-32282768D01*
X-2531207Y-32281441D01*
X-2627029Y-32280187D01*
X-2632726Y-32281166D01*
X-2632727Y-32281166D01*
X-2821393Y-32313585D01*
X-2827090Y-32314564D01*
X-3017537Y-32384824D01*
X-3191990Y-32488612D01*
X-3196330Y-32492418D01*
X-3196334Y-32492421D01*
X-3216277Y-32509911D01*
X-3344608Y-32622455D01*
X-3470280Y-32781869D01*
X-3472969Y-32786980D01*
X-3472971Y-32786983D01*
X-3485927Y-32811609D01*
X-3564797Y-32961515D01*
X-3624993Y-33155378D01*
X-3648852Y-33356964D01*
X-5243436Y-33356964D01*
X-5259342Y-33183859D01*
X-5260910Y-33178299D01*
X-5312875Y-32994046D01*
X-5312876Y-32994044D01*
X-5314443Y-32988487D01*
X-5325022Y-32967033D01*
X-5401669Y-32811609D01*
X-5404224Y-32806428D01*
X-5525680Y-32643779D01*
X-5674742Y-32505987D01*
X-5679625Y-32502906D01*
X-5679629Y-32502903D01*
X-5841536Y-32400748D01*
X-5846419Y-32397667D01*
X-6034961Y-32322446D01*
X-6040621Y-32321320D01*
X-6040625Y-32321319D01*
X-6228387Y-32283971D01*
X-6228390Y-32283971D01*
X-6234054Y-32282844D01*
X-6239829Y-32282768D01*
X-6239833Y-32282768D01*
X-6341207Y-32281441D01*
X-6437029Y-32280187D01*
X-6442726Y-32281166D01*
X-6442727Y-32281166D01*
X-6631393Y-32313585D01*
X-6637090Y-32314564D01*
X-6827537Y-32384824D01*
X-7001990Y-32488612D01*
X-7006330Y-32492418D01*
X-7006334Y-32492421D01*
X-7026277Y-32509911D01*
X-7154608Y-32622455D01*
X-7280280Y-32781869D01*
X-7282969Y-32786980D01*
X-7282971Y-32786983D01*
X-7295927Y-32811609D01*
X-7374797Y-32961515D01*
X-7434993Y-33155378D01*
X-7458852Y-33356964D01*
X-9053436Y-33356964D01*
X-9069342Y-33183859D01*
X-9070910Y-33178299D01*
X-9122875Y-32994046D01*
X-9122876Y-32994044D01*
X-9124443Y-32988487D01*
X-9135022Y-32967033D01*
X-9211669Y-32811609D01*
X-9214224Y-32806428D01*
X-9335680Y-32643779D01*
X-9484742Y-32505987D01*
X-9489625Y-32502906D01*
X-9489629Y-32502903D01*
X-9651536Y-32400748D01*
X-9656419Y-32397667D01*
X-9844961Y-32322446D01*
X-9850621Y-32321320D01*
X-9850625Y-32321319D01*
X-10038387Y-32283971D01*
X-10038390Y-32283971D01*
X-10044054Y-32282844D01*
X-10049829Y-32282768D01*
X-10049833Y-32282768D01*
X-10151207Y-32281441D01*
X-10247029Y-32280187D01*
X-10252726Y-32281166D01*
X-10252727Y-32281166D01*
X-10441393Y-32313585D01*
X-10447090Y-32314564D01*
X-10637537Y-32384824D01*
X-10811990Y-32488612D01*
X-10816330Y-32492418D01*
X-10816334Y-32492421D01*
X-10836277Y-32509911D01*
X-10964608Y-32622455D01*
X-11090280Y-32781869D01*
X-11092969Y-32786980D01*
X-11092971Y-32786983D01*
X-11105927Y-32811609D01*
X-11184797Y-32961515D01*
X-11244993Y-33155378D01*
X-11268852Y-33356964D01*
X-14746000Y-33356964D01*
X-14746000Y-21582070D01*
X-14191500Y-21582070D01*
X-14184964Y-21642236D01*
X-14135493Y-21774199D01*
X-14050974Y-21886974D01*
X-13938199Y-21971493D01*
X-13929798Y-21974643D01*
X-13929795Y-21974644D01*
X-13851387Y-22004037D01*
X-13806236Y-22020964D01*
X-13746070Y-22027500D01*
X-13177930Y-22027500D01*
X-13117764Y-22020964D01*
X-13072613Y-22004037D01*
X-12994205Y-21974644D01*
X-12994202Y-21974643D01*
X-12985801Y-21971493D01*
X-12873026Y-21886974D01*
X-12838147Y-21840434D01*
X-12781288Y-21797920D01*
X-12737321Y-21790000D01*
X-12662679Y-21790000D01*
X-12594558Y-21810002D01*
X-12561854Y-21840433D01*
X-12526974Y-21886974D01*
X-12414199Y-21971493D01*
X-12405798Y-21974643D01*
X-12405795Y-21974644D01*
X-12327387Y-22004037D01*
X-12282236Y-22020964D01*
X-12222070Y-22027500D01*
X-11653930Y-22027500D01*
X-11593764Y-22020964D01*
X-11548613Y-22004037D01*
X-11470205Y-21974644D01*
X-11470202Y-21974643D01*
X-11461801Y-21971493D01*
X-11349026Y-21886974D01*
X-11314147Y-21840434D01*
X-11257288Y-21797920D01*
X-11213321Y-21790000D01*
X-11138679Y-21790000D01*
X-11070558Y-21810002D01*
X-11037854Y-21840433D01*
X-11002974Y-21886974D01*
X-10890199Y-21971493D01*
X-10881798Y-21974643D01*
X-10881795Y-21974644D01*
X-10803387Y-22004037D01*
X-10758236Y-22020964D01*
X-10698070Y-22027500D01*
X-10129930Y-22027500D01*
X-10069764Y-22020964D01*
X-10024613Y-22004037D01*
X-9946205Y-21974644D01*
X-9946202Y-21974643D01*
X-9937801Y-21971493D01*
X-9825026Y-21886974D01*
X-9740507Y-21774199D01*
X-9691036Y-21642236D01*
X-9684500Y-21582070D01*
X-9684500Y-20888930D01*
X-9691036Y-20828764D01*
X-9735711Y-20709593D01*
X-9737356Y-20705205D01*
X-9737357Y-20705202D01*
X-9740507Y-20696801D01*
X-9825026Y-20584026D01*
X-9937801Y-20499507D01*
X-9946202Y-20496357D01*
X-9946205Y-20496356D01*
X-10036234Y-20462606D01*
X-10069764Y-20450036D01*
X-10129930Y-20443500D01*
X-10443777Y-20443500D01*
X-10511898Y-20423498D01*
X-10524024Y-20414641D01*
X-11670034Y-19467937D01*
X-11684000Y-19456400D01*
X-11684000Y-19461952D01*
X-11684631Y-19461682D01*
X-11711404Y-19466177D01*
X-11723253Y-19471928D01*
X-11760553Y-19472588D01*
X-11813450Y-19465624D01*
X-11878377Y-19436902D01*
X-11910107Y-19396233D01*
X-11954885Y-19305031D01*
X-11966953Y-19235067D01*
X-11939279Y-19169686D01*
X-11880651Y-19129645D01*
X-11841782Y-19123500D01*
X-11475398Y-19123500D01*
X-11470833Y-19122828D01*
X-11469359Y-19122720D01*
X-11399959Y-19137691D01*
X-11371057Y-19159288D01*
X-10485402Y-20044943D01*
X-10472894Y-20060429D01*
X-10469960Y-20063654D01*
X-10464311Y-20072402D01*
X-10456134Y-20078848D01*
X-10440056Y-20091523D01*
X-10436055Y-20095079D01*
X-10435970Y-20094979D01*
X-10432013Y-20098332D01*
X-10428331Y-20102014D01*
X-10413795Y-20112402D01*
X-10409108Y-20115921D01*
X-10371629Y-20145466D01*
X-10363561Y-20148299D01*
X-10356601Y-20153273D01*
X-10346623Y-20156257D01*
X-10310900Y-20166940D01*
X-10305251Y-20168776D01*
X-10260278Y-20184570D01*
X-10255082Y-20185020D01*
X-10252377Y-20185020D01*
X-10250121Y-20185117D01*
X-10249645Y-20185260D01*
X-10249647Y-20185306D01*
X-10249448Y-20185319D01*
X-10243531Y-20187088D01*
X-10193362Y-20185117D01*
X-10188416Y-20185020D01*
X-8772370Y-20185020D01*
X-8704249Y-20205022D01*
X-8683275Y-20221925D01*
X-7467600Y-21437600D01*
X-3777492Y-21437600D01*
X-3709371Y-21457602D01*
X-3697587Y-21467099D01*
X-3697474Y-21466952D01*
X-3654865Y-21499647D01*
X-3581643Y-21555833D01*
X-3446754Y-21611706D01*
X-3302000Y-21630763D01*
X-3293812Y-21629685D01*
X-3165434Y-21612784D01*
X-3157246Y-21611706D01*
X-3022357Y-21555833D01*
X-2949134Y-21499647D01*
X-2906526Y-21466952D01*
X-2905122Y-21468782D01*
X-2853291Y-21440479D01*
X-2826508Y-21437600D01*
X-2794000Y-21437600D01*
X-2794000Y-21432281D01*
X-2789954Y-21431093D01*
X-2754456Y-21425989D01*
X509000Y-21425989D01*
X577121Y-21445991D01*
X623614Y-21499647D01*
X635000Y-21551989D01*
X635000Y-22480000D01*
X614998Y-22548121D01*
X561342Y-22594614D01*
X509000Y-22606000D01*
X-1812158Y-22606000D01*
X-1880279Y-22585998D01*
X-1915998Y-22551367D01*
X-1990345Y-22443191D01*
X-1990346Y-22443189D01*
X-1994647Y-22436932D01*
X-2006987Y-22425937D01*
X-2071584Y-22368384D01*
X-2112925Y-22331551D01*
X-2120311Y-22327640D01*
X-2209364Y-22280489D01*
X-2252926Y-22257424D01*
X-2406567Y-22218832D01*
X-2414166Y-22218792D01*
X-2414167Y-22218792D01*
X-2480019Y-22218447D01*
X-2564979Y-22218002D01*
X-2572359Y-22219774D01*
X-2572361Y-22219774D01*
X-2711637Y-22253211D01*
X-2711640Y-22253212D01*
X-2719016Y-22254983D01*
X-2785647Y-22289374D01*
X-2840843Y-22317863D01*
X-2859786Y-22327640D01*
X-2863163Y-22330586D01*
X-2932770Y-22352000D01*
X-6908800Y-22352000D01*
X-8108627Y-23551827D01*
X-8170939Y-23585853D01*
X-8229054Y-23584773D01*
X-8352914Y-23552971D01*
X-8355640Y-23552271D01*
X-8355641Y-23552271D01*
X-8363317Y-23550300D01*
X-12693279Y-23550300D01*
X-12705020Y-23549747D01*
X-12712717Y-23548026D01*
X-12720643Y-23548275D01*
X-12720644Y-23548275D01*
X-12783107Y-23550238D01*
X-12787065Y-23550300D01*
X-12815978Y-23550300D01*
X-12819897Y-23550795D01*
X-12819899Y-23550795D01*
X-12820325Y-23550849D01*
X-12832139Y-23551778D01*
X-12870081Y-23552971D01*
X-12870082Y-23552971D01*
X-12878000Y-23553220D01*
X-12885611Y-23555431D01*
X-12885610Y-23555431D01*
X-12898415Y-23559151D01*
X-12917773Y-23563160D01*
X-12921467Y-23563627D01*
X-12930995Y-23564830D01*
X-12930997Y-23564830D01*
X-12938861Y-23565824D01*
X-12946233Y-23568743D01*
X-12946234Y-23568743D01*
X-12981512Y-23582710D01*
X-12992742Y-23586555D01*
X-13036799Y-23599355D01*
X-13043625Y-23603392D01*
X-13055098Y-23610177D01*
X-13072845Y-23618872D01*
X-13092614Y-23626699D01*
X-13125098Y-23650300D01*
X-13129724Y-23653661D01*
X-13139646Y-23660178D01*
X-13172306Y-23679493D01*
X-13172310Y-23679496D01*
X-13179136Y-23683533D01*
X-13194165Y-23698562D01*
X-13209198Y-23711402D01*
X-13226397Y-23723898D01*
X-13255652Y-23759262D01*
X-13263631Y-23768028D01*
X-13296069Y-23800466D01*
X-13302334Y-23806320D01*
X-13342361Y-23841238D01*
X-13377737Y-23891572D01*
X-13381227Y-23896297D01*
X-13420233Y-23946584D01*
X-13423379Y-23953855D01*
X-13424527Y-23955795D01*
X-13426187Y-23959229D01*
X-13429083Y-23964631D01*
X-13433450Y-23970844D01*
X-13436208Y-23977919D01*
X-13436209Y-23977920D01*
X-13457343Y-24032126D01*
X-13459099Y-24036397D01*
X-13485908Y-24098349D01*
X-13487148Y-24106177D01*
X-13487721Y-24108149D01*
X-13488558Y-24112187D01*
X-13490994Y-24118437D01*
X-13491985Y-24125965D01*
X-13500156Y-24188033D01*
X-13500629Y-24191299D01*
X-13511776Y-24261678D01*
X-13511030Y-24269567D01*
X-13511074Y-24270962D01*
X-13511671Y-24275496D01*
X-13510838Y-24283041D01*
X-13510838Y-24283044D01*
X-13503428Y-24350154D01*
X-13503227Y-24352114D01*
X-13496214Y-24426310D01*
X-13494492Y-24431092D01*
X-13494287Y-24432953D01*
X-13492807Y-24436999D01*
X-13492806Y-24437001D01*
X-13465724Y-24511007D01*
X-13465499Y-24511626D01*
X-13442885Y-24574440D01*
X-13442883Y-24574444D01*
X-13440199Y-24581899D01*
X-13435743Y-24588455D01*
X-13435741Y-24588460D01*
X-13398222Y-24643668D01*
X-13397853Y-24644214D01*
X-13353889Y-24709639D01*
X-13353886Y-24709642D01*
X-13351492Y-24713205D01*
X-13350107Y-24714466D01*
X-13347250Y-24718669D01*
X-13341311Y-24723905D01*
X-13291293Y-24768002D01*
X-13289820Y-24769322D01*
X-13245884Y-24809300D01*
X-13234324Y-24819819D01*
X-13230313Y-24821998D01*
X-13229157Y-24822783D01*
X-13223208Y-24828027D01*
X-13159698Y-24860387D01*
X-13156805Y-24861909D01*
X-13095107Y-24895408D01*
X-13088616Y-24897111D01*
X-13084873Y-24898801D01*
X-13082931Y-24899500D01*
X-13075866Y-24903100D01*
X-13068130Y-24904829D01*
X-13068125Y-24904831D01*
X-13009995Y-24917825D01*
X-13005509Y-24918914D01*
X-12956511Y-24931768D01*
X-12941878Y-24935607D01*
X-12934278Y-24935726D01*
X-12928226Y-24936555D01*
X-12924467Y-24937232D01*
X-12922220Y-24937444D01*
X-12914483Y-24939174D01*
X-12906557Y-24938925D01*
X-12850887Y-24937176D01*
X-12844952Y-24937130D01*
X-12791086Y-24937976D01*
X-12791083Y-24937976D01*
X-12783484Y-24938095D01*
X-12776074Y-24936398D01*
X-12768524Y-24935604D01*
X-12768502Y-24935818D01*
X-12761254Y-24934883D01*
X-12757125Y-24934229D01*
X-12749200Y-24933980D01*
X-12691889Y-24917329D01*
X-12684896Y-24915515D01*
X-12629068Y-24902729D01*
X-12622227Y-24899288D01*
X-12600765Y-24890856D01*
X-12598010Y-24890056D01*
X-12598006Y-24890054D01*
X-12590401Y-24887845D01*
X-12571805Y-24876847D01*
X-12507664Y-24859300D01*
X-8404822Y-24859300D01*
X-8346165Y-24851890D01*
X-8289804Y-24844770D01*
X-8289801Y-24844769D01*
X-8281939Y-24843776D01*
X-8274573Y-24840859D01*
X-8274571Y-24840859D01*
X-8217208Y-24818147D01*
X-8170824Y-24809299D01*
X-7170934Y-24809299D01*
X-7135182Y-24802188D01*
X-7108874Y-24796956D01*
X-7108872Y-24796955D01*
X-7096699Y-24794534D01*
X-7075748Y-24780535D01*
X-7005746Y-24759300D01*
X-5186254Y-24759300D01*
X-5116252Y-24780535D01*
X-5095301Y-24794534D01*
X-5021067Y-24809300D01*
X-3746207Y-24809300D01*
X-2470934Y-24809299D01*
X-2435182Y-24802188D01*
X-2408874Y-24796956D01*
X-2408872Y-24796955D01*
X-2396699Y-24794534D01*
X-2375748Y-24780535D01*
X-2305746Y-24759300D01*
X-2021375Y-24759300D01*
X-2016099Y-24759410D01*
X-1953626Y-24762028D01*
X-1910924Y-24752012D01*
X-1899249Y-24749849D01*
X-1878348Y-24746986D01*
X-1855782Y-24743895D01*
X-1841807Y-24737847D01*
X-1820537Y-24730813D01*
X-1814078Y-24729298D01*
X-1805717Y-24727337D01*
X-1767263Y-24706197D01*
X-1756617Y-24700982D01*
X-1724237Y-24686970D01*
X-1724233Y-24686968D01*
X-1716354Y-24683558D01*
X-1704525Y-24673979D01*
X-1685937Y-24661488D01*
X-1672585Y-24654148D01*
X-1667055Y-24649374D01*
X-1666160Y-24648602D01*
X-1666153Y-24648596D01*
X-1664409Y-24647090D01*
X-1639666Y-24622347D01*
X-1629865Y-24613521D01*
X-1604962Y-24593356D01*
X-1604959Y-24593353D01*
X-1598287Y-24587950D01*
X-1587262Y-24572436D01*
X-1573655Y-24556336D01*
X-1568724Y-24551405D01*
X-1506412Y-24517379D01*
X-1479629Y-24514500D01*
X-1239930Y-24514500D01*
X-1179764Y-24507964D01*
X-1172369Y-24505192D01*
X-1172362Y-24505190D01*
X-1059229Y-24462778D01*
X-988422Y-24457595D01*
X-926053Y-24491516D01*
X-891924Y-24553771D01*
X-889000Y-24580760D01*
X-889000Y-26036000D01*
X-909002Y-26104121D01*
X-962658Y-26150614D01*
X-1015000Y-26162000D01*
X-2540000Y-26162000D01*
X-2540000Y-26442400D01*
X-2560002Y-26510521D01*
X-2613658Y-26557014D01*
X-2666000Y-26568400D01*
X-13081000Y-26568400D01*
X-13081000Y-30480000D01*
X5149302Y-30480000D01*
X5202598Y-30493635D01*
X5202801Y-30493093D01*
X5211207Y-30496244D01*
X5211210Y-30496246D01*
X5295453Y-30527827D01*
X5334764Y-30542564D01*
X5394930Y-30549100D01*
X5988070Y-30549100D01*
X6048236Y-30542564D01*
X6087547Y-30527827D01*
X6171790Y-30496246D01*
X6171793Y-30496244D01*
X6180199Y-30493093D01*
X6180402Y-30493635D01*
X6233698Y-30480000D01*
X6974302Y-30480000D01*
X7027598Y-30493635D01*
X7027801Y-30493093D01*
X7036207Y-30496244D01*
X7036210Y-30496246D01*
X7120453Y-30527827D01*
X7159764Y-30542564D01*
X7219930Y-30549100D01*
X7813070Y-30549100D01*
X7873236Y-30542564D01*
X7912547Y-30527827D01*
X7996790Y-30496246D01*
X7996793Y-30496244D01*
X8005199Y-30493093D01*
X8005402Y-30493635D01*
X8058698Y-30480000D01*
X8502102Y-30480000D01*
X8555398Y-30493635D01*
X8555601Y-30493093D01*
X8564007Y-30496244D01*
X8564010Y-30496246D01*
X8648253Y-30527827D01*
X8687564Y-30542564D01*
X8747730Y-30549100D01*
X9415870Y-30549100D01*
X9476036Y-30542564D01*
X9515347Y-30527827D01*
X9599590Y-30496246D01*
X9599593Y-30496244D01*
X9607999Y-30493093D01*
X9608202Y-30493635D01*
X9661498Y-30480000D01*
X9855200Y-30480000D01*
X9855200Y-30166646D01*
X9855937Y-30153038D01*
X9860931Y-30107067D01*
X9860931Y-30107066D01*
X9861300Y-30103670D01*
X9861300Y-29535530D01*
X9855937Y-29486162D01*
X9855200Y-29472554D01*
X9855200Y-26568400D01*
X8240803Y-26568400D01*
X8205801Y-26560958D01*
X8205156Y-26563177D01*
X8167879Y-26552347D01*
X8154816Y-26547759D01*
X8129885Y-26537432D01*
X8129879Y-26537430D01*
X8122254Y-26534272D01*
X8114071Y-26533195D01*
X8114068Y-26533194D01*
X8101425Y-26531530D01*
X8082714Y-26527604D01*
X8065608Y-26522634D01*
X8065609Y-26522634D01*
X8059265Y-26520791D01*
X8052684Y-26520308D01*
X8052680Y-26520307D01*
X8051803Y-26520243D01*
X8048493Y-26520000D01*
X8022104Y-26520000D01*
X8005658Y-26518922D01*
X7995673Y-26517607D01*
X7977500Y-26515215D01*
X7959327Y-26517607D01*
X7949342Y-26518922D01*
X7932896Y-26520000D01*
X5716932Y-26520000D01*
X5707704Y-26519662D01*
X5656355Y-26515891D01*
X5647935Y-26517589D01*
X5646916Y-26517653D01*
X5623401Y-26520000D01*
X4212104Y-26520000D01*
X4195658Y-26518922D01*
X4185673Y-26517607D01*
X4167500Y-26515215D01*
X4149327Y-26517607D01*
X4139342Y-26518922D01*
X4122896Y-26520000D01*
X888000Y-26520000D01*
X819879Y-26499998D01*
X773386Y-26446342D01*
X762000Y-26394000D01*
X762000Y-25019000D01*
X7418215Y-25019000D01*
X7437272Y-25163754D01*
X7493145Y-25298642D01*
X7582026Y-25414474D01*
X7588576Y-25419500D01*
X7588579Y-25419503D01*
X7691304Y-25498327D01*
X7697857Y-25503355D01*
X7832746Y-25559228D01*
X7977500Y-25578285D01*
X7985688Y-25577207D01*
X8114066Y-25560306D01*
X8122254Y-25559228D01*
X8257143Y-25503355D01*
X8263696Y-25498327D01*
X8366421Y-25419503D01*
X8366424Y-25419500D01*
X8372974Y-25414474D01*
X8461855Y-25298642D01*
X8517728Y-25163754D01*
X8536785Y-25019000D01*
X8525592Y-24933980D01*
X8518806Y-24882432D01*
X8518805Y-24882430D01*
X8517728Y-24874246D01*
X8490326Y-24808093D01*
X8465015Y-24746986D01*
X8465014Y-24746984D01*
X8461855Y-24739358D01*
X8456829Y-24732808D01*
X8452699Y-24725655D01*
X8454304Y-24724728D01*
X8432437Y-24668158D01*
X8432000Y-24657678D01*
X8432000Y-22615950D01*
X8452002Y-22547829D01*
X8468905Y-22526855D01*
X8787355Y-22208405D01*
X8849667Y-22174379D01*
X8876450Y-22171500D01*
X9288059Y-22171500D01*
X9356180Y-22191502D01*
X9402673Y-22245158D01*
X9411638Y-22272920D01*
X9420266Y-22316301D01*
X9427161Y-22326620D01*
X9427162Y-22326622D01*
X9449151Y-22359530D01*
X9476516Y-22400484D01*
X9486832Y-22407377D01*
X9486835Y-22407380D01*
X9487980Y-22408145D01*
X9489913Y-22410458D01*
X9495609Y-22416154D01*
X9495099Y-22416664D01*
X9533506Y-22462623D01*
X9542351Y-22533067D01*
X9523885Y-22581163D01*
X9507879Y-22606000D01*
X9479909Y-22649400D01*
X9477498Y-22656025D01*
X9424425Y-22801840D01*
X9424424Y-22801845D01*
X9422015Y-22808463D01*
X9400800Y-22976399D01*
X9417318Y-23144862D01*
X9470748Y-23305479D01*
X9558435Y-23450267D01*
X9676021Y-23572031D01*
X9817660Y-23664717D01*
X9976315Y-23723720D01*
X9983296Y-23724651D01*
X9983298Y-23724652D01*
X10137118Y-23745176D01*
X10137122Y-23745176D01*
X10144099Y-23746107D01*
X10151111Y-23745469D01*
X10151115Y-23745469D01*
X10206537Y-23740425D01*
X10276190Y-23754171D01*
X10307051Y-23776811D01*
X11192595Y-24662355D01*
X11226621Y-24724667D01*
X11229500Y-24751450D01*
X11229500Y-27651544D01*
X11228627Y-27666353D01*
X11224593Y-27700438D01*
X11226285Y-27709702D01*
X11226285Y-27709705D01*
X11235229Y-27758680D01*
X11235878Y-27762582D01*
X11243284Y-27811836D01*
X11244685Y-27821151D01*
X11247838Y-27827718D01*
X11249147Y-27834883D01*
X11276462Y-27887467D01*
X11278205Y-27890957D01*
X11303846Y-27944353D01*
X11308741Y-27949648D01*
X11308834Y-27949787D01*
X11312148Y-27956166D01*
X11316494Y-27961254D01*
X11354076Y-27998836D01*
X11357506Y-28002401D01*
X11396617Y-28044712D01*
X11403017Y-28048430D01*
X11409277Y-28054037D01*
X12123126Y-28767886D01*
X12157152Y-28830198D01*
X12158455Y-28837675D01*
X12158694Y-28838568D01*
X12159772Y-28846754D01*
X12162929Y-28854376D01*
X12162930Y-28854379D01*
X12212485Y-28974014D01*
X12215645Y-28981642D01*
X12304526Y-29097474D01*
X12311076Y-29102500D01*
X12311079Y-29102503D01*
X12413804Y-29181327D01*
X12420357Y-29186355D01*
X12555246Y-29242228D01*
X12700000Y-29261285D01*
X12708188Y-29260207D01*
X12836566Y-29243306D01*
X12844754Y-29242228D01*
X12979643Y-29186355D01*
X12986196Y-29181327D01*
X13088921Y-29102503D01*
X13088924Y-29102500D01*
X13095474Y-29097474D01*
X13184355Y-28981642D01*
X13240228Y-28846754D01*
X13241424Y-28837675D01*
X13258207Y-28710188D01*
X13259285Y-28702000D01*
X13240228Y-28557246D01*
X13184355Y-28422358D01*
X13095474Y-28306526D01*
X13088924Y-28301500D01*
X13088921Y-28301497D01*
X12986196Y-28222673D01*
X12986194Y-28222672D01*
X12979643Y-28217645D01*
X12844754Y-28161772D01*
X12836566Y-28160694D01*
X12828590Y-28158557D01*
X12829069Y-28156768D01*
X12773602Y-28132226D01*
X12765886Y-28125126D01*
X12175405Y-27534645D01*
X12141379Y-27472333D01*
X12138500Y-27445550D01*
X12138500Y-24545456D01*
X12139373Y-24530647D01*
X12142300Y-24505915D01*
X12143407Y-24496562D01*
X12132768Y-24438307D01*
X12132118Y-24434404D01*
X12124715Y-24385161D01*
X12123315Y-24375849D01*
X12120162Y-24369283D01*
X12118853Y-24362116D01*
X12091560Y-24309574D01*
X12089792Y-24306037D01*
X12088370Y-24303076D01*
X12064154Y-24252647D01*
X12059258Y-24247351D01*
X12059166Y-24247215D01*
X12055852Y-24240834D01*
X12051506Y-24235746D01*
X12013924Y-24198164D01*
X12010494Y-24194598D01*
X11977774Y-24159202D01*
X11971383Y-24152288D01*
X11964983Y-24148570D01*
X11958723Y-24142963D01*
X10951691Y-23135931D01*
X10917665Y-23073619D01*
X10916013Y-23029298D01*
X10918426Y-23012132D01*
X10918427Y-23012123D01*
X10918978Y-23008200D01*
X10919274Y-22987000D01*
X10900406Y-22818784D01*
X10844738Y-22658929D01*
X10804550Y-22594614D01*
X10795203Y-22579656D01*
X10776067Y-22511286D01*
X10796932Y-22443425D01*
X10832053Y-22408122D01*
X10833168Y-22407377D01*
X10843484Y-22400484D01*
X10899734Y-22316301D01*
X10914500Y-22242067D01*
X10914499Y-21191934D01*
X10899734Y-21117699D01*
X10843484Y-21033516D01*
X10759301Y-20977266D01*
X10685067Y-20962500D01*
X10160085Y-20962500D01*
X9634934Y-20962501D01*
X9599182Y-20969612D01*
X9572874Y-20974844D01*
X9572872Y-20974845D01*
X9560699Y-20977266D01*
X9550379Y-20984161D01*
X9550378Y-20984162D01*
X9489985Y-21024516D01*
X9476516Y-21033516D01*
X9420266Y-21117699D01*
X9417845Y-21129871D01*
X9411637Y-21161081D01*
X9378730Y-21223991D01*
X9317035Y-21259123D01*
X9288058Y-21262500D01*
X8670464Y-21262500D01*
X8655654Y-21261627D01*
X8635858Y-21259284D01*
X8621563Y-21257592D01*
X8563275Y-21268237D01*
X8559424Y-21268878D01*
X8500849Y-21277685D01*
X8494282Y-21280838D01*
X8487117Y-21282147D01*
X8478762Y-21286487D01*
X8434564Y-21309446D01*
X8431023Y-21311215D01*
X8386140Y-21332767D01*
X8386137Y-21332769D01*
X8377647Y-21336846D01*
X8372357Y-21341736D01*
X8372202Y-21341841D01*
X8365835Y-21345148D01*
X8360746Y-21349494D01*
X8323164Y-21387076D01*
X8319599Y-21390506D01*
X8277288Y-21429617D01*
X8273570Y-21436017D01*
X8267963Y-21442277D01*
X7680489Y-22029751D01*
X7669400Y-22039606D01*
X7642441Y-22060859D01*
X7637087Y-22068606D01*
X7608758Y-22109594D01*
X7606476Y-22112787D01*
X7571291Y-22160424D01*
X7568877Y-22167297D01*
X7564736Y-22173289D01*
X7550583Y-22218042D01*
X7546874Y-22229770D01*
X7545629Y-22233499D01*
X7526007Y-22289374D01*
X7525724Y-22296578D01*
X7525691Y-22296749D01*
X7523525Y-22303597D01*
X7523000Y-22310268D01*
X7523000Y-22363438D01*
X7522903Y-22368384D01*
X7520642Y-22425937D01*
X7522539Y-22433092D01*
X7523000Y-22441467D01*
X7523000Y-24657678D01*
X7502998Y-24725799D01*
X7498637Y-24732001D01*
X7498171Y-24732808D01*
X7493145Y-24739358D01*
X7489986Y-24746984D01*
X7489985Y-24746986D01*
X7464674Y-24808093D01*
X7437272Y-24874246D01*
X7436195Y-24882430D01*
X7436194Y-24882432D01*
X7429408Y-24933980D01*
X7418215Y-25019000D01*
X762000Y-25019000D01*
X762000Y-23514030D01*
X782002Y-23445909D01*
X798904Y-23424935D01*
X945933Y-23277905D01*
X1008245Y-23243880D01*
X1035029Y-23241000D01*
X1617681Y-23241000D01*
X1642262Y-23243421D01*
X1692933Y-23253500D01*
X2242911Y-23253500D01*
X2793066Y-23253499D01*
X2843736Y-23243421D01*
X2868315Y-23241000D01*
X3048000Y-23241000D01*
X3048000Y-22323933D01*
X5613500Y-22323933D01*
X5613501Y-23024066D01*
X5628266Y-23098301D01*
X5684516Y-23182484D01*
X5694832Y-23189377D01*
X5751815Y-23227452D01*
X5768699Y-23238734D01*
X5842933Y-23253500D01*
X6392911Y-23253500D01*
X6943066Y-23253499D01*
X6978818Y-23246388D01*
X7005126Y-23241156D01*
X7005128Y-23241155D01*
X7017301Y-23238734D01*
X7027621Y-23231839D01*
X7027622Y-23231838D01*
X7091168Y-23189377D01*
X7101484Y-23182484D01*
X7157734Y-23098301D01*
X7172500Y-23024067D01*
X7172499Y-22323934D01*
X7157734Y-22249699D01*
X7148501Y-22235880D01*
X7108377Y-22175832D01*
X7101484Y-22165516D01*
X7017301Y-22109266D01*
X6943067Y-22094500D01*
X6393089Y-22094500D01*
X5842934Y-22094501D01*
X5807182Y-22101612D01*
X5780874Y-22106844D01*
X5780872Y-22106845D01*
X5768699Y-22109266D01*
X5758379Y-22116161D01*
X5758378Y-22116162D01*
X5703469Y-22152852D01*
X5684516Y-22165516D01*
X5677623Y-22175832D01*
X5648262Y-22219774D01*
X5628266Y-22249699D01*
X5613500Y-22323933D01*
X3048000Y-22323933D01*
X3048000Y-20952478D01*
X3068002Y-20884357D01*
X3121658Y-20837864D01*
X3174000Y-20826478D01*
X3680124Y-20826478D01*
X3704072Y-20829027D01*
X3705737Y-20829106D01*
X3715920Y-20831298D01*
X3726261Y-20830074D01*
X3749267Y-20827351D01*
X3755198Y-20827001D01*
X3755190Y-20826906D01*
X3760368Y-20826478D01*
X3765568Y-20826478D01*
X3770697Y-20825624D01*
X3770700Y-20825624D01*
X3784609Y-20823309D01*
X3790487Y-20822472D01*
X3831045Y-20817672D01*
X3831046Y-20817672D01*
X3841385Y-20816448D01*
X3849637Y-20812485D01*
X3858670Y-20810982D01*
X3867839Y-20806035D01*
X3867841Y-20806034D01*
X3903776Y-20786644D01*
X3909069Y-20783947D01*
X3948126Y-20765193D01*
X3948130Y-20765190D01*
X3955276Y-20761759D01*
X3959552Y-20758164D01*
X3961475Y-20756241D01*
X3963407Y-20754469D01*
X3963486Y-20754426D01*
X3963599Y-20754550D01*
X3964139Y-20754074D01*
X3969858Y-20750988D01*
X4006461Y-20711391D01*
X4009890Y-20707826D01*
X4519312Y-20198404D01*
X4581624Y-20164378D01*
X4608407Y-20161499D01*
X4920066Y-20161499D01*
X4955818Y-20154388D01*
X4982126Y-20149156D01*
X4982128Y-20149155D01*
X4994301Y-20146734D01*
X5009996Y-20136247D01*
X5077748Y-20115030D01*
X5150004Y-20136247D01*
X5165699Y-20146734D01*
X5239933Y-20161500D01*
X5714923Y-20161500D01*
X6190066Y-20161499D01*
X6225818Y-20154388D01*
X6252126Y-20149156D01*
X6252128Y-20149155D01*
X6264301Y-20146734D01*
X6274621Y-20139839D01*
X6274622Y-20139838D01*
X6338168Y-20097377D01*
X6348484Y-20090484D01*
X6404734Y-20006301D01*
X6419500Y-19932067D01*
X6419499Y-17881934D01*
X6412388Y-17846182D01*
X6407156Y-17819874D01*
X6407155Y-17819872D01*
X6404734Y-17807699D01*
X6375045Y-17763266D01*
X6355377Y-17733832D01*
X6348484Y-17723516D01*
X6264301Y-17667266D01*
X6190067Y-17652500D01*
X5715077Y-17652500D01*
X5239934Y-17652501D01*
X5204182Y-17659612D01*
X5177874Y-17664844D01*
X5177872Y-17664845D01*
X5165699Y-17667266D01*
X5150004Y-17677753D01*
X5082252Y-17698970D01*
X5009996Y-17677753D01*
X4994301Y-17667266D01*
X4920067Y-17652500D01*
X4445077Y-17652500D01*
X3969934Y-17652501D01*
X3934182Y-17659612D01*
X3907874Y-17664844D01*
X3907872Y-17664845D01*
X3895699Y-17667266D01*
X3880004Y-17677753D01*
X3812252Y-17698970D01*
X3739996Y-17677753D01*
X3724301Y-17667266D01*
X3650067Y-17652500D01*
X3175077Y-17652500D01*
X2699934Y-17652501D01*
X2664182Y-17659612D01*
X2637874Y-17664844D01*
X2637872Y-17664845D01*
X2625699Y-17667266D01*
X2610004Y-17677753D01*
X2542252Y-17698970D01*
X2469996Y-17677753D01*
X2454301Y-17667266D01*
X2380067Y-17652500D01*
X1905077Y-17652500D01*
X1429934Y-17652501D01*
X1394182Y-17659612D01*
X1367874Y-17664844D01*
X1367872Y-17664845D01*
X1355699Y-17667266D01*
X1340004Y-17677753D01*
X1272252Y-17698970D01*
X1199996Y-17677753D01*
X1184301Y-17667266D01*
X1110067Y-17652500D01*
X635077Y-17652500D01*
X159934Y-17652501D01*
X124182Y-17659612D01*
X97874Y-17664844D01*
X97872Y-17664845D01*
X85699Y-17667266D01*
X70004Y-17677753D01*
X2252Y-17698970D01*
X-70004Y-17677753D01*
X-85699Y-17667266D01*
X-159933Y-17652500D01*
X-634923Y-17652500D01*
X-1110066Y-17652501D01*
X-1145818Y-17659612D01*
X-1172126Y-17664844D01*
X-1172128Y-17664845D01*
X-1184301Y-17667266D01*
X-1199996Y-17677753D01*
X-1267748Y-17698970D01*
X-1340004Y-17677753D01*
X-1355699Y-17667266D01*
X-1429933Y-17652500D01*
X-1904923Y-17652500D01*
X-2380066Y-17652501D01*
X-2415818Y-17659612D01*
X-2442126Y-17664844D01*
X-2442128Y-17664845D01*
X-2454301Y-17667266D01*
X-2469996Y-17677753D01*
X-2537748Y-17698970D01*
X-2610004Y-17677753D01*
X-2625699Y-17667266D01*
X-2699933Y-17652500D01*
X-3174923Y-17652500D01*
X-3650066Y-17652501D01*
X-3685818Y-17659612D01*
X-3712126Y-17664844D01*
X-3712128Y-17664845D01*
X-3724301Y-17667266D01*
X-3739996Y-17677753D01*
X-3807748Y-17698970D01*
X-3880004Y-17677753D01*
X-3895699Y-17667266D01*
X-3969933Y-17652500D01*
X-4444923Y-17652500D01*
X-4920066Y-17652501D01*
X-4955818Y-17659612D01*
X-4982126Y-17664844D01*
X-4982128Y-17664845D01*
X-4994301Y-17667266D01*
X-5004621Y-17674161D01*
X-5004622Y-17674162D01*
X-5009996Y-17677753D01*
X-5078484Y-17723516D01*
X-5134734Y-17807699D01*
X-5149500Y-17881933D01*
X-5149500Y-17888120D01*
X-5149499Y-19922980D01*
X-5169501Y-19991101D01*
X-5223157Y-20037594D01*
X-5275499Y-20048980D01*
X-6068513Y-20048980D01*
X-6136634Y-20028978D01*
X-6157608Y-20012075D01*
X-6210794Y-19958889D01*
X-6224604Y-19939000D01*
X-6223000Y-19939000D01*
X-7202095Y-18959905D01*
X-7236121Y-18897593D01*
X-7239000Y-18870810D01*
X-7239000Y-18415000D01*
X-7242194Y-18415000D01*
X-7245289Y-18382067D01*
X-7245500Y-18382067D01*
X-7245500Y-18379825D01*
X-7245501Y-17431934D01*
X-7254835Y-17385003D01*
X-7257844Y-17369874D01*
X-7257845Y-17369872D01*
X-7260266Y-17357699D01*
X-7270753Y-17342004D01*
X-7291970Y-17274252D01*
X-7270753Y-17201995D01*
X-7260266Y-17186301D01*
X-7245500Y-17112067D01*
X-7245501Y-16161934D01*
X-7260266Y-16087699D01*
X-7270753Y-16072004D01*
X-7291970Y-16004252D01*
X-7270753Y-15931995D01*
X-7260266Y-15916301D01*
X-7245500Y-15842067D01*
X-7245501Y-14891934D01*
X-7260266Y-14817699D01*
X-7270753Y-14802004D01*
X-7291970Y-14734252D01*
X-7270753Y-14661995D01*
X-7260266Y-14646301D01*
X-7245500Y-14572067D01*
X-7245501Y-13621934D01*
X-7260266Y-13547699D01*
X-7270753Y-13532004D01*
X-7291970Y-13464252D01*
X-7270753Y-13391995D01*
X-7260266Y-13376301D01*
X-7245500Y-13302067D01*
X-7245501Y-12351934D01*
X-7260266Y-12277699D01*
X-7270753Y-12262004D01*
X-7291970Y-12194252D01*
X-7270753Y-12121995D01*
X-7260266Y-12106301D01*
X-7245500Y-12032067D01*
X-7245501Y-11081934D01*
X-7260266Y-11007699D01*
X-7270753Y-10992004D01*
X-7291970Y-10924252D01*
X-7270753Y-10851995D01*
X-7260266Y-10836301D01*
X-7245500Y-10762067D01*
X-7245501Y-9811934D01*
X-7260266Y-9737699D01*
X-7270753Y-9722004D01*
X-7291970Y-9654252D01*
X-7270753Y-9581995D01*
X-7260266Y-9566301D01*
X-7245500Y-9492067D01*
X-7245501Y-8541934D01*
X-7260266Y-8467699D01*
X-7270753Y-8452004D01*
X-7291970Y-8384252D01*
X-7270753Y-8311995D01*
X-7260266Y-8296301D01*
X-7245500Y-8222067D01*
X-7245501Y-7271934D01*
X-7260266Y-7197699D01*
X-7270753Y-7182004D01*
X-7291970Y-7114252D01*
X-7270753Y-7041995D01*
X-7260266Y-7026301D01*
X-7245500Y-6952067D01*
X-7245501Y-6001934D01*
X-7252612Y-5966182D01*
X-7257844Y-5939874D01*
X-7257845Y-5939872D01*
X-7260266Y-5927699D01*
X-7270753Y-5912004D01*
X-7291970Y-5844252D01*
X-7270753Y-5771995D01*
X-7268296Y-5768318D01*
X-7260266Y-5756301D01*
X-7245500Y-5682067D01*
X-7245500Y-5588000D01*
X1091715Y-5588000D01*
X1092793Y-5596184D01*
X1093526Y-5601751D01*
X1094493Y-5623476D01*
X1093772Y-5640674D01*
X1095734Y-5649039D01*
X1095734Y-5649040D01*
X1103457Y-5681969D01*
X1105708Y-5694289D01*
X1110772Y-5732754D01*
X1113931Y-5740379D01*
X1113931Y-5740381D01*
X1117448Y-5748871D01*
X1123710Y-5768318D01*
X1128463Y-5788583D01*
X1132599Y-5796107D01*
X1132600Y-5796109D01*
X1147167Y-5822606D01*
X1153160Y-5835086D01*
X1166645Y-5867642D01*
X1171672Y-5874194D01*
X1171673Y-5874195D01*
X1179436Y-5884312D01*
X1189884Y-5900310D01*
X1201652Y-5921715D01*
X1208710Y-5929891D01*
X1227368Y-5948549D01*
X1238235Y-5960940D01*
X1250497Y-5976921D01*
X1250500Y-5976924D01*
X1255526Y-5983474D01*
X1262076Y-5988500D01*
X1262077Y-5988501D01*
X1278065Y-6000769D01*
X1290455Y-6011636D01*
X3726595Y-8447776D01*
X3760621Y-8510088D01*
X3763500Y-8536871D01*
X3763500Y-14052396D01*
X3762422Y-14068842D01*
X3758715Y-14097000D01*
X3759793Y-14105188D01*
X3763348Y-14132192D01*
X3763500Y-14133715D01*
X3763500Y-14135057D01*
X3763993Y-14138658D01*
X3763994Y-14138665D01*
X3769240Y-14176961D01*
X3769328Y-14177615D01*
X3775435Y-14224000D01*
X3777772Y-14241754D01*
X3778285Y-14242993D01*
X3778905Y-14247518D01*
X3782317Y-14255403D01*
X3782318Y-14255406D01*
X3807824Y-14314348D01*
X3808595Y-14316168D01*
X3833645Y-14376642D01*
X3836255Y-14380043D01*
X3839242Y-14386946D01*
X3844651Y-14393625D01*
X3844653Y-14393629D01*
X3882255Y-14440064D01*
X3884292Y-14442646D01*
X3922526Y-14492474D01*
X3927045Y-14495941D01*
X3927875Y-14496863D01*
X3929443Y-14498335D01*
X3934850Y-14505013D01*
X3987364Y-14542333D01*
X3991055Y-14545060D01*
X4031799Y-14576324D01*
X4031805Y-14576327D01*
X4038357Y-14581355D01*
X4045638Y-14584371D01*
X4049924Y-14587123D01*
X4051684Y-14588043D01*
X4058687Y-14593020D01*
X4066773Y-14595931D01*
X4115754Y-14613565D01*
X4121261Y-14615695D01*
X4173246Y-14637228D01*
X4181433Y-14638306D01*
X4188222Y-14640125D01*
X4191355Y-14641107D01*
X4193551Y-14641574D01*
X4201629Y-14644482D01*
X4210189Y-14645111D01*
X4210191Y-14645111D01*
X4258438Y-14648654D01*
X4265655Y-14649394D01*
X4309811Y-14655207D01*
X4309812Y-14655207D01*
X4318000Y-14656285D01*
X4326187Y-14655207D01*
X4334448Y-14655207D01*
X4334448Y-14655495D01*
X4338003Y-14655392D01*
X4344569Y-14654979D01*
X4353145Y-14655609D01*
X4405399Y-14645073D01*
X4413851Y-14643666D01*
X4454563Y-14638307D01*
X4454568Y-14638306D01*
X4462754Y-14637228D01*
X4470386Y-14634067D01*
X4474669Y-14632919D01*
X4492257Y-14627559D01*
X4492677Y-14627474D01*
X4502071Y-14625580D01*
X4546320Y-14603033D01*
X4555304Y-14598892D01*
X4590014Y-14584515D01*
X4597643Y-14581355D01*
X4604197Y-14576326D01*
X4605796Y-14575099D01*
X4625303Y-14562790D01*
X4637436Y-14556608D01*
X4643761Y-14550792D01*
X4671322Y-14525449D01*
X4679901Y-14518237D01*
X4706926Y-14497499D01*
X4706928Y-14497497D01*
X4713474Y-14492474D01*
X4718497Y-14485928D01*
X4718500Y-14485925D01*
X4721920Y-14481468D01*
X4736593Y-14465427D01*
X4749266Y-14453774D01*
X4757767Y-14440064D01*
X4771622Y-14417717D01*
X4778747Y-14407408D01*
X4797329Y-14383192D01*
X4802355Y-14376642D01*
X4805515Y-14369013D01*
X4805516Y-14369012D01*
X4809028Y-14360532D01*
X4818351Y-14342352D01*
X4829323Y-14324656D01*
X4840154Y-14287376D01*
X4844741Y-14274314D01*
X4855066Y-14249387D01*
X4858228Y-14241754D01*
X4860970Y-14220925D01*
X4864896Y-14202214D01*
X4869866Y-14185108D01*
X4871709Y-14178765D01*
X4872500Y-14167993D01*
X4872500Y-14141604D01*
X4873578Y-14125158D01*
X4876207Y-14105188D01*
X4877285Y-14097000D01*
X4873578Y-14068842D01*
X4872500Y-14052396D01*
X4872500Y-8270099D01*
X4872610Y-8264823D01*
X4874661Y-8215877D01*
X4875229Y-8202327D01*
X4865213Y-8159621D01*
X4863050Y-8147952D01*
X4862498Y-8143921D01*
X4857095Y-8104482D01*
X4851047Y-8090506D01*
X4844013Y-8069237D01*
X4842499Y-8062782D01*
X4840537Y-8054417D01*
X4836400Y-8046892D01*
X4836399Y-8046889D01*
X4819400Y-8015969D01*
X4814178Y-8005309D01*
X4800168Y-7972934D01*
X4796758Y-7965054D01*
X4787175Y-7953220D01*
X4774685Y-7934632D01*
X4770529Y-7927072D01*
X4767348Y-7921286D01*
X4760291Y-7913109D01*
X4735543Y-7888361D01*
X4726717Y-7878560D01*
X4706555Y-7853661D01*
X4706553Y-7853659D01*
X4701150Y-7846987D01*
X4685642Y-7835966D01*
X4669537Y-7822355D01*
X2074632Y-5227451D01*
X2063765Y-5215060D01*
X2051503Y-5199079D01*
X2051500Y-5199076D01*
X2046474Y-5192526D01*
X2039924Y-5187500D01*
X2039921Y-5187497D01*
X2018309Y-5170914D01*
X2017129Y-5169948D01*
X2016180Y-5168999D01*
X1982341Y-5143314D01*
X1982118Y-5143144D01*
X1930643Y-5103645D01*
X1929403Y-5103131D01*
X1925765Y-5100370D01*
X1858074Y-5073569D01*
X1856289Y-5072846D01*
X1795754Y-5047772D01*
X1791502Y-5047212D01*
X1784510Y-5044444D01*
X1716514Y-5037297D01*
X1713262Y-5036912D01*
X1651000Y-5028715D01*
X1645352Y-5029459D01*
X1644102Y-5029393D01*
X1641957Y-5029460D01*
X1633419Y-5028563D01*
X1624953Y-5029995D01*
X1624951Y-5029995D01*
X1569883Y-5039309D01*
X1565321Y-5039994D01*
X1506246Y-5047772D01*
X1498970Y-5050786D01*
X1493988Y-5051872D01*
X1492091Y-5052467D01*
X1483623Y-5053899D01*
X1475849Y-5057557D01*
X1475850Y-5057557D01*
X1428732Y-5079729D01*
X1423305Y-5082128D01*
X1371358Y-5103645D01*
X1364804Y-5108674D01*
X1358711Y-5112191D01*
X1355801Y-5113712D01*
X1353928Y-5114929D01*
X1346158Y-5118585D01*
X1339659Y-5124194D01*
X1339657Y-5124196D01*
X1303034Y-5155808D01*
X1297411Y-5160386D01*
X1255526Y-5192526D01*
X1250499Y-5199077D01*
X1244660Y-5204916D01*
X1244457Y-5204713D01*
X1241993Y-5207323D01*
X1237659Y-5212239D01*
X1231153Y-5217855D01*
X1216162Y-5240418D01*
X1201652Y-5262257D01*
X1196667Y-5269232D01*
X1174656Y-5297918D01*
X1166645Y-5308358D01*
X1163487Y-5315984D01*
X1161260Y-5319840D01*
X1152619Y-5336058D01*
X1147080Y-5344395D01*
X1142530Y-5358400D01*
X1131735Y-5391623D01*
X1128316Y-5400891D01*
X1110772Y-5443246D01*
X1109694Y-5451435D01*
X1109429Y-5453447D01*
X1104341Y-5475930D01*
X1100133Y-5488883D01*
X1099774Y-5497461D01*
X1099773Y-5497464D01*
X1098206Y-5534879D01*
X1097239Y-5546046D01*
X1091715Y-5588000D01*
X-7245500Y-5588000D01*
X-7245501Y-4731934D01*
X-7260266Y-4657699D01*
X-7270753Y-4642004D01*
X-7291970Y-4574252D01*
X-7270753Y-4501995D01*
X-7260266Y-4486301D01*
X-7245500Y-4412067D01*
X-7245501Y-3461934D01*
X-7260266Y-3387699D01*
X-7270753Y-3372004D01*
X-7291970Y-3304252D01*
X-7270753Y-3231995D01*
X-7260266Y-3216301D01*
X-7245500Y-3142067D01*
X-7245501Y-2191934D01*
X-7260266Y-2117699D01*
X-7270421Y-2102500D01*
X-7309623Y-2043832D01*
X-7316516Y-2033516D01*
X-7400699Y-1977266D01*
X-7474933Y-1962500D01*
X-8499834Y-1962500D01*
X-9525066Y-1962501D01*
X-9560818Y-1969612D01*
X-9587126Y-1974844D01*
X-9587128Y-1974845D01*
X-9599301Y-1977266D01*
X-9609621Y-1984161D01*
X-9609622Y-1984162D01*
X-9670015Y-2024516D01*
X-9683484Y-2033516D01*
X-9698844Y-2056504D01*
X-9753321Y-2102030D01*
X-9803608Y-2112500D01*
X-10171687Y-2112500D01*
X-10194730Y-2109799D01*
X-10196764Y-2109036D01*
X-10204619Y-2108183D01*
X-10204622Y-2108182D01*
X-10253533Y-2102869D01*
X-10256930Y-2102500D01*
X-10825070Y-2102500D01*
X-10885236Y-2109036D01*
X-10894476Y-2112500D01*
X-11008795Y-2155356D01*
X-11008798Y-2155357D01*
X-11017199Y-2158507D01*
X-11129974Y-2243026D01*
X-11214493Y-2355801D01*
X-11217643Y-2364202D01*
X-11217644Y-2364205D01*
X-11223566Y-2380002D01*
X-11263964Y-2487764D01*
X-11270500Y-2547930D01*
X-11270500Y-2862961D01*
X-11273379Y-2889744D01*
X-11274653Y-2895600D01*
X-11277600Y-2895600D01*
X-11277600Y-4826000D01*
X-11272280Y-4826000D01*
X-11271244Y-4829529D01*
X-11266877Y-4851419D01*
X-11263964Y-4878236D01*
X-11261194Y-4885625D01*
X-11261193Y-4885629D01*
X-11217644Y-5001795D01*
X-11214493Y-5010199D01*
X-11129974Y-5122974D01*
X-11017199Y-5207493D01*
X-11008798Y-5210643D01*
X-11008795Y-5210644D01*
X-10950760Y-5232400D01*
X-10885236Y-5256964D01*
X-10825070Y-5263500D01*
X-10256930Y-5263500D01*
X-10196764Y-5256964D01*
X-10152628Y-5240418D01*
X-10108398Y-5232400D01*
X-9880499Y-5232400D01*
X-9812378Y-5252402D01*
X-9765885Y-5306058D01*
X-9754499Y-5358400D01*
X-9754499Y-5682066D01*
X-9753901Y-5685074D01*
X-9753600Y-5691193D01*
X-9753600Y-5992796D01*
X-9753901Y-5998922D01*
X-9754500Y-6001933D01*
X-9754499Y-6423666D01*
X-9754499Y-6732000D01*
X-9774501Y-6800121D01*
X-9828157Y-6846614D01*
X-9880499Y-6858000D01*
X-11176000Y-6858000D01*
X-11176000Y-16133056D01*
X-11196002Y-16201177D01*
X-11249658Y-16247670D01*
X-11319932Y-16257774D01*
X-11350218Y-16249465D01*
X-11404617Y-16226932D01*
X-11412246Y-16223772D01*
X-11557000Y-16204715D01*
X-11565188Y-16205793D01*
X-11693568Y-16222694D01*
X-11693570Y-16222695D01*
X-11701754Y-16223772D01*
X-11743355Y-16241004D01*
X-11829014Y-16276485D01*
X-11829016Y-16276486D01*
X-11836642Y-16279645D01*
X-11952474Y-16368526D01*
X-12041355Y-16484358D01*
X-12097228Y-16619246D01*
X-12116285Y-16764000D01*
X-12115207Y-16772188D01*
X-12101977Y-16872679D01*
X-12097228Y-16908754D01*
X-12094068Y-16916383D01*
X-12079823Y-16950774D01*
X-12072234Y-17021363D01*
X-12104013Y-17084850D01*
X-12165071Y-17121078D01*
X-12206439Y-17123248D01*
X-12206529Y-17124490D01*
X-12211071Y-17124160D01*
X-12215598Y-17123500D01*
X-12482802Y-17123500D01*
X-12487352Y-17124170D01*
X-12487355Y-17124170D01*
X-12542792Y-17132331D01*
X-12542793Y-17132331D01*
X-12552478Y-17133757D01*
X-12590231Y-17152293D01*
X-12593694Y-17153993D01*
X-12663658Y-17166061D01*
X-12704558Y-17154090D01*
X-12704756Y-17153993D01*
X-12746523Y-17133577D01*
X-12776845Y-17129153D01*
X-12811072Y-17124160D01*
X-12811076Y-17124160D01*
X-12815598Y-17123500D01*
X-13082802Y-17123500D01*
X-13087352Y-17124170D01*
X-13087355Y-17124170D01*
X-13142792Y-17132331D01*
X-13142793Y-17132331D01*
X-13152478Y-17133757D01*
X-13193694Y-17153993D01*
X-13249068Y-17181180D01*
X-13249070Y-17181181D01*
X-13258416Y-17185770D01*
X-13341795Y-17269294D01*
X-13393623Y-17375323D01*
X-13397259Y-17400248D01*
X-13402545Y-17436484D01*
X-13403700Y-17444398D01*
X-13403700Y-17861602D01*
X-13403030Y-17866152D01*
X-13403030Y-17866155D01*
X-13400707Y-17881933D01*
X-13393443Y-17931278D01*
X-13341430Y-18037216D01*
X-13257906Y-18120595D01*
X-13248550Y-18125168D01*
X-13248549Y-18125169D01*
X-13218844Y-18139689D01*
X-13151877Y-18172423D01*
X-13121555Y-18176847D01*
X-13087328Y-18181840D01*
X-13087324Y-18181840D01*
X-13082802Y-18182500D01*
X-12815598Y-18182500D01*
X-12811048Y-18181830D01*
X-12811045Y-18181830D01*
X-12755608Y-18173669D01*
X-12755607Y-18173669D01*
X-12745922Y-18172243D01*
X-12704706Y-18152007D01*
X-12634742Y-18139939D01*
X-12593843Y-18151910D01*
X-12551877Y-18172423D01*
X-12521555Y-18176847D01*
X-12487328Y-18181840D01*
X-12487324Y-18181840D01*
X-12482802Y-18182500D01*
X-12322346Y-18182500D01*
X-12254225Y-18202502D01*
X-12207732Y-18256158D01*
X-12204289Y-18265173D01*
X-12203243Y-18272278D01*
X-12188532Y-18302241D01*
X-12183007Y-18313494D01*
X-12170939Y-18383458D01*
X-12182910Y-18424357D01*
X-12203423Y-18466323D01*
X-12213500Y-18535398D01*
X-12213500Y-18802602D01*
X-12212830Y-18807152D01*
X-12212830Y-18807155D01*
X-12210265Y-18824577D01*
X-12203243Y-18872278D01*
X-12155435Y-18969651D01*
X-12153315Y-18973969D01*
X-12141247Y-19043932D01*
X-12168920Y-19109314D01*
X-12227548Y-19149355D01*
X-12266418Y-19155500D01*
X-12482802Y-19155500D01*
X-12487352Y-19156170D01*
X-12487355Y-19156170D01*
X-12542792Y-19164331D01*
X-12542793Y-19164331D01*
X-12552478Y-19165757D01*
X-12590231Y-19184293D01*
X-12593694Y-19185993D01*
X-12663658Y-19198061D01*
X-12704558Y-19186090D01*
X-12704756Y-19185993D01*
X-12746523Y-19165577D01*
X-12789632Y-19159288D01*
X-12811072Y-19156160D01*
X-12811076Y-19156160D01*
X-12815598Y-19155500D01*
X-12962669Y-19155500D01*
X-13030790Y-19135498D01*
X-13062125Y-19106860D01*
X-13069633Y-19097208D01*
X-13069635Y-19097205D01*
X-13071272Y-19095101D01*
X-13079022Y-19086709D01*
X-13099558Y-19056757D01*
X-13142580Y-18969133D01*
X-13147170Y-18959784D01*
X-13230694Y-18876405D01*
X-13336723Y-18824577D01*
X-13367045Y-18820153D01*
X-13401272Y-18815160D01*
X-13401276Y-18815160D01*
X-13405798Y-18814500D01*
X-13823002Y-18814500D01*
X-13827552Y-18815170D01*
X-13827555Y-18815170D01*
X-13882992Y-18823331D01*
X-13882993Y-18823331D01*
X-13892678Y-18824757D01*
X-13943078Y-18849502D01*
X-13989268Y-18872180D01*
X-13989270Y-18872181D01*
X-13998616Y-18876770D01*
X-14081995Y-18960294D01*
X-14086568Y-18969650D01*
X-14086569Y-18969651D01*
X-14102793Y-19002842D01*
X-14133823Y-19066323D01*
X-14135235Y-19076003D01*
X-14142050Y-19122720D01*
X-14143900Y-19135398D01*
X-14143900Y-19173470D01*
X-14149052Y-19209131D01*
X-14162983Y-19256340D01*
X-14163628Y-19260787D01*
X-14163629Y-19260789D01*
X-14167480Y-19287322D01*
X-14173369Y-19327888D01*
X-14175316Y-20774794D01*
X-14175324Y-20780380D01*
X-14181343Y-20813449D01*
X-14180363Y-20813682D01*
X-14182189Y-20821363D01*
X-14184964Y-20828764D01*
X-14191500Y-20888930D01*
X-14191500Y-21582070D01*
X-14746000Y-21582070D01*
X-14746000Y-6037425D01*
X-14743579Y-6012844D01*
X-14743445Y-6012170D01*
X-14741024Y-6000000D01*
X-14760737Y-5900894D01*
X-14816876Y-5816876D01*
X-14900894Y-5760737D01*
X-15000000Y-5741024D01*
X-15012172Y-5743445D01*
X-15024580Y-5743445D01*
X-15024580Y-5743184D01*
X-15035442Y-5743936D01*
X-15311466Y-5727860D01*
X-15326014Y-5726159D01*
X-15421560Y-5709312D01*
X-15626044Y-5673255D01*
X-15640301Y-5669876D01*
X-15831718Y-5612570D01*
X-15932164Y-5582499D01*
X-15945929Y-5577488D01*
X-16044707Y-5534879D01*
X-16225665Y-5456821D01*
X-16238758Y-5450246D01*
X-16502598Y-5297918D01*
X-16514840Y-5289866D01*
X-16759208Y-5107940D01*
X-16770432Y-5098522D01*
X-16992027Y-4889459D01*
X-17002083Y-4878801D01*
X-17197916Y-4645414D01*
X-17206665Y-4633661D01*
X-17374071Y-4379134D01*
X-17381398Y-4366445D01*
X-17428176Y-4273302D01*
X-17518131Y-4094185D01*
X-17523931Y-4080739D01*
X-17628127Y-3794463D01*
X-17632330Y-3780426D01*
X-17702590Y-3483976D01*
X-17705134Y-3469546D01*
X-17740502Y-3166955D01*
X-17741354Y-3152327D01*
X-17741354Y-2933789D01*
X-16404004Y-2933789D01*
X-16395087Y-3171295D01*
X-16346281Y-3403904D01*
X-16344323Y-3408863D01*
X-16344322Y-3408865D01*
X-16295075Y-3533564D01*
X-16258980Y-3624963D01*
X-16256213Y-3629522D01*
X-16256212Y-3629525D01*
X-16196307Y-3728245D01*
X-16135681Y-3828153D01*
X-16132184Y-3832183D01*
X-15985813Y-4000861D01*
X-15979910Y-4007664D01*
X-15975784Y-4011047D01*
X-15975780Y-4011051D01*
X-15862989Y-4103533D01*
X-15796120Y-4158362D01*
X-15791484Y-4161001D01*
X-15791481Y-4161003D01*
X-15726883Y-4197774D01*
X-15589567Y-4275939D01*
X-15366156Y-4357034D01*
X-15360908Y-4357983D01*
X-15136359Y-4398588D01*
X-15136352Y-4398589D01*
X-15132275Y-4399326D01*
X-15114009Y-4400187D01*
X-15108869Y-4400430D01*
X-15108862Y-4400430D01*
X-15107381Y-4400500D01*
X-14940320Y-4400500D01*
X-14857974Y-4393513D01*
X-14768488Y-4385920D01*
X-14768484Y-4385919D01*
X-14763177Y-4385469D01*
X-14758022Y-4384131D01*
X-14758016Y-4384130D01*
X-14538297Y-4327102D01*
X-14538298Y-4327102D01*
X-14533126Y-4325760D01*
X-14363517Y-4249357D01*
X-14321285Y-4230333D01*
X-14321282Y-4230332D01*
X-14316424Y-4228143D01*
X-14119268Y-4095409D01*
X-14111118Y-4087635D01*
X-14030838Y-4011051D01*
X-13947295Y-3931355D01*
X-13805421Y-3740670D01*
X-13697705Y-3528807D01*
X-13683784Y-3483976D01*
X-13628807Y-3306919D01*
X-13627225Y-3301824D01*
X-13606855Y-3148137D01*
X-13596696Y-3071494D01*
X-13596696Y-3071491D01*
X-13595996Y-3066211D01*
X-13604913Y-2828705D01*
X-13653719Y-2596096D01*
X-13693399Y-2495620D01*
X-13739059Y-2380002D01*
X-13739060Y-2380000D01*
X-13741020Y-2375037D01*
X-13752692Y-2355801D01*
X-13852130Y-2191934D01*
X-13864319Y-2171847D01*
X-13916416Y-2111810D01*
X-14016590Y-1996369D01*
X-14016592Y-1996367D01*
X-14020090Y-1992336D01*
X-14024216Y-1988953D01*
X-14024220Y-1988949D01*
X-14199752Y-1845023D01*
X-14203880Y-1841638D01*
X-14208516Y-1838999D01*
X-14208519Y-1838997D01*
X-14330315Y-1769667D01*
X-14410433Y-1724061D01*
X-14633844Y-1642966D01*
X-14685888Y-1633555D01*
X-14863641Y-1601412D01*
X-14863648Y-1601411D01*
X-14867725Y-1600674D01*
X-14885991Y-1599813D01*
X-14891131Y-1599570D01*
X-14891138Y-1599570D01*
X-14892619Y-1599500D01*
X-15059680Y-1599500D01*
X-15142026Y-1606487D01*
X-15231512Y-1614080D01*
X-15231516Y-1614081D01*
X-15236823Y-1614531D01*
X-15241978Y-1615869D01*
X-15241984Y-1615870D01*
X-15353388Y-1644785D01*
X-15466874Y-1674240D01*
X-15564234Y-1718097D01*
X-15678715Y-1769667D01*
X-15678718Y-1769668D01*
X-15683576Y-1771857D01*
X-15880732Y-1904591D01*
X-15884589Y-1908270D01*
X-15884591Y-1908272D01*
X-15896110Y-1919261D01*
X-16052705Y-2068645D01*
X-16194579Y-2259330D01*
X-16302295Y-2471193D01*
X-16303876Y-2476284D01*
X-16303877Y-2476287D01*
X-16342699Y-2601315D01*
X-16372775Y-2698176D01*
X-16404004Y-2933789D01*
X-17741354Y-2933789D01*
X-17741354Y-2847673D01*
X-17740502Y-2833045D01*
X-17705134Y-2530454D01*
X-17702590Y-2516024D01*
X-17632330Y-2219574D01*
X-17628127Y-2205537D01*
X-17523931Y-1919261D01*
X-17518131Y-1905815D01*
X-17381398Y-1633555D01*
X-17374071Y-1620866D01*
X-17206665Y-1366339D01*
X-17197916Y-1354586D01*
X-17002083Y-1121199D01*
X-16992027Y-1110541D01*
X-16770432Y-901478D01*
X-16759208Y-892060D01*
X-16514840Y-710134D01*
X-16502598Y-702082D01*
X-16238758Y-549754D01*
X-16225664Y-543178D01*
X-15945929Y-422512D01*
X-15932164Y-417501D01*
X-15810151Y-380973D01*
X-15640301Y-330124D01*
X-15626044Y-326745D01*
X-15421560Y-290688D01*
X-15326014Y-273841D01*
X-15311466Y-272140D01*
X-15035442Y-256064D01*
X-15024580Y-256816D01*
X-15024580Y-256555D01*
X-15012172Y-256555D01*
X-15000000Y-258976D01*
X-14987153Y-256421D01*
X-14962575Y-254000D01*
X14962575Y-254000D01*
X14987153Y-256421D01*
G37*
G04 #@! TD.AperFunction*
G04 #@! TA.AperFunction,Conductor*
G36*
X-13303104Y-19222402D02*
G01*
X-13271767Y-19251043D01*
X-13211732Y-19328230D01*
X-12980613Y-19625383D01*
X-12954580Y-19691433D01*
X-12954072Y-19702949D01*
X-12956585Y-21205924D01*
X-12976701Y-21274011D01*
X-13030434Y-21320414D01*
X-13089205Y-21331539D01*
X-13802470Y-21293998D01*
X-13869444Y-21270444D01*
X-13913052Y-21214419D01*
X-13921846Y-21168003D01*
X-13919369Y-19328230D01*
X-13899275Y-19260137D01*
X-13845557Y-19213716D01*
X-13793369Y-19202400D01*
X-13371225Y-19202400D01*
X-13303104Y-19222402D01*
G37*
G04 #@! TD.AperFunction*
M02*
