G04 #@! TF.GenerationSoftware,KiCad,Pcbnew,(6.0.1)*
G04 #@! TF.CreationDate,2022-07-28T15:49:31+09:00*
G04 #@! TF.ProjectId,Fc_stm32,46635f73-746d-4333-922e-6b696361645f,rev?*
G04 #@! TF.SameCoordinates,Original*
G04 #@! TF.FileFunction,Legend,Bot*
G04 #@! TF.FilePolarity,Positive*
%FSLAX46Y46*%
G04 Gerber Fmt 4.6, Leading zero omitted, Abs format (unit mm)*
G04 Created by KiCad (PCBNEW (6.0.1)) date 2022-07-28 15:49:31*
%MOMM*%
%LPD*%
G01*
G04 APERTURE LIST*
G04 Aperture macros list*
%AMRoundRect*
0 Rectangle with rounded corners*
0 $1 Rounding radius*
0 $2 $3 $4 $5 $6 $7 $8 $9 X,Y pos of 4 corners*
0 Add a 4 corners polygon primitive as box body*
4,1,4,$2,$3,$4,$5,$6,$7,$8,$9,$2,$3,0*
0 Add four circle primitives for the rounded corners*
1,1,$1+$1,$2,$3*
1,1,$1+$1,$4,$5*
1,1,$1+$1,$6,$7*
1,1,$1+$1,$8,$9*
0 Add four rect primitives between the rounded corners*
20,1,$1+$1,$2,$3,$4,$5,0*
20,1,$1+$1,$4,$5,$6,$7,0*
20,1,$1+$1,$6,$7,$8,$9,0*
20,1,$1+$1,$8,$9,$2,$3,0*%
G04 Aperture macros list end*
%ADD10C,0.150000*%
%ADD11C,0.120000*%
%ADD12C,0.127000*%
%ADD13C,0.200000*%
%ADD14R,1.700000X1.700000*%
%ADD15O,1.700000X1.700000*%
%ADD16R,1.000000X1.000000*%
%ADD17O,1.000000X1.000000*%
%ADD18C,2.200000*%
%ADD19RoundRect,0.237500X0.250000X0.237500X-0.250000X0.237500X-0.250000X-0.237500X0.250000X-0.237500X0*%
%ADD20RoundRect,0.150000X-0.150000X0.587500X-0.150000X-0.587500X0.150000X-0.587500X0.150000X0.587500X0*%
%ADD21RoundRect,0.237500X-0.250000X-0.237500X0.250000X-0.237500X0.250000X0.237500X-0.250000X0.237500X0*%
%ADD22RoundRect,0.237500X0.300000X0.237500X-0.300000X0.237500X-0.300000X-0.237500X0.300000X-0.237500X0*%
%ADD23RoundRect,0.150000X0.587500X0.150000X-0.587500X0.150000X-0.587500X-0.150000X0.587500X-0.150000X0*%
%ADD24R,0.400000X1.350000*%
%ADD25R,2.100000X2.000000*%
%ADD26R,1.600000X1.900000*%
%ADD27R,1.200000X1.900000*%
%ADD28R,0.510000X1.100000*%
%ADD29RoundRect,0.237500X0.237500X-0.300000X0.237500X0.300000X-0.237500X0.300000X-0.237500X-0.300000X0*%
G04 APERTURE END LIST*
D10*
X-12731790Y-11832562D02*
X-12693695Y-11946848D01*
X-12693695Y-12137324D01*
X-12731790Y-12213515D01*
X-12769885Y-12251610D01*
X-12846076Y-12289705D01*
X-12922266Y-12289705D01*
X-12998457Y-12251610D01*
X-13036552Y-12213515D01*
X-13074647Y-12137324D01*
X-13112742Y-11984943D01*
X-13150838Y-11908753D01*
X-13188933Y-11870658D01*
X-13265123Y-11832562D01*
X-13341314Y-11832562D01*
X-13417504Y-11870658D01*
X-13455600Y-11908753D01*
X-13493695Y-11984943D01*
X-13493695Y-12175420D01*
X-13455600Y-12289705D01*
X-13227028Y-12975420D02*
X-12693695Y-12975420D01*
X-13227028Y-12632562D02*
X-12807980Y-12632562D01*
X-12731790Y-12670658D01*
X-12693695Y-12746848D01*
X-12693695Y-12861134D01*
X-12731790Y-12937324D01*
X-12769885Y-12975420D01*
X-13227028Y-13356372D02*
X-12427028Y-13356372D01*
X-13188933Y-13356372D02*
X-13227028Y-13432562D01*
X-13227028Y-13584943D01*
X-13188933Y-13661134D01*
X-13150838Y-13699229D01*
X-13074647Y-13737324D01*
X-12846076Y-13737324D01*
X-12769885Y-13699229D01*
X-12731790Y-13661134D01*
X-12693695Y-13584943D01*
X-12693695Y-13432562D01*
X-12731790Y-13356372D01*
X-13227028Y-14080181D02*
X-12427028Y-14080181D01*
X-13188933Y-14080181D02*
X-13227028Y-14156372D01*
X-13227028Y-14308753D01*
X-13188933Y-14384943D01*
X-13150838Y-14423039D01*
X-13074647Y-14461134D01*
X-12846076Y-14461134D01*
X-12769885Y-14423039D01*
X-12731790Y-14384943D01*
X-12693695Y-14308753D01*
X-12693695Y-14156372D01*
X-12731790Y-14080181D01*
X-12693695Y-14918277D02*
X-12731790Y-14842086D01*
X-12769885Y-14803991D01*
X-12846076Y-14765896D01*
X-13074647Y-14765896D01*
X-13150838Y-14803991D01*
X-13188933Y-14842086D01*
X-13227028Y-14918277D01*
X-13227028Y-15032562D01*
X-13188933Y-15108753D01*
X-13150838Y-15146848D01*
X-13074647Y-15184943D01*
X-12846076Y-15184943D01*
X-12769885Y-15146848D01*
X-12731790Y-15108753D01*
X-12693695Y-15032562D01*
X-12693695Y-14918277D01*
X-12693695Y-15527801D02*
X-13227028Y-15527801D01*
X-13074647Y-15527801D02*
X-13150838Y-15565896D01*
X-13188933Y-15603991D01*
X-13227028Y-15680181D01*
X-13227028Y-15756372D01*
X-13227028Y-15908753D02*
X-13227028Y-16213515D01*
X-13493695Y-16023039D02*
X-12807980Y-16023039D01*
X-12731790Y-16061134D01*
X-12693695Y-16137324D01*
X-12693695Y-16213515D01*
X-12769885Y-16937324D02*
X-12731790Y-16899229D01*
X-12693695Y-16784943D01*
X-12693695Y-16708753D01*
X-12731790Y-16594467D01*
X-12807980Y-16518277D01*
X-12884171Y-16480181D01*
X-13036552Y-16442086D01*
X-13150838Y-16442086D01*
X-13303219Y-16480181D01*
X-13379409Y-16518277D01*
X-13455600Y-16594467D01*
X-13493695Y-16708753D01*
X-13493695Y-16784943D01*
X-13455600Y-16899229D01*
X-13417504Y-16937324D01*
X-12731790Y-17584943D02*
X-12693695Y-17508753D01*
X-12693695Y-17356372D01*
X-12731790Y-17280181D01*
X-12807980Y-17242086D01*
X-13112742Y-17242086D01*
X-13188933Y-17280181D01*
X-13227028Y-17356372D01*
X-13227028Y-17508753D01*
X-13188933Y-17584943D01*
X-13112742Y-17623039D01*
X-13036552Y-17623039D01*
X-12960361Y-17242086D01*
X-13227028Y-17965896D02*
X-12693695Y-17965896D01*
X-13150838Y-17965896D02*
X-13188933Y-18003991D01*
X-13227028Y-18080181D01*
X-13227028Y-18194467D01*
X-13188933Y-18270658D01*
X-13112742Y-18308753D01*
X-12693695Y-18308753D01*
X-13227028Y-18575420D02*
X-13227028Y-18880181D01*
X-13493695Y-18689705D02*
X-12807980Y-18689705D01*
X-12731790Y-18727801D01*
X-12693695Y-18803991D01*
X-12693695Y-18880181D01*
X-12693695Y-19261134D02*
X-12731790Y-19184943D01*
X-12769885Y-19146848D01*
X-12846076Y-19108753D01*
X-13074647Y-19108753D01*
X-13150838Y-19146848D01*
X-13188933Y-19184943D01*
X-13227028Y-19261134D01*
X-13227028Y-19375420D01*
X-13188933Y-19451610D01*
X-13150838Y-19489705D01*
X-13074647Y-19527801D01*
X-12846076Y-19527801D01*
X-12769885Y-19489705D01*
X-12731790Y-19451610D01*
X-12693695Y-19375420D01*
X-12693695Y-19261134D01*
X-12693695Y-19870658D02*
X-13227028Y-19870658D01*
X-13074647Y-19870658D02*
X-13150838Y-19908753D01*
X-13188933Y-19946848D01*
X-13227028Y-20023039D01*
X-13227028Y-20099229D01*
X-13493695Y-20861134D02*
X-12693695Y-21127801D01*
X-13493695Y-21394467D01*
X-12693695Y-22080181D02*
X-12693695Y-21623039D01*
X-12693695Y-21851610D02*
X-13493695Y-21851610D01*
X-13379409Y-21775420D01*
X-13303219Y-21699229D01*
X-13265123Y-21623039D01*
X-12769885Y-22423039D02*
X-12731790Y-22461134D01*
X-12693695Y-22423039D01*
X-12731790Y-22384943D01*
X-12769885Y-22423039D01*
X-12693695Y-22423039D01*
X-12693695Y-23223039D02*
X-12693695Y-22765896D01*
X-12693695Y-22994467D02*
X-13493695Y-22994467D01*
X-13379409Y-22918277D01*
X-13303219Y-22842086D01*
X-13265123Y-22765896D01*
X-9683809Y-32111904D02*
X-9226666Y-32111904D01*
X-9455238Y-32111904D02*
X-9455238Y-31311904D01*
X-9379047Y-31426190D01*
X-9302857Y-31502380D01*
X-9226666Y-31540476D01*
X-10179047Y-31311904D02*
X-10255238Y-31311904D01*
X-10331428Y-31350000D01*
X-10369523Y-31388095D01*
X-10407619Y-31464285D01*
X-10445714Y-31616666D01*
X-10445714Y-31807142D01*
X-10407619Y-31959523D01*
X-10369523Y-32035714D01*
X-10331428Y-32073809D01*
X-10255238Y-32111904D01*
X-10179047Y-32111904D01*
X-10102857Y-32073809D01*
X-10064761Y-32035714D01*
X-10026666Y-31959523D01*
X-9988571Y-31807142D01*
X-9988571Y-31616666D01*
X-10026666Y-31464285D01*
X-10064761Y-31388095D01*
X-10102857Y-31350000D01*
X-10179047Y-31311904D01*
X-10788571Y-32111904D02*
X-10788571Y-31311904D01*
X-10864761Y-31807142D02*
X-11093333Y-32111904D01*
X-11093333Y-31578571D02*
X-10788571Y-31883333D01*
X1746190Y-32111904D02*
X2203333Y-32111904D01*
X1974761Y-32111904D02*
X1974761Y-31311904D01*
X2050952Y-31426190D01*
X2127142Y-31502380D01*
X2203333Y-31540476D01*
X1250952Y-31311904D02*
X1174761Y-31311904D01*
X1098571Y-31350000D01*
X1060476Y-31388095D01*
X1022380Y-31464285D01*
X984285Y-31616666D01*
X984285Y-31807142D01*
X1022380Y-31959523D01*
X1060476Y-32035714D01*
X1098571Y-32073809D01*
X1174761Y-32111904D01*
X1250952Y-32111904D01*
X1327142Y-32073809D01*
X1365238Y-32035714D01*
X1403333Y-31959523D01*
X1441428Y-31807142D01*
X1441428Y-31616666D01*
X1403333Y-31464285D01*
X1365238Y-31388095D01*
X1327142Y-31350000D01*
X1250952Y-31311904D01*
X641428Y-32111904D02*
X641428Y-31311904D01*
X565238Y-31807142D02*
X336666Y-32111904D01*
X336666Y-31578571D02*
X641428Y-31883333D01*
X9366190Y-24364904D02*
X9823333Y-24364904D01*
X9594761Y-24364904D02*
X9594761Y-23564904D01*
X9670952Y-23679190D01*
X9747142Y-23755380D01*
X9823333Y-23793476D01*
X8870952Y-23564904D02*
X8794761Y-23564904D01*
X8718571Y-23603000D01*
X8680476Y-23641095D01*
X8642380Y-23717285D01*
X8604285Y-23869666D01*
X8604285Y-24060142D01*
X8642380Y-24212523D01*
X8680476Y-24288714D01*
X8718571Y-24326809D01*
X8794761Y-24364904D01*
X8870952Y-24364904D01*
X8947142Y-24326809D01*
X8985238Y-24288714D01*
X9023333Y-24212523D01*
X9061428Y-24060142D01*
X9061428Y-23869666D01*
X9023333Y-23717285D01*
X8985238Y-23641095D01*
X8947142Y-23603000D01*
X8870952Y-23564904D01*
X8261428Y-24364904D02*
X8261428Y-23564904D01*
X8185238Y-24060142D02*
X7956666Y-24364904D01*
X7956666Y-23831571D02*
X8261428Y-24136333D01*
X6870571Y-5149904D02*
X6794380Y-5149904D01*
X6718190Y-5188000D01*
X6680095Y-5226095D01*
X6642000Y-5302285D01*
X6603904Y-5454666D01*
X6603904Y-5645142D01*
X6642000Y-5797523D01*
X6680095Y-5873714D01*
X6718190Y-5911809D01*
X6794380Y-5949904D01*
X6870571Y-5949904D01*
X6946761Y-5911809D01*
X6984857Y-5873714D01*
X7022952Y-5797523D01*
X7061047Y-5645142D01*
X7061047Y-5454666D01*
X7022952Y-5302285D01*
X6984857Y-5226095D01*
X6946761Y-5188000D01*
X6870571Y-5149904D01*
X6261047Y-5873714D02*
X6222952Y-5911809D01*
X6261047Y-5949904D01*
X6299142Y-5911809D01*
X6261047Y-5873714D01*
X6261047Y-5949904D01*
X5461047Y-5949904D02*
X5918190Y-5949904D01*
X5689619Y-5949904D02*
X5689619Y-5149904D01*
X5765809Y-5264190D01*
X5842000Y-5340380D01*
X5918190Y-5378476D01*
X5118190Y-5416571D02*
X5118190Y-6216571D01*
X4737238Y-5835619D02*
X4699142Y-5911809D01*
X4622952Y-5949904D01*
X5118190Y-5835619D02*
X5080095Y-5911809D01*
X5003904Y-5949904D01*
X4851523Y-5949904D01*
X4775333Y-5911809D01*
X4737238Y-5835619D01*
X4737238Y-5416571D01*
X-2063809Y-24364904D02*
X-1606666Y-24364904D01*
X-1835238Y-24364904D02*
X-1835238Y-23564904D01*
X-1759047Y-23679190D01*
X-1682857Y-23755380D01*
X-1606666Y-23793476D01*
X-2559047Y-23564904D02*
X-2635238Y-23564904D01*
X-2711428Y-23603000D01*
X-2749523Y-23641095D01*
X-2787619Y-23717285D01*
X-2825714Y-23869666D01*
X-2825714Y-24060142D01*
X-2787619Y-24212523D01*
X-2749523Y-24288714D01*
X-2711428Y-24326809D01*
X-2635238Y-24364904D01*
X-2559047Y-24364904D01*
X-2482857Y-24326809D01*
X-2444761Y-24288714D01*
X-2406666Y-24212523D01*
X-2368571Y-24060142D01*
X-2368571Y-23869666D01*
X-2406666Y-23717285D01*
X-2444761Y-23641095D01*
X-2482857Y-23603000D01*
X-2559047Y-23564904D01*
X-3168571Y-24364904D02*
X-3168571Y-23564904D01*
X-3244761Y-24060142D02*
X-3473333Y-24364904D01*
X-3473333Y-23831571D02*
X-3168571Y-24136333D01*
X13347619Y-23564904D02*
X12852380Y-23564904D01*
X13119047Y-23869666D01*
X13004761Y-23869666D01*
X12928571Y-23907761D01*
X12890476Y-23945857D01*
X12852380Y-24022047D01*
X12852380Y-24212523D01*
X12890476Y-24288714D01*
X12928571Y-24326809D01*
X13004761Y-24364904D01*
X13233333Y-24364904D01*
X13309523Y-24326809D01*
X13347619Y-24288714D01*
X12357142Y-23564904D02*
X12280952Y-23564904D01*
X12204761Y-23603000D01*
X12166666Y-23641095D01*
X12128571Y-23717285D01*
X12090476Y-23869666D01*
X12090476Y-24060142D01*
X12128571Y-24212523D01*
X12166666Y-24288714D01*
X12204761Y-24326809D01*
X12280952Y-24364904D01*
X12357142Y-24364904D01*
X12433333Y-24326809D01*
X12471428Y-24288714D01*
X12509523Y-24212523D01*
X12547619Y-24060142D01*
X12547619Y-23869666D01*
X12509523Y-23717285D01*
X12471428Y-23641095D01*
X12433333Y-23603000D01*
X12357142Y-23564904D01*
X1746190Y-24364904D02*
X2203333Y-24364904D01*
X1974761Y-24364904D02*
X1974761Y-23564904D01*
X2050952Y-23679190D01*
X2127142Y-23755380D01*
X2203333Y-23793476D01*
X1250952Y-23564904D02*
X1174761Y-23564904D01*
X1098571Y-23603000D01*
X1060476Y-23641095D01*
X1022380Y-23717285D01*
X984285Y-23869666D01*
X984285Y-24060142D01*
X1022380Y-24212523D01*
X1060476Y-24288714D01*
X1098571Y-24326809D01*
X1174761Y-24364904D01*
X1250952Y-24364904D01*
X1327142Y-24326809D01*
X1365238Y-24288714D01*
X1403333Y-24212523D01*
X1441428Y-24060142D01*
X1441428Y-23869666D01*
X1403333Y-23717285D01*
X1365238Y-23641095D01*
X1327142Y-23603000D01*
X1250952Y-23564904D01*
X641428Y-24364904D02*
X641428Y-23564904D01*
X565238Y-24060142D02*
X336666Y-24364904D01*
X336666Y-23831571D02*
X641428Y-24136333D01*
X9366190Y-32111904D02*
X9823333Y-32111904D01*
X9594761Y-32111904D02*
X9594761Y-31311904D01*
X9670952Y-31426190D01*
X9747142Y-31502380D01*
X9823333Y-31540476D01*
X8870952Y-31311904D02*
X8794761Y-31311904D01*
X8718571Y-31350000D01*
X8680476Y-31388095D01*
X8642380Y-31464285D01*
X8604285Y-31616666D01*
X8604285Y-31807142D01*
X8642380Y-31959523D01*
X8680476Y-32035714D01*
X8718571Y-32073809D01*
X8794761Y-32111904D01*
X8870952Y-32111904D01*
X8947142Y-32073809D01*
X8985238Y-32035714D01*
X9023333Y-31959523D01*
X9061428Y-31807142D01*
X9061428Y-31616666D01*
X9023333Y-31464285D01*
X8985238Y-31388095D01*
X8947142Y-31350000D01*
X8870952Y-31311904D01*
X8261428Y-32111904D02*
X8261428Y-31311904D01*
X8185238Y-31807142D02*
X7956666Y-32111904D01*
X7956666Y-31578571D02*
X8261428Y-31883333D01*
X-2063809Y-32111904D02*
X-1606666Y-32111904D01*
X-1835238Y-32111904D02*
X-1835238Y-31311904D01*
X-1759047Y-31426190D01*
X-1682857Y-31502380D01*
X-1606666Y-31540476D01*
X-2559047Y-31311904D02*
X-2635238Y-31311904D01*
X-2711428Y-31350000D01*
X-2749523Y-31388095D01*
X-2787619Y-31464285D01*
X-2825714Y-31616666D01*
X-2825714Y-31807142D01*
X-2787619Y-31959523D01*
X-2749523Y-32035714D01*
X-2711428Y-32073809D01*
X-2635238Y-32111904D01*
X-2559047Y-32111904D01*
X-2482857Y-32073809D01*
X-2444761Y-32035714D01*
X-2406666Y-31959523D01*
X-2368571Y-31807142D01*
X-2368571Y-31616666D01*
X-2406666Y-31464285D01*
X-2444761Y-31388095D01*
X-2482857Y-31350000D01*
X-2559047Y-31311904D01*
X-3168571Y-32111904D02*
X-3168571Y-31311904D01*
X-3244761Y-31807142D02*
X-3473333Y-32111904D01*
X-3473333Y-31578571D02*
X-3168571Y-31883333D01*
X-12757142Y-25965380D02*
X-12719047Y-26079666D01*
X-12680952Y-26117761D01*
X-12604761Y-26155857D01*
X-12490476Y-26155857D01*
X-12414285Y-26117761D01*
X-12376190Y-26079666D01*
X-12338095Y-26003476D01*
X-12338095Y-25698714D01*
X-13138095Y-25698714D01*
X-13138095Y-25965380D01*
X-13100000Y-26041571D01*
X-13061904Y-26079666D01*
X-12985714Y-26117761D01*
X-12909523Y-26117761D01*
X-12833333Y-26079666D01*
X-12795238Y-26041571D01*
X-12757142Y-25965380D01*
X-12757142Y-25698714D01*
X-12376190Y-26460619D02*
X-12338095Y-26574904D01*
X-12338095Y-26765380D01*
X-12376190Y-26841571D01*
X-12414285Y-26879666D01*
X-12490476Y-26917761D01*
X-12566666Y-26917761D01*
X-12642857Y-26879666D01*
X-12680952Y-26841571D01*
X-12719047Y-26765380D01*
X-12757142Y-26613000D01*
X-12795238Y-26536809D01*
X-12833333Y-26498714D01*
X-12909523Y-26460619D01*
X-12985714Y-26460619D01*
X-13061904Y-26498714D01*
X-13100000Y-26536809D01*
X-13138095Y-26613000D01*
X-13138095Y-26803476D01*
X-13100000Y-26917761D01*
X-12376190Y-27222523D02*
X-12338095Y-27336809D01*
X-12338095Y-27527285D01*
X-12376190Y-27603476D01*
X-12414285Y-27641571D01*
X-12490476Y-27679666D01*
X-12566666Y-27679666D01*
X-12642857Y-27641571D01*
X-12680952Y-27603476D01*
X-12719047Y-27527285D01*
X-12757142Y-27374904D01*
X-12795238Y-27298714D01*
X-12833333Y-27260619D01*
X-12909523Y-27222523D01*
X-12985714Y-27222523D01*
X-13061904Y-27260619D01*
X-13100000Y-27298714D01*
X-13138095Y-27374904D01*
X-13138095Y-27565380D01*
X-13100000Y-27679666D01*
X-12338095Y-28441571D02*
X-12338095Y-27984428D01*
X-12338095Y-28213000D02*
X-13138095Y-28213000D01*
X-13023809Y-28136809D01*
X-12947619Y-28060619D01*
X-12909523Y-27984428D01*
X-13138095Y-28708238D02*
X-13138095Y-29203476D01*
X-12833333Y-28936809D01*
X-12833333Y-29051095D01*
X-12795238Y-29127285D01*
X-12757142Y-29165380D01*
X-12680952Y-29203476D01*
X-12490476Y-29203476D01*
X-12414285Y-29165380D01*
X-12376190Y-29127285D01*
X-12338095Y-29051095D01*
X-12338095Y-28822523D01*
X-12376190Y-28746333D01*
X-12414285Y-28708238D01*
X-12795238Y-29660619D02*
X-12833333Y-29584428D01*
X-12871428Y-29546333D01*
X-12947619Y-29508238D01*
X-12985714Y-29508238D01*
X-13061904Y-29546333D01*
X-13100000Y-29584428D01*
X-13138095Y-29660619D01*
X-13138095Y-29813000D01*
X-13100000Y-29889190D01*
X-13061904Y-29927285D01*
X-12985714Y-29965380D01*
X-12947619Y-29965380D01*
X-12871428Y-29927285D01*
X-12833333Y-29889190D01*
X-12795238Y-29813000D01*
X-12795238Y-29660619D01*
X-12757142Y-29584428D01*
X-12719047Y-29546333D01*
X-12642857Y-29508238D01*
X-12490476Y-29508238D01*
X-12414285Y-29546333D01*
X-12376190Y-29584428D01*
X-12338095Y-29660619D01*
X-12338095Y-29813000D01*
X-12376190Y-29889190D01*
X-12414285Y-29927285D01*
X-12490476Y-29965380D01*
X-12642857Y-29965380D01*
X-12719047Y-29927285D01*
X-12757142Y-29889190D01*
X-12795238Y-29813000D01*
X5556190Y-24364904D02*
X6013333Y-24364904D01*
X5784761Y-24364904D02*
X5784761Y-23564904D01*
X5860952Y-23679190D01*
X5937142Y-23755380D01*
X6013333Y-23793476D01*
X5060952Y-23564904D02*
X4984761Y-23564904D01*
X4908571Y-23603000D01*
X4870476Y-23641095D01*
X4832380Y-23717285D01*
X4794285Y-23869666D01*
X4794285Y-24060142D01*
X4832380Y-24212523D01*
X4870476Y-24288714D01*
X4908571Y-24326809D01*
X4984761Y-24364904D01*
X5060952Y-24364904D01*
X5137142Y-24326809D01*
X5175238Y-24288714D01*
X5213333Y-24212523D01*
X5251428Y-24060142D01*
X5251428Y-23869666D01*
X5213333Y-23717285D01*
X5175238Y-23641095D01*
X5137142Y-23603000D01*
X5060952Y-23564904D01*
X4451428Y-24364904D02*
X4451428Y-23564904D01*
X4375238Y-24060142D02*
X4146666Y-24364904D01*
X4146666Y-23831571D02*
X4451428Y-24136333D01*
X-7296142Y-7042380D02*
X-7258047Y-7156666D01*
X-7219952Y-7194761D01*
X-7143761Y-7232857D01*
X-7029476Y-7232857D01*
X-6953285Y-7194761D01*
X-6915190Y-7156666D01*
X-6877095Y-7080476D01*
X-6877095Y-6775714D01*
X-7677095Y-6775714D01*
X-7677095Y-7042380D01*
X-7639000Y-7118571D01*
X-7600904Y-7156666D01*
X-7524714Y-7194761D01*
X-7448523Y-7194761D01*
X-7372333Y-7156666D01*
X-7334238Y-7118571D01*
X-7296142Y-7042380D01*
X-7296142Y-6775714D01*
X-6915190Y-7537619D02*
X-6877095Y-7651904D01*
X-6877095Y-7842380D01*
X-6915190Y-7918571D01*
X-6953285Y-7956666D01*
X-7029476Y-7994761D01*
X-7105666Y-7994761D01*
X-7181857Y-7956666D01*
X-7219952Y-7918571D01*
X-7258047Y-7842380D01*
X-7296142Y-7690000D01*
X-7334238Y-7613809D01*
X-7372333Y-7575714D01*
X-7448523Y-7537619D01*
X-7524714Y-7537619D01*
X-7600904Y-7575714D01*
X-7639000Y-7613809D01*
X-7677095Y-7690000D01*
X-7677095Y-7880476D01*
X-7639000Y-7994761D01*
X-6915190Y-8299523D02*
X-6877095Y-8413809D01*
X-6877095Y-8604285D01*
X-6915190Y-8680476D01*
X-6953285Y-8718571D01*
X-7029476Y-8756666D01*
X-7105666Y-8756666D01*
X-7181857Y-8718571D01*
X-7219952Y-8680476D01*
X-7258047Y-8604285D01*
X-7296142Y-8451904D01*
X-7334238Y-8375714D01*
X-7372333Y-8337619D01*
X-7448523Y-8299523D01*
X-7524714Y-8299523D01*
X-7600904Y-8337619D01*
X-7639000Y-8375714D01*
X-7677095Y-8451904D01*
X-7677095Y-8642380D01*
X-7639000Y-8756666D01*
X-6877095Y-9518571D02*
X-6877095Y-9061428D01*
X-6877095Y-9290000D02*
X-7677095Y-9290000D01*
X-7562809Y-9213809D01*
X-7486619Y-9137619D01*
X-7448523Y-9061428D01*
X-7677095Y-9785238D02*
X-7677095Y-10280476D01*
X-7372333Y-10013809D01*
X-7372333Y-10128095D01*
X-7334238Y-10204285D01*
X-7296142Y-10242380D01*
X-7219952Y-10280476D01*
X-7029476Y-10280476D01*
X-6953285Y-10242380D01*
X-6915190Y-10204285D01*
X-6877095Y-10128095D01*
X-6877095Y-9899523D01*
X-6915190Y-9823333D01*
X-6953285Y-9785238D01*
X-7334238Y-10737619D02*
X-7372333Y-10661428D01*
X-7410428Y-10623333D01*
X-7486619Y-10585238D01*
X-7524714Y-10585238D01*
X-7600904Y-10623333D01*
X-7639000Y-10661428D01*
X-7677095Y-10737619D01*
X-7677095Y-10890000D01*
X-7639000Y-10966190D01*
X-7600904Y-11004285D01*
X-7524714Y-11042380D01*
X-7486619Y-11042380D01*
X-7410428Y-11004285D01*
X-7372333Y-10966190D01*
X-7334238Y-10890000D01*
X-7334238Y-10737619D01*
X-7296142Y-10661428D01*
X-7258047Y-10623333D01*
X-7181857Y-10585238D01*
X-7029476Y-10585238D01*
X-6953285Y-10623333D01*
X-6915190Y-10661428D01*
X-6877095Y-10737619D01*
X-6877095Y-10890000D01*
X-6915190Y-10966190D01*
X-6953285Y-11004285D01*
X-7029476Y-11042380D01*
X-7181857Y-11042380D01*
X-7258047Y-11004285D01*
X-7296142Y-10966190D01*
X-7334238Y-10890000D01*
X7383356Y-14706923D02*
X6583356Y-14706923D01*
X6964309Y-14706923D02*
X6964309Y-15164066D01*
X7383356Y-15164066D02*
X6583356Y-15164066D01*
X7383356Y-15545019D02*
X6850023Y-15545019D01*
X6583356Y-15545019D02*
X6621452Y-15506923D01*
X6659547Y-15545019D01*
X6621452Y-15583114D01*
X6583356Y-15545019D01*
X6659547Y-15545019D01*
X7383356Y-16268828D02*
X6583356Y-16268828D01*
X7345261Y-16268828D02*
X7383356Y-16192638D01*
X7383356Y-16040257D01*
X7345261Y-15964066D01*
X7307166Y-15925971D01*
X7230975Y-15887876D01*
X7002404Y-15887876D01*
X6926213Y-15925971D01*
X6888118Y-15964066D01*
X6850023Y-16040257D01*
X6850023Y-16192638D01*
X6888118Y-16268828D01*
X7345261Y-16954542D02*
X7383356Y-16878352D01*
X7383356Y-16725971D01*
X7345261Y-16649780D01*
X7269071Y-16611685D01*
X6964309Y-16611685D01*
X6888118Y-16649780D01*
X6850023Y-16725971D01*
X6850023Y-16878352D01*
X6888118Y-16954542D01*
X6964309Y-16992638D01*
X7040499Y-16992638D01*
X7116690Y-16611685D01*
X6850023Y-17221209D02*
X6850023Y-17525971D01*
X6583356Y-17335495D02*
X7269071Y-17335495D01*
X7345261Y-17373590D01*
X7383356Y-17449780D01*
X7383356Y-17525971D01*
X7383356Y-17906923D02*
X7345261Y-17830733D01*
X7307166Y-17792638D01*
X7230975Y-17754542D01*
X7002404Y-17754542D01*
X6926213Y-17792638D01*
X6888118Y-17830733D01*
X6850023Y-17906923D01*
X6850023Y-18021209D01*
X6888118Y-18097400D01*
X6926213Y-18135495D01*
X7002404Y-18173590D01*
X7230975Y-18173590D01*
X7307166Y-18135495D01*
X7345261Y-18097400D01*
X7383356Y-18021209D01*
X7383356Y-17906923D01*
X7345261Y-18478352D02*
X7383356Y-18554542D01*
X7383356Y-18706923D01*
X7345261Y-18783114D01*
X7269071Y-18821209D01*
X7230975Y-18821209D01*
X7154785Y-18783114D01*
X7116690Y-18706923D01*
X7116690Y-18592638D01*
X7078594Y-18516447D01*
X7002404Y-18478352D01*
X6964309Y-18478352D01*
X6888118Y-18516447D01*
X6850023Y-18592638D01*
X6850023Y-18706923D01*
X6888118Y-18783114D01*
X7383356Y-19164066D02*
X6583356Y-19164066D01*
X7383356Y-19506923D02*
X6964309Y-19506923D01*
X6888118Y-19468828D01*
X6850023Y-19392638D01*
X6850023Y-19278352D01*
X6888118Y-19202161D01*
X6926213Y-19164066D01*
X7383356Y-19887876D02*
X6850023Y-19887876D01*
X6583356Y-19887876D02*
X6621452Y-19849780D01*
X6659547Y-19887876D01*
X6621452Y-19925971D01*
X6583356Y-19887876D01*
X6659547Y-19887876D01*
X7232523Y-196904D02*
X7232523Y-844523D01*
X7194428Y-920714D01*
X7156333Y-958809D01*
X7080142Y-996904D01*
X6927761Y-996904D01*
X6851571Y-958809D01*
X6813476Y-920714D01*
X6775380Y-844523D01*
X6775380Y-196904D01*
X6432523Y-958809D02*
X6318238Y-996904D01*
X6127761Y-996904D01*
X6051571Y-958809D01*
X6013476Y-920714D01*
X5975380Y-844523D01*
X5975380Y-768333D01*
X6013476Y-692142D01*
X6051571Y-654047D01*
X6127761Y-615952D01*
X6280142Y-577857D01*
X6356333Y-539761D01*
X6394428Y-501666D01*
X6432523Y-425476D01*
X6432523Y-349285D01*
X6394428Y-273095D01*
X6356333Y-235000D01*
X6280142Y-196904D01*
X6089666Y-196904D01*
X5975380Y-235000D01*
X5365857Y-577857D02*
X5251571Y-615952D01*
X5213476Y-654047D01*
X5175380Y-730238D01*
X5175380Y-844523D01*
X5213476Y-920714D01*
X5251571Y-958809D01*
X5327761Y-996904D01*
X5632523Y-996904D01*
X5632523Y-196904D01*
X5365857Y-196904D01*
X5289666Y-235000D01*
X5251571Y-273095D01*
X5213476Y-349285D01*
X5213476Y-425476D01*
X5251571Y-501666D01*
X5289666Y-539761D01*
X5365857Y-577857D01*
X5632523Y-577857D01*
X7429285Y-8159714D02*
X7467380Y-8197809D01*
X7581666Y-8235904D01*
X7657857Y-8235904D01*
X7772142Y-8197809D01*
X7848333Y-8121619D01*
X7886428Y-8045428D01*
X7924523Y-7893047D01*
X7924523Y-7778761D01*
X7886428Y-7626380D01*
X7848333Y-7550190D01*
X7772142Y-7474000D01*
X7657857Y-7435904D01*
X7581666Y-7435904D01*
X7467380Y-7474000D01*
X7429285Y-7512095D01*
X7086428Y-8235904D02*
X7086428Y-7435904D01*
X7086428Y-7816857D02*
X6629285Y-7816857D01*
X6629285Y-8235904D02*
X6629285Y-7435904D01*
X6324523Y-7435904D02*
X5829285Y-7435904D01*
X6095952Y-7740666D01*
X5981666Y-7740666D01*
X5905476Y-7778761D01*
X5867380Y-7816857D01*
X5829285Y-7893047D01*
X5829285Y-8083523D01*
X5867380Y-8159714D01*
X5905476Y-8197809D01*
X5981666Y-8235904D01*
X6210238Y-8235904D01*
X6286428Y-8197809D01*
X6324523Y-8159714D01*
X5143571Y-7702571D02*
X5143571Y-8235904D01*
X5334047Y-7397809D02*
X5524523Y-7969238D01*
X5029285Y-7969238D01*
X4572142Y-7435904D02*
X4495952Y-7435904D01*
X4419761Y-7474000D01*
X4381666Y-7512095D01*
X4343571Y-7588285D01*
X4305476Y-7740666D01*
X4305476Y-7931142D01*
X4343571Y-8083523D01*
X4381666Y-8159714D01*
X4419761Y-8197809D01*
X4495952Y-8235904D01*
X4572142Y-8235904D01*
X4648333Y-8197809D01*
X4686428Y-8159714D01*
X4724523Y-8083523D01*
X4762619Y-7931142D01*
X4762619Y-7740666D01*
X4724523Y-7588285D01*
X4686428Y-7512095D01*
X4648333Y-7474000D01*
X4572142Y-7435904D01*
X3962619Y-8235904D02*
X3962619Y-7435904D01*
X3505476Y-8235904D02*
X3848333Y-7778761D01*
X3505476Y-7435904D02*
X3962619Y-7893047D01*
X13252380Y-31578571D02*
X13252380Y-32111904D01*
X13442857Y-31273809D02*
X13633333Y-31845238D01*
X13138095Y-31845238D01*
X12909523Y-31311904D02*
X12376190Y-31311904D01*
X12719047Y-32111904D01*
X12071428Y-32111904D02*
X12071428Y-31311904D01*
X11995238Y-31807142D02*
X11766666Y-32111904D01*
X11766666Y-31578571D02*
X12071428Y-31883333D01*
X5556190Y-32111904D02*
X6013333Y-32111904D01*
X5784761Y-32111904D02*
X5784761Y-31311904D01*
X5860952Y-31426190D01*
X5937142Y-31502380D01*
X6013333Y-31540476D01*
X5060952Y-31311904D02*
X4984761Y-31311904D01*
X4908571Y-31350000D01*
X4870476Y-31388095D01*
X4832380Y-31464285D01*
X4794285Y-31616666D01*
X4794285Y-31807142D01*
X4832380Y-31959523D01*
X4870476Y-32035714D01*
X4908571Y-32073809D01*
X4984761Y-32111904D01*
X5060952Y-32111904D01*
X5137142Y-32073809D01*
X5175238Y-32035714D01*
X5213333Y-31959523D01*
X5251428Y-31807142D01*
X5251428Y-31616666D01*
X5213333Y-31464285D01*
X5175238Y-31388095D01*
X5137142Y-31350000D01*
X5060952Y-31311904D01*
X4451428Y-32111904D02*
X4451428Y-31311904D01*
X4375238Y-31807142D02*
X4146666Y-32111904D01*
X4146666Y-31578571D02*
X4451428Y-31883333D01*
X-5873809Y-24364904D02*
X-5416666Y-24364904D01*
X-5645238Y-24364904D02*
X-5645238Y-23564904D01*
X-5569047Y-23679190D01*
X-5492857Y-23755380D01*
X-5416666Y-23793476D01*
X-6369047Y-23564904D02*
X-6445238Y-23564904D01*
X-6521428Y-23603000D01*
X-6559523Y-23641095D01*
X-6597619Y-23717285D01*
X-6635714Y-23869666D01*
X-6635714Y-24060142D01*
X-6597619Y-24212523D01*
X-6559523Y-24288714D01*
X-6521428Y-24326809D01*
X-6445238Y-24364904D01*
X-6369047Y-24364904D01*
X-6292857Y-24326809D01*
X-6254761Y-24288714D01*
X-6216666Y-24212523D01*
X-6178571Y-24060142D01*
X-6178571Y-23869666D01*
X-6216666Y-23717285D01*
X-6254761Y-23641095D01*
X-6292857Y-23603000D01*
X-6369047Y-23564904D01*
X-6978571Y-24364904D02*
X-6978571Y-23564904D01*
X-7054761Y-24060142D02*
X-7283333Y-24364904D01*
X-7283333Y-23831571D02*
X-6978571Y-24136333D01*
X-9683809Y-24364904D02*
X-9226666Y-24364904D01*
X-9455238Y-24364904D02*
X-9455238Y-23564904D01*
X-9379047Y-23679190D01*
X-9302857Y-23755380D01*
X-9226666Y-23793476D01*
X-10179047Y-23564904D02*
X-10255238Y-23564904D01*
X-10331428Y-23603000D01*
X-10369523Y-23641095D01*
X-10407619Y-23717285D01*
X-10445714Y-23869666D01*
X-10445714Y-24060142D01*
X-10407619Y-24212523D01*
X-10369523Y-24288714D01*
X-10331428Y-24326809D01*
X-10255238Y-24364904D01*
X-10179047Y-24364904D01*
X-10102857Y-24326809D01*
X-10064761Y-24288714D01*
X-10026666Y-24212523D01*
X-9988571Y-24060142D01*
X-9988571Y-23869666D01*
X-10026666Y-23717285D01*
X-10064761Y-23641095D01*
X-10102857Y-23603000D01*
X-10179047Y-23564904D01*
X-10788571Y-24364904D02*
X-10788571Y-23564904D01*
X-10864761Y-24060142D02*
X-11093333Y-24364904D01*
X-11093333Y-23831571D02*
X-10788571Y-24136333D01*
X-5873809Y-32111904D02*
X-5416666Y-32111904D01*
X-5645238Y-32111904D02*
X-5645238Y-31311904D01*
X-5569047Y-31426190D01*
X-5492857Y-31502380D01*
X-5416666Y-31540476D01*
X-6369047Y-31311904D02*
X-6445238Y-31311904D01*
X-6521428Y-31350000D01*
X-6559523Y-31388095D01*
X-6597619Y-31464285D01*
X-6635714Y-31616666D01*
X-6635714Y-31807142D01*
X-6597619Y-31959523D01*
X-6559523Y-32035714D01*
X-6521428Y-32073809D01*
X-6445238Y-32111904D01*
X-6369047Y-32111904D01*
X-6292857Y-32073809D01*
X-6254761Y-32035714D01*
X-6216666Y-31959523D01*
X-6178571Y-31807142D01*
X-6178571Y-31616666D01*
X-6216666Y-31464285D01*
X-6254761Y-31388095D01*
X-6292857Y-31350000D01*
X-6369047Y-31311904D01*
X-6978571Y-32111904D02*
X-6978571Y-31311904D01*
X-7054761Y-31807142D02*
X-7283333Y-32111904D01*
X-7283333Y-31578571D02*
X-6978571Y-31883333D01*
X6997571Y-11245904D02*
X6921380Y-11245904D01*
X6845190Y-11284000D01*
X6807095Y-11322095D01*
X6769000Y-11398285D01*
X6730904Y-11550666D01*
X6730904Y-11741142D01*
X6769000Y-11893523D01*
X6807095Y-11969714D01*
X6845190Y-12007809D01*
X6921380Y-12045904D01*
X6997571Y-12045904D01*
X7073761Y-12007809D01*
X7111857Y-11969714D01*
X7149952Y-11893523D01*
X7188047Y-11741142D01*
X7188047Y-11550666D01*
X7149952Y-11398285D01*
X7111857Y-11322095D01*
X7073761Y-11284000D01*
X6997571Y-11245904D01*
X6388047Y-11969714D02*
X6349952Y-12007809D01*
X6388047Y-12045904D01*
X6426142Y-12007809D01*
X6388047Y-11969714D01*
X6388047Y-12045904D01*
X5588047Y-12045904D02*
X6045190Y-12045904D01*
X5816619Y-12045904D02*
X5816619Y-11245904D01*
X5892809Y-11360190D01*
X5969000Y-11436380D01*
X6045190Y-11474476D01*
X5245190Y-11512571D02*
X5245190Y-12312571D01*
X4864238Y-11931619D02*
X4826142Y-12007809D01*
X4749952Y-12045904D01*
X5245190Y-11931619D02*
X5207095Y-12007809D01*
X5130904Y-12045904D01*
X4978523Y-12045904D01*
X4902333Y-12007809D01*
X4864238Y-11931619D01*
X4864238Y-11512571D01*
D11*
X-9905276Y-29957500D02*
X-10414724Y-29957500D01*
X-9905276Y-31002500D02*
X-10414724Y-31002500D01*
X7330000Y-27813000D02*
X7330000Y-28463000D01*
X10450000Y-27813000D02*
X10450000Y-28463000D01*
X7330000Y-27813000D02*
X7330000Y-26138000D01*
X10450000Y-27813000D02*
X10450000Y-27163000D01*
X1524724Y-29957500D02*
X1015276Y-29957500D01*
X1524724Y-31002500D02*
X1015276Y-31002500D01*
X8635276Y-25668500D02*
X9144724Y-25668500D01*
X8635276Y-24623500D02*
X9144724Y-24623500D01*
X2686267Y-6098000D02*
X2393733Y-6098000D01*
X2686267Y-5078000D02*
X2393733Y-5078000D01*
X-2794724Y-25668500D02*
X-2285276Y-25668500D01*
X-2794724Y-24623500D02*
X-2285276Y-24623500D01*
X12954724Y-24623500D02*
X12445276Y-24623500D01*
X12954724Y-25668500D02*
X12445276Y-25668500D01*
X1015276Y-25668500D02*
X1524724Y-25668500D01*
X1015276Y-24623500D02*
X1524724Y-24623500D01*
X-980000Y-27813000D02*
X-980000Y-28463000D01*
X-4100000Y-27813000D02*
X-4100000Y-28463000D01*
X-4100000Y-27813000D02*
X-4100000Y-26138000D01*
X-980000Y-27813000D02*
X-980000Y-27163000D01*
X-4699000Y-9108000D02*
X-3024000Y-9108000D01*
X-4699000Y-9108000D02*
X-5349000Y-9108000D01*
X-4699000Y-12228000D02*
X-5349000Y-12228000D01*
X-4699000Y-12228000D02*
X-4049000Y-12228000D01*
X-4790000Y-27813000D02*
X-4790000Y-27163000D01*
X-4790000Y-27813000D02*
X-4790000Y-28463000D01*
X-7910000Y-27813000D02*
X-7910000Y-28463000D01*
X-7910000Y-27813000D02*
X-7910000Y-26138000D01*
X9144724Y-31002500D02*
X8635276Y-31002500D01*
X9144724Y-29957500D02*
X8635276Y-29957500D01*
X-2285276Y-31002500D02*
X-2794724Y-31002500D01*
X-2285276Y-29957500D02*
X-2794724Y-29957500D01*
X-8600000Y-27813000D02*
X-8600000Y-28463000D01*
X-11720000Y-27813000D02*
X-11720000Y-28463000D01*
X-8600000Y-27813000D02*
X-8600000Y-27163000D01*
X-11720000Y-27813000D02*
X-11720000Y-26138000D01*
X4825276Y-24623500D02*
X5334724Y-24623500D01*
X4825276Y-25668500D02*
X5334724Y-25668500D01*
X-290000Y-27813000D02*
X-290000Y-26138000D01*
X-290000Y-27813000D02*
X-290000Y-28463000D01*
X2830000Y-27813000D02*
X2830000Y-27163000D01*
X2830000Y-27813000D02*
X2830000Y-28463000D01*
X-4699000Y-5679000D02*
X-5349000Y-5679000D01*
X-4699000Y-8799000D02*
X-4049000Y-8799000D01*
X-4699000Y-5679000D02*
X-3024000Y-5679000D01*
X-4699000Y-8799000D02*
X-5349000Y-8799000D01*
G36*
X2611291Y-16125247D02*
G01*
X2610824Y-16129856D01*
X2599287Y-16132432D01*
X2568701Y-16130376D01*
X2566287Y-16129681D01*
X2564209Y-16125408D01*
X2585985Y-16123383D01*
X2589311Y-16123364D01*
X2611291Y-16125247D01*
G37*
G36*
X-1093702Y-16543975D02*
G01*
X-1089514Y-16550356D01*
X-1094482Y-16553139D01*
X-1116426Y-16551465D01*
X-1122925Y-16546411D01*
X-1107943Y-16542982D01*
X-1093702Y-16543975D01*
G37*
G36*
X978302Y-19265809D02*
G01*
X977288Y-19273242D01*
X968941Y-19275170D01*
X967261Y-19273112D01*
X968941Y-19256449D01*
X973164Y-19254252D01*
X978302Y-19265809D01*
G37*
G36*
X3582786Y-15464310D02*
G01*
X3589910Y-15481785D01*
X3587619Y-15493377D01*
X3574816Y-15500155D01*
X3570653Y-15498248D01*
X3559722Y-15481785D01*
X3560310Y-15477910D01*
X3574816Y-15463415D01*
X3582786Y-15464310D01*
G37*
G36*
X161127Y-17733472D02*
G01*
X206052Y-17744591D01*
X209717Y-17746149D01*
X209088Y-17755978D01*
X181185Y-17770948D01*
X177283Y-17772539D01*
X140292Y-17782453D01*
X112871Y-17781816D01*
X109102Y-17780469D01*
X96602Y-17781927D01*
X100071Y-17803431D01*
X103367Y-17823265D01*
X91792Y-17833112D01*
X59851Y-17825145D01*
X49622Y-17818231D01*
X47801Y-17800573D01*
X51040Y-17794838D01*
X59623Y-17770453D01*
X60134Y-17766318D01*
X63504Y-17738695D01*
X64197Y-17736631D01*
X81883Y-17729147D01*
X116965Y-17728209D01*
X161127Y-17733472D01*
G37*
G36*
X2663210Y-16133858D02*
G01*
X2662671Y-16137934D01*
X2649169Y-16148728D01*
X2645992Y-16148567D01*
X2635129Y-16142536D01*
X2635775Y-16140284D01*
X2649169Y-16127667D01*
X2654608Y-16125473D01*
X2663210Y-16133858D01*
G37*
G36*
X2049612Y-17029166D02*
G01*
X2059451Y-17041154D01*
X2059086Y-17042555D01*
X2045410Y-17047346D01*
X2041562Y-17046774D01*
X2031370Y-17032476D01*
X2032472Y-17027398D01*
X2045410Y-17026285D01*
X2049612Y-17029166D01*
G37*
G36*
X297730Y-16107618D02*
G01*
X299658Y-16115966D01*
X297600Y-16117646D01*
X280937Y-16115966D01*
X278740Y-16111742D01*
X290297Y-16106605D01*
X297730Y-16107618D01*
G37*
G36*
X2399789Y-15306681D02*
G01*
X2410474Y-15320314D01*
X2410066Y-15323671D01*
X2396433Y-15334355D01*
X2393077Y-15333947D01*
X2382392Y-15320314D01*
X2382800Y-15316958D01*
X2396433Y-15306273D01*
X2399789Y-15306681D01*
G37*
G36*
X-1224236Y-17490799D02*
G01*
X-1213610Y-17499975D01*
X-1224180Y-17507709D01*
X-1237238Y-17509430D01*
X-1252762Y-17502109D01*
X-1250456Y-17488228D01*
X-1244907Y-17485647D01*
X-1224236Y-17490799D01*
G37*
G36*
X4633900Y-19401475D02*
G01*
X4660508Y-19406218D01*
X4667917Y-19406519D01*
X4674422Y-19410372D01*
X4662000Y-19416730D01*
X4637077Y-19423128D01*
X4606083Y-19427099D01*
X4601374Y-19427379D01*
X4571858Y-19427984D01*
X4566178Y-19423281D01*
X4580611Y-19410905D01*
X4600741Y-19400636D01*
X4626173Y-19398888D01*
X4633900Y-19401475D01*
G37*
G36*
X2582212Y-15320854D02*
G01*
X2593006Y-15334355D01*
X2592845Y-15337533D01*
X2586814Y-15348396D01*
X2584562Y-15347750D01*
X2571944Y-15334355D01*
X2569751Y-15328916D01*
X2578136Y-15320314D01*
X2582212Y-15320854D01*
G37*
G36*
X2152090Y-16621568D02*
G01*
X2160667Y-16626120D01*
X2171779Y-16641662D01*
X2161950Y-16652326D01*
X2140897Y-16652712D01*
X2123846Y-16642118D01*
X2120520Y-16633424D01*
X2128662Y-16620148D01*
X2152090Y-16621568D01*
G37*
G36*
X-188468Y-17148959D02*
G01*
X-184199Y-17169789D01*
X-184594Y-17171863D01*
X-177812Y-17185576D01*
X-155571Y-17183568D01*
X-124736Y-17166247D01*
X-103057Y-17153888D01*
X-70913Y-17145632D01*
X-56452Y-17147599D01*
X-50667Y-17160367D01*
X-69650Y-17184531D01*
X-113087Y-17219539D01*
X-125657Y-17228244D01*
X-166887Y-17249917D01*
X-194787Y-17252624D01*
X-195205Y-17252462D01*
X-210362Y-17241170D01*
X-200997Y-17222691D01*
X-193345Y-17210303D01*
X-197069Y-17201796D01*
X-204955Y-17194783D01*
X-208155Y-17170204D01*
X-203701Y-17151601D01*
X-192950Y-17145217D01*
X-188468Y-17148959D01*
G37*
G36*
X1799140Y-18460187D02*
G01*
X1810503Y-18466226D01*
X1817221Y-18481465D01*
X1802574Y-18494839D01*
X1770635Y-18500580D01*
X1741274Y-18495793D01*
X1725143Y-18476008D01*
X1724972Y-18475029D01*
X1732642Y-18456341D01*
X1759395Y-18450960D01*
X1799140Y-18460187D01*
G37*
G36*
X5042174Y-19197706D02*
G01*
X5046362Y-19204088D01*
X5041394Y-19206870D01*
X5019450Y-19205196D01*
X5012951Y-19200142D01*
X5027933Y-19196713D01*
X5042174Y-19197706D01*
G37*
G36*
X-1932988Y-18068765D02*
G01*
X-1893892Y-18085835D01*
X-1888873Y-18088026D01*
X-1856500Y-18111408D01*
X-1843921Y-18135024D01*
X-1837074Y-18148183D01*
X-1815839Y-18159724D01*
X-1812571Y-18161500D01*
X-1807231Y-18162981D01*
X-1790685Y-18172450D01*
X-1798530Y-18187008D01*
X-1813589Y-18207002D01*
X-1808545Y-18222151D01*
X-1777226Y-18227796D01*
X-1763558Y-18230332D01*
X-1727712Y-18250330D01*
X-1692707Y-18283175D01*
X-1666626Y-18320381D01*
X-1657552Y-18353460D01*
X-1652634Y-18370809D01*
X-1628820Y-18388851D01*
X-1611565Y-18395314D01*
X-1611191Y-18400328D01*
X-1636817Y-18405207D01*
X-1663243Y-18414722D01*
X-1675430Y-18431308D01*
X-1677236Y-18440197D01*
X-1692981Y-18451644D01*
X-1695567Y-18456842D01*
X-1677005Y-18469195D01*
X-1651978Y-18487202D01*
X-1651919Y-18501349D01*
X-1676134Y-18509395D01*
X-1722767Y-18509694D01*
X-1746401Y-18508488D01*
X-1775293Y-18510790D01*
X-1778702Y-18520223D01*
X-1756372Y-18537734D01*
X-1708048Y-18564273D01*
X-1640327Y-18598866D01*
X-1696309Y-18603422D01*
X-1707439Y-18604606D01*
X-1742760Y-18612409D01*
X-1761627Y-18623085D01*
X-1761806Y-18623353D01*
X-1780914Y-18630901D01*
X-1821556Y-18635733D01*
X-1877441Y-18637089D01*
X-1916331Y-18637519D01*
X-1963350Y-18641392D01*
X-1989967Y-18648434D01*
X-1993623Y-18657789D01*
X-1971761Y-18668603D01*
X-1955002Y-18676351D01*
X-1926034Y-18699722D01*
X-1917792Y-18710426D01*
X-1918766Y-18717264D01*
X-1942317Y-18711605D01*
X-1970715Y-18699028D01*
X-2006296Y-18674477D01*
X-2021282Y-18663536D01*
X-2047950Y-18654050D01*
X-2088590Y-18649304D01*
X-2150215Y-18648009D01*
X-2168354Y-18648100D01*
X-2217749Y-18649395D01*
X-2252203Y-18651906D01*
X-2265148Y-18655220D01*
X-2261557Y-18665388D01*
X-2248128Y-18689684D01*
X-2245986Y-18693279D01*
X-2238506Y-18719129D01*
X-2249153Y-18728989D01*
X-2273077Y-18717460D01*
X-2275222Y-18715821D01*
X-2306317Y-18702206D01*
X-2347131Y-18694176D01*
X-2400840Y-18688924D01*
X-2438870Y-18683122D01*
X-2462591Y-18675691D01*
X-2479162Y-18665054D01*
X-2482925Y-18662385D01*
X-2513314Y-18649587D01*
X-2554048Y-18639895D01*
X-2566848Y-18637736D01*
X-2619211Y-18623715D01*
X-2632255Y-18615247D01*
X-2442999Y-18615247D01*
X-2440941Y-18616928D01*
X-2424278Y-18615247D01*
X-2422081Y-18611024D01*
X-2433639Y-18605887D01*
X-2441072Y-18606900D01*
X-2442999Y-18615247D01*
X-2632255Y-18615247D01*
X-2653566Y-18601412D01*
X-2678283Y-18565835D01*
X-2698325Y-18533946D01*
X-2721622Y-18507480D01*
X-2725431Y-18504390D01*
X-2743843Y-18495600D01*
X-2757435Y-18508503D01*
X-2766136Y-18519200D01*
X-2770405Y-18511110D01*
X-2771619Y-18504625D01*
X-2786562Y-18493559D01*
X-2787788Y-18493469D01*
X-2808532Y-18482403D01*
X-2835019Y-18458474D01*
X-2835676Y-18457771D01*
X-2867456Y-18432051D01*
X-2898358Y-18418684D01*
X-2926363Y-18402885D01*
X-2951697Y-18367034D01*
X-2954741Y-18360969D01*
X-2975126Y-18329780D01*
X-2993719Y-18313736D01*
X-3004663Y-18312784D01*
X-3002709Y-18326757D01*
X-3001180Y-18330302D01*
X-3007757Y-18326125D01*
X-3026826Y-18304858D01*
X-3032210Y-18298076D01*
X-3043736Y-18278265D01*
X-1825199Y-18278265D01*
X-1823141Y-18279946D01*
X-1806478Y-18278265D01*
X-1804282Y-18274042D01*
X-1815839Y-18268905D01*
X-1823272Y-18269918D01*
X-1825199Y-18278265D01*
X-3043736Y-18278265D01*
X-3051003Y-18265775D01*
X-3051726Y-18261884D01*
X-3051439Y-18261884D01*
X-3044418Y-18268905D01*
X-3037398Y-18261884D01*
X-3044418Y-18254864D01*
X-3051439Y-18261884D01*
X-3051726Y-18261884D01*
X-3055585Y-18241122D01*
X-3059198Y-18219177D01*
X-3069480Y-18205060D01*
X-2023451Y-18205060D01*
X-2023351Y-18210477D01*
X-2006795Y-18221166D01*
X-1993327Y-18224881D01*
X-1976098Y-18223231D01*
X-1976199Y-18217813D01*
X-1980550Y-18215004D01*
X-1896060Y-18215004D01*
X-1894405Y-18224613D01*
X-1890070Y-18230850D01*
X-1878194Y-18240823D01*
X-1876231Y-18240686D01*
X-1873139Y-18232559D01*
X-1888213Y-18218421D01*
X-1896060Y-18215004D01*
X-1980550Y-18215004D01*
X-1992754Y-18207125D01*
X-2006223Y-18203410D01*
X-2023451Y-18205060D01*
X-3069480Y-18205060D01*
X-3078656Y-18192462D01*
X-3097990Y-18170232D01*
X-3107602Y-18147875D01*
X-3109766Y-18142537D01*
X-1907105Y-18142537D01*
X-1904231Y-18146371D01*
X-1896060Y-18150757D01*
X-1885215Y-18156578D01*
X-1882080Y-18156176D01*
X-1872002Y-18142537D01*
X-1874682Y-18135826D01*
X-1893892Y-18128496D01*
X-1903922Y-18130516D01*
X-1907105Y-18142537D01*
X-3109766Y-18142537D01*
X-3113364Y-18133663D01*
X-3135684Y-18114455D01*
X-3152787Y-18102308D01*
X-3163766Y-18085050D01*
X-3162720Y-18080238D01*
X-3149886Y-18079253D01*
X-3143222Y-18080325D01*
X-3144819Y-18064864D01*
X-3151316Y-18054158D01*
X-3162299Y-18055917D01*
X-3170895Y-18061730D01*
X-3194717Y-18052570D01*
X-3206368Y-18043158D01*
X-3209475Y-18030373D01*
X-3191118Y-18011781D01*
X-3177765Y-17999450D01*
X-3165993Y-17979089D01*
X-3173854Y-17956844D01*
X-3202378Y-17924743D01*
X-3207813Y-17919104D01*
X-3227540Y-17892311D01*
X-3223440Y-17879536D01*
X-3213854Y-17871798D01*
X-3205889Y-17846507D01*
X-3203921Y-17831328D01*
X-3194674Y-17819596D01*
X-3193484Y-17819188D01*
X-3188106Y-17802452D01*
X-3185279Y-17766758D01*
X-3184908Y-17719782D01*
X-3186895Y-17669200D01*
X-3191147Y-17622687D01*
X-3197566Y-17587921D01*
X-3209515Y-17545798D01*
X-3154457Y-17598451D01*
X-3131949Y-17618740D01*
X-3101554Y-17642034D01*
X-3082762Y-17651105D01*
X-3065364Y-17660292D01*
X-3044014Y-17684854D01*
X-3035469Y-17699116D01*
X-3029234Y-17720276D01*
X-3032593Y-17747692D01*
X-3045703Y-17791373D01*
X-3056570Y-17819946D01*
X-3075314Y-17855323D01*
X-3092064Y-17872677D01*
X-3104164Y-17877955D01*
X-3134006Y-17905356D01*
X-3142320Y-17948949D01*
X-3136736Y-17986092D01*
X-3120452Y-18000415D01*
X-3092150Y-17990464D01*
X-3078725Y-17983246D01*
X-3059215Y-17983688D01*
X-3044418Y-17997967D01*
X-3037092Y-18005036D01*
X-3018505Y-18032012D01*
X-3009783Y-18054781D01*
X-3005270Y-18063766D01*
X-2985794Y-18071563D01*
X-2963682Y-18070032D01*
X-2953152Y-18058291D01*
X-2953482Y-18054999D01*
X-2964939Y-18044250D01*
X-2979838Y-18035815D01*
X-2994584Y-18006327D01*
X-2995674Y-18001482D01*
X-2265148Y-18001482D01*
X-2259249Y-18011049D01*
X-2236008Y-18023525D01*
X-2229575Y-18025444D01*
X-2204812Y-18028514D01*
X-2204502Y-18020205D01*
X-2229986Y-18004709D01*
X-2254413Y-17997193D01*
X-2265148Y-18001482D01*
X-2995674Y-18001482D01*
X-3004307Y-17963094D01*
X-3007982Y-17913945D01*
X-3004585Y-17866705D01*
X-2993090Y-17829203D01*
X-2979204Y-17806707D01*
X-2977384Y-17804421D01*
X-2907323Y-17804421D01*
X-2906405Y-17825275D01*
X-2896750Y-17858483D01*
X-2877404Y-17910862D01*
X-2855974Y-17967025D01*
X-2858930Y-17895829D01*
X-2858955Y-17895360D01*
X-2148448Y-17895360D01*
X-2140757Y-17903841D01*
X-2132124Y-17904770D01*
X-2104826Y-17912364D01*
X-2092981Y-17914752D01*
X-2082616Y-17906981D01*
X-2084749Y-17900599D01*
X-2103331Y-17888322D01*
X-2128920Y-17883931D01*
X-2146615Y-17891118D01*
X-2148448Y-17895360D01*
X-2858955Y-17895360D01*
X-2860184Y-17872492D01*
X-2862473Y-17846056D01*
X-2258092Y-17846056D01*
X-2254413Y-17850973D01*
X-2248698Y-17858612D01*
X-2222243Y-17876178D01*
X-2205053Y-17882619D01*
X-2194943Y-17878507D01*
X-2204757Y-17865629D01*
X-2230940Y-17849825D01*
X-2248805Y-17843421D01*
X-2258092Y-17846056D01*
X-2862473Y-17846056D01*
X-2864259Y-17825424D01*
X-2869151Y-17792169D01*
X-2872628Y-17778326D01*
X-2880539Y-17768537D01*
X-2895380Y-17782555D01*
X-2900460Y-17789105D01*
X-2907323Y-17804421D01*
X-2977384Y-17804421D01*
X-2952187Y-17772781D01*
X-2924825Y-17746370D01*
X-2904777Y-17735593D01*
X-2899049Y-17734341D01*
X-2880539Y-17722230D01*
X-2874303Y-17718150D01*
X-2845923Y-17690514D01*
X-2835846Y-17677625D01*
X-2297546Y-17677625D01*
X-2291974Y-17703758D01*
X-2278977Y-17723804D01*
X-2248805Y-17734269D01*
X-2245687Y-17735350D01*
X-2220689Y-17737052D01*
X-2189071Y-17743873D01*
X-2174895Y-17748023D01*
X-2164901Y-17744506D01*
X-2171920Y-17730962D01*
X-2192722Y-17712116D01*
X-2224074Y-17692693D01*
X-2256383Y-17677414D01*
X-2286435Y-17668966D01*
X-2297546Y-17677625D01*
X-2835846Y-17677625D01*
X-2822607Y-17660693D01*
X-2813055Y-17637947D01*
X-2821192Y-17612445D01*
X-2840825Y-17580900D01*
X-2841230Y-17580381D01*
X-2860443Y-17552191D01*
X-2868595Y-17533248D01*
X-2862772Y-17535198D01*
X-2844398Y-17554590D01*
X-2817788Y-17587647D01*
X-2798378Y-17612434D01*
X-2776611Y-17635926D01*
X-2763150Y-17641070D01*
X-2753429Y-17630936D01*
X-2747598Y-17615722D01*
X-2747537Y-17588128D01*
X-2745459Y-17578451D01*
X-2251107Y-17578451D01*
X-2250236Y-17584268D01*
X-2231749Y-17603819D01*
X-2194904Y-17615803D01*
X-2147225Y-17617399D01*
X-2128920Y-17614627D01*
X-2103994Y-17610852D01*
X-2085091Y-17601535D01*
X-2092177Y-17590973D01*
X-2124316Y-17580463D01*
X-2180568Y-17571302D01*
X-2198416Y-17569471D01*
X-2237963Y-17569490D01*
X-2251107Y-17578451D01*
X-2745459Y-17578451D01*
X-2743414Y-17568931D01*
X-2721652Y-17547204D01*
X-2698553Y-17524907D01*
X-2683553Y-17493491D01*
X-2676665Y-17474022D01*
X-2661967Y-17464897D01*
X-2657890Y-17464283D01*
X-2643517Y-17447263D01*
X-2630636Y-17413987D01*
X-2626970Y-17399102D01*
X-2623714Y-17357817D01*
X-2626588Y-17349225D01*
X-2152821Y-17349225D01*
X-2145800Y-17356246D01*
X-2138780Y-17349225D01*
X-2145800Y-17342205D01*
X-2152821Y-17349225D01*
X-2626588Y-17349225D01*
X-2635863Y-17321498D01*
X-2646479Y-17296531D01*
X-2647005Y-17277609D01*
X-2195803Y-17277609D01*
X-2191433Y-17281679D01*
X-2177901Y-17283863D01*
X-2145800Y-17281894D01*
X-2142290Y-17281679D01*
X-2138306Y-17280366D01*
X-2141317Y-17276722D01*
X-2166861Y-17275258D01*
X-2176388Y-17275394D01*
X-2195803Y-17277609D01*
X-2647005Y-17277609D01*
X-2647235Y-17269353D01*
X-2634537Y-17231999D01*
X-2631463Y-17224766D01*
X-2612513Y-17186327D01*
X-2595389Y-17159673D01*
X-2587034Y-17143491D01*
X-2575854Y-17104744D01*
X-2567510Y-17056395D01*
X-2557616Y-16974178D01*
X-2520199Y-17009217D01*
X-2452041Y-17059162D01*
X-2433639Y-17066970D01*
X-2368132Y-17094766D01*
X-2286435Y-17106983D01*
X-2282837Y-17107521D01*
X-2254193Y-17108469D01*
X-2221651Y-17112837D01*
X-2208984Y-17119556D01*
X-2203731Y-17126544D01*
X-2198416Y-17127719D01*
X-2180902Y-17131591D01*
X-2166861Y-17129693D01*
X-2164600Y-17129387D01*
X-2152821Y-17119804D01*
X-2146092Y-17109547D01*
X-2120961Y-17093924D01*
X-2087343Y-17080885D01*
X-2056127Y-17075428D01*
X-2040642Y-17081574D01*
X-2017923Y-17105939D01*
X-2000725Y-17138650D01*
X-1996190Y-17168606D01*
X-1995150Y-17176796D01*
X-1978648Y-17192319D01*
X-1967909Y-17201382D01*
X-1966015Y-17229094D01*
X-1967788Y-17248708D01*
X-1959367Y-17275585D01*
X-1950244Y-17300591D01*
X-1945683Y-17345500D01*
X-1946317Y-17400367D01*
X-1952016Y-17456117D01*
X-1962649Y-17503675D01*
X-1965570Y-17514377D01*
X-1973047Y-17564628D01*
X-1976804Y-17628765D01*
X-1976761Y-17696369D01*
X-1972837Y-17757022D01*
X-1964950Y-17800304D01*
X-1963454Y-17825046D01*
X-1983865Y-17837584D01*
X-1992044Y-17840008D01*
X-2016319Y-17855630D01*
X-2017809Y-17879828D01*
X-1996018Y-17914448D01*
X-1950447Y-17961335D01*
X-1927185Y-17983356D01*
X-1890064Y-18021661D01*
X-1874748Y-18044029D01*
X-1880860Y-18051197D01*
X-1908019Y-18043903D01*
X-1941263Y-18035575D01*
X-1983655Y-18031154D01*
X-2024919Y-18031162D01*
X-2056182Y-18035574D01*
X-2068575Y-18044364D01*
X-2066044Y-18048281D01*
X-2044154Y-18054716D01*
X-2007116Y-18056193D01*
X-2006223Y-18056238D01*
X-1980795Y-18057514D01*
X-1932988Y-18068765D01*
G37*
G36*
X922138Y-15831150D02*
G01*
X921506Y-15833619D01*
X908097Y-15846848D01*
X903126Y-15849464D01*
X894056Y-15848506D01*
X894688Y-15846037D01*
X908097Y-15832807D01*
X913068Y-15830192D01*
X922138Y-15831150D01*
G37*
G36*
X2909339Y-16135700D02*
G01*
X2911266Y-16144048D01*
X2909208Y-16145728D01*
X2892545Y-16144048D01*
X2890349Y-16139824D01*
X2901906Y-16134687D01*
X2909339Y-16135700D01*
G37*
G36*
X199444Y-16191864D02*
G01*
X201371Y-16200211D01*
X199313Y-16201892D01*
X182650Y-16200211D01*
X180454Y-16195988D01*
X192011Y-16190851D01*
X199444Y-16191864D01*
G37*
G36*
X4039316Y-18560504D02*
G01*
X4069115Y-18567578D01*
X4081342Y-18574783D01*
X4079601Y-18581643D01*
X4062380Y-18604009D01*
X4036108Y-18624832D01*
X4012471Y-18634055D01*
X3986422Y-18639661D01*
X3951606Y-18654209D01*
X3949576Y-18655254D01*
X3891488Y-18675039D01*
X3834380Y-18678026D01*
X3788543Y-18663621D01*
X3786489Y-18662259D01*
X3776719Y-18646823D01*
X3786055Y-18620726D01*
X3787957Y-18617301D01*
X3803105Y-18600180D01*
X3827832Y-18593219D01*
X3871219Y-18593516D01*
X3871602Y-18593536D01*
X3929345Y-18590830D01*
X3964973Y-18575028D01*
X3987065Y-18562531D01*
X4035709Y-18559924D01*
X4039316Y-18560504D01*
G37*
G36*
X-1274851Y-17567873D02*
G01*
X-1272924Y-17576220D01*
X-1274982Y-17577900D01*
X-1291645Y-17576220D01*
X-1293842Y-17571997D01*
X-1282284Y-17566859D01*
X-1274851Y-17567873D01*
G37*
G36*
X4967809Y-18049692D02*
G01*
X4992876Y-18068822D01*
X5004984Y-18102277D01*
X4998752Y-18133233D01*
X4973824Y-18148928D01*
X4934440Y-18143914D01*
X4912055Y-18131931D01*
X4889823Y-18105006D01*
X4887057Y-18076335D01*
X4903438Y-18053542D01*
X4938642Y-18044250D01*
X4967809Y-18049692D01*
G37*
G36*
X-1059006Y-16648485D02*
G01*
X-1052580Y-16653462D01*
X-1059660Y-16662388D01*
X-1083272Y-16670511D01*
X-1116161Y-16676278D01*
X-1151072Y-16678137D01*
X-1180749Y-16674535D01*
X-1195560Y-16670064D01*
X-1203355Y-16664541D01*
X-1189227Y-16659035D01*
X-1150272Y-16651334D01*
X-1127075Y-16647834D01*
X-1085419Y-16645199D01*
X-1059006Y-16648485D01*
G37*
G36*
X5905727Y-15889187D02*
G01*
X5911458Y-15890354D01*
X5946331Y-15901567D01*
X5966086Y-15914831D01*
X5973091Y-15923270D01*
X5976649Y-15913543D01*
X5985514Y-15901995D01*
X6011967Y-15895992D01*
X6034163Y-15898978D01*
X6045243Y-15913839D01*
X6048623Y-15948645D01*
X6048742Y-15953038D01*
X6049017Y-15996796D01*
X6047859Y-16031053D01*
X6051020Y-16050906D01*
X6074876Y-16068479D01*
X6078406Y-16069479D01*
X6097212Y-16083295D01*
X6097610Y-16112560D01*
X6089962Y-16149667D01*
X6076728Y-16190038D01*
X6062633Y-16202731D01*
X6047165Y-16187999D01*
X6029810Y-16146095D01*
X6029667Y-16145666D01*
X6012172Y-16105070D01*
X5995077Y-16083931D01*
X5981660Y-16084479D01*
X5975202Y-16108945D01*
X5974535Y-16131099D01*
X5975202Y-16152238D01*
X5975173Y-16154857D01*
X5962823Y-16162769D01*
X5956514Y-16161350D01*
X5947362Y-16143202D01*
X5948286Y-16101688D01*
X5948301Y-16101544D01*
X5945253Y-16070633D01*
X5933907Y-16035333D01*
X5918671Y-16006321D01*
X5903953Y-15994278D01*
X5890767Y-15999256D01*
X5867250Y-16017641D01*
X5860535Y-16024088D01*
X5848344Y-16030263D01*
X5840328Y-16017605D01*
X5832152Y-15981670D01*
X5827234Y-15941876D01*
X5834810Y-15904563D01*
X5860531Y-15887558D01*
X5905727Y-15889187D01*
G37*
G36*
X1034Y-16202586D02*
G01*
X9414Y-16206835D01*
X39608Y-16211029D01*
X82598Y-16211462D01*
X111385Y-16210835D01*
X123353Y-16211928D01*
X109715Y-16214708D01*
X75222Y-16224636D01*
X56117Y-16245306D01*
X51831Y-16253074D01*
X26574Y-16271304D01*
X-10631Y-16285826D01*
X-48419Y-16292887D01*
X-75419Y-16288734D01*
X-79899Y-16286830D01*
X-112467Y-16286632D01*
X-165791Y-16297751D01*
X-236237Y-16319492D01*
X-292858Y-16336838D01*
X-339005Y-16346395D01*
X-367528Y-16346616D01*
X-374198Y-16336965D01*
X-368083Y-16327615D01*
X-343858Y-16312626D01*
X-343458Y-16312519D01*
X-335988Y-16307489D01*
X-355585Y-16304380D01*
X-371901Y-16303074D01*
X-380738Y-16298518D01*
X-365262Y-16287535D01*
X-347626Y-16280574D01*
X-320001Y-16280358D01*
X-307708Y-16281084D01*
X-287995Y-16266226D01*
X-287396Y-16265228D01*
X-262577Y-16249388D01*
X-217498Y-16242238D01*
X-208331Y-16241732D01*
X-172242Y-16234961D01*
X-159091Y-16222443D01*
X-157051Y-16214790D01*
X-139099Y-16204891D01*
X-129580Y-16204236D01*
X-98001Y-16196762D01*
X-95565Y-16195882D01*
X-82774Y-16197630D01*
X-85029Y-16220041D01*
X-93242Y-16251449D01*
X-62943Y-16221150D01*
X-45520Y-16205370D01*
X-17543Y-16191558D01*
X1034Y-16202586D01*
G37*
G36*
X1517435Y-17510148D02*
G01*
X1524595Y-17513208D01*
X1544908Y-17530412D01*
X1541387Y-17546001D01*
X1514538Y-17552604D01*
X1508505Y-17552359D01*
X1477338Y-17544104D01*
X1460229Y-17528337D01*
X1464054Y-17510759D01*
X1481718Y-17502791D01*
X1517435Y-17510148D01*
G37*
G36*
X599419Y-19018246D02*
G01*
X635405Y-19029054D01*
X660415Y-19040332D01*
X664280Y-19046892D01*
X645554Y-19051563D01*
X623740Y-19051631D01*
X595980Y-19045087D01*
X573189Y-19034714D01*
X562794Y-19024049D01*
X572221Y-19016631D01*
X599419Y-19018246D01*
G37*
G36*
X-1225627Y-16808879D02*
G01*
X-1224730Y-16817793D01*
X-1243993Y-16836732D01*
X-1244954Y-16837484D01*
X-1273808Y-16856812D01*
X-1293860Y-16864814D01*
X-1299060Y-16865841D01*
X-1313646Y-16881674D01*
X-1318990Y-16891109D01*
X-1329552Y-16881890D01*
X-1329961Y-16874352D01*
X-1315434Y-16854736D01*
X-1287954Y-16833230D01*
X-1255921Y-16815873D01*
X-1227737Y-16808703D01*
X-1225627Y-16808879D01*
G37*
G36*
X3651827Y-17842114D02*
G01*
X3664339Y-17848375D01*
X3672594Y-17865840D01*
X3653709Y-17889290D01*
X3637145Y-17898047D01*
X3613914Y-17893327D01*
X3603951Y-17868739D01*
X3605032Y-17859097D01*
X3621225Y-17840120D01*
X3651827Y-17842114D01*
G37*
G36*
X2718418Y-16166062D02*
G01*
X2763252Y-16173299D01*
X2810640Y-16183830D01*
X2761013Y-16188008D01*
X2760087Y-16188083D01*
X2715280Y-16186839D01*
X2676768Y-16178367D01*
X2642149Y-16164549D01*
X2679006Y-16163659D01*
X2718418Y-16166062D01*
G37*
G36*
X2550883Y-15699419D02*
G01*
X2549870Y-15706852D01*
X2541523Y-15708779D01*
X2539842Y-15706722D01*
X2541523Y-15690058D01*
X2545746Y-15687862D01*
X2550883Y-15699419D01*
G37*
G36*
X-495994Y-16499751D02*
G01*
X-497007Y-16507184D01*
X-505354Y-16509111D01*
X-507035Y-16507053D01*
X-505354Y-16490390D01*
X-501131Y-16488193D01*
X-495994Y-16499751D01*
G37*
G36*
X914075Y-16359898D02*
G01*
X922138Y-16373382D01*
X915198Y-16382091D01*
X890546Y-16387208D01*
X882934Y-16387052D01*
X868988Y-16383624D01*
X880015Y-16373382D01*
X891919Y-16366572D01*
X911607Y-16359556D01*
X914075Y-16359898D01*
G37*
G36*
X-2884056Y-17319973D02*
G01*
X-2885049Y-17334215D01*
X-2891431Y-17338402D01*
X-2894213Y-17333435D01*
X-2892539Y-17311490D01*
X-2887485Y-17304991D01*
X-2884056Y-17319973D01*
G37*
G36*
X1385488Y-19687036D02*
G01*
X1385385Y-19693794D01*
X1381213Y-19710797D01*
X1368639Y-19703885D01*
X1359019Y-19689294D01*
X1368639Y-19670187D01*
X1372069Y-19666962D01*
X1382656Y-19664719D01*
X1385488Y-19687036D01*
G37*
G36*
X220473Y-17608988D02*
G01*
X249996Y-17613238D01*
X262215Y-17623023D01*
X253930Y-17632152D01*
X227942Y-17637064D01*
X204345Y-17633892D01*
X184990Y-17623023D01*
X184713Y-17622541D01*
X191195Y-17612785D01*
X219264Y-17608982D01*
X220473Y-17608988D01*
G37*
G36*
X-3271891Y-17281903D02*
G01*
X-3262052Y-17293890D01*
X-3262417Y-17295292D01*
X-3276093Y-17300082D01*
X-3279942Y-17299511D01*
X-3290134Y-17285213D01*
X-3289032Y-17280134D01*
X-3276093Y-17279021D01*
X-3271891Y-17281903D01*
G37*
G36*
X746627Y-18119532D02*
G01*
X757312Y-18124634D01*
X768563Y-18138919D01*
X757782Y-18148866D01*
X729075Y-18147849D01*
X701217Y-18140247D01*
X684943Y-18133871D01*
X684774Y-18128139D01*
X700658Y-18120955D01*
X725080Y-18117202D01*
X746627Y-18119532D01*
G37*
G36*
X6138748Y-16472682D02*
G01*
X6140675Y-16481029D01*
X6138617Y-16482710D01*
X6121954Y-16481029D01*
X6119757Y-16476806D01*
X6131314Y-16471669D01*
X6138748Y-16472682D01*
G37*
G36*
X-406475Y-16319818D02*
G01*
X-407014Y-16334770D01*
X-410918Y-16341857D01*
X-420769Y-16370739D01*
X-421208Y-16372757D01*
X-435547Y-16396349D01*
X-461996Y-16424376D01*
X-490983Y-16447811D01*
X-512934Y-16457628D01*
X-516498Y-16449629D01*
X-503014Y-16429546D01*
X-488593Y-16410096D01*
X-488945Y-16401464D01*
X-489023Y-16401464D01*
X-488035Y-16393703D01*
X-470060Y-16375246D01*
X-449533Y-16353188D01*
X-439830Y-16333123D01*
X-437135Y-16325502D01*
X-417940Y-16317219D01*
X-406475Y-16319818D01*
G37*
G36*
X-1169957Y-16724405D02*
G01*
X-1170970Y-16731838D01*
X-1179318Y-16733766D01*
X-1180998Y-16731708D01*
X-1179318Y-16715044D01*
X-1175094Y-16712848D01*
X-1169957Y-16724405D01*
G37*
G36*
X-3198455Y-17975059D02*
G01*
X-3196528Y-17983406D01*
X-3198586Y-17985087D01*
X-3215249Y-17983406D01*
X-3217446Y-17979183D01*
X-3205889Y-17974046D01*
X-3198455Y-17975059D01*
G37*
G36*
X121806Y-16268076D02*
G01*
X114786Y-16275096D01*
X107765Y-16268076D01*
X114786Y-16261055D01*
X121806Y-16268076D01*
G37*
G36*
X5937410Y-16711948D02*
G01*
X5948783Y-16724405D01*
X5946406Y-16730864D01*
X5927721Y-16738446D01*
X5918032Y-16736862D01*
X5906660Y-16724405D01*
X5909036Y-16717946D01*
X5927721Y-16710364D01*
X5937410Y-16711948D01*
G37*
G36*
X-889139Y-16506771D02*
G01*
X-896159Y-16513791D01*
X-903180Y-16506771D01*
X-896159Y-16499751D01*
X-889139Y-16506771D01*
G37*
G36*
X-2868907Y-17503675D02*
G01*
X-2875927Y-17510696D01*
X-2882948Y-17503675D01*
X-2875927Y-17496655D01*
X-2868907Y-17503675D01*
G37*
G36*
X-1043589Y-16534853D02*
G01*
X-1050609Y-16541873D01*
X-1057630Y-16534853D01*
X-1050609Y-16527832D01*
X-1043589Y-16534853D01*
G37*
G36*
X-2984020Y-16322843D02*
G01*
X-2942532Y-16372786D01*
X-2890390Y-16458528D01*
X-2862190Y-16542526D01*
X-2860036Y-16556168D01*
X-2862592Y-16592424D01*
X-2883717Y-16623779D01*
X-2888346Y-16628877D01*
X-2904393Y-16654365D01*
X-2898626Y-16672220D01*
X-2887697Y-16680417D01*
X-2882948Y-16670582D01*
X-2879327Y-16667696D01*
X-2861504Y-16677741D01*
X-2833805Y-16702408D01*
X-2810789Y-16729503D01*
X-2788991Y-16770666D01*
X-2784352Y-16806285D01*
X-2798702Y-16829712D01*
X-2804212Y-16839280D01*
X-2810354Y-16870813D01*
X-2812743Y-16914786D01*
X-2813840Y-16945791D01*
X-2818441Y-16978493D01*
X-2825411Y-16991182D01*
X-2827505Y-16991541D01*
X-2841243Y-17007063D01*
X-2853707Y-17037305D01*
X-2861175Y-17070911D01*
X-2859928Y-17096528D01*
X-2858972Y-17102282D01*
X-2865406Y-17130985D01*
X-2883073Y-17166897D01*
X-2889223Y-17177667D01*
X-2904325Y-17215600D01*
X-2906815Y-17244478D01*
X-2904736Y-17260805D01*
X-2910781Y-17272000D01*
X-2912711Y-17271332D01*
X-2922591Y-17254188D01*
X-2931489Y-17221129D01*
X-2932054Y-17218211D01*
X-2943593Y-17174922D01*
X-2957623Y-17140393D01*
X-2968762Y-17120280D01*
X-2976790Y-17105614D01*
X-2979129Y-17104474D01*
X-2995255Y-17110518D01*
X-3001979Y-17122932D01*
X-2987411Y-17146564D01*
X-2974897Y-17166542D01*
X-2971535Y-17202841D01*
X-2973605Y-17228659D01*
X-2966430Y-17266988D01*
X-2965727Y-17268865D01*
X-2960849Y-17295950D01*
X-2974371Y-17309106D01*
X-2984008Y-17314717D01*
X-2995275Y-17334003D01*
X-3000225Y-17350720D01*
X-3017378Y-17378134D01*
X-3030401Y-17392481D01*
X-3031576Y-17389434D01*
X-3032488Y-17378339D01*
X-3051597Y-17366177D01*
X-3067734Y-17357705D01*
X-3079520Y-17335912D01*
X-3086495Y-17313109D01*
X-3106706Y-17283768D01*
X-3122890Y-17268688D01*
X-3145327Y-17261831D01*
X-3179006Y-17270315D01*
X-3183308Y-17271808D01*
X-3213623Y-17281908D01*
X-3228288Y-17286041D01*
X-3228193Y-17280167D01*
X-3222285Y-17254164D01*
X-3211190Y-17214429D01*
X-3203835Y-17186748D01*
X-3196677Y-17147738D01*
X-3196809Y-17124874D01*
X-3198346Y-17116270D01*
X-3189166Y-17092403D01*
X-3183977Y-17084475D01*
X-3184096Y-17082448D01*
X-2995275Y-17082448D01*
X-2988255Y-17089469D01*
X-2981234Y-17082448D01*
X-2988255Y-17075428D01*
X-2995275Y-17082448D01*
X-3184096Y-17082448D01*
X-3185386Y-17060483D01*
X-3197617Y-17052425D01*
X-3214666Y-17068435D01*
X-3224097Y-17079170D01*
X-3232882Y-17080618D01*
X-3240662Y-17067425D01*
X-3248552Y-17036285D01*
X-3250576Y-17024654D01*
X-3032627Y-17024654D01*
X-3025014Y-17033305D01*
X-3020896Y-17032781D01*
X-3002295Y-17019264D01*
X-3000046Y-17013874D01*
X-3007659Y-17005223D01*
X-3011777Y-17005747D01*
X-3030377Y-17019264D01*
X-3032627Y-17024654D01*
X-3250576Y-17024654D01*
X-3257668Y-16983892D01*
X-3269124Y-16906937D01*
X-3270465Y-16897665D01*
X-3276529Y-16856183D01*
X-3283528Y-16808742D01*
X-3287563Y-16780405D01*
X-3288593Y-16758516D01*
X-3281649Y-16756980D01*
X-3264470Y-16771360D01*
X-3239294Y-16788740D01*
X-3206453Y-16791361D01*
X-3179016Y-16767173D01*
X-3157483Y-16716711D01*
X-3148948Y-16673728D01*
X-3119437Y-16673728D01*
X-3116085Y-16692520D01*
X-3111292Y-16692303D01*
X-3108711Y-16674092D01*
X-3110959Y-16660290D01*
X-3117194Y-16665609D01*
X-3119437Y-16673728D01*
X-3148948Y-16673728D01*
X-3142352Y-16640510D01*
X-3137458Y-16603524D01*
X-3119437Y-16603524D01*
X-3116085Y-16622316D01*
X-3111292Y-16622099D01*
X-3110959Y-16619749D01*
X-3108711Y-16603887D01*
X-3110959Y-16590086D01*
X-3117194Y-16595404D01*
X-3119437Y-16603524D01*
X-3137458Y-16603524D01*
X-3132180Y-16563636D01*
X-3168698Y-16607035D01*
X-3181403Y-16621174D01*
X-3210321Y-16642068D01*
X-3240480Y-16643694D01*
X-3265428Y-16643056D01*
X-3284410Y-16659537D01*
X-3290290Y-16670430D01*
X-3303645Y-16674873D01*
X-3314302Y-16659137D01*
X-3317035Y-16628237D01*
X-3317530Y-16596130D01*
X-3324657Y-16552435D01*
X-3328982Y-16520772D01*
X-3324536Y-16489251D01*
X-3319471Y-16474307D01*
X-3316617Y-16447097D01*
X-3316551Y-16440238D01*
X-3304790Y-16429546D01*
X-3296079Y-16435280D01*
X-3290134Y-16458631D01*
X-3289913Y-16462510D01*
X-3280510Y-16490522D01*
X-3263038Y-16516435D01*
X-3245504Y-16527832D01*
X-3245170Y-16527707D01*
X-3242357Y-16513281D01*
X-3241461Y-16482199D01*
X-3241470Y-16480205D01*
X-3238191Y-16446766D01*
X-3230227Y-16428283D01*
X-3222341Y-16415621D01*
X-3215977Y-16386202D01*
X-3211739Y-16368013D01*
X-3194678Y-16338463D01*
X-3171047Y-16315155D01*
X-3147683Y-16304133D01*
X-3131424Y-16311443D01*
X-3121270Y-16320238D01*
X-3110959Y-16319917D01*
X-3097816Y-16319508D01*
X-3075449Y-16304931D01*
X-3065480Y-16281622D01*
X-3062780Y-16266550D01*
X-3049667Y-16263881D01*
X-3024018Y-16282339D01*
X-3007659Y-16298905D01*
X-2988255Y-16318554D01*
X-2984020Y-16322843D01*
G37*
G36*
X1441197Y-18409071D02*
G01*
X1459320Y-18423470D01*
X1465543Y-18441856D01*
X1451482Y-18452756D01*
X1421334Y-18455050D01*
X1386980Y-18447676D01*
X1359754Y-18431720D01*
X1350841Y-18421795D01*
X1350812Y-18410414D01*
X1374968Y-18401917D01*
X1404121Y-18399845D01*
X1441197Y-18409071D01*
G37*
G36*
X3026105Y-19004712D02*
G01*
X3032342Y-19009046D01*
X3042315Y-19020922D01*
X3042178Y-19022885D01*
X3034050Y-19025977D01*
X3019913Y-19010903D01*
X3016496Y-19003057D01*
X3026105Y-19004712D01*
G37*
G36*
X3211729Y-18255358D02*
G01*
X3233793Y-18272586D01*
X3234436Y-18292461D01*
X3207296Y-18309821D01*
X3205828Y-18310359D01*
X3167569Y-18313675D01*
X3138257Y-18298211D01*
X3126560Y-18268411D01*
X3126926Y-18263479D01*
X3141298Y-18244484D01*
X3171773Y-18241439D01*
X3211729Y-18255358D01*
G37*
G36*
X2873824Y-16141707D02*
G01*
X2866804Y-16148728D01*
X2859783Y-16141707D01*
X2866804Y-16134687D01*
X2873824Y-16141707D01*
G37*
G36*
X5920701Y-16211912D02*
G01*
X5913680Y-16218932D01*
X5906660Y-16211912D01*
X5913680Y-16204891D01*
X5920701Y-16211912D01*
G37*
G36*
X-964681Y-16528574D02*
G01*
X-961371Y-16535900D01*
X-981134Y-16547231D01*
X-992086Y-16549691D01*
X-994346Y-16541712D01*
X-991596Y-16538030D01*
X-972556Y-16527832D01*
X-964681Y-16528574D01*
G37*
G36*
X5687683Y-17628480D02*
G01*
X5685353Y-17633287D01*
X5668148Y-17648140D01*
X5648963Y-17650122D01*
X5639883Y-17637064D01*
X5640035Y-17633891D01*
X5645755Y-17623023D01*
X5651538Y-17621910D01*
X5673996Y-17614439D01*
X5688839Y-17612451D01*
X5687683Y-17628480D01*
G37*
G36*
X6045960Y-17025114D02*
G01*
X6044968Y-17039356D01*
X6038586Y-17043543D01*
X6035803Y-17038576D01*
X6037477Y-17016631D01*
X6042531Y-17010132D01*
X6045960Y-17025114D01*
G37*
G36*
X-1240162Y-17349225D02*
G01*
X-1247182Y-17356246D01*
X-1254203Y-17349225D01*
X-1247182Y-17342205D01*
X-1240162Y-17349225D01*
G37*
G36*
X2431535Y-15354717D02*
G01*
X2456920Y-15354542D01*
X2487699Y-15372272D01*
X2494162Y-15375995D01*
X2523942Y-15394310D01*
X2550063Y-15396669D01*
X2556739Y-15394475D01*
X2573033Y-15391071D01*
X2590231Y-15387479D01*
X2633385Y-15381717D01*
X2643016Y-15380452D01*
X2677144Y-15372464D01*
X2679482Y-15371646D01*
X2710418Y-15360828D01*
X2736331Y-15348488D01*
X2748377Y-15338386D01*
X2740049Y-15333465D01*
X2739163Y-15329534D01*
X2758126Y-15319825D01*
X2779101Y-15314737D01*
X2824324Y-15320179D01*
X2836382Y-15323104D01*
X2848390Y-15326016D01*
X2866670Y-15320530D01*
X2867509Y-15319711D01*
X2887832Y-15315430D01*
X2929998Y-15313040D01*
X2988651Y-15312460D01*
X2993853Y-15312546D01*
X3058436Y-15313613D01*
X3133994Y-15316417D01*
X3209971Y-15320795D01*
X3281010Y-15326666D01*
X3322360Y-15331122D01*
X3400614Y-15341369D01*
X3475759Y-15353281D01*
X3542835Y-15365884D01*
X3596884Y-15378210D01*
X3632950Y-15389287D01*
X3646074Y-15398144D01*
X3642448Y-15415955D01*
X3624688Y-15422259D01*
X3589246Y-15409144D01*
X3587214Y-15408148D01*
X3555448Y-15396874D01*
X3534896Y-15396829D01*
X3529766Y-15398776D01*
X3512827Y-15390748D01*
X3504585Y-15381207D01*
X3482786Y-15379879D01*
X3452905Y-15404141D01*
X3443819Y-15412851D01*
X3416207Y-15425464D01*
X3375412Y-15423410D01*
X3366971Y-15421859D01*
X3338606Y-15412135D01*
X3332628Y-15400556D01*
X3332708Y-15392615D01*
X3313068Y-15393548D01*
X3310137Y-15394282D01*
X3291347Y-15393728D01*
X3291448Y-15374698D01*
X3292271Y-15357798D01*
X3276068Y-15348396D01*
X3264393Y-15351366D01*
X3261780Y-15369166D01*
X3261001Y-15378100D01*
X3243075Y-15386140D01*
X3211824Y-15387045D01*
X3175547Y-15381640D01*
X3142544Y-15370748D01*
X3121114Y-15355195D01*
X3100318Y-15338548D01*
X3065561Y-15339573D01*
X3046976Y-15345950D01*
X3031876Y-15363095D01*
X3028274Y-15397807D01*
X3029405Y-15413547D01*
X3040261Y-15441099D01*
X3058124Y-15448781D01*
X3077417Y-15432642D01*
X3090803Y-15422410D01*
X3117728Y-15418492D01*
X3143278Y-15424631D01*
X3154642Y-15439662D01*
X3153058Y-15449351D01*
X3140601Y-15460723D01*
X3136753Y-15461295D01*
X3126560Y-15475593D01*
X3128656Y-15481397D01*
X3143720Y-15479857D01*
X3146566Y-15478442D01*
X3174691Y-15473203D01*
X3213925Y-15473082D01*
X3224003Y-15473563D01*
X3254636Y-15471144D01*
X3266969Y-15463391D01*
X3267430Y-15461385D01*
X3283535Y-15451005D01*
X3314443Y-15443083D01*
X3348933Y-15439722D01*
X3375786Y-15443020D01*
X3384637Y-15449760D01*
X3393338Y-15474273D01*
X3386420Y-15491683D01*
X3358641Y-15497343D01*
X3335249Y-15499350D01*
X3320028Y-15508321D01*
X3325124Y-15511997D01*
X3352405Y-15516529D01*
X3398112Y-15519615D01*
X3456522Y-15520735D01*
X3508754Y-15521291D01*
X3564576Y-15524511D01*
X3600478Y-15531135D01*
X3621245Y-15541775D01*
X3629521Y-15547809D01*
X3661055Y-15556835D01*
X3710194Y-15554038D01*
X3737898Y-15552267D01*
X3806993Y-15558531D01*
X3880174Y-15576061D01*
X3944253Y-15602146D01*
X3970823Y-15610783D01*
X4009777Y-15615173D01*
X4039781Y-15619040D01*
X4055600Y-15628764D01*
X4060718Y-15634514D01*
X4081218Y-15629353D01*
X4084190Y-15627318D01*
X4089958Y-15615577D01*
X4078900Y-15597201D01*
X4048266Y-15566990D01*
X4026719Y-15548459D01*
X4006808Y-15535095D01*
X4002316Y-15538319D01*
X4004452Y-15548746D01*
X3996656Y-15559010D01*
X3992171Y-15558089D01*
X3983056Y-15542629D01*
X3982301Y-15536975D01*
X3973646Y-15535658D01*
X3958044Y-15536154D01*
X3931193Y-15523417D01*
X3904597Y-15509485D01*
X3880929Y-15503970D01*
X3862022Y-15505347D01*
X3832646Y-15496772D01*
X3814565Y-15467744D01*
X3798430Y-15445121D01*
X3774706Y-15433060D01*
X3753525Y-15435289D01*
X3744360Y-15453703D01*
X3742776Y-15463392D01*
X3730319Y-15474764D01*
X3721164Y-15471877D01*
X3717348Y-15456535D01*
X3730548Y-15439521D01*
X3738709Y-15428010D01*
X3728581Y-15408805D01*
X3697290Y-15389705D01*
X3687060Y-15383875D01*
X3693623Y-15380840D01*
X3718834Y-15382581D01*
X3757677Y-15388323D01*
X3805136Y-15397295D01*
X3856192Y-15408722D01*
X3905831Y-15421834D01*
X4012761Y-15458237D01*
X4123549Y-15508608D01*
X4219615Y-15566233D01*
X4296510Y-15628400D01*
X4349785Y-15692398D01*
X4368091Y-15737501D01*
X4376148Y-15807875D01*
X4375752Y-15836670D01*
X4371361Y-15868690D01*
X4358607Y-15887783D01*
X4333221Y-15903455D01*
X4328819Y-15905533D01*
X4286330Y-15917655D01*
X4221733Y-15927680D01*
X4140159Y-15934776D01*
X4106731Y-15936777D01*
X4056717Y-15939546D01*
X4012065Y-15941492D01*
X3967201Y-15942701D01*
X3916552Y-15943257D01*
X3854544Y-15943246D01*
X3775603Y-15942751D01*
X3674156Y-15941858D01*
X3590931Y-15941308D01*
X3478761Y-15941261D01*
X3373703Y-15941983D01*
X3279252Y-15943397D01*
X3198902Y-15945431D01*
X3136147Y-15948010D01*
X3094483Y-15951060D01*
X3077405Y-15954508D01*
X3075574Y-15955660D01*
X3053579Y-15956489D01*
X3018795Y-15949685D01*
X3014027Y-15948482D01*
X2972551Y-15945141D01*
X2931601Y-15951308D01*
X2900323Y-15964663D01*
X2887865Y-15982887D01*
X2882040Y-15989121D01*
X2859838Y-15987275D01*
X2852104Y-15985654D01*
X2811491Y-15988212D01*
X2756622Y-16002410D01*
X2695366Y-16026376D01*
X2666955Y-16032351D01*
X2614452Y-16031636D01*
X2537405Y-16023197D01*
X2466687Y-16015893D01*
X2400457Y-16013719D01*
X2346954Y-16016820D01*
X2311183Y-16024892D01*
X2298147Y-16037635D01*
X2289996Y-16045929D01*
X2264122Y-16050442D01*
X2259248Y-16050752D01*
X2224380Y-16062432D01*
X2188117Y-16085765D01*
X2166005Y-16102188D01*
X2130069Y-16116005D01*
X2081802Y-16117357D01*
X2052224Y-16114999D01*
X2024380Y-16108611D01*
X2020596Y-16097192D01*
X2038390Y-16078523D01*
X2049922Y-16067222D01*
X2059451Y-16050517D01*
X2058308Y-16048544D01*
X2039624Y-16039859D01*
X2005167Y-16030016D01*
X1964220Y-16021389D01*
X1926063Y-16016358D01*
X1924365Y-16015993D01*
X1906968Y-16001647D01*
X1885830Y-15973217D01*
X1882869Y-15968470D01*
X1864699Y-15940105D01*
X1854579Y-15925584D01*
X1851165Y-15925877D01*
X1832669Y-15938651D01*
X1804903Y-15963695D01*
X1785046Y-15981749D01*
X1757090Y-15998191D01*
X1741407Y-15990430D01*
X1736511Y-15958347D01*
X1732797Y-15933781D01*
X1718510Y-15925409D01*
X1695678Y-15943580D01*
X1681628Y-15954997D01*
X1651325Y-15967647D01*
X1620968Y-15972158D01*
X1602773Y-15965631D01*
X1591386Y-15958093D01*
X1566916Y-15962824D01*
X1541240Y-15981410D01*
X1523626Y-16008797D01*
X1522749Y-16011256D01*
X1506664Y-16037567D01*
X1483622Y-16040429D01*
X1473308Y-16039979D01*
X1438885Y-16050483D01*
X1396705Y-16073995D01*
X1366085Y-16093644D01*
X1328446Y-16114341D01*
X1288479Y-16131219D01*
X1242965Y-16144762D01*
X1188685Y-16155458D01*
X1122419Y-16163793D01*
X1040949Y-16170251D01*
X941055Y-16175320D01*
X819517Y-16179485D01*
X673117Y-16183233D01*
X619615Y-16184194D01*
X541569Y-16184405D01*
X480273Y-16182985D01*
X439495Y-16180046D01*
X423001Y-16175702D01*
X421993Y-16167638D01*
X436756Y-16154178D01*
X446970Y-16147961D01*
X450792Y-16133108D01*
X450591Y-16120819D01*
X464913Y-16098474D01*
X483209Y-16074918D01*
X482092Y-16059802D01*
X505591Y-16059802D01*
X507649Y-16061483D01*
X524312Y-16059802D01*
X526509Y-16055579D01*
X514952Y-16050442D01*
X507518Y-16051455D01*
X505591Y-16059802D01*
X482092Y-16059802D01*
X481861Y-16056683D01*
X455278Y-16050227D01*
X433815Y-16047902D01*
X426620Y-16045421D01*
X543565Y-16045421D01*
X546836Y-16058925D01*
X551137Y-16061600D01*
X573056Y-16061495D01*
X583631Y-16055353D01*
X573000Y-16044586D01*
X557465Y-16039814D01*
X543565Y-16045421D01*
X426620Y-16045421D01*
X404265Y-16037712D01*
X399014Y-16033440D01*
X402669Y-16024057D01*
X432098Y-16015033D01*
X451544Y-16010383D01*
X484076Y-16001298D01*
X711524Y-16001298D01*
X718545Y-16008319D01*
X725565Y-16001298D01*
X718545Y-15994278D01*
X711524Y-16001298D01*
X484076Y-16001298D01*
X510421Y-15993941D01*
X514952Y-15992528D01*
X557465Y-15979266D01*
X577809Y-15972920D01*
X641795Y-15951132D01*
X690463Y-15932387D01*
X698931Y-15928752D01*
X718545Y-15920722D01*
X759147Y-15904100D01*
X800695Y-15890249D01*
X829353Y-15885621D01*
X850898Y-15888643D01*
X861718Y-15892636D01*
X878675Y-15906329D01*
X869477Y-15918782D01*
X835464Y-15926694D01*
X834125Y-15926834D01*
X801661Y-15935623D01*
X784659Y-15950118D01*
X783998Y-15952330D01*
X787749Y-15962784D01*
X811660Y-15958217D01*
X837243Y-15952308D01*
X877994Y-15949689D01*
X901709Y-15946810D01*
X903017Y-15931088D01*
X902593Y-15916897D01*
X921385Y-15894085D01*
X960022Y-15874802D01*
X1013404Y-15862231D01*
X1033702Y-15859728D01*
X1047822Y-15859735D01*
X1034539Y-15865318D01*
X1009103Y-15878890D01*
X995144Y-15898251D01*
X997913Y-15914662D01*
X1019550Y-15920279D01*
X1036647Y-15917140D01*
X1048506Y-15908567D01*
X1059293Y-15899105D01*
X1087119Y-15888762D01*
X1088452Y-15888401D01*
X1109470Y-15879417D01*
X1108180Y-15872029D01*
X1101686Y-15868661D01*
X1090629Y-15851870D01*
X1091245Y-15847966D01*
X1102857Y-15845728D01*
X1102992Y-15845809D01*
X1121196Y-15842716D01*
X1147569Y-15825113D01*
X1177677Y-15804171D01*
X1212566Y-15788780D01*
X1233234Y-15780529D01*
X1245079Y-15767273D01*
X1246143Y-15762846D01*
X1259120Y-15762603D01*
X1266189Y-15764062D01*
X1273161Y-15750027D01*
X1273161Y-15749996D01*
X1286330Y-15731981D01*
X1322304Y-15719554D01*
X1328987Y-15718184D01*
X1359179Y-15708384D01*
X1371447Y-15697856D01*
X1376703Y-15690610D01*
X1399529Y-15685378D01*
X1415847Y-15682829D01*
X1421464Y-15677552D01*
X2428857Y-15677552D01*
X2429068Y-15694500D01*
X2451768Y-15699419D01*
X2467895Y-15701664D01*
X2487699Y-15713460D01*
X2501902Y-15722528D01*
X2533222Y-15727098D01*
X2566112Y-15723857D01*
X2586338Y-15712889D01*
X2598375Y-15705942D01*
X2625669Y-15707894D01*
X2637302Y-15711353D01*
X2647982Y-15710733D01*
X2636958Y-15694603D01*
X2629986Y-15684365D01*
X2624437Y-15656658D01*
X2636794Y-15637696D01*
X2663141Y-15636213D01*
X2680203Y-15639716D01*
X2691292Y-15635866D01*
X2685940Y-15629033D01*
X2663210Y-15619242D01*
X2646793Y-15612881D01*
X2635129Y-15601017D01*
X2624388Y-15590810D01*
X2605984Y-15583966D01*
X2670468Y-15583966D01*
X2690033Y-15583353D01*
X2709222Y-15582457D01*
X2708917Y-15598005D01*
X2706329Y-15609822D01*
X2716018Y-15610227D01*
X2729881Y-15604958D01*
X2739053Y-15612228D01*
X2734621Y-15629858D01*
X2716485Y-15649315D01*
X2708601Y-15655025D01*
X2696479Y-15667757D01*
X2707727Y-15671337D01*
X2720036Y-15668390D01*
X2739064Y-15648786D01*
X2752183Y-15634133D01*
X2782689Y-15635013D01*
X2806125Y-15637441D01*
X2817660Y-15629482D01*
X2815282Y-15622897D01*
X2796599Y-15615173D01*
X2786947Y-15613893D01*
X2775538Y-15603733D01*
X2774828Y-15601433D01*
X2758576Y-15586931D01*
X2745933Y-15579789D01*
X2834701Y-15579789D01*
X2836382Y-15596452D01*
X2840605Y-15598649D01*
X2845742Y-15587092D01*
X2844729Y-15579658D01*
X2836382Y-15577731D01*
X2834701Y-15579789D01*
X2745933Y-15579789D01*
X2727591Y-15569428D01*
X2726224Y-15568778D01*
X2694953Y-15555468D01*
X2679482Y-15555428D01*
X2671218Y-15568520D01*
X2670468Y-15583966D01*
X2605984Y-15583966D01*
X2596516Y-15580445D01*
X2573033Y-15577291D01*
X2548768Y-15586558D01*
X2520825Y-15615167D01*
X2514448Y-15622566D01*
X2488600Y-15645296D01*
X2473845Y-15643557D01*
X2463229Y-15637164D01*
X2444675Y-15652946D01*
X2428857Y-15677552D01*
X1421464Y-15677552D01*
X1427611Y-15671778D01*
X1430203Y-15666103D01*
X1447647Y-15665866D01*
X1461120Y-15665752D01*
X1460502Y-15650276D01*
X2298147Y-15650276D01*
X2305167Y-15657296D01*
X2312188Y-15650276D01*
X2305167Y-15643255D01*
X2298147Y-15650276D01*
X1460502Y-15650276D01*
X1460305Y-15645336D01*
X1452263Y-15629720D01*
X1434668Y-15624123D01*
X1426480Y-15625809D01*
X1408133Y-15617736D01*
X1406685Y-15613850D01*
X1415740Y-15602939D01*
X1438848Y-15597608D01*
X1465271Y-15599123D01*
X1484271Y-15608752D01*
X1491291Y-15621330D01*
X1480850Y-15633761D01*
X1472458Y-15638891D01*
X1485108Y-15642147D01*
X1505512Y-15636319D01*
X1523998Y-15622194D01*
X2424515Y-15622194D01*
X2431535Y-15629214D01*
X2438556Y-15622194D01*
X2431535Y-15615173D01*
X2424515Y-15622194D01*
X1523998Y-15622194D01*
X1532315Y-15615839D01*
X1554198Y-15599068D01*
X1594165Y-15595742D01*
X1623617Y-15595889D01*
X1662434Y-15573805D01*
X1679093Y-15559365D01*
X1715452Y-15537048D01*
X2186195Y-15537048D01*
X2194486Y-15558861D01*
X2196899Y-15560744D01*
X2222005Y-15571254D01*
X2259534Y-15580541D01*
X2286557Y-15584815D01*
X2305167Y-15581799D01*
X2305488Y-15581747D01*
X2308768Y-15566030D01*
X2480679Y-15566030D01*
X2487699Y-15573051D01*
X2494719Y-15566030D01*
X2487699Y-15559010D01*
X2480679Y-15566030D01*
X2308768Y-15566030D01*
X2309351Y-15563234D01*
X2302657Y-15523287D01*
X2297884Y-15509095D01*
X2281792Y-15499237D01*
X2247327Y-15500377D01*
X2234312Y-15502550D01*
X2201033Y-15516549D01*
X2186195Y-15537048D01*
X1715452Y-15537048D01*
X1726574Y-15530221D01*
X1746054Y-15523908D01*
X1890961Y-15523908D01*
X1897981Y-15530928D01*
X1905001Y-15523908D01*
X1897981Y-15516887D01*
X1890961Y-15523908D01*
X1746054Y-15523908D01*
X1786312Y-15510861D01*
X1866074Y-15498409D01*
X1872233Y-15497654D01*
X1885806Y-15494643D01*
X2993853Y-15494643D01*
X2994835Y-15509137D01*
X2999697Y-15519914D01*
X3008715Y-15530928D01*
X3013946Y-15527036D01*
X3011992Y-15510943D01*
X3000353Y-15495925D01*
X2993853Y-15494643D01*
X1885806Y-15494643D01*
X1897981Y-15491942D01*
X1911294Y-15488989D01*
X1937298Y-15477093D01*
X1953010Y-15470132D01*
X1991012Y-15462189D01*
X2039116Y-15457561D01*
X2056995Y-15456405D01*
X2120412Y-15444393D01*
X2124391Y-15442002D01*
X2260704Y-15442002D01*
X2262762Y-15443683D01*
X2279426Y-15442002D01*
X2281622Y-15437779D01*
X2270065Y-15432642D01*
X2262632Y-15433655D01*
X2260704Y-15442002D01*
X2124391Y-15442002D01*
X2151298Y-15425835D01*
X2191519Y-15425835D01*
X2206052Y-15432642D01*
X2216514Y-15430923D01*
X2227942Y-15418601D01*
X2227564Y-15415269D01*
X2214730Y-15404560D01*
X2210791Y-15405095D01*
X2192840Y-15418601D01*
X2191519Y-15425835D01*
X2151298Y-15425835D01*
X2158849Y-15421298D01*
X2171779Y-15387398D01*
X2174969Y-15370253D01*
X2189837Y-15363963D01*
X2212642Y-15381981D01*
X2214730Y-15383845D01*
X2225398Y-15393369D01*
X2250909Y-15406535D01*
X2270065Y-15410509D01*
X2274031Y-15411332D01*
X2281792Y-15406004D01*
X2284106Y-15404415D01*
X2282830Y-15399628D01*
X2280269Y-15397539D01*
X2298147Y-15397539D01*
X2300488Y-15407343D01*
X2318380Y-15418601D01*
X2328611Y-15415978D01*
X2371566Y-15415978D01*
X2371779Y-15424509D01*
X2388239Y-15424129D01*
X2399224Y-15418112D01*
X2410474Y-15401888D01*
X2410438Y-15400846D01*
X2401354Y-15392657D01*
X2384428Y-15399138D01*
X2371566Y-15415978D01*
X2328611Y-15415978D01*
X2339182Y-15413268D01*
X2346684Y-15398868D01*
X2332020Y-15384970D01*
X2314715Y-15378873D01*
X2300793Y-15379772D01*
X2298147Y-15397539D01*
X2280269Y-15397539D01*
X2266555Y-15386352D01*
X2266306Y-15386259D01*
X2258342Y-15375553D01*
X2273057Y-15354610D01*
X2282646Y-15345427D01*
X2304094Y-15336803D01*
X2314715Y-15340144D01*
X2334188Y-15346269D01*
X2371478Y-15355536D01*
X2401354Y-15355056D01*
X2415704Y-15354826D01*
X2431535Y-15354717D01*
G37*
G36*
X2803619Y-19048175D02*
G01*
X2796599Y-19055196D01*
X2789579Y-19048175D01*
X2796599Y-19041155D01*
X2803619Y-19048175D01*
G37*
G36*
X3256837Y-18534499D02*
G01*
X3261958Y-18536461D01*
X3288608Y-18549252D01*
X3291421Y-18562401D01*
X3272987Y-18583822D01*
X3266689Y-18589403D01*
X3230963Y-18604446D01*
X3194556Y-18600342D01*
X3168650Y-18577744D01*
X3164453Y-18569148D01*
X3163738Y-18549650D01*
X3186105Y-18534785D01*
X3210020Y-18527699D01*
X3256837Y-18534499D01*
G37*
G36*
X5887978Y-17155193D02*
G01*
X5910055Y-17184245D01*
X5927263Y-17214710D01*
X5933433Y-17237141D01*
X5922420Y-17243919D01*
X5911944Y-17240681D01*
X5890174Y-17217167D01*
X5872330Y-17177224D01*
X5868514Y-17159898D01*
X5872859Y-17146840D01*
X5887978Y-17155193D01*
G37*
G36*
X725467Y-17892359D02*
G01*
X750839Y-17906649D01*
X761095Y-17918762D01*
X765966Y-17938438D01*
X747775Y-17945964D01*
X727522Y-17944082D01*
X695921Y-17930915D01*
X683443Y-17909359D01*
X684228Y-17904133D01*
X699457Y-17891673D01*
X725467Y-17892359D01*
G37*
G36*
X-1549062Y-18514621D02*
G01*
X-1556082Y-18521641D01*
X-1563103Y-18514621D01*
X-1556082Y-18507600D01*
X-1549062Y-18514621D01*
G37*
G36*
X741904Y-16766535D02*
G01*
X769222Y-16770625D01*
X774708Y-16780569D01*
X761487Y-16789433D01*
X731757Y-16794610D01*
X709474Y-16791215D01*
X697483Y-16780569D01*
X697500Y-16780173D01*
X710503Y-16770522D01*
X740435Y-16766528D01*
X741904Y-16766535D01*
G37*
G36*
X750976Y-19000054D02*
G01*
X767328Y-19011445D01*
X759295Y-19030827D01*
X745000Y-19034696D01*
X722726Y-19026967D01*
X711524Y-19011571D01*
X716781Y-19004289D01*
X739606Y-18999032D01*
X750976Y-19000054D01*
G37*
G36*
X873408Y-15854882D02*
G01*
X875335Y-15863229D01*
X873277Y-15864910D01*
X856614Y-15863229D01*
X854417Y-15859006D01*
X865974Y-15853869D01*
X873408Y-15854882D01*
G37*
G36*
X2336700Y-16780975D02*
G01*
X2375372Y-16799984D01*
X2342160Y-16805506D01*
X2318456Y-16805698D01*
X2293953Y-16796032D01*
X2286767Y-16787182D01*
X2286849Y-16773432D01*
X2305445Y-16770676D01*
X2336700Y-16780975D01*
G37*
G36*
X-770948Y-18525801D02*
G01*
X-749855Y-18546213D01*
X-748853Y-18547953D01*
X-736356Y-18579408D01*
X-741161Y-18592439D01*
X-758234Y-18585425D01*
X-782541Y-18556743D01*
X-792884Y-18540035D01*
X-797154Y-18525115D01*
X-784854Y-18521641D01*
X-770948Y-18525801D01*
G37*
G36*
X-1129386Y-17512686D02*
G01*
X-1108236Y-17520934D01*
X-1104601Y-17525649D01*
X-1108542Y-17534611D01*
X-1127373Y-17535148D01*
X-1151877Y-17526157D01*
X-1161308Y-17520505D01*
X-1167848Y-17512866D01*
X-1147726Y-17511123D01*
X-1129386Y-17512686D01*
G37*
G36*
X2931918Y-16686203D02*
G01*
X2944029Y-16696323D01*
X2938923Y-16706444D01*
X2917522Y-16708772D01*
X2887865Y-16696323D01*
X2881644Y-16691857D01*
X2880903Y-16684594D01*
X2905416Y-16682497D01*
X2931918Y-16686203D01*
G37*
G36*
X374543Y-16043421D02*
G01*
X367522Y-16050442D01*
X360502Y-16043421D01*
X367522Y-16036401D01*
X374543Y-16043421D01*
G37*
G36*
X-3392294Y-17425839D02*
G01*
X-3366530Y-17426450D01*
X-3356501Y-17428471D01*
X-3353318Y-17440491D01*
X-3363922Y-17449125D01*
X-3386789Y-17454183D01*
X-3407559Y-17450882D01*
X-3413811Y-17439438D01*
X-3411917Y-17435113D01*
X-3398600Y-17425397D01*
X-3392294Y-17425839D01*
G37*
G36*
X2454054Y-16249000D02*
G01*
X2487156Y-16255769D01*
X2504581Y-16264640D01*
X2503167Y-16270350D01*
X2483479Y-16270186D01*
X2450626Y-16263122D01*
X2434177Y-16258038D01*
X2420840Y-16251140D01*
X2433897Y-16248281D01*
X2454054Y-16249000D01*
G37*
G36*
X-506129Y-16569356D02*
G01*
X-483164Y-16567995D01*
X-463353Y-16560716D01*
X-460710Y-16553887D01*
X-468715Y-16533884D01*
X-472493Y-16528250D01*
X-472132Y-16510470D01*
X-456537Y-16502907D01*
X-435798Y-16512207D01*
X-427674Y-16523055D01*
X-437516Y-16527832D01*
X-447678Y-16533416D01*
X-440286Y-16555062D01*
X-433928Y-16573359D01*
X-437909Y-16589829D01*
X-444239Y-16603526D01*
X-443331Y-16632804D01*
X-436836Y-16653236D01*
X-431482Y-16657043D01*
X-419726Y-16665403D01*
X-411748Y-16666036D01*
X-383977Y-16668241D01*
X-350121Y-16670141D01*
X-336530Y-16679083D01*
X-336803Y-16699833D01*
X-337368Y-16722107D01*
X-328464Y-16752299D01*
X-321030Y-16761362D01*
X-307428Y-16761847D01*
X-285461Y-16741768D01*
X-257721Y-16720155D01*
X-228669Y-16710364D01*
X-222335Y-16710491D01*
X-203057Y-16715335D01*
X-209745Y-16725797D01*
X-241567Y-16739960D01*
X-269048Y-16755358D01*
X-280179Y-16777504D01*
X-282304Y-16789756D01*
X-299421Y-16801667D01*
X-311662Y-16807122D01*
X-317478Y-16831678D01*
X-320716Y-16851940D01*
X-345560Y-16875985D01*
X-352401Y-16879410D01*
X-361962Y-16887016D01*
X-350090Y-16890777D01*
X-313462Y-16892392D01*
X-297119Y-16892840D01*
X-268886Y-16895287D01*
X-263120Y-16901272D01*
X-275690Y-16913056D01*
X-288865Y-16927272D01*
X-287897Y-16940484D01*
X-278282Y-16952855D01*
X-268325Y-16981950D01*
X-267402Y-16986931D01*
X-266895Y-17005462D01*
X-279521Y-17009863D01*
X-312282Y-17003581D01*
X-325393Y-17000859D01*
X-363775Y-17000384D01*
X-396822Y-17016970D01*
X-420143Y-17036116D01*
X-437190Y-17059243D01*
X-433638Y-17065920D01*
X-430334Y-17072130D01*
X-399474Y-17072692D01*
X-364649Y-17072824D01*
X-332325Y-17091897D01*
X-314674Y-17108159D01*
X-296242Y-17117550D01*
X-284992Y-17121401D01*
X-262340Y-17138584D01*
X-250753Y-17154027D01*
X-252687Y-17172246D01*
X-271296Y-17201735D01*
X-273556Y-17204796D01*
X-305169Y-17235404D01*
X-338966Y-17253067D01*
X-339453Y-17253187D01*
X-376664Y-17266609D01*
X-386203Y-17280901D01*
X-376110Y-17288833D01*
X-368402Y-17294890D01*
X-362873Y-17296434D01*
X-348564Y-17300431D01*
X-323592Y-17307405D01*
X-295140Y-17314290D01*
X-262114Y-17326887D01*
X-248523Y-17338997D01*
X-247672Y-17347813D01*
X-245012Y-17378945D01*
X-238336Y-17393464D01*
X-213717Y-17393919D01*
X-203486Y-17391669D01*
X-194531Y-17394330D01*
X-189439Y-17395843D01*
X-190641Y-17420010D01*
X-189856Y-17446446D01*
X-167084Y-17479580D01*
X-120399Y-17502961D01*
X-94830Y-17515734D01*
X-92208Y-17531590D01*
X-116889Y-17545798D01*
X-130846Y-17551939D01*
X-143902Y-17570835D01*
X-132426Y-17593110D01*
X-97663Y-17614331D01*
X-77896Y-17624080D01*
X-53705Y-17641305D01*
X-45028Y-17647483D01*
X-22306Y-17672469D01*
X-14215Y-17693438D01*
X-25239Y-17704788D01*
X-41926Y-17711856D01*
X-42781Y-17728942D01*
X-18603Y-17756412D01*
X48Y-17776624D01*
X9479Y-17794950D01*
X15906Y-17808630D01*
X38169Y-17831604D01*
X66243Y-17852116D01*
X89386Y-17861251D01*
X96080Y-17862523D01*
X116261Y-17878145D01*
X118918Y-17887567D01*
X103166Y-17885652D01*
X78586Y-17887906D01*
X45054Y-17914331D01*
X10190Y-17951931D01*
X41067Y-17984799D01*
X43191Y-17986917D01*
X54099Y-17997797D01*
X70323Y-18006883D01*
X72520Y-18008113D01*
X86345Y-17998712D01*
X97290Y-17987392D01*
X130321Y-17967876D01*
X169908Y-17955707D01*
X208067Y-17952057D01*
X236817Y-17958095D01*
X248174Y-17974992D01*
X253685Y-17982707D01*
X276181Y-17987662D01*
X304557Y-17984951D01*
X326219Y-17974630D01*
X334863Y-17969266D01*
X360619Y-17974916D01*
X368759Y-17981109D01*
X371335Y-17993880D01*
X352311Y-18013299D01*
X349531Y-18015729D01*
X327868Y-18045618D01*
X324903Y-18074020D01*
X341780Y-18092349D01*
X350333Y-18094301D01*
X360502Y-18087570D01*
X365197Y-18078545D01*
X387543Y-18068679D01*
X416923Y-18066686D01*
X440506Y-18074639D01*
X445901Y-18079393D01*
X458784Y-18099789D01*
X446855Y-18110421D01*
X412151Y-18108831D01*
X408420Y-18108164D01*
X375210Y-18105219D01*
X356799Y-18108796D01*
X355926Y-18114448D01*
X364732Y-18138453D01*
X384435Y-18172439D01*
X395135Y-18187761D01*
X422088Y-18215573D01*
X444824Y-18219737D01*
X458646Y-18217694D01*
X481862Y-18226891D01*
X491184Y-18246972D01*
X480023Y-18268761D01*
X462930Y-18289212D01*
X462834Y-18313501D01*
X487674Y-18329347D01*
X513333Y-18327575D01*
X532363Y-18302218D01*
X548759Y-18280549D01*
X579307Y-18270596D01*
X612499Y-18282464D01*
X640877Y-18315258D01*
X652994Y-18339787D01*
X653457Y-18356356D01*
X637810Y-18368609D01*
X616270Y-18386235D01*
X620787Y-18401875D01*
X652447Y-18417957D01*
X658364Y-18420105D01*
X689108Y-18425293D01*
X710254Y-18412849D01*
X725156Y-18401745D01*
X744057Y-18408148D01*
X747326Y-18411024D01*
X749707Y-18411833D01*
X780509Y-18422302D01*
X792021Y-18421341D01*
X823244Y-18418736D01*
X863501Y-18401041D01*
X867470Y-18398372D01*
X902462Y-18385692D01*
X926955Y-18396263D01*
X936179Y-18428297D01*
X931350Y-18451478D01*
X906618Y-18469933D01*
X890573Y-18476966D01*
X883164Y-18492914D01*
X896963Y-18508528D01*
X928878Y-18517239D01*
X936449Y-18517978D01*
X973274Y-18528216D01*
X989311Y-18545637D01*
X980914Y-18566768D01*
X975093Y-18571693D01*
X953858Y-18576590D01*
X918872Y-18566829D01*
X899092Y-18560094D01*
X872935Y-18557795D01*
X853358Y-18570363D01*
X845028Y-18579609D01*
X844042Y-18592285D01*
X866958Y-18603745D01*
X888879Y-18609034D01*
X926472Y-18603293D01*
X954682Y-18596683D01*
X993166Y-18599047D01*
X1020424Y-18601578D01*
X1022492Y-18601770D01*
X1034465Y-18593363D01*
X1035863Y-18588166D01*
X1054889Y-18574059D01*
X1087944Y-18564678D01*
X1124445Y-18562201D01*
X1153813Y-18568805D01*
X1172841Y-18577319D01*
X1191618Y-18581057D01*
X1194779Y-18581119D01*
X1212461Y-18594203D01*
X1233774Y-18620477D01*
X1251786Y-18650411D01*
X1259566Y-18674474D01*
X1263436Y-18692385D01*
X1279382Y-18722704D01*
X1288578Y-18734277D01*
X1300476Y-18740359D01*
X1301259Y-18739275D01*
X2101574Y-18739275D01*
X2108595Y-18746296D01*
X2115615Y-18739275D01*
X2108595Y-18732255D01*
X2101574Y-18739275D01*
X1301259Y-18739275D01*
X1312439Y-18723795D01*
X1315660Y-18711332D01*
X1309395Y-18675002D01*
X1288946Y-18629641D01*
X1257381Y-18583095D01*
X1250262Y-18561722D01*
X1260416Y-18533654D01*
X1286805Y-18514747D01*
X1294546Y-18513519D01*
X1330264Y-18517358D01*
X1379799Y-18530064D01*
X1434670Y-18549192D01*
X1486395Y-18572296D01*
X1518625Y-18583207D01*
X1546824Y-18582934D01*
X1567537Y-18582791D01*
X1601910Y-18591331D01*
X1638828Y-18605249D01*
X1668303Y-18620730D01*
X1680347Y-18633955D01*
X1672823Y-18643754D01*
X1648755Y-18658379D01*
X1617163Y-18673040D01*
X1655775Y-18688259D01*
X1680661Y-18695183D01*
X1731149Y-18689501D01*
X1732454Y-18689046D01*
X1749744Y-18685452D01*
X1909682Y-18685452D01*
X1911740Y-18687132D01*
X1928403Y-18685452D01*
X1930600Y-18681228D01*
X1919042Y-18676091D01*
X1911609Y-18677104D01*
X1909682Y-18685452D01*
X1749744Y-18685452D01*
X1759442Y-18683436D01*
X1806782Y-18676474D01*
X1867522Y-18668928D01*
X1919042Y-18663281D01*
X1934710Y-18661564D01*
X2001392Y-18655149D01*
X2060617Y-18650449D01*
X2105432Y-18648231D01*
X2108595Y-18650691D01*
X2115580Y-18656124D01*
X2128871Y-18681048D01*
X2145727Y-18704444D01*
X2184382Y-18734275D01*
X2234826Y-18761367D01*
X2288415Y-18781215D01*
X2336501Y-18789308D01*
X2345507Y-18789475D01*
X2372557Y-18790947D01*
X2374686Y-18795112D01*
X2354511Y-18804121D01*
X2326568Y-18811542D01*
X2295317Y-18811692D01*
X2282180Y-18810900D01*
X2274055Y-18821450D01*
X2278710Y-18828206D01*
X2304508Y-18840634D01*
X2344772Y-18850566D01*
X2390449Y-18856571D01*
X2432485Y-18857222D01*
X2461828Y-18851089D01*
X2486575Y-18844268D01*
X2531792Y-18839115D01*
X2584686Y-18837889D01*
X2598428Y-18838163D01*
X2642335Y-18838025D01*
X2665921Y-18834197D01*
X2675466Y-18824590D01*
X2677251Y-18807116D01*
X2680470Y-18786317D01*
X2691292Y-18774377D01*
X2698736Y-18778106D01*
X2705540Y-18798949D01*
X2705812Y-18804686D01*
X2710775Y-18809342D01*
X2723390Y-18788651D01*
X2726092Y-18783613D01*
X2759696Y-18749130D01*
X2806438Y-18738660D01*
X2864172Y-18752751D01*
X2896581Y-18768939D01*
X2912163Y-18787064D01*
X2913315Y-18813546D01*
X2909676Y-18831561D01*
X2894319Y-18850006D01*
X2859783Y-18859515D01*
X2810640Y-18867428D01*
X2849252Y-18886341D01*
X2849553Y-18886488D01*
X2876622Y-18902934D01*
X2887865Y-18916011D01*
X2891634Y-18922704D01*
X2912436Y-18933190D01*
X2916419Y-18934277D01*
X2924419Y-18938855D01*
X2905416Y-18941240D01*
X2885773Y-18944597D01*
X2873824Y-18953614D01*
X2862253Y-18964420D01*
X2826232Y-18979404D01*
X2769179Y-18997132D01*
X2694578Y-19016822D01*
X2605911Y-19037697D01*
X2506661Y-19058977D01*
X2400311Y-19079885D01*
X2290344Y-19099640D01*
X2180244Y-19117464D01*
X2073492Y-19132579D01*
X1996614Y-19143073D01*
X1882648Y-19161193D01*
X1770236Y-19182838D01*
X1645245Y-19210583D01*
X1640119Y-19211774D01*
X1588066Y-19223771D01*
X1539938Y-19234721D01*
X1533436Y-19236285D01*
X1499390Y-19251630D01*
X1486308Y-19276860D01*
X1485834Y-19280114D01*
X1484755Y-19293951D01*
X1489298Y-19302329D01*
X1503892Y-19305498D01*
X1532965Y-19303709D01*
X1580947Y-19297213D01*
X1652265Y-19286261D01*
X1672687Y-19283117D01*
X1748180Y-19271793D01*
X1823129Y-19260926D01*
X1883940Y-19252497D01*
X1935198Y-19245014D01*
X2002134Y-19233792D01*
X2052431Y-19224015D01*
X2057627Y-19223005D01*
X2085192Y-19218099D01*
X2140441Y-19213188D01*
X2185345Y-19214961D01*
X2193937Y-19216198D01*
X2206490Y-19216924D01*
X2228164Y-19218177D01*
X2246600Y-19214389D01*
X2247037Y-19213993D01*
X2267191Y-19206829D01*
X2301414Y-19201824D01*
X2331661Y-19199420D01*
X2423437Y-19191868D01*
X2489144Y-19185907D01*
X2491676Y-19185677D01*
X2539881Y-19180428D01*
X2571555Y-19175700D01*
X2590201Y-19171074D01*
X2599324Y-19166130D01*
X2611633Y-19159123D01*
X2641833Y-19153482D01*
X2667599Y-19148443D01*
X2702229Y-19131611D01*
X2710474Y-19126087D01*
X2740570Y-19110705D01*
X2780258Y-19098711D01*
X2838722Y-19087114D01*
X2872420Y-19078148D01*
X2899014Y-19065240D01*
X2910039Y-19059984D01*
X2944950Y-19052237D01*
X2990280Y-19048036D01*
X2994218Y-19047847D01*
X3045935Y-19040877D01*
X3109649Y-19026704D01*
X3121491Y-19023207D01*
X5036124Y-19023207D01*
X5040833Y-19033730D01*
X5061104Y-19037640D01*
X5085267Y-19035424D01*
X5102818Y-19033814D01*
X5123172Y-19030926D01*
X5164563Y-19024297D01*
X5190608Y-19019070D01*
X5205973Y-19010767D01*
X5218655Y-18997292D01*
X5225902Y-18989592D01*
X5237889Y-18966450D01*
X5235249Y-18951466D01*
X5227123Y-18949831D01*
X5203944Y-18957621D01*
X5181959Y-18965948D01*
X5145601Y-18970735D01*
X5122113Y-18972662D01*
X5080284Y-18984203D01*
X5048649Y-19002475D01*
X5036124Y-19023207D01*
X3121491Y-19023207D01*
X3172489Y-19008147D01*
X3183531Y-19004456D01*
X3240683Y-18987439D01*
X3291224Y-18975472D01*
X3325310Y-18970950D01*
X3330164Y-18970862D01*
X3375556Y-18965589D01*
X3423342Y-18954674D01*
X3424952Y-18954196D01*
X3473458Y-18945560D01*
X3511004Y-18953588D01*
X3536037Y-18960689D01*
X3556596Y-18957110D01*
X3556926Y-18956810D01*
X3580895Y-18947677D01*
X3629340Y-18938858D01*
X3698767Y-18930648D01*
X3785683Y-18923342D01*
X3886597Y-18917235D01*
X3998015Y-18912623D01*
X4116444Y-18909800D01*
X4218878Y-18908693D01*
X4301613Y-18909078D01*
X4367690Y-18911318D01*
X4422875Y-18915731D01*
X4472933Y-18922638D01*
X4523630Y-18932356D01*
X4538181Y-18935447D01*
X4614398Y-18951557D01*
X4668638Y-18961985D01*
X4705701Y-18966538D01*
X4730389Y-18965026D01*
X4747502Y-18957256D01*
X4761842Y-18943036D01*
X4778208Y-18922174D01*
X4788331Y-18910011D01*
X4824426Y-18874243D01*
X4858147Y-18849728D01*
X4868692Y-18842914D01*
X4894561Y-18815455D01*
X4904822Y-18799018D01*
X5114567Y-18799018D01*
X5131951Y-18802459D01*
X5161352Y-18807838D01*
X5166890Y-18823395D01*
X5145783Y-18846594D01*
X5127174Y-18863659D01*
X5124705Y-18878893D01*
X5147917Y-18884675D01*
X5196239Y-18880621D01*
X5198929Y-18880207D01*
X5227123Y-18872403D01*
X5245923Y-18867199D01*
X5265866Y-18847338D01*
X5271844Y-18821782D01*
X5279196Y-18775362D01*
X5282257Y-18733989D01*
X5279899Y-18708794D01*
X5275631Y-18704758D01*
X5252520Y-18704838D01*
X5217569Y-18715351D01*
X5178933Y-18732849D01*
X5144769Y-18753884D01*
X5123232Y-18775010D01*
X5118059Y-18783701D01*
X5114567Y-18799018D01*
X4904822Y-18799018D01*
X4923531Y-18769048D01*
X4958225Y-18699762D01*
X4975787Y-18660803D01*
X4980578Y-18648955D01*
X5106328Y-18648955D01*
X5113300Y-18656829D01*
X5137920Y-18660651D01*
X5164083Y-18657649D01*
X5204614Y-18648625D01*
X5239717Y-18638000D01*
X5202118Y-18627696D01*
X5186091Y-18624506D01*
X5148460Y-18624629D01*
X5118531Y-18633520D01*
X5106328Y-18648955D01*
X4980578Y-18648955D01*
X4995020Y-18613243D01*
X5004149Y-18584825D01*
X6426173Y-18584825D01*
X6433194Y-18591846D01*
X6440214Y-18584825D01*
X6433194Y-18577805D01*
X6426173Y-18584825D01*
X5004149Y-18584825D01*
X5005763Y-18579802D01*
X5006038Y-18566009D01*
X5005132Y-18565568D01*
X5007261Y-18554667D01*
X5026077Y-18536578D01*
X5054355Y-18517145D01*
X5084873Y-18502214D01*
X5085015Y-18502162D01*
X5102606Y-18491773D01*
X5094227Y-18480717D01*
X5084387Y-18470281D01*
X5099020Y-18460510D01*
X5110135Y-18453263D01*
X5112988Y-18436813D01*
X5105150Y-18429732D01*
X5085267Y-18437396D01*
X5073089Y-18444809D01*
X5057606Y-18438077D01*
X5053420Y-18421626D01*
X5062942Y-18404112D01*
X5082727Y-18403106D01*
X5086603Y-18402696D01*
X5072052Y-18389294D01*
X5057955Y-18374115D01*
X5062350Y-18367191D01*
X5069147Y-18365555D01*
X5070275Y-18351611D01*
X5068078Y-18346130D01*
X5148451Y-18346130D01*
X5153663Y-18358412D01*
X5176533Y-18367191D01*
X5186091Y-18366311D01*
X5188409Y-18366098D01*
X5204249Y-18354467D01*
X5195254Y-18334429D01*
X5181057Y-18326126D01*
X5158881Y-18328450D01*
X5148451Y-18346130D01*
X5068078Y-18346130D01*
X5065841Y-18340549D01*
X5060142Y-18308061D01*
X5057966Y-18269424D01*
X5059699Y-18235918D01*
X5065726Y-18218822D01*
X5066237Y-18218442D01*
X5069431Y-18200734D01*
X5063788Y-18169164D01*
X5058190Y-18146980D01*
X5059555Y-18132608D01*
X5073829Y-18134572D01*
X5074132Y-18134688D01*
X5088430Y-18137467D01*
X5080354Y-18124015D01*
X5073137Y-18112685D01*
X5072289Y-18097011D01*
X5072797Y-18096289D01*
X5076634Y-18076451D01*
X5079538Y-18037128D01*
X5080914Y-17985975D01*
X5080970Y-17980175D01*
X5082507Y-17928901D01*
X5083858Y-17910862D01*
X5092287Y-17910862D01*
X5099308Y-17917882D01*
X5106328Y-17910862D01*
X5099308Y-17903841D01*
X5092287Y-17910862D01*
X5083858Y-17910862D01*
X5085461Y-17889446D01*
X5089250Y-17869940D01*
X5096418Y-17849146D01*
X5099308Y-17820172D01*
X5099963Y-17813605D01*
X5097230Y-17779968D01*
X5088327Y-17760992D01*
X5081431Y-17750500D01*
X5093190Y-17727242D01*
X5104861Y-17711193D01*
X5109656Y-17698192D01*
X5094794Y-17675663D01*
X5073479Y-17634073D01*
X5056863Y-17592283D01*
X5050164Y-17562220D01*
X5046986Y-17540470D01*
X5033315Y-17513504D01*
X5023706Y-17500751D01*
X5034262Y-17496655D01*
X5038407Y-17496034D01*
X5045178Y-17480006D01*
X5034958Y-17442137D01*
X5007696Y-17382208D01*
X5002012Y-17370262D01*
X4990712Y-17339083D01*
X4990271Y-17322534D01*
X4992139Y-17318958D01*
X4980798Y-17314123D01*
X4972308Y-17310973D01*
X4972301Y-17310844D01*
X5058639Y-17310844D01*
X5068104Y-17339492D01*
X5079703Y-17371963D01*
X5084730Y-17405389D01*
X5085994Y-17422720D01*
X5096132Y-17450407D01*
X5100669Y-17459119D01*
X5099688Y-17481999D01*
X5097316Y-17487987D01*
X5105767Y-17496655D01*
X5113749Y-17503579D01*
X5113119Y-17528247D01*
X5112913Y-17548522D01*
X5127426Y-17584100D01*
X5160883Y-17633484D01*
X5166249Y-17640645D01*
X5181057Y-17662174D01*
X5200886Y-17691002D01*
X5225103Y-17737898D01*
X5240286Y-17787598D01*
X5247818Y-17846366D01*
X5249085Y-17920468D01*
X5245472Y-18016168D01*
X5244721Y-18059885D01*
X5247846Y-18113763D01*
X5254711Y-18157628D01*
X5264283Y-18185462D01*
X5275528Y-18191241D01*
X5275631Y-18191161D01*
X5276724Y-18190309D01*
X5285333Y-18169517D01*
X5288860Y-18134687D01*
X5288967Y-18128939D01*
X5293894Y-18098697D01*
X5303904Y-18086373D01*
X5326018Y-18095199D01*
X5349027Y-18120394D01*
X5359064Y-18149942D01*
X5359080Y-18150917D01*
X5365105Y-18180403D01*
X5378733Y-18217640D01*
X5389221Y-18246819D01*
X5403217Y-18297686D01*
X5415220Y-18353150D01*
X5425143Y-18398792D01*
X5436163Y-18435534D01*
X5445348Y-18452669D01*
X5451649Y-18452920D01*
X5479321Y-18444384D01*
X5522126Y-18426043D01*
X5573842Y-18400426D01*
X5598839Y-18387648D01*
X5651216Y-18363109D01*
X5693900Y-18346032D01*
X5719473Y-18339519D01*
X5734930Y-18334590D01*
X5761544Y-18312850D01*
X5785974Y-18281838D01*
X5801632Y-18250484D01*
X5801933Y-18227720D01*
X5799681Y-18219232D01*
X5796322Y-18186574D01*
X5793841Y-18136730D01*
X5792659Y-18076524D01*
X5792705Y-18042355D01*
X5794050Y-17981815D01*
X5794056Y-17981699D01*
X6154755Y-17981699D01*
X6159302Y-18002109D01*
X6178011Y-18025167D01*
X6215091Y-18057899D01*
X6248331Y-18083640D01*
X6283108Y-18105893D01*
X6305264Y-18114455D01*
X6305990Y-18114453D01*
X6322876Y-18110751D01*
X6325002Y-18095442D01*
X6313409Y-18061801D01*
X6299595Y-18041907D01*
X6274816Y-18030209D01*
X6274109Y-18030197D01*
X6247350Y-18017861D01*
X6219040Y-17988788D01*
X6196606Y-17952483D01*
X6187478Y-17918451D01*
X6184539Y-17901574D01*
X6172267Y-17889800D01*
X6166352Y-17891491D01*
X6163085Y-17907351D01*
X6164337Y-17928900D01*
X6158328Y-17963122D01*
X6154755Y-17981699D01*
X5794056Y-17981699D01*
X5796729Y-17932903D01*
X5800372Y-17903841D01*
X5798795Y-17864662D01*
X5774744Y-17812825D01*
X5764544Y-17795030D01*
X5750106Y-17763210D01*
X5747585Y-17745515D01*
X5748066Y-17742371D01*
X5766251Y-17742371D01*
X5773271Y-17749391D01*
X5780292Y-17742371D01*
X5773271Y-17735350D01*
X5766251Y-17742371D01*
X5748066Y-17742371D01*
X5748914Y-17736824D01*
X5738696Y-17714924D01*
X5730220Y-17700589D01*
X5738402Y-17686063D01*
X5745556Y-17675259D01*
X5733157Y-17653221D01*
X5716406Y-17626429D01*
X5702275Y-17587921D01*
X5687357Y-17546615D01*
X5680560Y-17538778D01*
X6096212Y-17538778D01*
X6099094Y-17542980D01*
X6111082Y-17552819D01*
X6112483Y-17552453D01*
X6117273Y-17538778D01*
X6116702Y-17534929D01*
X6102404Y-17524737D01*
X6097325Y-17525839D01*
X6096212Y-17538778D01*
X5680560Y-17538778D01*
X5655060Y-17509378D01*
X5610531Y-17496655D01*
X5594410Y-17494559D01*
X5568003Y-17481467D01*
X5535205Y-17453076D01*
X5491056Y-17405604D01*
X5477319Y-17390350D01*
X5441196Y-17353031D01*
X5673862Y-17353031D01*
X5684397Y-17374128D01*
X5703740Y-17384328D01*
X5724099Y-17378878D01*
X5730065Y-17362044D01*
X5712326Y-17343403D01*
X5694815Y-17336457D01*
X5677798Y-17337051D01*
X5673862Y-17353031D01*
X5441196Y-17353031D01*
X5438343Y-17350083D01*
X5405427Y-17320201D01*
X5384550Y-17306279D01*
X5375056Y-17304234D01*
X5339895Y-17300270D01*
X5289476Y-17296777D01*
X5231012Y-17294002D01*
X5171714Y-17292196D01*
X5118793Y-17291608D01*
X5079462Y-17292488D01*
X5060932Y-17295085D01*
X5058639Y-17310844D01*
X4972301Y-17310844D01*
X4971276Y-17292333D01*
X4973795Y-17281068D01*
X4965195Y-17279468D01*
X4956987Y-17277267D01*
X4959858Y-17252116D01*
X4962686Y-17227450D01*
X4953400Y-17215837D01*
X4945597Y-17212712D01*
X4937837Y-17192813D01*
X4935751Y-17180474D01*
X4919318Y-17154201D01*
X4912475Y-17146502D01*
X4893836Y-17116084D01*
X4874597Y-17075428D01*
X4866538Y-17057115D01*
X4844438Y-17014261D01*
X4824554Y-16984162D01*
X4823727Y-16983184D01*
X4794318Y-16942262D01*
X4773365Y-16901826D01*
X4763871Y-16869046D01*
X4768837Y-16851088D01*
X4777688Y-16838383D01*
X4776268Y-16808205D01*
X4764693Y-16781397D01*
X5246737Y-16781397D01*
X5247840Y-16786476D01*
X5260778Y-16787589D01*
X5264980Y-16784707D01*
X5274819Y-16772720D01*
X5274454Y-16771318D01*
X5260778Y-16766528D01*
X5256930Y-16767099D01*
X5246737Y-16781397D01*
X4764693Y-16781397D01*
X4760497Y-16771680D01*
X4733056Y-16737330D01*
X4726970Y-16731496D01*
X4703427Y-16703199D01*
X4704080Y-16687273D01*
X4728817Y-16682282D01*
X4740632Y-16681432D01*
X4753378Y-16670895D01*
X4752552Y-16641806D01*
X4750464Y-16616019D01*
X4760003Y-16605605D01*
X4789409Y-16608074D01*
X4830528Y-16618957D01*
X4874491Y-16637432D01*
X4905805Y-16653523D01*
X4929004Y-16662384D01*
X4952707Y-16666486D01*
X4957687Y-16668202D01*
X4958899Y-16682282D01*
X4957590Y-16685156D01*
X4964736Y-16694195D01*
X4986609Y-16695830D01*
X5013123Y-16690533D01*
X5034190Y-16678772D01*
X5051000Y-16669499D01*
X5065451Y-16685209D01*
X5084564Y-16700541D01*
X5113856Y-16696589D01*
X5118793Y-16692527D01*
X5119867Y-16691643D01*
X5644563Y-16691643D01*
X5646621Y-16693323D01*
X5663284Y-16691643D01*
X5665481Y-16687420D01*
X5653923Y-16682282D01*
X5646490Y-16683296D01*
X5644563Y-16691643D01*
X5119867Y-16691643D01*
X5144210Y-16671615D01*
X5146026Y-16669748D01*
X5173552Y-16657066D01*
X5225492Y-16644688D01*
X5260778Y-16639246D01*
X5298660Y-16633404D01*
X5325831Y-16629584D01*
X5394815Y-16616849D01*
X5456074Y-16601612D01*
X5499473Y-16586254D01*
X5520541Y-16576923D01*
X5560637Y-16562175D01*
X5587670Y-16556223D01*
X5602057Y-16552359D01*
X5620831Y-16531343D01*
X5622751Y-16525893D01*
X5634502Y-16495108D01*
X5652863Y-16448704D01*
X5653923Y-16446079D01*
X5674775Y-16394444D01*
X5679401Y-16382981D01*
X5694815Y-16342672D01*
X5703274Y-16320551D01*
X5724241Y-16260853D01*
X5738215Y-16215422D01*
X5744300Y-16195346D01*
X5759961Y-16161503D01*
X5773271Y-16150434D01*
X5775323Y-16148728D01*
X5778998Y-16148011D01*
X5798334Y-16131558D01*
X5817935Y-16100186D01*
X5833202Y-16074278D01*
X5850056Y-16060187D01*
X5859323Y-16068349D01*
X5856430Y-16098913D01*
X5854688Y-16121785D01*
X5863399Y-16141004D01*
X5873713Y-16158042D01*
X5878578Y-16190177D01*
X5878580Y-16190798D01*
X5887892Y-16224721D01*
X5910284Y-16242319D01*
X5938395Y-16237736D01*
X5946431Y-16235883D01*
X5944589Y-16251731D01*
X5941915Y-16264642D01*
X5949223Y-16275096D01*
X5959170Y-16277964D01*
X5960455Y-16293941D01*
X5944810Y-16326058D01*
X5911340Y-16376712D01*
X5887542Y-16413096D01*
X5867752Y-16449238D01*
X5860332Y-16471344D01*
X5857953Y-16485556D01*
X5842916Y-16513791D01*
X5831935Y-16530717D01*
X5821246Y-16563513D01*
X5819636Y-16595159D01*
X5827061Y-16617165D01*
X5843476Y-16621041D01*
X5855234Y-16619415D01*
X5864537Y-16633580D01*
X5867996Y-16644264D01*
X5888282Y-16654201D01*
X5897204Y-16654498D01*
X5902479Y-16659299D01*
X5884927Y-16674017D01*
X5865357Y-16685054D01*
X5847141Y-16687229D01*
X5844667Y-16686040D01*
X5836455Y-16693122D01*
X5846924Y-16707446D01*
X5873126Y-16725245D01*
X5898780Y-16743686D01*
X5922621Y-16784671D01*
X5927492Y-16843753D01*
X5926043Y-16876887D01*
X5924359Y-16928394D01*
X5922894Y-16985320D01*
X5922071Y-17017444D01*
X5919115Y-17057490D01*
X5911376Y-17082319D01*
X5895479Y-17100178D01*
X5868047Y-17119314D01*
X5859478Y-17125016D01*
X5830753Y-17148302D01*
X5819298Y-17172350D01*
X5818797Y-17208613D01*
X5819553Y-17217841D01*
X5826354Y-17255171D01*
X5836348Y-17277510D01*
X5844746Y-17292231D01*
X5850496Y-17323833D01*
X5856208Y-17346792D01*
X5878578Y-17373545D01*
X5895880Y-17388381D01*
X5906660Y-17409937D01*
X5908495Y-17417661D01*
X5924211Y-17422631D01*
X5924475Y-17422534D01*
X5935987Y-17404192D01*
X5937695Y-17365704D01*
X5937113Y-17334212D01*
X5946321Y-17315365D01*
X5971406Y-17305456D01*
X6001196Y-17302991D01*
X6034957Y-17312069D01*
X6055741Y-17322249D01*
X6091977Y-17328739D01*
X6102404Y-17325973D01*
X6120043Y-17321294D01*
X6131314Y-17300911D01*
X6137181Y-17277256D01*
X6152256Y-17260534D01*
X6168275Y-17262158D01*
X6170401Y-17265386D01*
X6177871Y-17291717D01*
X6184598Y-17334849D01*
X6189429Y-17386033D01*
X6191213Y-17436517D01*
X6191225Y-17445806D01*
X6193167Y-17477318D01*
X6200530Y-17487555D01*
X6216428Y-17482149D01*
X6236491Y-17474556D01*
X6274311Y-17469020D01*
X6288981Y-17469521D01*
X6297895Y-17474100D01*
X6282254Y-17488119D01*
X6267912Y-17502699D01*
X6257682Y-17526285D01*
X6255297Y-17534040D01*
X6236839Y-17558559D01*
X6206100Y-17586955D01*
X6154518Y-17628112D01*
X6134183Y-17597486D01*
X6131062Y-17592916D01*
X6108935Y-17570063D01*
X6094411Y-17573454D01*
X6089192Y-17602885D01*
X6089205Y-17604829D01*
X6096686Y-17648336D01*
X6114767Y-17680604D01*
X6138829Y-17693228D01*
X6141061Y-17693372D01*
X6152055Y-17702482D01*
X6157763Y-17729398D01*
X6159396Y-17779186D01*
X6159396Y-17865144D01*
X6172267Y-17856640D01*
X6190988Y-17844271D01*
X6212356Y-17823265D01*
X6227421Y-17790712D01*
X6228970Y-17783548D01*
X6243335Y-17747665D01*
X6266034Y-17708326D01*
X6273845Y-17696348D01*
X6292390Y-17662835D01*
X6299805Y-17640825D01*
X6300841Y-17634133D01*
X6313846Y-17623023D01*
X6315034Y-17623356D01*
X6321724Y-17640350D01*
X6326234Y-17679193D01*
X6327887Y-17734522D01*
X6327994Y-17748342D01*
X6330403Y-17799571D01*
X6335335Y-17837482D01*
X6341928Y-17854698D01*
X6351641Y-17872244D01*
X6355969Y-17904670D01*
X6350347Y-17936498D01*
X6331397Y-17947593D01*
X6327298Y-17947878D01*
X6314946Y-17950216D01*
X6330069Y-17955387D01*
X6338439Y-17959676D01*
X6356682Y-17984279D01*
X6366485Y-18017318D01*
X6362703Y-18044714D01*
X6364689Y-18062033D01*
X6381904Y-18087303D01*
X6393385Y-18102229D01*
X6408690Y-18133218D01*
X6416399Y-18163360D01*
X6414872Y-18184561D01*
X6402467Y-18188722D01*
X6385241Y-18172745D01*
X6383086Y-18136931D01*
X6383217Y-18128641D01*
X6376973Y-18102223D01*
X6376226Y-18100302D01*
X6367383Y-18087565D01*
X6355428Y-18100807D01*
X6347160Y-18117799D01*
X6345154Y-18162420D01*
X6369120Y-18204816D01*
X6388995Y-18234512D01*
X6403907Y-18275801D01*
X6404167Y-18277350D01*
X6404011Y-18315073D01*
X6395967Y-18359799D01*
X6382904Y-18399838D01*
X6367688Y-18423495D01*
X6359591Y-18436435D01*
X6349922Y-18465618D01*
X6347881Y-18486891D01*
X6353078Y-18515300D01*
X6364462Y-18533313D01*
X6378268Y-18532104D01*
X6380722Y-18522842D01*
X6370616Y-18501310D01*
X6363869Y-18479835D01*
X6373630Y-18457018D01*
X6393809Y-18443831D01*
X6416505Y-18449239D01*
X6426623Y-18455016D01*
X6433194Y-18454041D01*
X6454726Y-18450848D01*
X6466080Y-18444852D01*
X6492367Y-18437611D01*
X6493187Y-18437653D01*
X6502407Y-18449831D01*
X6507582Y-18485242D01*
X6509069Y-18546213D01*
X6507894Y-18599492D01*
X6502914Y-18642504D01*
X6492036Y-18675140D01*
X6473152Y-18706826D01*
X6456544Y-18726337D01*
X6419094Y-18759999D01*
X6372598Y-18795243D01*
X6324489Y-18826924D01*
X6282201Y-18849901D01*
X6253166Y-18859031D01*
X6234931Y-18862241D01*
X6195039Y-18871176D01*
X6139771Y-18884427D01*
X6075151Y-18900589D01*
X5919936Y-18932696D01*
X5766251Y-18947592D01*
X5694237Y-18952115D01*
X5614703Y-18962636D01*
X5559252Y-18977721D01*
X5545604Y-18983409D01*
X5516238Y-18998903D01*
X5505855Y-19015086D01*
X5508535Y-19039127D01*
X5516655Y-19066776D01*
X5527007Y-19090298D01*
X5528362Y-19092394D01*
X5537557Y-19123141D01*
X5534228Y-19154460D01*
X5519577Y-19172968D01*
X5502111Y-19185808D01*
X5503791Y-19201994D01*
X5527555Y-19209646D01*
X5531465Y-19209736D01*
X5554013Y-19217218D01*
X5556008Y-19231657D01*
X5540367Y-19245889D01*
X5510004Y-19252755D01*
X5470728Y-19256445D01*
X5436912Y-19264482D01*
X5422254Y-19270597D01*
X5417593Y-19278635D01*
X5436912Y-19292168D01*
X5440112Y-19294178D01*
X5449951Y-19302783D01*
X5438840Y-19304484D01*
X5403471Y-19300061D01*
X5377430Y-19297853D01*
X5343013Y-19300172D01*
X5299389Y-19308976D01*
X5240887Y-19325457D01*
X5161836Y-19350806D01*
X5125305Y-19362809D01*
X5061588Y-19382903D01*
X5017582Y-19394860D01*
X4988655Y-19399591D01*
X4970175Y-19398008D01*
X4957509Y-19391024D01*
X4954362Y-19388699D01*
X4927706Y-19379162D01*
X4882054Y-19374781D01*
X4813020Y-19375071D01*
X4784130Y-19375749D01*
X4735130Y-19375212D01*
X4711970Y-19371543D01*
X4713183Y-19364591D01*
X4723590Y-19359415D01*
X4984640Y-19359415D01*
X4986698Y-19361096D01*
X5003361Y-19359415D01*
X5005558Y-19355192D01*
X4994001Y-19350055D01*
X4986568Y-19351068D01*
X4984640Y-19359415D01*
X4723590Y-19359415D01*
X4727730Y-19357356D01*
X4762326Y-19349793D01*
X4770292Y-19348905D01*
X4791182Y-19343034D01*
X5078246Y-19343034D01*
X5085267Y-19350055D01*
X5092287Y-19343034D01*
X5085267Y-19336014D01*
X5078246Y-19343034D01*
X4791182Y-19343034D01*
X4805351Y-19339052D01*
X4846571Y-19321973D01*
X4861649Y-19314919D01*
X4896634Y-19300378D01*
X4917537Y-19294367D01*
X4927851Y-19291189D01*
X4957548Y-19276348D01*
X4983185Y-19261129D01*
X5209295Y-19261129D01*
X5211353Y-19262809D01*
X5228016Y-19261129D01*
X5230213Y-19256906D01*
X5218655Y-19251768D01*
X5211222Y-19252782D01*
X5209295Y-19261129D01*
X4983185Y-19261129D01*
X4994001Y-19254708D01*
X4995932Y-19253562D01*
X5002692Y-19249136D01*
X5037384Y-19220664D01*
X5057077Y-19194356D01*
X5059230Y-19175035D01*
X5041298Y-19167523D01*
X5026840Y-19161422D01*
X5007681Y-19138766D01*
X5007192Y-19137872D01*
X4983198Y-19118676D01*
X4946590Y-19124521D01*
X4897331Y-19155413D01*
X4866656Y-19173087D01*
X4833445Y-19181564D01*
X4813389Y-19184551D01*
X4785845Y-19198763D01*
X4767241Y-19208896D01*
X4741565Y-19199051D01*
X4723598Y-19190706D01*
X4705563Y-19196574D01*
X4699378Y-19202698D01*
X4679993Y-19197192D01*
X4675294Y-19194811D01*
X4645572Y-19190296D01*
X4597757Y-19189306D01*
X4539106Y-19191616D01*
X4476876Y-19197004D01*
X4418324Y-19205247D01*
X4409716Y-19206609D01*
X4359444Y-19211287D01*
X4307201Y-19212385D01*
X4290716Y-19212242D01*
X4253575Y-19214079D01*
X4233055Y-19218357D01*
X4232329Y-19218700D01*
X4211568Y-19221924D01*
X4169137Y-19225215D01*
X4110794Y-19228207D01*
X4042299Y-19230530D01*
X4001704Y-19231943D01*
X3916374Y-19237525D01*
X3847360Y-19245843D01*
X3800524Y-19256274D01*
X3758709Y-19268271D01*
X3655398Y-19286768D01*
X3533747Y-19296189D01*
X3516354Y-19297067D01*
X3478337Y-19300937D01*
X3456768Y-19306031D01*
X3449882Y-19309124D01*
X3421666Y-19316187D01*
X3411933Y-19317375D01*
X3315557Y-19330850D01*
X3223016Y-19346643D01*
X3138318Y-19363797D01*
X3065469Y-19381356D01*
X3008473Y-19398362D01*
X2971338Y-19413861D01*
X2958069Y-19426894D01*
X2958536Y-19427952D01*
X2974843Y-19431103D01*
X3007213Y-19429546D01*
X3031630Y-19427869D01*
X3051422Y-19433005D01*
X3056356Y-19450277D01*
X3058319Y-19464730D01*
X3068057Y-19476423D01*
X3072320Y-19477367D01*
X3080092Y-19494613D01*
X3076288Y-19528221D01*
X3061399Y-19571199D01*
X3051685Y-19590966D01*
X3038804Y-19606257D01*
X3019194Y-19614060D01*
X2987600Y-19615168D01*
X2938767Y-19610375D01*
X2867441Y-19600472D01*
X2811611Y-19593524D01*
X2757369Y-19591283D01*
X2703244Y-19595965D01*
X2635689Y-19608011D01*
X2613540Y-19612546D01*
X2563200Y-19623455D01*
X2527106Y-19632153D01*
X2511918Y-19637076D01*
X2511634Y-19637756D01*
X2523679Y-19643973D01*
X2553389Y-19651352D01*
X2567450Y-19654196D01*
X2616140Y-19664752D01*
X2667542Y-19676614D01*
X2700153Y-19683377D01*
X2736365Y-19685123D01*
X2762127Y-19675860D01*
X2796638Y-19662714D01*
X2859969Y-19662068D01*
X2940013Y-19681759D01*
X2980434Y-19692862D01*
X3035907Y-19698508D01*
X3105484Y-19694827D01*
X3107748Y-19694607D01*
X3161544Y-19690468D01*
X3233741Y-19686340D01*
X3315171Y-19682689D01*
X3396669Y-19679982D01*
X3416120Y-19679419D01*
X3486039Y-19676571D01*
X3545014Y-19672921D01*
X3587332Y-19668879D01*
X3607282Y-19664854D01*
X3616835Y-19660689D01*
X3610972Y-19669999D01*
X3598443Y-19678535D01*
X3562224Y-19690498D01*
X3504138Y-19701414D01*
X3422943Y-19711428D01*
X3317395Y-19720684D01*
X3186253Y-19729326D01*
X3028274Y-19737497D01*
X2953159Y-19740807D01*
X2767171Y-19747078D01*
X2605878Y-19749330D01*
X2467009Y-19747509D01*
X2348290Y-19741560D01*
X2247451Y-19731430D01*
X2162219Y-19717066D01*
X2125293Y-19709214D01*
X2060269Y-19694776D01*
X2016870Y-19683743D01*
X1990975Y-19674815D01*
X1988172Y-19672995D01*
X2234963Y-19672995D01*
X2237837Y-19676830D01*
X2256853Y-19687036D01*
X2259987Y-19686634D01*
X2261083Y-19685151D01*
X2312188Y-19685151D01*
X2313944Y-19687827D01*
X2333887Y-19690728D01*
X2368908Y-19686935D01*
X2381044Y-19684509D01*
X2416471Y-19674842D01*
X2435602Y-19665521D01*
X2436342Y-19660733D01*
X2419856Y-19663738D01*
X2392725Y-19669833D01*
X2353162Y-19672995D01*
X2324370Y-19676523D01*
X2312188Y-19685151D01*
X2261083Y-19685151D01*
X2270065Y-19672995D01*
X2267386Y-19666285D01*
X2248175Y-19658955D01*
X2238146Y-19660975D01*
X2234963Y-19672995D01*
X1988172Y-19672995D01*
X1978461Y-19666691D01*
X1975206Y-19658071D01*
X1974439Y-19656671D01*
X1955896Y-19651672D01*
X1917631Y-19648635D01*
X1866389Y-19648174D01*
X1829925Y-19647782D01*
X1724448Y-19634383D01*
X2003503Y-19634383D01*
X2007091Y-19647623D01*
X2027859Y-19660178D01*
X2042248Y-19661034D01*
X2081117Y-19663685D01*
X2128838Y-19667182D01*
X2145432Y-19668203D01*
X2193779Y-19666434D01*
X2216378Y-19655427D01*
X2220433Y-19648271D01*
X2458687Y-19648271D01*
X2464005Y-19654505D01*
X2472125Y-19656748D01*
X2490917Y-19653397D01*
X2490699Y-19648604D01*
X2472488Y-19646022D01*
X2458687Y-19648271D01*
X2220433Y-19648271D01*
X2220821Y-19647587D01*
X2227727Y-19627362D01*
X2225041Y-19621905D01*
X2206490Y-19617046D01*
X2181809Y-19620291D01*
X2164758Y-19630873D01*
X2161753Y-19634697D01*
X2139358Y-19644699D01*
X2132716Y-19641922D01*
X2143697Y-19629738D01*
X2147979Y-19626676D01*
X2154758Y-19619035D01*
X2136676Y-19622266D01*
X2115492Y-19627700D01*
X2068827Y-19638648D01*
X2040835Y-19642318D01*
X2025307Y-19639070D01*
X2016037Y-19629263D01*
X2010987Y-19623852D01*
X2045410Y-19623852D01*
X2052431Y-19630873D01*
X2059451Y-19623852D01*
X2052431Y-19616832D01*
X2298147Y-19616832D01*
X2298555Y-19620188D01*
X2312188Y-19630873D01*
X2315544Y-19630465D01*
X2326229Y-19616832D01*
X2325821Y-19613476D01*
X2321145Y-19609811D01*
X2368351Y-19609811D01*
X2375372Y-19616832D01*
X2382392Y-19609811D01*
X2375372Y-19602791D01*
X2368351Y-19609811D01*
X2321145Y-19609811D01*
X2312188Y-19602791D01*
X2308832Y-19603199D01*
X2298147Y-19616832D01*
X2052431Y-19616832D01*
X2045410Y-19623852D01*
X2010987Y-19623852D01*
X2006175Y-19618696D01*
X2003503Y-19634383D01*
X1724448Y-19634383D01*
X1722197Y-19634097D01*
X1607820Y-19600683D01*
X1481677Y-19546184D01*
X1448545Y-19530705D01*
X1420033Y-19518545D01*
X2340270Y-19518545D01*
X2340678Y-19521902D01*
X2354310Y-19532586D01*
X2357667Y-19532178D01*
X2368351Y-19518545D01*
X2367943Y-19515189D01*
X2354310Y-19504505D01*
X2350954Y-19504913D01*
X2340270Y-19518545D01*
X1420033Y-19518545D01*
X1381865Y-19502267D01*
X1320207Y-19478769D01*
X1295546Y-19470819D01*
X2234542Y-19470819D01*
X2248175Y-19473317D01*
X2257345Y-19474997D01*
X2307377Y-19474096D01*
X2312188Y-19473982D01*
X2347781Y-19473140D01*
X2354310Y-19473576D01*
X2375372Y-19474984D01*
X2378130Y-19475168D01*
X2387283Y-19479933D01*
X2386788Y-19485080D01*
X2401796Y-19490464D01*
X2411287Y-19489246D01*
X2431156Y-19477036D01*
X2436342Y-19472404D01*
X2436994Y-19471822D01*
X2459214Y-19471190D01*
X2472488Y-19472647D01*
X2474649Y-19472884D01*
X2504397Y-19463984D01*
X2512854Y-19458808D01*
X2519701Y-19452063D01*
X2513008Y-19448047D01*
X2489144Y-19446308D01*
X2444475Y-19446391D01*
X2375372Y-19447840D01*
X2348994Y-19448767D01*
X2294949Y-19452649D01*
X2254529Y-19458295D01*
X2234963Y-19464832D01*
X2234542Y-19470819D01*
X1295546Y-19470819D01*
X1259236Y-19459114D01*
X1202445Y-19446548D01*
X1162916Y-19447421D01*
X1136416Y-19461977D01*
X1118711Y-19490464D01*
X1117889Y-19492395D01*
X1099678Y-19520846D01*
X1080403Y-19532586D01*
X1068098Y-19528435D01*
X1069674Y-19508015D01*
X1076697Y-19490670D01*
X1098745Y-19431860D01*
X1116173Y-19378917D01*
X1126906Y-19338521D01*
X1128870Y-19317349D01*
X1127715Y-19316134D01*
X1117075Y-19326362D01*
X1098731Y-19355827D01*
X1075853Y-19399613D01*
X1058642Y-19434567D01*
X1041267Y-19467359D01*
X1031418Y-19479361D01*
X1026357Y-19473298D01*
X1023345Y-19451896D01*
X1022294Y-19443460D01*
X1010691Y-19412183D01*
X984436Y-19397721D01*
X962017Y-19390554D01*
X950220Y-19382876D01*
X955238Y-19370924D01*
X970702Y-19340727D01*
X992972Y-19299779D01*
X1011607Y-19265139D01*
X1024278Y-19235177D01*
X1024887Y-19216576D01*
X1015037Y-19202252D01*
X994591Y-19186266D01*
X974647Y-19185837D01*
X951758Y-19205198D01*
X920721Y-19246807D01*
X916551Y-19252914D01*
X893022Y-19291562D01*
X885333Y-19317072D01*
X891138Y-19336559D01*
X897682Y-19347598D01*
X903173Y-19362120D01*
X897696Y-19369004D01*
X878171Y-19367847D01*
X841518Y-19358245D01*
X784655Y-19339794D01*
X704504Y-19312091D01*
X635981Y-19287536D01*
X549858Y-19255214D01*
X465912Y-19222295D01*
X388179Y-19190479D01*
X320695Y-19161462D01*
X267495Y-19136946D01*
X232616Y-19118627D01*
X220093Y-19108204D01*
X208602Y-19100608D01*
X179825Y-19097318D01*
X177689Y-19097257D01*
X143787Y-19089804D01*
X113111Y-19078597D01*
X182650Y-19078597D01*
X184708Y-19080277D01*
X201371Y-19078597D01*
X203568Y-19074374D01*
X192011Y-19069236D01*
X184578Y-19070250D01*
X182650Y-19078597D01*
X113111Y-19078597D01*
X95979Y-19072338D01*
X43897Y-19048330D01*
X40368Y-19046575D01*
X98142Y-19046575D01*
X114786Y-19055196D01*
X133122Y-19062408D01*
X153398Y-19068250D01*
X155948Y-19068070D01*
X156544Y-19067109D01*
X248149Y-19067109D01*
X258150Y-19084828D01*
X269873Y-19091906D01*
X299336Y-19094511D01*
X311731Y-19091283D01*
X314038Y-19084473D01*
X292605Y-19070995D01*
X284406Y-19066868D01*
X258902Y-19060319D01*
X248149Y-19067109D01*
X156544Y-19067109D01*
X163929Y-19055196D01*
X153313Y-19045822D01*
X125317Y-19042141D01*
X105898Y-19043031D01*
X98142Y-19046575D01*
X40368Y-19046575D01*
X22183Y-19037531D01*
X-95158Y-18992011D01*
X121806Y-18992011D01*
X128827Y-18999032D01*
X135847Y-18992011D01*
X128827Y-18984991D01*
X121806Y-18992011D01*
X-95158Y-18992011D01*
X-137050Y-18975760D01*
X-305796Y-18938712D01*
X-478662Y-18927632D01*
X-548426Y-18926401D01*
X-596922Y-18919909D01*
X-627907Y-18907442D01*
X-645952Y-18896419D01*
X-661042Y-18893904D01*
X-669971Y-18908832D01*
X-672715Y-18914611D01*
X-689841Y-18925819D01*
X-724320Y-18923142D01*
X-725150Y-18922982D01*
X-761782Y-18916226D01*
X-786725Y-18912212D01*
X-792736Y-18910628D01*
X-797410Y-18899996D01*
X-798393Y-18890007D01*
X-801155Y-18886705D01*
X-524075Y-18886705D01*
X-523667Y-18890061D01*
X-510035Y-18900746D01*
X-506678Y-18900338D01*
X-495994Y-18886705D01*
X-496402Y-18883349D01*
X-510035Y-18872664D01*
X-513391Y-18873072D01*
X-524075Y-18886705D01*
X-801155Y-18886705D01*
X-814504Y-18870744D01*
X-824085Y-18863273D01*
X-833410Y-18861605D01*
X-829704Y-18883194D01*
X-826848Y-18900847D01*
X-835841Y-18912149D01*
X-865882Y-18914289D01*
X-904712Y-18908744D01*
X-945303Y-18893725D01*
X-979933Y-18880222D01*
X-1024253Y-18873161D01*
X-1042211Y-18871351D01*
X-1088111Y-18860200D01*
X-1136580Y-18842353D01*
X-1147863Y-18837561D01*
X-481953Y-18837561D01*
X-474932Y-18844582D01*
X-467912Y-18837561D01*
X-474932Y-18830541D01*
X-481953Y-18837561D01*
X-1147863Y-18837561D01*
X-1150771Y-18836326D01*
X-1187372Y-18824146D01*
X-1227823Y-18817115D01*
X-1280178Y-18814190D01*
X-1352489Y-18814325D01*
X-1394809Y-18814417D01*
X-1459626Y-18812478D01*
X-1513603Y-18808420D01*
X-1548132Y-18802753D01*
X-1568210Y-18797605D01*
X-1597262Y-18794864D01*
X-1602654Y-18803840D01*
X-1583139Y-18823785D01*
X-1571987Y-18833336D01*
X-1571498Y-18839635D01*
X-1590569Y-18839932D01*
X-1633307Y-18835157D01*
X-1633965Y-18835074D01*
X-1684737Y-18829062D01*
X-1721344Y-18826257D01*
X-1757304Y-18826101D01*
X-1806137Y-18828038D01*
X-1817209Y-18828823D01*
X-1844880Y-18834247D01*
X-1852451Y-18842138D01*
X-1857626Y-18845166D01*
X-1885868Y-18848286D01*
X-1934556Y-18850303D01*
X-1999301Y-18851290D01*
X-2075711Y-18851317D01*
X-2159395Y-18850454D01*
X-2245963Y-18848773D01*
X-2331024Y-18846344D01*
X-2410188Y-18843239D01*
X-2479064Y-18839528D01*
X-2533261Y-18835283D01*
X-2568389Y-18830573D01*
X-2632434Y-18814383D01*
X-2743323Y-18774869D01*
X-2854013Y-18723141D01*
X-2928754Y-18678570D01*
X-2851783Y-18678570D01*
X-2843867Y-18692706D01*
X-2834423Y-18700129D01*
X-2819998Y-18702067D01*
X-2817366Y-18696886D01*
X-2825385Y-18683014D01*
X-2845973Y-18676091D01*
X-2851783Y-18678570D01*
X-2928754Y-18678570D01*
X-2952613Y-18664342D01*
X-2991987Y-18635530D01*
X-3042152Y-18595205D01*
X-3093682Y-18550867D01*
X-3141901Y-18506805D01*
X-3182132Y-18467310D01*
X-3209701Y-18436668D01*
X-3219929Y-18419170D01*
X-3221702Y-18414054D01*
X-3237573Y-18392003D01*
X-3264560Y-18362601D01*
X-3278451Y-18346943D01*
X-3314265Y-18294115D01*
X-3350718Y-18226396D01*
X-3383736Y-18152549D01*
X-3407587Y-18085958D01*
X-3335253Y-18085958D01*
X-3331400Y-18100734D01*
X-3318122Y-18135635D01*
X-3300825Y-18172108D01*
X-3284111Y-18200856D01*
X-3272583Y-18212580D01*
X-3262831Y-18209304D01*
X-3271186Y-18194247D01*
X-3274718Y-18188460D01*
X-3285111Y-18160944D01*
X-3296592Y-18121023D01*
X-3302637Y-18100291D01*
X-3315256Y-18070682D01*
X-3326071Y-18060707D01*
X-3331812Y-18065030D01*
X-3335253Y-18085958D01*
X-3407587Y-18085958D01*
X-3409243Y-18081335D01*
X-3423166Y-18021514D01*
X-3426963Y-17998059D01*
X-3427670Y-17995107D01*
X-3360339Y-17995107D01*
X-3353318Y-18002128D01*
X-3346298Y-17995107D01*
X-3353318Y-17988087D01*
X-3360339Y-17995107D01*
X-3427670Y-17995107D01*
X-3438883Y-17948262D01*
X-3452670Y-17911092D01*
X-3453375Y-17909328D01*
X-3400255Y-17909328D01*
X-3396903Y-17928120D01*
X-3392110Y-17927903D01*
X-3389529Y-17909692D01*
X-3391777Y-17895890D01*
X-3398012Y-17901209D01*
X-3400255Y-17909328D01*
X-3453375Y-17909328D01*
X-3467683Y-17873517D01*
X-3469012Y-17825237D01*
X-3444584Y-17787751D01*
X-3426903Y-17764514D01*
X-3416502Y-17727639D01*
X-3412944Y-17704224D01*
X-3400249Y-17701615D01*
X-3399473Y-17702083D01*
X-3391777Y-17701345D01*
X-3390230Y-17701197D01*
X-3394784Y-17677872D01*
X-3396491Y-17671971D01*
X-3404258Y-17632073D01*
X-3409363Y-17585778D01*
X-3410357Y-17573477D01*
X-3416024Y-17534714D01*
X-3423343Y-17510986D01*
X-3423997Y-17509868D01*
X-3421015Y-17499348D01*
X-3393425Y-17499088D01*
X-3382805Y-17500604D01*
X-3360925Y-17510442D01*
X-3358813Y-17531757D01*
X-3359472Y-17535262D01*
X-3364987Y-17586654D01*
X-3365612Y-17644889D01*
X-3361894Y-17701269D01*
X-3354378Y-17747095D01*
X-3353318Y-17749711D01*
X-3343611Y-17773668D01*
X-3336994Y-17783743D01*
X-3326071Y-17812165D01*
X-3322853Y-17820538D01*
X-3313227Y-17866165D01*
X-3309967Y-17886074D01*
X-3297890Y-17931849D01*
X-3283254Y-17964065D01*
X-3268476Y-17998449D01*
X-3262052Y-18041015D01*
X-3259974Y-18060862D01*
X-3242407Y-18115588D01*
X-3209725Y-18181677D01*
X-3165295Y-18253442D01*
X-3112485Y-18325195D01*
X-3054664Y-18391249D01*
X-3002950Y-18441554D01*
X-2874531Y-18542660D01*
X-2845973Y-18559329D01*
X-2725527Y-18629631D01*
X-2700655Y-18642809D01*
X-2667602Y-18662765D01*
X-2651219Y-18676177D01*
X-2647173Y-18680115D01*
X-2621989Y-18693182D01*
X-2583986Y-18706494D01*
X-2550520Y-18717405D01*
X-2542190Y-18724264D01*
X-2556740Y-18728946D01*
X-2559604Y-18729337D01*
X-2596168Y-18727551D01*
X-2638416Y-18717823D01*
X-2655399Y-18712581D01*
X-2687136Y-18707550D01*
X-2697171Y-18717638D01*
X-2687620Y-18743969D01*
X-2669047Y-18764035D01*
X-2623235Y-18786927D01*
X-2558229Y-18804155D01*
X-2478933Y-18815107D01*
X-2390252Y-18819172D01*
X-2297091Y-18815738D01*
X-2204354Y-18804195D01*
X-2183834Y-18800995D01*
X-2121656Y-18793521D01*
X-2048399Y-18786850D01*
X-1975915Y-18782127D01*
X-1935752Y-18779914D01*
X-1879008Y-18775943D01*
X-1836222Y-18771895D01*
X-1814444Y-18768371D01*
X-1803499Y-18765648D01*
X-1768238Y-18759812D01*
X-1722946Y-18754327D01*
X-1699719Y-18751467D01*
X-1649507Y-18742442D01*
X-1611730Y-18732059D01*
X-1599773Y-18728086D01*
X-1563288Y-18725440D01*
X-1518297Y-18738711D01*
X-1479519Y-18753864D01*
X-1460803Y-18758132D01*
X-1456676Y-18750491D01*
X-1461322Y-18730059D01*
X-1463609Y-18710286D01*
X-1452987Y-18709826D01*
X-1444049Y-18712228D01*
X-1436734Y-18697981D01*
X-1431821Y-18685241D01*
X-1408653Y-18676091D01*
X-1392707Y-18679361D01*
X-1384081Y-18692808D01*
X-1380990Y-18706498D01*
X-1362129Y-18714852D01*
X-1336465Y-18711576D01*
X-1314912Y-18696143D01*
X-1313833Y-18694722D01*
X-1294442Y-18680324D01*
X-1260422Y-18672246D01*
X-1205128Y-18668835D01*
X-1159849Y-18666616D01*
X-1122281Y-18662436D01*
X-1104393Y-18657330D01*
X-1097581Y-18653078D01*
X-1071978Y-18648009D01*
X-1048309Y-18640536D01*
X-1018742Y-18619927D01*
X-1013651Y-18615335D01*
X-979747Y-18595202D01*
X-945028Y-18597722D01*
X-901891Y-18623101D01*
X-878539Y-18638997D01*
X-859412Y-18644891D01*
X-847323Y-18634465D01*
X-830688Y-18623572D01*
X-793733Y-18617791D01*
X-747378Y-18619735D01*
X-701128Y-18628872D01*
X-664484Y-18644673D01*
X-638311Y-18656908D01*
X-595890Y-18663802D01*
X-533633Y-18663659D01*
X-524613Y-18663272D01*
X-510035Y-18662949D01*
X-477129Y-18662221D01*
X-474932Y-18662462D01*
X-449976Y-18665195D01*
X-436461Y-18673896D01*
X-429886Y-18690023D01*
X-423719Y-18706106D01*
X-407760Y-18715170D01*
X-374662Y-18711748D01*
X-324472Y-18711693D01*
X-262071Y-18731802D01*
X-242766Y-18739815D01*
X-188336Y-18753706D01*
X-130930Y-18751991D01*
X-124176Y-18751109D01*
X-96274Y-18748726D01*
X-72574Y-18751496D01*
X-48108Y-18762196D01*
X-17908Y-18783604D01*
X22997Y-18818496D01*
X79574Y-18869651D01*
X79731Y-18869794D01*
X110030Y-18892905D01*
X128827Y-18905197D01*
X155389Y-18922568D01*
X192011Y-18944131D01*
X206052Y-18952399D01*
X210177Y-18954694D01*
X257176Y-18981464D01*
X258902Y-18982495D01*
X295346Y-19004266D01*
X316765Y-19018379D01*
X325958Y-19023742D01*
X363977Y-19037222D01*
X421357Y-19051920D01*
X492175Y-19066748D01*
X570507Y-19080617D01*
X650430Y-19092439D01*
X726020Y-19101125D01*
X791353Y-19105587D01*
X807639Y-19106133D01*
X866652Y-19107614D01*
X903660Y-19106826D01*
X923625Y-19102967D01*
X931512Y-19095235D01*
X932284Y-19082829D01*
X926973Y-19066302D01*
X905109Y-19047227D01*
X891505Y-19040803D01*
X880015Y-19026168D01*
X874756Y-19018561D01*
X851933Y-19013073D01*
X835572Y-19009708D01*
X823852Y-18995226D01*
X823253Y-18989718D01*
X817099Y-18976531D01*
X801308Y-18956918D01*
X772243Y-18926640D01*
X726267Y-18881459D01*
X702114Y-18865139D01*
X662585Y-18864337D01*
X634968Y-18868183D01*
X611678Y-18864679D01*
X607891Y-18861324D01*
X608736Y-18844674D01*
X626515Y-18825268D01*
X654126Y-18809173D01*
X684470Y-18802459D01*
X727079Y-18799630D01*
X757831Y-18790334D01*
X764466Y-18777604D01*
X745886Y-18764621D01*
X726757Y-18760336D01*
X1006383Y-18760336D01*
X1006791Y-18763693D01*
X1020424Y-18774377D01*
X1023780Y-18773969D01*
X1034465Y-18760336D01*
X1034057Y-18756980D01*
X1020424Y-18746296D01*
X1017068Y-18746704D01*
X1006383Y-18760336D01*
X726757Y-18760336D01*
X700994Y-18754565D01*
X659121Y-18749487D01*
X612283Y-18746244D01*
X579525Y-18749652D01*
X552589Y-18760955D01*
X523216Y-18781401D01*
X513423Y-18788495D01*
X476645Y-18808196D01*
X450644Y-18810991D01*
X424519Y-18807181D01*
X410116Y-18817469D01*
X416665Y-18837561D01*
X424195Y-18849988D01*
X417221Y-18865300D01*
X408941Y-18868581D01*
X382545Y-18867617D01*
X358735Y-18856916D01*
X350256Y-18841086D01*
X349863Y-18837809D01*
X333535Y-18825560D01*
X300570Y-18816028D01*
X298599Y-18815686D01*
X265811Y-18811574D01*
X253696Y-18816456D01*
X255883Y-18832709D01*
X258360Y-18848573D01*
X246446Y-18858082D01*
X213862Y-18849963D01*
X200118Y-18840548D01*
X206668Y-18822778D01*
X212656Y-18801279D01*
X207062Y-18775206D01*
X194148Y-18755541D01*
X178318Y-18753101D01*
X159935Y-18756253D01*
X130269Y-18744821D01*
X104640Y-18722107D01*
X97312Y-18704173D01*
X725565Y-18704173D01*
X727912Y-18720482D01*
X738104Y-18732255D01*
X750731Y-18724824D01*
X760599Y-18703441D01*
X757360Y-18684484D01*
X749707Y-18678486D01*
X732573Y-18679798D01*
X725565Y-18704173D01*
X97312Y-18704173D01*
X93724Y-18695393D01*
X85041Y-18666040D01*
X55841Y-18644847D01*
X2459Y-18629947D01*
X-36464Y-18620129D01*
X-81787Y-18604463D01*
X-118892Y-18591740D01*
X-151991Y-18584884D01*
X-176406Y-18581487D01*
X-215175Y-18572561D01*
X-235189Y-18567070D01*
X-240764Y-18568857D01*
X-223023Y-18584098D01*
X-200298Y-18597176D01*
X-164177Y-18605887D01*
X-143426Y-18608727D01*
X-123910Y-18619927D01*
X-121785Y-18628681D01*
X-138422Y-18633092D01*
X-179682Y-18625262D01*
X-245186Y-18605237D01*
X-278550Y-18593410D01*
X-343821Y-18565090D01*
X-345163Y-18564204D01*
X781729Y-18564204D01*
X784102Y-18570457D01*
X802790Y-18577805D01*
X812386Y-18577195D01*
X823852Y-18572286D01*
X821265Y-18568652D01*
X802790Y-18558686D01*
X792021Y-18556479D01*
X781729Y-18564204D01*
X-345163Y-18564204D01*
X-384004Y-18538559D01*
X-391418Y-18525619D01*
X-171629Y-18525619D01*
X-162756Y-18537424D01*
X-152432Y-18545436D01*
X-137579Y-18547011D01*
X-137702Y-18540687D01*
X-154896Y-18529564D01*
X-157560Y-18528565D01*
X-171629Y-18525619D01*
X-391418Y-18525619D01*
X-397707Y-18514643D01*
X-402981Y-18502906D01*
X-425789Y-18489491D01*
X-430668Y-18488005D01*
X-450533Y-18473988D01*
X-451034Y-18458649D01*
X-430901Y-18451437D01*
X-428943Y-18451396D01*
X-416454Y-18445883D01*
X-412913Y-18426375D01*
X-416878Y-18386159D01*
X-427091Y-18336665D01*
X-446967Y-18296453D01*
X-474204Y-18282946D01*
X-475556Y-18282848D01*
X-497066Y-18271749D01*
X-524075Y-18247843D01*
X-525876Y-18245965D01*
X-555934Y-18222437D01*
X-582687Y-18212741D01*
X-596694Y-18210195D01*
X-608321Y-18197178D01*
X-600599Y-18188586D01*
X-572483Y-18190610D01*
X-554202Y-18194571D01*
X-543732Y-18190977D01*
X-551915Y-18171071D01*
X-565019Y-18153622D01*
X-585106Y-18142537D01*
X-605193Y-18136692D01*
X-633121Y-18114616D01*
X-638334Y-18107152D01*
X68643Y-18107152D01*
X70323Y-18123815D01*
X74546Y-18126012D01*
X79684Y-18114455D01*
X78670Y-18107022D01*
X70323Y-18105094D01*
X68643Y-18107152D01*
X-638334Y-18107152D01*
X-653529Y-18085393D01*
X-657703Y-18059043D01*
X-656822Y-18055792D01*
X-658448Y-18017536D01*
X-661001Y-18010491D01*
X-369625Y-18010491D01*
X-367897Y-18021613D01*
X-355014Y-18050843D01*
X-334868Y-18080533D01*
X-313849Y-18102053D01*
X-298347Y-18106771D01*
X-288119Y-18096318D01*
X-289407Y-18078255D01*
X-303311Y-18044690D01*
X11791Y-18044690D01*
X29869Y-18066646D01*
X34608Y-18071234D01*
X50378Y-18078922D01*
X63581Y-18062133D01*
X66924Y-18055310D01*
X66569Y-18040265D01*
X43191Y-18035205D01*
X17923Y-18035614D01*
X11791Y-18044690D01*
X-303311Y-18044690D01*
X-303493Y-18044250D01*
X-303499Y-18044238D01*
X-316375Y-18023189D01*
X-60726Y-18023189D01*
X-53705Y-18030209D01*
X-46685Y-18023189D01*
X-53705Y-18016168D01*
X-60726Y-18023189D01*
X-316375Y-18023189D01*
X-324572Y-18009790D01*
X-346109Y-17990900D01*
X-362873Y-17990242D01*
X-369625Y-18010491D01*
X-661001Y-18010491D01*
X-674467Y-17973333D01*
X-700375Y-17936149D01*
X-712792Y-17916426D01*
X-713246Y-17874022D01*
X-710209Y-17857444D01*
X-711028Y-17852005D01*
X-197800Y-17852005D01*
X-184858Y-17877300D01*
X-171629Y-17889179D01*
X-158741Y-17900752D01*
X-153130Y-17904166D01*
X-135335Y-17910855D01*
X-130930Y-17899116D01*
X-130932Y-17898876D01*
X-139495Y-17878336D01*
X-158780Y-17855325D01*
X-180040Y-17838469D01*
X-194531Y-17836393D01*
X-197800Y-17852005D01*
X-711028Y-17852005D01*
X-713094Y-17838276D01*
X-731416Y-17833637D01*
X-552157Y-17833637D01*
X-551749Y-17836993D01*
X-538116Y-17847678D01*
X-534760Y-17847270D01*
X-524075Y-17833637D01*
X-524483Y-17830281D01*
X-538116Y-17819596D01*
X-541472Y-17820004D01*
X-552157Y-17833637D01*
X-731416Y-17833637D01*
X-733853Y-17833588D01*
X-768676Y-17826064D01*
X-805671Y-17809447D01*
X-835048Y-17789096D01*
X-847016Y-17770370D01*
X-851846Y-17758752D01*
X-814254Y-17758752D01*
X-812196Y-17760432D01*
X-795533Y-17758752D01*
X-793336Y-17754529D01*
X-804894Y-17749391D01*
X-812327Y-17750405D01*
X-814254Y-17758752D01*
X-851846Y-17758752D01*
X-852360Y-17757515D01*
X-875141Y-17742357D01*
X-883441Y-17739535D01*
X-895155Y-17729775D01*
X-882363Y-17712528D01*
X-872743Y-17701507D01*
X-869617Y-17683927D01*
X-883935Y-17657324D01*
X-904713Y-17633768D01*
X-925856Y-17623023D01*
X-937143Y-17620541D01*
X-938866Y-17617173D01*
X-636403Y-17617173D01*
X-634052Y-17627735D01*
X-619729Y-17633846D01*
X-601247Y-17619967D01*
X-598795Y-17603126D01*
X-614171Y-17594941D01*
X-625098Y-17597831D01*
X-636403Y-17617173D01*
X-938866Y-17617173D01*
X-944727Y-17605718D01*
X-931262Y-17587921D01*
X-926730Y-17584848D01*
X-916307Y-17568306D01*
X-928745Y-17556969D01*
X-959610Y-17555853D01*
X-989718Y-17556722D01*
X-1015098Y-17546737D01*
X-1019356Y-17527978D01*
X-999011Y-17504940D01*
X-993570Y-17501129D01*
X-450727Y-17501129D01*
X-434722Y-17515039D01*
X-414386Y-17512887D01*
X-388697Y-17494456D01*
X-372805Y-17475461D01*
X-376110Y-17468702D01*
X-403846Y-17470831D01*
X-417284Y-17473201D01*
X-443606Y-17485309D01*
X-450727Y-17501129D01*
X-993570Y-17501129D01*
X-967136Y-17482614D01*
X-1003186Y-17482614D01*
X-1032001Y-17476142D01*
X-1043436Y-17468573D01*
X-952323Y-17468573D01*
X-951806Y-17477074D01*
X-932919Y-17482614D01*
X-915906Y-17480249D01*
X-896159Y-17468573D01*
X-896586Y-17461553D01*
X-355585Y-17461553D01*
X-348564Y-17468573D01*
X-341544Y-17461553D01*
X-348564Y-17454532D01*
X-355585Y-17461553D01*
X-896586Y-17461553D01*
X-896676Y-17460072D01*
X-915564Y-17454532D01*
X-932576Y-17456898D01*
X-952323Y-17468573D01*
X-1043436Y-17468573D01*
X-1064650Y-17454532D01*
X-1089894Y-17436552D01*
X-1124128Y-17427596D01*
X-692566Y-17427596D01*
X-692109Y-17430141D01*
X-676209Y-17439334D01*
X-644443Y-17441577D01*
X-614171Y-17438504D01*
X-606148Y-17437690D01*
X-570659Y-17428495D01*
X-547313Y-17414814D01*
X-542841Y-17409688D01*
X-538116Y-17401211D01*
X-526485Y-17380345D01*
X-535737Y-17362357D01*
X-570391Y-17356246D01*
X-583836Y-17358263D01*
X-617111Y-17370896D01*
X-652678Y-17390372D01*
X-681006Y-17411127D01*
X-692566Y-17427596D01*
X-1124128Y-17427596D01*
X-1128508Y-17426450D01*
X-1154320Y-17422595D01*
X-1173369Y-17408829D01*
X-1171950Y-17391669D01*
X-1147315Y-17378165D01*
X-1122015Y-17374324D01*
X-1100285Y-17376978D01*
X-1081822Y-17378278D01*
X-1050621Y-17370291D01*
X-1013173Y-17356053D01*
X-1051346Y-17310517D01*
X-1059570Y-17301181D01*
X-1079010Y-17286270D01*
X-446709Y-17286270D01*
X-442852Y-17290701D01*
X-424819Y-17292462D01*
X-419433Y-17288786D01*
X-413351Y-17276628D01*
X-433638Y-17272000D01*
X-443658Y-17274060D01*
X-446709Y-17286270D01*
X-1079010Y-17286270D01*
X-1099659Y-17270432D01*
X-1152718Y-17255339D01*
X-1196572Y-17246846D01*
X-1226977Y-17235801D01*
X-1230289Y-17225826D01*
X-1206404Y-17218598D01*
X-1155214Y-17215798D01*
X-1124184Y-17216505D01*
X-1060589Y-17225340D01*
X-1007146Y-17246215D01*
X-1006048Y-17246794D01*
X-957207Y-17266170D01*
X-922901Y-17266313D01*
X-916307Y-17263558D01*
X-915564Y-17262866D01*
X-907005Y-17254900D01*
X-909470Y-17250420D01*
X-845780Y-17250420D01*
X-829465Y-17257808D01*
X-811468Y-17255487D01*
X-804894Y-17253813D01*
X-769270Y-17244742D01*
X-719505Y-17228560D01*
X-673168Y-17210631D01*
X-641255Y-17194646D01*
X-615593Y-17181006D01*
X-589368Y-17173714D01*
X-570391Y-17164697D01*
X-569476Y-17164262D01*
X-546908Y-17139344D01*
X-534656Y-17113529D01*
X-538803Y-17096292D01*
X-560232Y-17096449D01*
X-595046Y-17115897D01*
X-629108Y-17137578D01*
X-655170Y-17144965D01*
X-664484Y-17132906D01*
X-673448Y-17126207D01*
X-699217Y-17130709D01*
X-734498Y-17144665D01*
X-771908Y-17165107D01*
X-804065Y-17189065D01*
X-813460Y-17197946D01*
X-840113Y-17229570D01*
X-845780Y-17250420D01*
X-909470Y-17250420D01*
X-914812Y-17240712D01*
X-942014Y-17214835D01*
X-953653Y-17205069D01*
X-987796Y-17182663D01*
X-1014009Y-17173714D01*
X-1029589Y-17170867D01*
X-1057254Y-17153105D01*
X-1062979Y-17147525D01*
X-1089706Y-17138402D01*
X-1135418Y-17140866D01*
X-1150096Y-17142546D01*
X-1191978Y-17143967D01*
X-1220231Y-17140121D01*
X-1231176Y-17135347D01*
X-1236216Y-17125340D01*
X-1221012Y-17105621D01*
X-1217738Y-17101893D01*
X-1199295Y-17068272D01*
X-1207181Y-17043172D01*
X-1240977Y-17028228D01*
X-1275855Y-17016939D01*
X-1303534Y-17000021D01*
X-1311202Y-16990626D01*
X-1085712Y-16990626D01*
X-1085398Y-16993373D01*
X-1071058Y-17007661D01*
X-1045864Y-17012957D01*
X-1024392Y-17005683D01*
X-1005417Y-16995250D01*
X-967840Y-16992687D01*
X-931379Y-17004854D01*
X-918626Y-17017527D01*
X-927149Y-17034809D01*
X-930874Y-17039048D01*
X-935677Y-17059343D01*
X-923161Y-17091557D01*
X-910159Y-17110533D01*
X-888113Y-17128410D01*
X-869129Y-17132205D01*
X-861057Y-17118510D01*
X-857375Y-17112801D01*
X-835111Y-17093314D01*
X-797165Y-17065203D01*
X-748730Y-17032447D01*
X-720173Y-17013499D01*
X-677091Y-16983137D01*
X-647439Y-16959833D01*
X-647284Y-16959660D01*
X-533213Y-16959660D01*
X-512843Y-16963100D01*
X-495610Y-16962182D01*
X-482806Y-16955172D01*
X-497217Y-16941283D01*
X-506129Y-16938699D01*
X-528107Y-16947475D01*
X-528431Y-16947801D01*
X-533213Y-16959660D01*
X-647284Y-16959660D01*
X-636403Y-16947509D01*
X-645226Y-16937390D01*
X-671505Y-16926744D01*
X-690445Y-16920682D01*
X-704759Y-16907718D01*
X-691365Y-16893080D01*
X-650444Y-16877196D01*
X-642271Y-16874657D01*
X-608363Y-16860134D01*
X-421109Y-16860134D01*
X-419051Y-16861814D01*
X-402388Y-16860134D01*
X-400191Y-16855911D01*
X-411748Y-16850773D01*
X-419181Y-16851787D01*
X-421109Y-16860134D01*
X-608363Y-16860134D01*
X-604041Y-16858283D01*
X-592786Y-16843375D01*
X-607544Y-16830885D01*
X-647355Y-16821764D01*
X-711258Y-16816963D01*
X-751437Y-16814280D01*
X-796814Y-16807577D01*
X-810817Y-16803268D01*
X-481953Y-16803268D01*
X-476727Y-16806386D01*
X-453871Y-16808650D01*
X-437561Y-16806268D01*
X-425789Y-16795924D01*
X-431482Y-16789754D01*
X-453871Y-16790541D01*
X-470376Y-16795892D01*
X-481953Y-16803268D01*
X-810817Y-16803268D01*
X-825216Y-16798837D01*
X-843229Y-16793753D01*
X-882798Y-16797058D01*
X-928230Y-16811222D01*
X-971104Y-16832563D01*
X-1003003Y-16857399D01*
X-1015507Y-16882048D01*
X-1014369Y-16891844D01*
X-1001090Y-16904801D01*
X-970392Y-16902489D01*
X-919138Y-16885005D01*
X-914837Y-16883294D01*
X-877843Y-16871372D01*
X-848479Y-16872075D01*
X-810712Y-16885473D01*
X-757100Y-16907873D01*
X-816829Y-16967079D01*
X-820624Y-16970838D01*
X-852614Y-17001383D01*
X-871817Y-17014581D01*
X-884513Y-17012924D01*
X-896980Y-16998906D01*
X-919756Y-16982775D01*
X-957458Y-16971453D01*
X-1001171Y-16966215D01*
X-1042628Y-16967423D01*
X-1073563Y-16975439D01*
X-1085712Y-16990626D01*
X-1311202Y-16990626D01*
X-1312235Y-16989360D01*
X-1307964Y-16979459D01*
X-1279902Y-16971751D01*
X-1261856Y-16968955D01*
X-1213694Y-16964754D01*
X-1161182Y-16963100D01*
X-1131043Y-16962161D01*
X-1098395Y-16958087D01*
X-1085712Y-16951880D01*
X-1086570Y-16949331D01*
X-1103904Y-16936677D01*
X-1135820Y-16922774D01*
X-1172106Y-16911551D01*
X-1202546Y-16906937D01*
X-1214588Y-16904954D01*
X-1226121Y-16892896D01*
X-1217612Y-16886670D01*
X-1187715Y-16881024D01*
X-1143513Y-16878855D01*
X-1131680Y-16878795D01*
X-1087448Y-16876257D01*
X-1063180Y-16868683D01*
X-1052238Y-16854283D01*
X-1047188Y-16840636D01*
X-1035389Y-16812161D01*
X-1034147Y-16806622D01*
X-1046572Y-16797440D01*
X-1083713Y-16794610D01*
X-1095479Y-16794311D01*
X-1130526Y-16789465D01*
X-1148896Y-16780569D01*
X-1146721Y-16770706D01*
X-1126067Y-16764107D01*
X-1094656Y-16765394D01*
X-1087090Y-16765888D01*
X-1055600Y-16766343D01*
X-1006713Y-16766266D01*
X-947227Y-16765646D01*
X-910035Y-16765118D01*
X-843229Y-16764301D01*
X-841668Y-16764282D01*
X-793202Y-16764121D01*
X-758926Y-16764814D01*
X-733134Y-16766535D01*
X-710116Y-16769462D01*
X-684164Y-16773770D01*
X-638360Y-16776996D01*
X-587834Y-16763374D01*
X-549050Y-16743053D01*
X-600493Y-16712701D01*
X-651937Y-16682348D01*
X-709991Y-16710397D01*
X-713230Y-16711961D01*
X-747937Y-16727776D01*
X-775396Y-16735442D01*
X-804116Y-16734889D01*
X-842606Y-16726048D01*
X-899375Y-16708849D01*
X-900493Y-16708501D01*
X-950665Y-16692914D01*
X-991533Y-16680274D01*
X-1014345Y-16673287D01*
X-1026158Y-16666216D01*
X-1017855Y-16650932D01*
X-1015541Y-16648009D01*
X-987425Y-16648009D01*
X-987060Y-16649410D01*
X-973384Y-16654201D01*
X-969536Y-16653629D01*
X-959344Y-16639331D01*
X-960446Y-16634252D01*
X-973384Y-16633139D01*
X-977586Y-16636021D01*
X-987425Y-16648009D01*
X-1015541Y-16648009D01*
X-1001934Y-16630821D01*
X-1002425Y-16621056D01*
X-928010Y-16621056D01*
X-921696Y-16641301D01*
X-906168Y-16649211D01*
X-874478Y-16653877D01*
X-837317Y-16653651D01*
X-801258Y-16652615D01*
X-784948Y-16649586D01*
X-783370Y-16643264D01*
X-791511Y-16632346D01*
X-800447Y-16618334D01*
X-792572Y-16612078D01*
X-788222Y-16611781D01*
X-777652Y-16600103D01*
X-789145Y-16572237D01*
X-806616Y-16560833D01*
X-833316Y-16558821D01*
X-856625Y-16565937D01*
X-864567Y-16580819D01*
X-867646Y-16590835D01*
X-888310Y-16598037D01*
X-913100Y-16603942D01*
X-928010Y-16621056D01*
X-1002425Y-16621056D01*
X-1002844Y-16612733D01*
X-1029452Y-16604315D01*
X-1082201Y-16605253D01*
X-1102205Y-16606806D01*
X-1135820Y-16607967D01*
X-1146101Y-16604592D01*
X-1136285Y-16596134D01*
X-1122758Y-16590962D01*
X-1078150Y-16585989D01*
X-1014206Y-16588272D01*
X-984959Y-16590470D01*
X-973384Y-16590746D01*
X-945890Y-16591401D01*
X-927711Y-16587367D01*
X-925858Y-16577826D01*
X-922721Y-16563434D01*
X-897492Y-16550483D01*
X-875140Y-16540439D01*
X-869343Y-16522578D01*
X-869483Y-16512537D01*
X-852838Y-16499369D01*
X-833316Y-16495587D01*
X-821590Y-16493316D01*
X-784049Y-16495459D01*
X-748527Y-16506876D01*
X-713680Y-16519324D01*
X-673382Y-16514505D01*
X-643716Y-16508573D01*
X-621730Y-16521573D01*
X-610348Y-16531974D01*
X-585540Y-16541873D01*
X-577441Y-16543171D01*
X-566198Y-16555914D01*
X-564523Y-16559472D01*
X-545464Y-16566826D01*
X-538803Y-16567475D01*
X-514440Y-16569849D01*
X-506129Y-16569356D01*
G37*
G36*
X4241373Y-16438444D02*
G01*
X4282480Y-16453110D01*
X4337342Y-16475577D01*
X4400597Y-16503790D01*
X4423263Y-16514214D01*
X4496144Y-16546285D01*
X4546072Y-16565291D01*
X4574381Y-16571573D01*
X4582402Y-16565470D01*
X4571469Y-16547322D01*
X4565750Y-16539088D01*
X4568822Y-16533035D01*
X4587732Y-16539767D01*
X4617590Y-16557155D01*
X4653508Y-16583068D01*
X4673463Y-16599576D01*
X4695204Y-16623335D01*
X4693079Y-16636299D01*
X4667550Y-16640351D01*
X4655877Y-16640742D01*
X4616102Y-16646358D01*
X4585204Y-16656441D01*
X4572774Y-16668176D01*
X4573082Y-16669541D01*
X4587999Y-16682161D01*
X4618407Y-16696932D01*
X4619076Y-16697198D01*
X4658191Y-16716020D01*
X4688611Y-16735914D01*
X4706801Y-16754328D01*
X4710099Y-16772397D01*
X4687529Y-16784002D01*
X4674780Y-16784127D01*
X4636909Y-16769372D01*
X4584742Y-16736263D01*
X4520932Y-16686777D01*
X4448132Y-16622891D01*
X4368993Y-16546582D01*
X4344331Y-16523915D01*
X4297639Y-16488391D01*
X4255760Y-16464279D01*
X4240208Y-16456914D01*
X4218662Y-16442557D01*
X4218065Y-16433888D01*
X4219383Y-16433633D01*
X4241373Y-16438444D01*
G37*
G36*
X213485Y-16725418D02*
G01*
X215412Y-16733766D01*
X213354Y-16735446D01*
X196691Y-16733766D01*
X194494Y-16729542D01*
X206052Y-16724405D01*
X213485Y-16725418D01*
G37*
G36*
X-201895Y-17019539D02*
G01*
X-187714Y-17026171D01*
X-200164Y-17039726D01*
X-205227Y-17041634D01*
X-222054Y-17033534D01*
X-223445Y-17026172D01*
X-208984Y-17019264D01*
X-201895Y-17019539D01*
G37*
G36*
X-3318662Y-17288723D02*
G01*
X-3320268Y-17301142D01*
X-3333214Y-17321735D01*
X-3339103Y-17327937D01*
X-3340675Y-17350646D01*
X-3338737Y-17360109D01*
X-3346738Y-17370287D01*
X-3352686Y-17368619D01*
X-3359893Y-17351063D01*
X-3355275Y-17322294D01*
X-3339724Y-17292235D01*
X-3331309Y-17281507D01*
X-3321166Y-17274035D01*
X-3318662Y-17288723D01*
G37*
G36*
X3127963Y-18873127D02*
G01*
X3131120Y-18874189D01*
X3170083Y-18893724D01*
X3182724Y-18917034D01*
X3182673Y-18919401D01*
X3178427Y-18931773D01*
X3163283Y-18938873D01*
X3131520Y-18942103D01*
X3077417Y-18942868D01*
X3067585Y-18942845D01*
X3019119Y-18941967D01*
X2985006Y-18940074D01*
X2972110Y-18937514D01*
X2974368Y-18934213D01*
X2992431Y-18917731D01*
X3022656Y-18893607D01*
X3038467Y-18881790D01*
X3066716Y-18865289D01*
X3092161Y-18863255D01*
X3127963Y-18873127D01*
G37*
G36*
X-588084Y-16405699D02*
G01*
X-599295Y-16422526D01*
X-614153Y-16434512D01*
X-636403Y-16443587D01*
X-642599Y-16439352D01*
X-631388Y-16422526D01*
X-616530Y-16410539D01*
X-594280Y-16401464D01*
X-588084Y-16405699D01*
G37*
G36*
X-1041658Y-17823516D02*
G01*
X-1029548Y-17833637D01*
X-1034653Y-17843758D01*
X-1056054Y-17846085D01*
X-1085712Y-17833637D01*
X-1091932Y-17829170D01*
X-1092674Y-17821907D01*
X-1068161Y-17819811D01*
X-1041658Y-17823516D01*
G37*
G36*
X1208974Y-15701644D02*
G01*
X1216997Y-15720040D01*
X1214613Y-15729222D01*
X1198285Y-15733480D01*
X1183271Y-15733963D01*
X1148788Y-15744417D01*
X1105953Y-15763277D01*
X1072713Y-15778541D01*
X1039496Y-15790129D01*
X1022986Y-15790906D01*
X1021887Y-15789211D01*
X1028533Y-15775916D01*
X1048961Y-15761430D01*
X1072780Y-15753546D01*
X1076535Y-15752650D01*
X1100679Y-15742854D01*
X1135702Y-15725995D01*
X1147329Y-15720241D01*
X1181533Y-15705377D01*
X1202397Y-15699419D01*
X1208974Y-15701644D01*
G37*
G36*
X-1643146Y-18545584D02*
G01*
X-1633307Y-18557572D01*
X-1633672Y-18558973D01*
X-1647348Y-18563764D01*
X-1651196Y-18563192D01*
X-1661389Y-18548894D01*
X-1660286Y-18543816D01*
X-1647348Y-18542702D01*
X-1643146Y-18545584D01*
G37*
G36*
X3098478Y-16155748D02*
G01*
X3091458Y-16162769D01*
X3084438Y-16155748D01*
X3091458Y-16148728D01*
X3098478Y-16155748D01*
G37*
G36*
X-990936Y-17578236D02*
G01*
X-979457Y-17584558D01*
X-975244Y-17602037D01*
X-994273Y-17617879D01*
X-1008395Y-17620526D01*
X-1040849Y-17618545D01*
X-1075506Y-17610729D01*
X-1102294Y-17599660D01*
X-1111137Y-17587921D01*
X-1110751Y-17587031D01*
X-1093514Y-17578541D01*
X-1060398Y-17573649D01*
X-1022504Y-17573249D01*
X-990936Y-17578236D01*
G37*
G36*
X3288443Y-17230891D02*
G01*
X3290371Y-17239238D01*
X3288313Y-17240919D01*
X3271650Y-17239238D01*
X3269453Y-17235015D01*
X3281010Y-17229878D01*
X3288443Y-17230891D01*
G37*
G36*
X4539354Y-19421000D02*
G01*
X4542665Y-19428327D01*
X4522901Y-19439657D01*
X4511949Y-19442118D01*
X4509689Y-19434139D01*
X4512440Y-19430457D01*
X4531480Y-19420259D01*
X4539354Y-19421000D01*
G37*
G36*
X-3332257Y-17391348D02*
G01*
X-3339277Y-17398369D01*
X-3346298Y-17391348D01*
X-3339277Y-17384328D01*
X-3332257Y-17391348D01*
G37*
G36*
X3781389Y-19635986D02*
G01*
X3783592Y-19640414D01*
X3766556Y-19647503D01*
X3733638Y-19655589D01*
X3688197Y-19663005D01*
X3663210Y-19665711D01*
X3642797Y-19665080D01*
X3648569Y-19657906D01*
X3658439Y-19653709D01*
X3694559Y-19644403D01*
X3739835Y-19637402D01*
X3756586Y-19635885D01*
X3781389Y-19635986D01*
G37*
G36*
X598437Y-18886979D02*
G01*
X612617Y-18893612D01*
X600167Y-18907166D01*
X595105Y-18909074D01*
X578277Y-18900975D01*
X576887Y-18893613D01*
X591348Y-18886705D01*
X598437Y-18886979D01*
G37*
G36*
X281661Y-17682914D02*
G01*
X319192Y-17693663D01*
X338956Y-17709459D01*
X334068Y-17725278D01*
X328770Y-17729195D01*
X305267Y-17730085D01*
X265866Y-17713984D01*
X245715Y-17703698D01*
X226052Y-17691813D01*
X228467Y-17686100D01*
X250990Y-17682369D01*
X281661Y-17682914D01*
G37*
G36*
X1287202Y-15664317D02*
G01*
X1280181Y-15671337D01*
X1273161Y-15664317D01*
X1280181Y-15657296D01*
X1287202Y-15664317D01*
G37*
G36*
X4719119Y-19234302D02*
G01*
X4722592Y-19241419D01*
X4714928Y-19257711D01*
X4694595Y-19265809D01*
X4689083Y-19266620D01*
X4661151Y-19276638D01*
X4624278Y-19294423D01*
X4596786Y-19307283D01*
X4542685Y-19327708D01*
X4486496Y-19344657D01*
X4447681Y-19356553D01*
X4403114Y-19375260D01*
X4375110Y-19393269D01*
X4351577Y-19410857D01*
X4323548Y-19420320D01*
X4322094Y-19420377D01*
X4295278Y-19426111D01*
X4251926Y-19439411D01*
X4200690Y-19457646D01*
X4186844Y-19462737D01*
X4090328Y-19488848D01*
X3983056Y-19500696D01*
X3962951Y-19501844D01*
X3909752Y-19506676D01*
X3869744Y-19512924D01*
X3850369Y-19519534D01*
X3843194Y-19523485D01*
X3812688Y-19530009D01*
X3770462Y-19532586D01*
X3749223Y-19533295D01*
X3713274Y-19538353D01*
X3695187Y-19546676D01*
X3693872Y-19547715D01*
X3672311Y-19551969D01*
X3629188Y-19555363D01*
X3569842Y-19557852D01*
X3499615Y-19559388D01*
X3423848Y-19559927D01*
X3347882Y-19559422D01*
X3277057Y-19557826D01*
X3216713Y-19555095D01*
X3172193Y-19551182D01*
X3136586Y-19543573D01*
X3115116Y-19527939D01*
X3120798Y-19505257D01*
X3153509Y-19475040D01*
X3181197Y-19447778D01*
X3186545Y-19421966D01*
X3183833Y-19408295D01*
X3194266Y-19413508D01*
X3208305Y-19417710D01*
X3246414Y-19420337D01*
X3301826Y-19420300D01*
X3368645Y-19417905D01*
X3440972Y-19413456D01*
X3512911Y-19407259D01*
X3578563Y-19399619D01*
X3632033Y-19390842D01*
X3698250Y-19377442D01*
X3777075Y-19361834D01*
X3835883Y-19350725D01*
X3879121Y-19343259D01*
X3888912Y-19341459D01*
X3934454Y-19330176D01*
X3982682Y-19315084D01*
X4026461Y-19304531D01*
X4103727Y-19296205D01*
X4205965Y-19292966D01*
X4315365Y-19289315D01*
X4441006Y-19278580D01*
X4559235Y-19261964D01*
X4659826Y-19240646D01*
X4669213Y-19238322D01*
X4702124Y-19232809D01*
X4719119Y-19234302D01*
G37*
G36*
X3801467Y-18740129D02*
G01*
X3819246Y-18759017D01*
X3828606Y-18776060D01*
X3827681Y-18780931D01*
X3807162Y-18798420D01*
X3761346Y-18813085D01*
X3692400Y-18824161D01*
X3645887Y-18828620D01*
X3617402Y-18827634D01*
X3601236Y-18819239D01*
X3589513Y-18801718D01*
X3584251Y-18791164D01*
X3581001Y-18768845D01*
X3598594Y-18750363D01*
X3619133Y-18739776D01*
X3653025Y-18734221D01*
X3653214Y-18734241D01*
X3686753Y-18733184D01*
X3727752Y-18726432D01*
X3734867Y-18724879D01*
X3772512Y-18723609D01*
X3801467Y-18740129D01*
G37*
G36*
X2656862Y-17951299D02*
G01*
X2665654Y-17955774D01*
X2677786Y-17974785D01*
X2668976Y-17993607D01*
X2642149Y-18002128D01*
X2619278Y-17997943D01*
X2607047Y-17981895D01*
X2608724Y-17970528D01*
X2626750Y-17950771D01*
X2656862Y-17951299D01*
G37*
G36*
X-291988Y-16374396D02*
G01*
X-290060Y-16382743D01*
X-292118Y-16384423D01*
X-308782Y-16382743D01*
X-310978Y-16378520D01*
X-299421Y-16373382D01*
X-291988Y-16374396D01*
G37*
G36*
X6081381Y-16466288D02*
G01*
X6094613Y-16475144D01*
X6089338Y-16492553D01*
X6083836Y-16512497D01*
X6100216Y-16541635D01*
X6107048Y-16553580D01*
X6118177Y-16595832D01*
X6124437Y-16654258D01*
X6125817Y-16721016D01*
X6122310Y-16788269D01*
X6113908Y-16848175D01*
X6100600Y-16892896D01*
X6098269Y-16898017D01*
X6080269Y-16938444D01*
X6066765Y-16970121D01*
X6065762Y-16972476D01*
X6058786Y-16979341D01*
X6053083Y-16962984D01*
X6047710Y-16920978D01*
X6043216Y-16889074D01*
X6034901Y-16858108D01*
X6026007Y-16847720D01*
X6022793Y-16847088D01*
X6013015Y-16828833D01*
X6003579Y-16790997D01*
X5995245Y-16739948D01*
X5988775Y-16682049D01*
X5984929Y-16623667D01*
X5984468Y-16571167D01*
X5988152Y-16530914D01*
X5997960Y-16508409D01*
X6019435Y-16506913D01*
X6034712Y-16508906D01*
X6053736Y-16500322D01*
X6053409Y-16491251D01*
X6033857Y-16485710D01*
X6016741Y-16482966D01*
X6004946Y-16471669D01*
X6004992Y-16470781D01*
X6017959Y-16460101D01*
X6046863Y-16458361D01*
X6081381Y-16466288D01*
G37*
G36*
X-609688Y-16474073D02*
G01*
X-588488Y-16488246D01*
X-582101Y-16497433D01*
X-597790Y-16499536D01*
X-602278Y-16499247D01*
X-627280Y-16491127D01*
X-645884Y-16477144D01*
X-647894Y-16464439D01*
X-635148Y-16463178D01*
X-609688Y-16474073D01*
G37*
G36*
X714643Y-18271871D02*
G01*
X725500Y-18285879D01*
X712791Y-18303224D01*
X707854Y-18305432D01*
X685685Y-18304989D01*
X666685Y-18295182D01*
X663290Y-18281474D01*
X671917Y-18274644D01*
X698312Y-18268905D01*
X714643Y-18271871D01*
G37*
G36*
X475164Y-18946777D02*
G01*
X486870Y-18963930D01*
X486140Y-18976768D01*
X477842Y-18984047D01*
X452916Y-18976468D01*
X434499Y-18964536D01*
X434538Y-18949700D01*
X458788Y-18942868D01*
X475164Y-18946777D01*
G37*
G36*
X6510419Y-18184659D02*
G01*
X6509405Y-18192093D01*
X6501058Y-18194020D01*
X6499378Y-18191962D01*
X6501058Y-18175299D01*
X6505281Y-18173102D01*
X6510419Y-18184659D01*
G37*
G36*
X6058153Y-17091042D02*
G01*
X6074681Y-17121239D01*
X6075190Y-17122608D01*
X6090399Y-17160184D01*
X6103585Y-17187755D01*
X6108500Y-17199770D01*
X6109446Y-17227516D01*
X6106386Y-17240238D01*
X6103232Y-17273149D01*
X6102446Y-17283697D01*
X6092819Y-17298923D01*
X6076880Y-17291731D01*
X6060532Y-17263461D01*
X6056125Y-17253502D01*
X6033986Y-17215842D01*
X6005104Y-17176487D01*
X5985647Y-17151677D01*
X5970970Y-17126649D01*
X5977007Y-17119880D01*
X6003744Y-17130948D01*
X6013594Y-17135905D01*
X6029459Y-17137783D01*
X6033028Y-17118873D01*
X6033942Y-17104521D01*
X6043034Y-17085382D01*
X6058153Y-17091042D01*
G37*
X14260000Y-27813000D02*
X14260000Y-27163000D01*
X11140000Y-27813000D02*
X11140000Y-28463000D01*
X14260000Y-27813000D02*
X14260000Y-28463000D01*
X11140000Y-27813000D02*
X11140000Y-26138000D01*
D12*
X-3750000Y-70000D02*
X-3750000Y180000D01*
X-1850000Y-4120000D02*
X-1700000Y-4120000D01*
X-3750000Y180000D02*
X3750000Y180000D01*
X3750000Y180000D02*
X3750000Y-70000D01*
X1700000Y-4120000D02*
X1850000Y-4120000D01*
D13*
X1400000Y-5270000D02*
G75*
G03*
X1400000Y-5270000I-100000J0D01*
G01*
D10*
X2570000Y-7582000D02*
X2570000Y-11722000D01*
X-2570000Y-6652000D02*
X-2570000Y-11722000D01*
D11*
X12445276Y-29957500D02*
X12954724Y-29957500D01*
X12445276Y-31002500D02*
X12954724Y-31002500D01*
X5334724Y-31002500D02*
X4825276Y-31002500D01*
X5334724Y-29957500D02*
X4825276Y-29957500D01*
X6640000Y-27813000D02*
X6640000Y-27163000D01*
X3520000Y-27813000D02*
X3520000Y-28463000D01*
X6640000Y-27813000D02*
X6640000Y-28463000D01*
X3520000Y-27813000D02*
X3520000Y-26138000D01*
X-6604724Y-24623500D02*
X-6095276Y-24623500D01*
X-6604724Y-25668500D02*
X-6095276Y-25668500D01*
X-10414724Y-25668500D02*
X-9905276Y-25668500D01*
X-10414724Y-24623500D02*
X-9905276Y-24623500D01*
X-6095276Y-31002500D02*
X-6604724Y-31002500D01*
X-6095276Y-29957500D02*
X-6604724Y-29957500D01*
X3046000Y-11830267D02*
X3046000Y-11537733D01*
X4066000Y-11830267D02*
X4066000Y-11537733D01*
%LPC*%
D14*
X1270000Y-38466000D03*
D15*
X1270000Y-35926000D03*
X1270000Y-33386000D03*
D16*
X10160000Y-21717000D03*
D17*
X10160000Y-22987000D03*
D14*
X-2540000Y-38466000D03*
D15*
X-2540000Y-35926000D03*
X-2540000Y-33386000D03*
D18*
X-15000000Y-37000000D03*
X-15000000Y-3000000D03*
X15000000Y-3000000D03*
D16*
X11277600Y-4470400D03*
D17*
X11277600Y-5740400D03*
X11277600Y-7010400D03*
X11277600Y-8280400D03*
D14*
X5080000Y-38466000D03*
D15*
X5080000Y-35926000D03*
X5080000Y-33386000D03*
D18*
X15000000Y-37000000D03*
D14*
X10160000Y-38466000D03*
D15*
X10160000Y-35926000D03*
X10160000Y-33386000D03*
D14*
X-6350000Y-38466000D03*
D15*
X-6350000Y-35926000D03*
X-6350000Y-33386000D03*
D14*
X-10160000Y-38466000D03*
D15*
X-10160000Y-35926000D03*
X-10160000Y-33386000D03*
D19*
X-9247500Y-30480000D03*
X-11072500Y-30480000D03*
D20*
X7940000Y-26875500D03*
X9840000Y-26875500D03*
X8890000Y-28750500D03*
D19*
X2182500Y-30480000D03*
X357500Y-30480000D03*
D21*
X7977500Y-25146000D03*
X9802500Y-25146000D03*
D22*
X3402500Y-5588000D03*
X1677500Y-5588000D03*
D21*
X-3452500Y-25146000D03*
X-1627500Y-25146000D03*
D19*
X13612500Y-25146000D03*
X11787500Y-25146000D03*
D21*
X357500Y-25146000D03*
X2182500Y-25146000D03*
D20*
X-3490000Y-26875500D03*
X-1590000Y-26875500D03*
X-2540000Y-28750500D03*
D23*
X-3761500Y-9718000D03*
X-3761500Y-11618000D03*
X-5636500Y-10668000D03*
D20*
X-7300000Y-26875500D03*
X-5400000Y-26875500D03*
X-6350000Y-28750500D03*
D19*
X9802500Y-30480000D03*
X7977500Y-30480000D03*
X-1627500Y-30480000D03*
X-3452500Y-30480000D03*
D20*
X-11110000Y-26875500D03*
X-9210000Y-26875500D03*
X-10160000Y-28750500D03*
D21*
X4167500Y-25146000D03*
X5992500Y-25146000D03*
D20*
X320000Y-26875500D03*
X2220000Y-26875500D03*
X1270000Y-28750500D03*
D23*
X-3761500Y-6289000D03*
X-3761500Y-8189000D03*
X-5636500Y-7239000D03*
D20*
X11750000Y-26875500D03*
X13650000Y-26875500D03*
X12700000Y-28750500D03*
D24*
X1300000Y-3945000D03*
X650000Y-3945000D03*
X0Y-3945000D03*
X-650000Y-3945000D03*
X-1300000Y-3945000D03*
D25*
X-3100000Y-3620000D03*
X3100000Y-3620000D03*
D26*
X4100000Y-1270000D03*
D27*
X850000Y-1270000D03*
X-850000Y-1270000D03*
D26*
X-4100000Y-1270000D03*
D28*
X-2000000Y-7102000D03*
X-1000000Y-7102000D03*
X0Y-7102000D03*
X1000000Y-7102000D03*
X2000000Y-7102000D03*
X2000000Y-12202000D03*
X1000000Y-12202000D03*
X0Y-12202000D03*
X-1000000Y-12202000D03*
X-2000000Y-12202000D03*
D21*
X11787500Y-30480000D03*
X13612500Y-30480000D03*
D19*
X5992500Y-30480000D03*
X4167500Y-30480000D03*
D20*
X4130000Y-26875500D03*
X6030000Y-26875500D03*
X5080000Y-28750500D03*
D21*
X-7262500Y-25146000D03*
X-5437500Y-25146000D03*
X-11072500Y-25146000D03*
X-9247500Y-25146000D03*
D19*
X-5437500Y-30480000D03*
X-7262500Y-30480000D03*
D29*
X3556000Y-12546500D03*
X3556000Y-10821500D03*
M02*
