M48
; DRILL file {KiCad (6.0.1)} date Thu Jul 28 15:49:37 2022
; FORMAT={-:-/ absolute / metric / decimal}
; #@! TF.CreationDate,2022-07-28T15:49:37+09:00
; #@! TF.GenerationSoftware,Kicad,Pcbnew,(6.0.1)
; #@! TF.FileFunction,MixedPlating,1,2
FMAT,2
METRIC
; #@! TA.AperFunction,Plated,PTH,ViaDrill
T1C0.300
; #@! TA.AperFunction,Plated,PTH,ViaDrill
T2C0.400
; #@! TA.AperFunction,Plated,PTH,ComponentDrill
T3C0.650
; #@! TA.AperFunction,Plated,PTH,ComponentDrill
T4C1.000
; #@! TA.AperFunction,NonPlated,NPTH,ComponentDrill
T5C2.200
%
G90
G05
T1
X-14.351Y-6.223
X-14.351Y-11.557
X-14.351Y-16.891
X-14.351Y-22.479
X-14.351Y-24.384
X-14.351Y-28.575
X-14.351Y-33.782
X-14.275Y-30.734
X-12.827Y-39.243
X-12.802Y-35.357
X-12.7Y-4.623
X-12.7Y-18.669
X-11.938Y-0.635
X-11.887Y-20.015
X-11.735Y-15.799
X-11.684Y-6.223
X-11.684Y-11.557
X-11.557Y-16.764
X-11.114Y-27.37
X-10.668Y-21.209
X-10.541Y-4.445
X-10.16Y-22.352
X-9.831Y-18.731
X-9.398Y-20.574
X-9.144Y-10.287
X-9.144Y-11.557
X-8.907Y-12.827
X-8.509Y-1.397
X-8.509Y-3.937
X-8.507Y-14.097
X-8.331Y-23.216
X-8.108Y-15.367
X-7.264Y-21.946
X-7.264Y-28.054
X-7.204Y-20.828
X-6.985Y-7.239
X-6.858Y-4.445
X-6.858Y-14.122
X-6.858Y-16.891
X-6.731Y-12.192
X-5.969Y-0.635
X-5.461Y-18.288
X-5.385Y-13.411
X-5.207Y-5.969
X-4.953Y-3.048
X-4.064Y-14.859
X-4.064Y-17.272
X-3.454Y-27.178
X-3.302Y-21.071
X-2.438Y-11.074
X-2.413Y-14.732
X-2.388Y-8.839
X-1.524Y-22.352
X-1.397Y-5.207
X-1.321Y-11.074
X-1.016Y-9.652
X-0.254Y-15.088
X0.0Y-7.061
X0.0Y-22.352
X0.357Y-27.075
X0.66Y-8.992
X0.762Y-16.764
X1.372Y-8.28
X1.651Y-5.588
X2.921Y-8.763
X3.302Y-12.573
X3.353Y-16.764
X3.429Y-5.588
X3.556Y-21.336
X3.556Y-22.733
X4.167Y-27.075
X4.318Y-14.097
X4.369Y-14.986
X4.572Y-6.985
X4.775Y-20.472
X4.826Y-3.048
X5.182Y-9.703
X5.385Y-23.52
X5.715Y-0.635
X5.969Y-13.97
X6.223Y-16.764
X6.502Y-15.138
X6.909Y-7.518
X6.909Y-11.532
X7.112Y-19.304
X7.112Y-21.59
X7.112Y-23.876
X7.874Y-5.207
X7.874Y-6.477
X7.978Y-25.019
X7.978Y-27.075
X8.427Y-15.385
X8.444Y-16.637
X8.509Y-1.397
X8.992Y-2.692
X9.144Y-11.557
X10.033Y-18.796
X10.109Y-8.433
X10.109Y-10.109
X10.16Y-20.447
X10.211Y-17.17
X10.465Y-0.559
X10.922Y-10.973
X11.125Y-14.529
X11.303Y-22.86
X11.786Y-18.39
X11.836Y-20.879
X11.977Y-15.339
X12.065Y-34.671
X12.294Y-13.208
X12.319Y-31.623
X12.446Y-17.653
X12.649Y-27.381
X12.7Y-28.702
X12.7Y-39.243
X12.827Y-26.162
X12.903Y-30.023
X13.167Y-15.646
X13.31Y-0.61
X13.335Y-22.479
X13.411Y-11.074
X13.462Y-13.208
X14.224Y-14.605
X14.224Y-24.003
X14.351Y-21.844
X14.351Y-26.162
X14.351Y-30.48
X14.351Y-33.782
X14.63Y-5.486
T2
X-12.852Y-24.282
X-2.489Y-22.873
T3
X10.16Y-21.717
X10.16Y-22.987
X11.278Y-4.47
X11.278Y-5.74
X11.278Y-7.01
X11.278Y-8.28
T4
X-10.16Y-33.386
X-10.16Y-35.926
X-10.16Y-38.466
X-6.35Y-33.386
X-6.35Y-35.926
X-6.35Y-38.466
X-2.54Y-33.386
X-2.54Y-35.926
X-2.54Y-38.466
X1.27Y-33.386
X1.27Y-35.926
X1.27Y-38.466
X5.08Y-33.386
X5.08Y-35.926
X5.08Y-38.466
X10.16Y-33.386
X10.16Y-35.926
X10.16Y-38.466
T5
X-15.0Y-3.0
X-15.0Y-37.0
X15.0Y-3.0
X15.0Y-37.0
T0
M30
